<svg width="528" height="432" viewBox="0 0 528 432" fill="none" xmlns="http://www.w3.org/2000/svg">
<path d="M271.152 110.346H268.96V50.209C268.96 40.9779 265.293 32.1248 258.766 25.5975C252.238 19.0701 243.385 15.403 234.154 15.403H106.742C97.5109 15.403 88.6578 19.0701 82.1304 25.5975C75.6031 32.1248 71.936 40.9779 71.936 50.209V380.126C71.936 389.357 75.6031 398.21 82.1304 404.738C88.6578 411.265 97.5109 414.932 106.742 414.932H234.152C243.383 414.932 252.236 411.265 258.764 404.738C265.291 398.21 268.958 389.357 268.958 380.126V153.153H271.15L271.152 110.346Z" fill="#202020"/>
<path d="M261.861 47.878V382.456C261.859 389.454 259.079 396.165 254.132 401.114C249.185 406.063 242.475 408.846 235.477 408.85H105.447C101.98 408.851 98.546 408.169 95.3423 406.842C92.1386 405.516 89.2276 403.571 86.7755 401.12C84.3234 398.668 82.3783 395.758 81.0512 392.554C79.7241 389.351 79.041 385.917 79.041 382.45V47.878C79.0426 40.8773 81.8247 34.1639 86.7755 29.2143C91.7263 24.2646 98.4403 21.484 105.441 21.484H121.214C120.439 23.3891 120.144 25.4554 120.355 27.5011C120.566 29.5469 121.277 31.5094 122.424 33.2162C123.572 34.9229 125.121 36.3216 126.936 37.2891C128.751 38.2567 130.775 38.7635 132.832 38.765H206.962C209.018 38.7625 211.042 38.255 212.856 37.287C214.67 36.3191 216.219 34.9203 217.365 33.2137C218.512 31.5071 219.222 29.5449 219.433 27.4996C219.644 25.4543 219.349 23.3886 218.574 21.484H235.474C242.472 21.4859 249.182 24.2659 254.131 29.2132C259.08 34.1605 261.863 40.8703 261.867 47.868L261.861 47.878Z" fill="white"/>
<path d="M231.677 337.072H111.594C107.275 337.067 103.134 335.349 100.08 332.296C97.0266 329.242 95.3088 325.101 95.304 320.782V151.853C95.326 132.132 103.17 113.225 117.115 99.2795C131.06 85.3344 149.967 77.4903 169.688 77.468H231.676C235.995 77.4733 240.135 79.1915 243.189 82.2456C246.242 85.2997 247.96 89.4403 247.964 93.759V320.782C247.959 325.101 246.242 329.241 243.188 332.295C240.134 335.349 235.994 337.067 231.675 337.072H231.677Z" fill="#E6E6E6"/>
<path d="M104.401 377.736C109.176 377.736 113.046 373.866 113.046 369.091C113.046 364.317 109.176 360.446 104.401 360.446C99.6265 360.446 95.756 364.317 95.756 369.091C95.756 373.866 99.6265 377.736 104.401 377.736Z" fill="#E6E6E6"/>
<path d="M239.039 377.736C243.813 377.736 247.684 373.866 247.684 369.091C247.684 364.317 243.813 360.446 239.039 360.446C234.264 360.446 230.394 364.317 230.394 369.091C230.394 373.866 234.264 377.736 239.039 377.736Z" fill="#E6E6E6"/>
<path d="M240.212 336.74L234.852 342.581L209.77 324.688L217.68 316.068L240.212 336.74Z" fill="#FFB6B6"/>
<path d="M247.239 340.445L229.959 359.28L229.721 359.061C227.778 357.277 226.623 354.793 226.51 352.157C226.398 349.521 227.337 346.949 229.121 345.005L229.668 339.17L238.168 335.147L239.677 333.503L247.239 340.445Z" fill="#2F2E41"/>
<path d="M243.715 401.915H235.789L232.018 371.341H243.718L243.715 401.915Z" fill="#FFB6B6"/>
<path d="M245.737 409.598H220.178V409.275C220.178 406.637 221.226 404.107 223.092 402.241C224.957 400.376 227.487 399.328 230.125 399.327L234.794 395.785L243.505 399.328H245.736L245.737 409.598Z" fill="#2F2E41"/>
<path d="M205.438 247.573C205.438 247.573 157.015 294.325 187.627 308.797H197.089C199.146 302.112 202.307 295.818 206.442 290.177C207.336 289.007 210.685 289.245 211.615 288.105C217.294 281.144 223.45 275.165 227.701 275.405L230.484 307.687L229.111 317.148C228.246 323.106 228.473 329.172 229.782 335.048L228.814 372.811L245.792 372.821C245.792 372.821 246.478 363.971 247.052 352.902C247.206 349.937 248.481 347.87 248.603 344.714C248.896 337.147 247.925 328.339 247.738 322.163L260.538 254.263L205.438 247.573Z" fill="#202020"/>
<path d="M227.803 148.514L219.903 159.076L200.979 170.207L212.11 199.149L212.532 220.683L211.496 223.283L212.666 227.537C212.25 230.664 211.076 233.642 209.247 236.212C204.214 242.675 196.528 249.699 204.317 251.47C216.562 254.253 259.975 260.375 262.201 255.37C262.971 253.637 262.875 246.31 262.421 237.47C262.336 235.816 260.509 234.017 260.403 232.284C260.323 230.984 261.967 229.76 261.878 228.442C260.885 213.742 259.419 198.602 259.419 198.602L263.776 158.08L246.349 153.58L244.393 148.592L227.803 148.514Z" fill="#EB9D6C"/>
<path d="M185.302 306.019L187.89 309.289C187.89 309.289 211.69 325.943 212.512 327.499L216.274 331.059L225.374 321.329L220.64 315.396C216.852 310.648 211.957 306.901 206.385 304.483L199.13 298.047L185.302 306.019Z" fill="#2F2E41"/>
<path d="M200.426 259.278L204.761 217.32L205.905 200.051L193.772 197.857C193.772 197.857 191.955 209.728 190.366 216.695C188.797 223.57 192.456 258.357 192.553 259.274C191.663 260.071 191.037 261.119 190.756 262.28C190.475 263.441 190.553 264.66 190.979 265.776C191.406 266.892 192.161 267.851 193.145 268.529C194.129 269.206 195.296 269.568 196.49 269.568C197.684 269.568 198.851 269.206 199.835 268.529C200.819 267.851 201.574 266.892 202.001 265.776C202.427 264.66 202.505 263.441 202.224 262.28C201.943 261.119 201.317 260.071 200.427 259.274L200.426 259.278Z" fill="#FFB9B9"/>
<path d="M184.751 224.369L205.696 229.686L205.55 223.807L207.14 222.121L210.316 205.483L214.873 195.737L213.688 162.407L202.115 168.542L202.101 168.553C200.08 170.777 198.389 173.28 197.082 175.985C192.719 184.855 188.528 204.392 186.334 215.74C186.258 215.977 186.113 216.186 185.917 216.34C184.829 217.339 184.118 218.683 183.906 220.145C183.694 221.607 183.993 223.098 184.752 224.365L184.751 224.369Z" fill="#F2D6A6"/>
<path d="M309.137 235.084C309.137 235.084 283.637 208.202 283.401 207.695C281.62 194.169 276.501 188.203 275.729 188.85L262.507 193.431C262.507 193.431 266.44 205.885 269.107 213.283C271.652 220.352 300.977 237.617 301.466 238.47C300.94 239.63 300.779 240.923 301.004 242.176C301.229 243.43 301.83 244.586 302.726 245.491C303.622 246.396 304.772 247.007 306.023 247.245C307.275 247.482 308.569 247.333 309.734 246.819C310.899 246.305 311.881 245.449 312.549 244.364C313.217 243.28 313.54 242.018 313.475 240.746C313.411 239.474 312.961 238.251 312.186 237.24C311.412 236.229 310.348 235.477 309.137 235.084Z" fill="#FFB9B9"/>
<path d="M251.826 158.997C251.826 158.997 264.806 152.636 269.84 165.13C272.6 172.183 279.658 189.301 283.176 199.839C283.201 199.906 283.234 199.97 283.276 200.028C284.217 201.426 284.725 203.07 284.736 204.755C284.735 204.878 284.747 205 284.774 205.12C284.774 205.12 270.511 207.899 266.268 215.375L264.585 213.549L264.285 212.27L251.979 179.434L251.826 158.997Z" fill="#F2D6A6"/>
<path d="M463.794 209.987H311.83C310.476 209.985 309.178 209.447 308.221 208.489C307.263 207.532 306.725 206.234 306.723 204.88V182.624C306.725 181.27 307.263 179.972 308.221 179.015C309.178 178.057 310.476 177.519 311.83 177.517H463.794C465.148 177.519 466.446 178.057 467.403 179.015C468.361 179.972 468.899 181.27 468.901 182.624V204.88C468.899 206.234 468.361 207.532 467.403 208.489C466.446 209.447 465.148 209.985 463.794 209.987Z" fill="#E6E6E6"/>
<path d="M449.028 206.543H315.276C313.922 206.541 312.624 206.003 311.667 205.045C310.709 204.088 310.171 202.79 310.169 201.436V186.072C310.171 184.718 310.709 183.42 311.667 182.463C312.624 181.505 313.922 180.967 315.276 180.965H460.348C461.702 180.967 463 181.505 463.957 182.463C464.915 183.42 465.453 184.718 465.455 186.072V190.116C465.45 194.471 463.718 198.647 460.638 201.726C457.559 204.806 453.383 206.538 449.028 206.543Z" fill="white"/>
<path d="M402.889 192.169H341.814C341.465 192.169 341.13 192.03 340.883 191.783C340.636 191.536 340.497 191.201 340.497 190.852C340.497 190.503 340.636 190.168 340.883 189.921C341.13 189.674 341.465 189.535 341.814 189.535H402.889C403.238 189.535 403.573 189.674 403.82 189.921C404.067 190.168 404.206 190.503 404.206 190.852C404.206 191.201 404.067 191.536 403.82 191.783C403.573 192.03 403.238 192.169 402.889 192.169Z" fill="#F37022"/>
<path d="M433.81 197.556H341.81C341.461 197.556 341.126 197.417 340.879 197.17C340.632 196.923 340.493 196.588 340.493 196.239C340.493 195.89 340.632 195.555 340.879 195.308C341.126 195.061 341.461 194.922 341.81 194.922H433.81C434.159 194.922 434.494 195.061 434.741 195.308C434.988 195.555 435.127 195.89 435.127 196.239C435.127 196.588 434.988 196.923 434.741 197.17C434.494 197.417 434.159 197.556 433.81 197.556Z" fill="#E6E6E6"/>
<path d="M463.794 257.208H311.83C310.476 257.206 309.178 256.668 308.221 255.71C307.263 254.753 306.725 253.455 306.723 252.101V229.845C306.725 228.491 307.263 227.193 308.221 226.236C309.178 225.278 310.476 224.74 311.83 224.738H463.794C465.148 224.74 466.446 225.278 467.403 226.236C468.361 227.193 468.899 228.491 468.901 229.845V252.101C468.899 253.455 468.361 254.753 467.403 255.71C466.446 256.668 465.148 257.206 463.794 257.208Z" fill="#E6E6E6"/>
<path d="M449.028 253.764H315.276C313.922 253.762 312.624 253.224 311.667 252.266C310.709 251.309 310.171 250.011 310.169 248.657V233.293C310.171 231.939 310.709 230.641 311.667 229.684C312.624 228.726 313.922 228.188 315.276 228.186H460.348C461.702 228.188 463 228.726 463.957 229.684C464.915 230.641 465.453 231.939 465.455 233.293V237.336C465.45 241.691 463.718 245.867 460.638 248.947C457.559 252.027 453.383 253.759 449.028 253.764Z" fill="white"/>
<path d="M402.889 239.39H341.814C341.465 239.39 341.13 239.251 340.883 239.004C340.636 238.757 340.497 238.422 340.497 238.073C340.497 237.724 340.636 237.389 340.883 237.142C341.13 236.895 341.465 236.756 341.814 236.756H402.889C403.238 236.756 403.573 236.895 403.82 237.142C404.067 237.389 404.206 237.724 404.206 238.073C404.206 238.422 404.067 238.757 403.82 239.004C403.573 239.251 403.238 239.39 402.889 239.39Z" fill="#F37022"/>
<path d="M433.81 244.777H341.81C341.461 244.777 341.126 244.638 340.879 244.391C340.632 244.144 340.493 243.809 340.493 243.46C340.493 243.111 340.632 242.776 340.879 242.529C341.126 242.282 341.461 242.143 341.81 242.143H433.81C434.159 242.143 434.494 242.282 434.741 242.529C434.988 242.776 435.127 243.111 435.127 243.46C435.127 243.809 434.988 244.144 434.741 244.391C434.494 244.638 434.159 244.777 433.81 244.777Z" fill="#E6E6E6"/>
<path d="M463.794 304.429H311.83C310.476 304.427 309.178 303.889 308.221 302.931C307.263 301.974 306.725 300.676 306.723 299.322V277.066C306.725 275.712 307.263 274.414 308.221 273.457C309.178 272.499 310.476 271.961 311.83 271.959H463.794C465.148 271.961 466.446 272.499 467.403 273.457C468.361 274.414 468.899 275.712 468.901 277.066V299.322C468.899 300.676 468.361 301.974 467.403 302.931C466.446 303.889 465.148 304.427 463.794 304.429Z" fill="#E6E6E6"/>
<path d="M449.028 300.985H315.276C313.922 300.983 312.624 300.445 311.667 299.487C310.709 298.53 310.171 297.232 310.169 295.878V280.514C310.171 279.16 310.709 277.862 311.667 276.905C312.624 275.947 313.922 275.409 315.276 275.407H460.348C461.702 275.409 463 275.947 463.957 276.905C464.915 277.862 465.453 279.16 465.455 280.514V284.558C465.45 288.913 463.718 293.089 460.638 296.168C457.559 299.248 453.383 300.98 449.028 300.985Z" fill="white"/>
<path d="M402.889 286.61H341.814C341.465 286.61 341.13 286.471 340.883 286.224C340.636 285.977 340.497 285.642 340.497 285.293C340.497 284.944 340.636 284.609 340.883 284.362C341.13 284.115 341.465 283.976 341.814 283.976H402.889C403.238 283.976 403.573 284.115 403.82 284.362C404.067 284.609 404.206 284.944 404.206 285.293C404.206 285.642 404.067 285.977 403.82 286.224C403.573 286.471 403.238 286.61 402.889 286.61Z" fill="#F37022"/>
<path d="M433.81 291.998H341.81C341.461 291.998 341.126 291.859 340.879 291.612C340.632 291.365 340.493 291.03 340.493 290.681C340.493 290.332 340.632 289.997 340.879 289.75C341.126 289.503 341.461 289.364 341.81 289.364H433.81C434.159 289.364 434.494 289.503 434.741 289.75C434.988 289.997 435.127 290.332 435.127 290.681C435.127 291.03 434.988 291.365 434.741 291.612C434.494 291.859 434.159 291.998 433.81 291.998Z" fill="#E6E6E6"/>
<path d="M236.123 145.124C244.9 145.124 252.016 138.008 252.016 129.231C252.016 120.454 244.9 113.338 236.123 113.338C227.346 113.338 220.23 120.454 220.23 129.231C220.23 138.008 227.346 145.124 236.123 145.124Z" fill="#FFB9B9"/>
<path d="M224.436 139.453C224.246 139.454 224.056 139.423 223.876 139.363C223.167 139.052 222.574 138.525 222.182 137.857C219.446 133.922 218.124 128.674 218.255 122.257C218.31 119.544 218.618 116.075 220.518 113.31C222.118 110.985 225.348 109.14 228.36 110.066C228.326 109.464 228.459 108.864 228.746 108.333C229.033 107.802 229.461 107.361 229.984 107.06C231.138 106.467 232.413 106.145 233.71 106.119C236.801 105.682 239.939 105.682 243.03 106.119C244.6 106.349 246.104 106.905 247.446 107.751C248.788 108.597 249.938 109.714 250.822 111.031L250.852 111.108L251.152 112.567C251.192 112.763 251.275 112.948 251.394 113.109C251.512 113.271 251.665 113.404 251.84 113.501C252.015 113.598 252.21 113.655 252.409 113.67C252.609 113.684 252.81 113.655 252.997 113.585C253.202 113.508 253.423 113.486 253.639 113.52C253.854 113.555 254.058 113.645 254.228 113.782C254.398 113.919 254.53 114.098 254.61 114.301C254.69 114.505 254.715 114.726 254.684 114.942L254.6 115.523L255.474 115.36C255.693 115.319 255.918 115.337 256.127 115.412C256.337 115.487 256.523 115.615 256.666 115.785C256.81 115.955 256.905 116.16 256.944 116.379C256.982 116.598 256.962 116.823 256.885 117.032L256.638 117.7C256.819 117.701 256.997 117.739 257.163 117.812C257.328 117.885 257.477 117.991 257.6 118.123C257.777 118.313 257.888 118.555 257.918 118.812C257.948 119.07 257.894 119.331 257.765 119.556C256.789 121.226 255.404 122.619 253.74 123.606C252.831 124.153 251.836 124.544 250.798 124.763C244.059 126.217 237.112 126.426 230.298 125.379C230.701 126.723 230.857 128.129 230.756 129.528C230.697 130.321 230.422 131.084 229.96 131.732C229.499 132.38 228.869 132.89 228.139 133.206C227.827 133.308 227.507 133.385 227.183 133.437C226.873 133.485 226.568 133.56 226.27 133.659C225.829 133.821 225.438 134.097 225.138 134.458C224.837 134.819 224.637 135.253 224.558 135.716C224.478 136.179 224.522 136.655 224.686 137.096C224.849 137.537 225.126 137.926 225.488 138.226L226.165 137.521L225.945 138.421C225.899 138.595 225.817 138.758 225.704 138.899C225.591 139.039 225.449 139.155 225.289 139.237C225.027 139.378 224.734 139.453 224.436 139.453Z" fill="#2F2E41"/>
<path d="M445.528 379.427L446.171 364.969C452.874 361.386 460.35 359.493 467.951 359.455C457.49 368.008 458.798 384.494 451.705 395.995C449.465 399.566 446.451 402.586 442.885 404.833C439.319 407.08 435.293 408.496 431.105 408.975L422.351 414.335C421.15 407.639 421.415 400.761 423.127 394.177C424.84 387.593 427.959 381.458 432.271 376.196C434.719 373.268 437.526 370.66 440.626 368.433C442.727 373.963 445.528 379.427 445.528 379.427Z" fill="#F2F2F2"/>
<path d="M508.199 414.689C508.199 414.777 508.182 414.864 508.149 414.945C508.115 415.027 508.066 415.1 508.004 415.163C507.941 415.225 507.868 415.274 507.786 415.308C507.705 415.341 507.618 415.358 507.53 415.358H22.23C22.0526 415.358 21.8824 415.288 21.7569 415.162C21.6315 415.037 21.561 414.866 21.561 414.689C21.561 414.512 21.6315 414.341 21.7569 414.216C21.8824 414.09 22.0526 414.02 22.23 414.02H507.53C507.618 414.02 507.704 414.038 507.785 414.071C507.866 414.105 507.94 414.154 508.002 414.216C508.064 414.279 508.113 414.352 508.146 414.433C508.179 414.514 508.196 414.601 508.196 414.689H508.199Z" fill="#CCCCCC"/>
</svg>
