<svg width="18" height="19" viewBox="0 0 18 19" fill="none" xmlns="http://www.w3.org/2000/svg">
<path d="M2.54578 16.6881C1.46155 15.6039 0.919434 14.3075 0.919435 12.799C0.919435 11.2905 1.46155 9.99414 2.54578 8.90991L9.9704 1.48529C10.7482 0.70747 11.691 0.318561 12.7988 0.318561C13.9066 0.318561 14.8494 0.70747 15.6273 1.48529C16.4051 2.2631 16.794 3.20591 16.794 4.31371C16.794 5.42152 16.4051 6.36432 15.6273 7.14214L8.90974 13.8597C8.41477 14.3546 7.82551 14.6021 7.14197 14.6021C6.45844 14.6021 5.86918 14.3546 5.37421 13.8597C4.87923 13.3647 4.63174 12.7754 4.63174 12.0919C4.63174 11.4084 4.87923 10.8191 5.37421 10.3241L12.0917 3.60661L13.1524 4.66727L6.43487 11.3848C6.23452 11.5851 6.13435 11.8208 6.13435 12.0919C6.13435 12.3629 6.23452 12.5986 6.43487 12.799C6.63521 12.9993 6.87092 13.0995 7.14197 13.0995C7.41303 13.0995 7.64873 12.9993 7.84908 12.799L14.5666 6.08148C15.0616 5.58651 15.3091 4.99725 15.3091 4.31371C15.3091 3.63018 15.0616 3.04092 14.5666 2.54595C14.0716 2.05097 13.4824 1.80349 12.7988 1.80349C12.1153 1.80349 11.526 2.05097 11.0311 2.54595L3.60644 9.97057C2.82862 10.7484 2.43971 11.6912 2.43971 12.799C2.43971 13.9068 2.82862 14.8496 3.60644 15.6274C4.38426 16.4052 5.32707 16.7941 6.43487 16.7941C7.54267 16.7942 8.48548 16.4052 9.26329 15.6274L16.6879 8.2028L17.7486 9.26346L10.324 16.6881C9.23972 17.7723 7.94336 18.3144 6.43487 18.3144C4.92637 18.3144 3.63001 17.7723 2.54578 16.6881Z" fill="#636363"/>
</svg>
