<svg width="75" height="75" viewBox="0 0 75 75" fill="none" xmlns="http://www.w3.org/2000/svg">
<path d="M12.5 12.5H20.3134C21.0634 12.5 21.4384 12.5 21.7096 12.7118C21.9809 12.9236 22.0718 13.2874 22.2537 14.0149L24.2425 21.9701C24.6063 23.4253 24.7882 24.1528 25.3307 24.5764C25.8733 25 26.6232 25 28.1231 25H31.25" stroke="white" stroke-width="2" stroke-linecap="round"/>
<path d="M56.25 53.125H21.5249C20.2586 53.125 19.6255 53.125 19.3262 52.7097C19.0269 52.2944 19.2271 51.6938 19.6275 50.4925L20.9633 46.4851C21.4033 45.1651 21.6233 44.505 22.1471 44.1275C22.6709 43.75 23.3666 43.75 24.758 43.75H43.75" stroke="white" stroke-width="2" stroke-linecap="round" stroke-linejoin="round"/>
<path d="M50.6529 43.75H28.3885C26.7702 43.75 25.961 43.75 25.4015 43.276C24.842 42.8021 24.709 42.0039 24.4429 40.4076L22.4572 28.4932C22.1869 26.8717 22.0518 26.0609 22.5012 25.5304C22.9505 25 23.7725 25 25.4164 25H59.2639C60.7143 25 61.4395 25 61.7326 25.4743C62.0257 25.9485 61.7014 26.5972 61.0528 27.8944L54.2306 41.5389C53.6927 42.6147 53.4237 43.1526 52.9404 43.4513C52.4571 43.75 51.8557 43.75 50.6529 43.75Z" stroke="white" stroke-width="2" stroke-linecap="round"/>
<circle cx="53.125" cy="62.5" r="3.125" fill="white"/>
<circle cx="28.125" cy="62.5" r="3.125" fill="white"/>
</svg>
