<svg width="150" height="101" viewBox="0 0 150 101" fill="none" xmlns="http://www.w3.org/2000/svg">
<g opacity="0.2">
<path d="M25 1H42.1884C42.9384 1 43.3134 1 43.5846 1.21179C43.8559 1.42359 43.9468 1.78737 44.1287 2.51493L49.2425 22.9701C49.6063 24.4253 49.7882 25.1528 50.3307 25.5764C50.8733 26 51.6232 26 53.1231 26H62.5" stroke="white" stroke-width="10" stroke-linecap="round"/>
<path d="M112.5 82.25H40.2748C39.0086 82.25 38.3755 82.25 38.0762 81.8347C37.7769 81.4194 37.9771 80.8188 38.3775 79.6175L42.8383 66.2351C43.2783 64.9151 43.4983 64.255 44.0221 63.8775C44.5459 63.5 45.2416 63.5 46.633 63.5H87.5" stroke="white" stroke-width="10" stroke-linecap="round" stroke-linejoin="round"/>
<path d="M103.778 63.5H53.3885C51.7702 63.5 50.961 63.5 50.4015 63.026C49.842 62.5521 49.709 61.7539 49.4429 60.1576L44.3322 29.4932C44.0619 27.8717 43.9268 27.0609 44.3762 26.5304C44.8255 26 45.6475 26 47.2914 26H121.764C123.214 26 123.939 26 124.233 26.4743C124.526 26.9485 124.201 27.5972 123.553 28.8944L107.356 61.2889C106.818 62.3647 106.549 62.9026 106.065 63.2013C105.582 63.5 104.981 63.5 103.778 63.5Z" stroke="white" stroke-width="10" stroke-linecap="round"/>
<circle cx="106.25" cy="101" r="6.25" fill="white"/>
<circle cx="56.25" cy="101" r="6.25" fill="white"/>
</g>
</svg>
