<svg width="44" height="37" viewBox="0 0 44 37" fill="none" xmlns="http://www.w3.org/2000/svg">
<path d="M25.178 5.61V3.971C25.178 3.10162 24.8326 2.26785 24.2179 1.6531C23.6031 1.03836 22.7694 0.693001 21.9 0.693001C21.0306 0.693001 20.1968 1.03836 19.5821 1.6531C18.9673 2.26785 18.622 3.10162 18.622 3.971V5.61C18.622 6.47938 18.9673 7.31315 19.5821 7.9279C20.1968 8.54264 21.0306 8.888 21.9 8.888C22.7694 8.888 23.6031 8.54264 24.2179 7.9279C24.8326 7.31315 25.178 6.47938 25.178 5.61Z" stroke="#FF9F43"/>
<path d="M42.879 18.312C42.879 16.1372 42.0151 14.0515 40.4773 12.5137C38.9395 10.9759 36.8538 10.112 34.679 10.112H31.706C30.8089 9.31887 29.6524 8.88167 28.455 8.883H15.343C14.1456 8.88167 12.9891 9.31887 12.092 10.112H9.11998C6.94521 10.112 4.85951 10.9759 3.32171 12.5137C1.78391 14.0515 0.919983 16.1372 0.919983 18.312C0.919983 18.339 0.919983 18.367 0.919983 18.394V28.146C0.921308 30.3199 1.78582 32.4043 3.32347 33.941C4.86113 35.4778 6.94607 36.341 9.11998 36.341H34.684C36.8579 36.341 38.9428 35.4778 40.4805 33.941C42.0181 32.4043 42.8827 30.3199 42.884 28.146V18.394C42.878 18.367 42.879 18.34 42.879 18.312ZM34.679 24.049H9.11998C7.61169 24.0291 6.17192 23.4159 5.11236 22.3423C4.05281 21.2687 3.45872 19.8209 3.45872 18.3125C3.45872 16.8041 4.05281 15.3563 5.11236 14.2827C6.17192 13.2091 7.61169 12.5959 9.11998 12.576H10.581C10.4778 12.9775 10.4257 13.3905 10.426 13.805V20.361H13.704V14.624H16.163V17.824H27.636V14.624H30.095V20.361H33.373V13.805C33.3732 13.3905 33.3212 12.9775 33.218 12.576H34.684C36.1923 12.5959 37.632 13.2091 38.6916 14.2827C39.7512 15.3563 40.3452 16.8041 40.3452 18.3125C40.3452 19.8209 39.7512 21.2687 38.6916 22.3423C37.632 23.4159 36.1923 24.0291 34.684 24.049H34.679Z" stroke="#FF9F43"/>
</svg>
