<svg width="71" height="69" viewBox="0 0 71 69" fill="none" xmlns="http://www.w3.org/2000/svg">
<path d="M44.0762 54.0898H25.9502V61.2497H44.0762V54.0898Z" fill="#58565C"/>
<path d="M37.2782 21.418H32.7471V28.4479H37.2782V21.418Z" fill="#58565C"/>
<path d="M41.8522 20.5137H28.0792C27.5053 20.5137 27.04 20.931 27.04 21.4461C27.04 21.9612 27.5053 22.3785 28.0792 22.3785H41.8522C42.4261 22.3785 42.8914 21.9612 42.8914 21.4461C42.8914 20.931 42.4261 20.5137 41.8522 20.5137Z" fill="#FFD151"/>
<path d="M35.0121 0C34.4456 0 33.9863 0.459134 33.9863 1.02577V5.55721C33.9863 6.12384 34.4456 6.58298 35.0121 6.58298C35.5786 6.58298 36.0379 6.12384 36.0379 5.55721V1.02563C36.0379 0.459271 35.5786 0 35.0121 0Z" fill="#B6E3EE"/>
<path d="M18.9074 5.06573C18.6241 4.575 17.9966 4.40719 17.5062 4.6903C17.0156 4.97355 16.8475 5.60091 17.1308 6.0915L19.3965 10.0158C19.5865 10.3449 19.9312 10.5288 20.2858 10.5288C20.4597 10.5288 20.6362 10.4845 20.7977 10.3913C21.2883 10.108 21.4564 9.48064 21.1731 8.99005L18.9074 5.06573Z" fill="#B6E3EE"/>
<path d="M10.0159 19.3975L6.09153 17.1318C5.6008 16.8485 4.97358 17.0165 4.69033 17.5072C4.40708 17.9978 4.57517 18.6251 5.06576 18.9084L8.99008 21.1741C9.15161 21.2674 9.32804 21.3117 9.50201 21.3117C9.85651 21.3117 10.2013 21.1278 10.3913 20.7987C10.6745 20.3081 10.5064 19.6807 10.0159 19.3975Z" fill="#B6E3EE"/>
<path d="M5.55721 33.9863H1.02577C0.459271 33.9863 0 34.4455 0 35.0121C0 35.5787 0.459271 36.0379 1.02577 36.0379H5.55721C6.12371 36.0379 6.58298 35.5787 6.58298 35.0121C6.58298 34.4456 6.12371 33.9863 5.55721 33.9863Z" fill="#B6E3EE"/>
<path d="M68.9996 33.9863H64.4682C63.9017 33.9863 63.4424 34.4455 63.4424 35.0121C63.4424 35.5787 63.9017 36.0379 64.4682 36.0379H68.9996C69.5661 36.0379 70.0254 35.5787 70.0254 35.0121C70.0254 34.4456 69.5661 33.9863 68.9996 33.9863Z" fill="#B6E3EE"/>
<path d="M65.3346 17.5071C65.0514 17.0164 64.424 16.8486 63.9334 17.1317L60.0091 19.3974C59.5185 19.6807 59.3504 20.308 59.6337 20.7986C59.8237 21.1277 60.1685 21.3116 60.523 21.3116C60.6969 21.3116 60.8734 21.2673 61.0349 21.1741L64.9592 18.9083C65.4498 18.6251 65.6179 17.9977 65.3346 17.5071Z" fill="#B6E3EE"/>
<path d="M52.5194 4.6903C52.0288 4.40719 51.4014 4.575 51.1182 5.06573L48.8524 8.99005C48.5692 9.48064 48.7373 10.108 49.2279 10.3913C49.3894 10.4845 49.5658 10.5288 49.7398 10.5288C50.0943 10.5288 50.4391 10.3449 50.6291 10.0158L52.8948 6.0915C53.178 5.60077 53.01 4.97355 52.5194 4.6903Z" fill="#B6E3EE"/>
<path d="M12.1221 52.2155V48.7708C12.1221 36.2542 22.3499 26.1074 34.9666 26.1074C47.5834 26.1074 57.8112 36.2542 57.8112 48.7708V52.2155H12.1221Z" fill="#FFD151"/>
<path d="M35.0132 25.9492C34.5538 25.9492 34.0981 25.9645 33.6455 25.9915C45.5221 26.6989 54.9358 36.5529 54.9358 48.6072V52.0511H57.6712V48.6072C57.6712 36.0937 47.5269 25.9492 35.0132 25.9492Z" fill="#F79B4A"/>
<path d="M10.0889 54.5786V51.6878C10.0889 51.2345 10.4562 50.8672 10.9095 50.8672H59.1161C59.5694 50.8672 59.9367 51.2345 59.9367 51.6878V54.5786C59.9367 55.0318 59.5694 55.3992 59.1161 55.3992H10.9095C10.4562 55.3992 10.0889 55.0317 10.0889 54.5786Z" fill="#F79B4A"/>
<path d="M59.2811 50.8184H56.4121C56.8875 50.8184 57.2728 51.1963 57.2728 51.6625V54.6364C57.2728 55.1025 56.8875 55.4805 56.4121 55.4805H59.2811C59.7565 55.4805 60.1418 55.1025 60.1418 54.6364V51.6625C60.1418 51.1963 59.7564 50.8184 59.2811 50.8184Z" fill="#F27938"/>
<path d="M10.2568 65.7372V60.9462C10.2568 60.5024 10.6245 60.1426 11.0781 60.1426H59.3207C59.7743 60.1426 60.1419 60.5024 60.1419 60.9462V65.7372H10.2568Z" fill="#985335"/>
<path d="M59.1172 59.9355H56.3818C56.8351 59.9355 57.2025 60.3029 57.2025 60.7562V65.6481H59.9378V60.7562C59.9378 60.3029 59.5703 59.9355 59.1172 59.9355Z" fill="#87462A"/>
<path d="M61.5627 64.4668H8.33131C8.02043 64.4668 7.73636 64.6424 7.59727 64.9205L6.15217 67.8107C5.87931 68.3562 6.27608 68.9982 6.88621 68.9982H62.2854C62.8192 68.9982 63.2111 68.4966 63.0815 67.9786L62.359 65.0884C62.2675 64.7231 61.9393 64.4668 61.5627 64.4668Z" fill="#87462A"/>
<path d="M62.9147 67.951L62.2061 64.9774C62.1166 64.6016 61.7947 64.3379 61.4255 64.3379H58.7432C59.1124 64.3379 59.4343 64.6016 59.5238 64.9774L60.2325 67.951C60.3595 68.4839 59.9754 69 59.4518 69H62.1341C62.6576 69 63.0417 68.4839 62.9147 67.951Z" fill="#693621"/>
</svg>
