<svg width="50" height="50" viewBox="0 0 50 50" fill="none" xmlns="http://www.w3.org/2000/svg">
<path d="M13.433 18.6863C13.7714 15.6406 13.9406 14.1177 14.5148 12.9065C15.4364 10.9625 17.1021 9.47153 19.1361 8.77027C20.4033 8.33337 21.9355 8.33337 25 8.33337V8.33337C28.0645 8.33337 29.5967 8.33337 30.8639 8.77027C32.8979 9.47153 34.5636 10.9625 35.4852 12.9065C36.0594 14.1177 36.2286 15.6406 36.567 18.6863L37.1144 23.6127C37.3064 25.3413 37.4025 26.2056 37.6784 27.0231C37.9544 27.8407 38.4018 28.5864 39.2966 30.0777L41.9326 34.4711C42.7384 35.814 43.1412 36.4854 42.854 36.9927C42.5668 37.5 41.7837 37.5 40.2176 37.5H9.78238C8.21627 37.5 7.43322 37.5 7.14599 36.9927C6.85876 36.4854 7.26164 35.814 8.06739 34.4711L10.7034 30.0777C11.5982 28.5864 12.0456 27.8407 12.3216 27.0231C12.5975 26.2056 12.6936 25.3413 12.8856 23.6127L13.433 18.6863Z" stroke="white"/>
<path d="M18.963 38.3456C19.3191 39.896 20.1037 41.266 21.1952 42.2432C22.2868 43.2204 23.6242 43.75 25 43.75C26.3758 43.75 27.7132 43.2204 28.8048 42.2432C29.8963 41.2661 30.6809 39.896 31.037 38.3456" stroke="white" stroke-linecap="round"/>
</svg>
