<svg width="19" height="19" viewBox="0 0 19 19" fill="none" xmlns="http://www.w3.org/2000/svg">
<path d="M4.29289 11.7071L1.64477 14.3552C1.28867 14.7113 1.28867 15.2887 1.64477 15.6448C3.56999 17.57 6.61788 17.7866 8.79601 16.153L10.3714 14.9714C12.115 13.6638 13.6638 12.115 14.9714 10.3714L16.153 8.79601C17.7866 6.61788 17.57 3.56999 15.6448 1.64477C15.2887 1.28867 14.7113 1.28867 14.3552 1.64477L11.7071 4.29289C11.3166 4.68342 11.3166 5.31658 11.7071 5.70711L12.7283 6.72825C12.8905 6.89054 12.9308 7.13846 12.8281 7.34373C11.6415 9.71706 9.71706 11.6415 7.34373 12.8281C7.13846 12.9308 6.89054 12.8905 6.72826 12.7283L5.70711 11.7071C5.31658 11.3166 4.68342 11.3166 4.29289 11.7071Z" stroke="#9095A5" stroke-width="2"/>
</svg>
