<svg width="16" height="16" viewBox="0 0 16 16" fill="none" xmlns="http://www.w3.org/2000/svg">
<path d="M8.0026 11.6667C8.83594 11.6667 9.54438 11.3751 10.1279 10.792C10.7115 10.2089 11.003 9.50044 11.0026 8.66667C11.0026 7.83333 10.711 7.12511 10.1279 6.542C9.54483 5.95889 8.83638 5.66711 8.0026 5.66667C7.16927 5.66667 6.46105 5.95844 5.87794 6.542C5.29483 7.12556 5.00305 7.83378 5.0026 8.66667C5.0026 9.5 5.29438 10.2084 5.87794 10.792C6.46149 11.3756 7.16972 11.6671 8.0026 11.6667ZM8.0026 10.3333C7.53594 10.3333 7.14149 10.1722 6.81927 9.85C6.49705 9.52778 6.33594 9.13333 6.33594 8.66667C6.33594 8.2 6.49705 7.80556 6.81927 7.48333C7.14149 7.16111 7.53594 7 8.0026 7C8.46927 7 8.86372 7.16111 9.18594 7.48333C9.50816 7.80556 9.66927 8.2 9.66927 8.66667C9.66927 9.13333 9.50816 9.52778 9.18594 9.85C8.86372 10.1722 8.46927 10.3333 8.0026 10.3333ZM2.66927 14C2.3026 14 1.98883 13.8696 1.72794 13.6087C1.46705 13.3478 1.33638 13.0338 1.33594 12.6667V4.66667C1.33594 4.3 1.4666 3.98622 1.72794 3.72533C1.98927 3.46444 2.30305 3.33378 2.66927 3.33333H4.76927L6.0026 2H10.0026L11.2359 3.33333H13.3359C13.7026 3.33333 14.0166 3.464 14.2779 3.72533C14.5393 3.98667 14.6697 4.30044 14.6693 4.66667V12.6667C14.6693 13.0333 14.5388 13.3473 14.2779 13.6087C14.017 13.87 13.703 14.0004 13.3359 14H2.66927ZM2.66927 12.6667H13.3359V4.66667H10.6359L9.41927 3.33333H6.58594L5.36927 4.66667H2.66927V12.6667Z" fill="white"/>
</svg>
