<svg width="27" height="25" viewBox="0 0 27 25" fill="none" xmlns="http://www.w3.org/2000/svg">
<path d="M13.5 17.25C15.5711 17.25 17.25 15.5711 17.25 13.5C17.25 11.4289 15.5711 9.75 13.5 9.75C11.4289 9.75 9.75 11.4289 9.75 13.5C9.75 15.5711 11.4289 17.25 13.5 17.25Z" stroke="#9095A5" stroke-width="2"/>
<path d="M10.7222 23.5H16.2778C20.1791 23.5 22.1297 23.5 23.531 22.5808C24.1375 22.1828 24.6584 21.6714 25.0637 21.0759C26 19.7001 26 17.7849 26 13.9545C26 10.1242 26 8.20901 25.0637 6.83325C24.6584 6.23768 24.1375 5.7263 23.531 5.32835C22.6305 4.73766 21.5034 4.52654 19.7775 4.45107C18.9539 4.45107 18.2449 3.83835 18.0834 3.04545C17.841 1.85611 16.7774 1 15.5421 1H11.4579C10.2226 1 9.15894 1.85611 8.91666 3.04545C8.75515 3.83835 8.04606 4.45107 7.2225 4.45107C5.49666 4.52654 4.36944 4.73766 3.46905 5.32835C2.86244 5.7263 2.3416 6.23768 1.93628 6.83325C1 8.20901 1 10.1242 1 13.9545C1 17.7849 1 19.7001 1.93628 21.0759C2.3416 21.6714 2.86244 22.1828 3.46905 22.5808C4.8703 23.5 6.82094 23.5 10.7222 23.5Z" stroke="#9095A5" stroke-width="2"/>
<path d="M22.25 9.75H21" stroke="#9095A5" stroke-width="2" stroke-linecap="round"/>
</svg>
