<svg width="18" height="19" viewBox="0 0 18 19" fill="none" xmlns="http://www.w3.org/2000/svg">
<path fill-rule="evenodd" clip-rule="evenodd" d="M7.19112 9.89642L10.5447 6.54287C10.9352 6.15234 11.5684 6.15234 11.9589 6.54287C12.3494 6.93339 12.3494 7.56656 11.9589 7.95708L8.60534 11.3106C9.38913 13.662 9.78131 14.8377 10.5018 14.8377C11.2225 14.8377 11.6147 13.6611 12.3991 11.3079L13.7369 7.29471C14.2888 5.63892 14.5648 4.81102 14.1278 4.37401C13.6907 3.93699 12.8628 4.21295 11.2071 4.76488L7.19388 6.10261C4.84067 6.88701 3.66406 7.27921 3.66406 7.99997C3.66406 8.72045 4.83975 9.11263 7.19112 9.89642Z" fill="#77C7BD"/>
</svg>
