<svg width="40" height="41" viewBox="0 0 40 41" fill="none" xmlns="http://www.w3.org/2000/svg">
<path fill-rule="evenodd" clip-rule="evenodd" d="M33.3346 18.4529C33.3346 13.7714 33.3346 11.4306 32.2111 9.74912C31.7247 9.02119 31.0997 8.39618 30.3718 7.90979C28.6903 6.78625 26.3495 6.78625 21.668 6.78625H18.3346C13.6531 6.78625 11.3123 6.78625 9.63083 7.90979C8.9029 8.39618 8.27789 9.02119 7.7915 9.74912C6.66797 11.4306 6.66797 13.7714 6.66797 18.4529C6.66797 23.1345 6.66797 25.4752 7.7915 27.1567C8.27789 27.8847 8.9029 28.5097 9.63083 28.9961C11.0998 29.9776 13.0718 30.1016 16.668 30.1173V30.1196L19.1069 34.9974C19.4754 35.7344 20.5272 35.7345 20.8957 34.9974L23.3346 30.1196V30.1173C26.9308 30.1016 28.9029 29.9776 30.3718 28.9961C31.0997 28.5097 31.7247 27.8847 32.2111 27.1567C33.3346 25.4752 33.3346 23.1345 33.3346 18.4529ZM13.3346 20.1196C14.2551 20.1196 15.0013 19.3734 15.0013 18.4529C15.0013 17.5324 14.2551 16.7863 13.3346 16.7863C12.4142 16.7863 11.668 17.5324 11.668 18.4529C11.668 19.3734 12.4142 20.1196 13.3346 20.1196ZM21.668 18.4529C21.668 19.3734 20.9218 20.1196 20.0013 20.1196C19.0808 20.1196 18.3346 19.3734 18.3346 18.4529C18.3346 17.5324 19.0808 16.7863 20.0013 16.7863C20.9218 16.7863 21.668 17.5324 21.668 18.4529ZM28.3346 18.4529C28.3346 19.3734 27.5884 20.1196 26.668 20.1196C25.7475 20.1196 25.0013 19.3734 25.0013 18.4529C25.0013 17.5324 25.7475 16.7863 26.668 16.7863C27.5884 16.7863 28.3346 17.5324 28.3346 18.4529Z" fill="white"/>
</svg>
