<svg width="16" height="16" viewBox="0 0 16 16" fill="none" xmlns="http://www.w3.org/2000/svg">
<path d="M10.332 3.33331C11.2683 3.33331 11.7365 3.33331 12.0728 3.55802C12.2184 3.6553 12.3434 3.7803 12.4407 3.92589C12.6654 4.26218 12.6654 4.73034 12.6654 5.66665V12C12.6654 13.2571 12.6654 13.8856 12.2748 14.2761C11.8843 14.6666 11.2558 14.6666 9.9987 14.6666H5.9987C4.74162 14.6666 4.11308 14.6666 3.72256 14.2761C3.33203 13.8856 3.33203 13.2571 3.33203 12V5.66665C3.33203 4.73034 3.33203 4.26218 3.55674 3.92589C3.65402 3.7803 3.77902 3.6553 3.9246 3.55802C4.2609 3.33331 4.72906 3.33331 5.66536 3.33331" stroke="white"/>
<path d="M6 3.33333C6 2.59695 6.59695 2 7.33333 2H8.66667C9.40305 2 10 2.59695 10 3.33333C10 4.06971 9.40305 4.66667 8.66667 4.66667H7.33333C6.59695 4.66667 6 4.06971 6 3.33333Z" stroke="white"/>
<path d="M6 8L10 8" stroke="white" stroke-linecap="round"/>
<path d="M6 10.6667L8.66667 10.6667" stroke="white" stroke-linecap="round"/>
</svg>
