<svg xmlns="http://www.w3.org/2000/svg" width="612.244" height="306.838" viewBox="0 0 612.244 306.838">
  <g id="undraw_contact_us_re_4qqt" transform="translate(-0.005)">
    <path id="Path_2058" data-name="Path 2058" d="M354.451,539.737q-27.7,0-55.325-.992c-26.311-.945-53.519-1.922-78.808-15.948-17.69-9.811-33.358-25.551-45.308-45.52a153.164,153.164,0,0,1-17.365-43.536,178.974,178.974,0,0,1,.652-84.724,150.473,150.473,0,0,1,10.09-27.653c18.442-38.189,52.078-63.825,92.285-70.333a4.66,4.66,0,0,1,1-.021c.181.01.361.02.545.012l.237-.075a11.557,11.557,0,0,1,1.862-.478c62.009-9.231,127.562,9.447,189.567,54.014,47.942,34.464,111.479,53.022,194.241,56.736l1.175.061c23.039,1.323,45.325,10.822,64.45,27.47,18.877,16.431,33.051,38.354,40.989,63.4.976,3.053,1.87,6.232,2.659,9.446a17.823,17.823,0,0,1-4.751,16.9v.006l-.206.212c-.5.493-1.018.967-1.552,1.407l-.628.517c-5.289,4.357-9.466,7.8-14.466,10.472a44.477,44.477,0,0,1-10.554,3.985c-20.168,4.917-40.649,9.476-60.874,13.55-39.279,7.92-79.591,14.453-119.82,19.417a1553.1,1553.1,0,0,1-190.1,11.674ZM261.2,252.363a2.4,2.4,0,0,0-.369.025c-39.831,6.447-73.149,31.831-91.408,69.642a148.957,148.957,0,0,0-9.99,27.379,177.408,177.408,0,0,0-.644,83.972,151.7,151.7,0,0,0,17.2,43.119c11.833,19.774,27.341,35.356,44.846,45.063,25.061,13.9,52.141,14.873,78.329,15.813A1551.251,1551.251,0,0,0,544.421,526.7c40.2-4.962,80.489-11.49,119.742-19.405,20.211-4.071,40.678-8.627,60.833-13.541a43.368,43.368,0,0,0,10.3-3.887c4.9-2.619,9.037-6.028,14.275-10.343l.628-.517c.459-.379.909-.784,1.34-1.205l.124-.13a16.4,16.4,0,0,0,4.593-15.7h0c-.78-3.18-1.665-6.325-2.631-9.347-16.215-51.162-58.162-87.318-104.38-89.972l-1.169-.061c-37.8-1.7-70.887-6.4-101.133-14.367-36.106-9.516-67.627-23.84-93.688-42.575-61.768-44.4-127.047-63.005-188.786-53.818a10.59,10.59,0,0,0-1.7.44l-.426.119a6.417,6.417,0,0,1-.727-.009C261.477,252.371,261.339,252.363,261.2,252.363Z" transform="translate(-152.875 -232.899)" fill="#f0f0f0"/>
    <path id="Path_2059" data-name="Path 2059" d="M412.4,351.11c-1.71-1.64-3.459-10.788-5.642-11.717,1.632,3.606.447,4.561.438,8.519a26.781,26.781,0,0,1-.781,6.67H369.435V325.723a19.745,19.745,0,0,1,19.746-19.745,11.783,11.783,0,0,1,2.926.428,18.774,18.774,0,0,1,13.245,13.281C408.172,329.991,412.655,347.143,412.4,351.11Z" transform="translate(-221.204 -251.138)" fill="#2f2e41"/>
    <path id="Path_2060" data-name="Path 2060" d="M365.648,413.413l.018-22.494L352.444,392.1l4.666,14.187-2.184,35.659a5.594,5.594,0,1,0,6.769,4.715Z" transform="translate(-215.247 -277.94)" fill="#ffb6b6"/>
    <path id="Path_2061" data-name="Path 2061" d="M257.745,423.262h5.342l2.541-20.6h-7.884Z" transform="translate(-81.323 -127.048)" fill="#ffb6b6"/>
    <path id="Path_2062" data-name="Path 2062" d="M407.487,654.537l8.444-.5v3.618l8.028,5.545a2.26,2.26,0,0,1-1.284,4.12H412.623l-1.733-3.579-.677,3.579h-3.791Z" transform="translate(-232.874 -360.958)" fill="#2f2e41"/>
    <path id="Path_2063" data-name="Path 2063" d="M212.62,423.262h5.342l2.541-20.6h-7.884Z" transform="translate(-67.085 -127.048)" fill="#ffb6b6"/>
    <path id="Path_2064" data-name="Path 2064" d="M362.362,654.537l8.444-.5v3.618l8.028,5.545a2.26,2.26,0,0,1-1.284,4.12H367.5l-1.733-3.579-.677,3.579H361.3Z" transform="translate(-218.636 -360.958)" fill="#2f2e41"/>
    <path id="Path_2065" data-name="Path 2065" d="M387.168,355.43l-11.066.217-7.811,8.245-6.262.919a12.5,12.5,0,0,0-10.662,11.566h0l1.085,5.959h6.509l3.766,22.11c-1.464,3.731-1.564,6.676,1.442,7.833l9.33,17.576,27.557-12.368c1.4-2.4,1.845-4.816.417-7.162l1.97-33.847h6.624c0-6.331-2.141-11.667-8.432-12.372a74.372,74.372,0,0,0-7.522-.43Z" transform="translate(-215.503 -266.742)" fill="#eb9d6c"/>
    <path id="Path_2066" data-name="Path 2066" d="M399.273,443.693s-26.906,4.774-36.887-5.208c0,0-1.013,1.72-2.54,4.573-.439.82-1.287,1.376-1.8,2.37-.465.9-1.663,2.014-2.17,3.038-.408.824.246,1.9-.178,2.791-5.112,10.721-11.084,25.845-9.8,35.831.826,6.44,2.531,21.425,4.327,37.52.14,1.258-1,2.873-.855,4.14.133,1.2,1.544,2.042,1.677,3.24.088.8-.9,1.607-.809,2.4.1.872,1.266,1.726,1.363,2.594,2.46,22.224,4.713,42.972,4.713,42.972H368.9l2.375-47.387L369.33,515.3l4.557-34.934,6.292,33.2.809,18.684,6.65,48.58h11.635V533.8l.868-2.443-.868-3.133.868-3.376-.868-3.677Z" transform="translate(-213.721 -292.948)" fill="#202020"/>
    <path id="Path_2067" data-name="Path 2067" d="M398.232,336.8a12.544,12.544,0,1,1,2.173-10.482c.036.15.067.3.1.455A12.527,12.527,0,0,1,398.232,336.8Z" transform="translate(-223.17 -254.524)" fill="#ffb6b6"/>
    <path id="Path_2068" data-name="Path 2068" d="M395.451,329.253a6.594,6.594,0,0,0-1.927-3.493A8.995,8.995,0,0,1,393,329.53a17.383,17.383,0,0,1-9.552-1.892c-2.213-1.5-5.03-1.371-8.31,0a12.15,12.15,0,0,1,12.153-12.151h2.168a12.153,12.153,0,0,1,12.151,12.149A36.181,36.181,0,0,1,395.451,329.253Z" transform="translate(-223.004 -254.139)" fill="#2f2e41"/>
    <circle id="Ellipse_228" data-name="Ellipse 228" cx="35" cy="35" r="35" transform="translate(42.249 160)" fill="#f0f0f0"/>
    <circle id="Ellipse_229" data-name="Ellipse 229" cx="35" cy="35" r="35" transform="translate(265.249)" fill="#f0f0f0"/>
    <ellipse id="Ellipse_230" data-name="Ellipse 230" cx="35" cy="34.5" rx="35" ry="34.5" transform="translate(542.249 166)" fill="#f0f0f0"/>
    <path id="Path_2069" data-name="Path 2069" d="M663.187,279.542V358.7a6.242,6.242,0,0,1-6.177,6.242.545.545,0,0,1-.068,0h-9.213a27.794,27.794,0,0,1-27.794-27.794V279.542a6.245,6.245,0,0,1,6.245-6.245h3.733c-1.729,5.045,21.743,7.169,23.031,0h4a6.245,6.245,0,0,1,6.245,6.246Z" transform="translate(-300.243 -240.827)" fill="#ff9e59"/>
    <path id="Path_2070" data-name="Path 2070" d="M643.182,264.273a.819.819,0,0,1,.818-.818h5.565a.818.818,0,1,1,0,1.637H644a.819.819,0,0,1-.818-.818Z" transform="translate(-307.578 -237.721)" fill="#3f3d56"/>
    <path id="Path_2071" data-name="Path 2071" d="M655.46,370.356H620.267a10.31,10.31,0,0,1-10.3-10.3V304.723a1.5,1.5,0,0,1-.624-1.218v-5.565a1.5,1.5,0,0,1,.624-1.217V295.23a1.5,1.5,0,0,1-.624-1.217v-5.565a1.5,1.5,0,0,1,.624-1.217v-2.7a1.494,1.494,0,0,1-.787-1.321v-5.565a1.5,1.5,0,0,1,.787-1.321v-7.4a10.31,10.31,0,0,1,10.3-10.3H655.46a10.31,10.31,0,0,1,10.3,10.3V285.05a1.291,1.291,0,0,1,.606,1.094v10.611a1.291,1.291,0,0,1-.606,1.094v62.207A10.31,10.31,0,0,1,655.46,370.356ZM620.267,260a8.94,8.94,0,0,0-8.93,8.93v8.561l-.658.025a.134.134,0,0,0-.129.131v5.565a.134.134,0,0,0,.129.131l.658.025v4.825l-.521.128a.135.135,0,0,0-.1.128v5.565a.134.134,0,0,0,.1.128l.521.128v3.416l-.521.128a.135.135,0,0,0-.1.128v5.565a.135.135,0,0,0,.1.128l.521.128v56.3a8.94,8.94,0,0,0,8.93,8.93H655.46a8.94,8.94,0,0,0,8.93-8.93v-63.38H665V286.222h-.606v-17.3a8.94,8.94,0,0,0-8.93-8.93Z" transform="translate(-296.85 -236.198)" fill="#3f3d56"/>
    <circle id="Ellipse_231" data-name="Ellipse 231" cx="0.818" cy="0.818" r="0.818" transform="translate(344.279 25.733)" fill="#3f3d56"/>
    <path id="Path_2072" data-name="Path 2072" d="M352.48,471.169H260.906A4.92,4.92,0,0,1,256,466.262v-44.62a4.92,4.92,0,0,1,4.907-4.908H352.48a4.92,4.92,0,0,1,4.908,4.907v44.62a4.92,4.92,0,0,1-4.907,4.908Z" transform="translate(-185.412 -286.085)" fill="#fff"/>
    <path id="Path_2073" data-name="Path 2073" d="M352.48,471.169H260.906A4.92,4.92,0,0,1,256,466.262v-44.62a4.92,4.92,0,0,1,4.907-4.908H352.48a4.92,4.92,0,0,1,4.908,4.907v44.62a4.92,4.92,0,0,1-4.907,4.908ZM260.906,418.1a3.549,3.549,0,0,0-3.539,3.539v44.619a3.549,3.549,0,0,0,3.539,3.539h91.573a3.549,3.549,0,0,0,3.539-3.539V421.642a3.549,3.549,0,0,0-3.539-3.539Z" transform="translate(-185.412 -286.085)" fill="#3f3d56"/>
    <path id="Path_2074" data-name="Path 2074" d="M315.387,467.267c-18.06,0-36.892-.173-43.919-.284a3.543,3.543,0,0,1-3.47-3.529V426.518a1.252,1.252,0,0,1,1.248-1.251h82.463a1.252,1.252,0,0,1,1.251,1.248v25.06a15.635,15.635,0,0,1-15.371,15.573C331.04,467.234,323.285,467.267,315.387,467.267Z" transform="translate(-189.198 -288.777)" fill="#ff9e59"/>
    <path id="Path_2075" data-name="Path 2075" d="M343.516,446.583H269a3.038,3.038,0,0,1-2.85-2.009l-8.434-23.66a3.027,3.027,0,0,1,2.846-4.043l93.138-.13a3.028,3.028,0,0,1,2.984,3.558l.072.03-.267.624,0,.006-10.2,23.789a3.018,3.018,0,0,1-2.779,1.834Zm10.193-28.473-93.14.13a1.658,1.658,0,0,0-1.559,2.215l8.433,23.659a1.666,1.666,0,0,0,1.562,1.1h74.511a1.652,1.652,0,0,0,1.521-1l10.2-23.79.5.215-.5-.215a1.657,1.657,0,0,0-1.523-2.31Z" transform="translate(-185.9 -286.087)" fill="#3f3d56"/>
    <circle id="Ellipse_232" data-name="Ellipse 232" cx="5.834" cy="5.834" r="5.834" transform="translate(115.307 153.977)" fill="#fff"/>
    <circle id="Ellipse_233" data-name="Ellipse 233" cx="5.834" cy="5.834" r="5.834" transform="translate(335.708 103.326)" fill="#fff"/>
    <path id="Path_2076" data-name="Path 2076" d="M959.166,500.794l-15.586-15.387a8.135,8.135,0,0,0-5.77-2.368h-.055a8.155,8.155,0,0,0-5.791,2.437,19.159,19.159,0,0,0-.335,26.585c.164.178.335.349.507.52a18.65,18.65,0,0,0,3.121,2.5,18.944,18.944,0,0,0,10.342,3.032h.116a19.046,19.046,0,0,0,13.518-5.695,8.23,8.23,0,0,0-.068-11.622Zm-.9,10.657a17.859,17.859,0,0,1-22.423,2.382,18.327,18.327,0,0,1-2.745-2.225,17.8,17.8,0,0,1-.157-25.168,6.785,6.785,0,0,1,4.832-2.033h.041a6.784,6.784,0,0,1,4.8,1.971L958.2,501.773a6.85,6.85,0,0,1,.062,9.678Z" transform="translate(-396.951 -307.006)" fill="#3f3d56"/>
    <path id="Path_2077" data-name="Path 2077" d="M884.458,427.011l-15.586-15.394a8.163,8.163,0,0,0-5.77-2.368h-.048a8.177,8.177,0,0,0-5.8,2.444,19.218,19.218,0,0,0-3.231,22.588l.007.007A18.863,18.863,0,0,0,857,438.346c.13.151.281.3.431.452a19.053,19.053,0,0,0,13.464,5.53h.123a19.066,19.066,0,0,0,13.518-5.7,8.213,8.213,0,0,0-.075-11.616Zm-.9,10.657a17.7,17.7,0,0,1-12.547,5.291h-.116a17.8,17.8,0,0,1-12.656-30.3,6.85,6.85,0,0,1,9.678-.062L883.5,427.983A6.858,6.858,0,0,1,883.555,437.668Z" transform="translate(-373.381 -283.723)" fill="#3f3d56"/>
    <path id="Path_2078" data-name="Path 2078" d="M961.9,507.432l-17.182-16.971a5.973,5.973,0,0,0-8.438.052A15.058,15.058,0,1,0,957.7,511.677Z" transform="translate(-398.686 -308.805)" fill="#ff9e59"/>
    <path id="Path_2079" data-name="Path 2079" d="M887.191,433.647l-17.182-16.971a5.973,5.973,0,0,0-8.438.052A15.058,15.058,0,0,0,883,437.892Z" transform="translate(-375.114 -285.524)" fill="#ff9e59"/>
    <path id="Path_2080" data-name="Path 2080" d="M918.115,502.36l-.411,1.081q-2.9-1.1-5.613-2.2c-32.088-13.094-47.407-28.419-57.653-57.51l-.007-.007q-.729-2.053-1.417-4.2l1.081-.349a17.486,17.486,0,0,0,1.574,3.956q.842,2.392,1.732,4.661c9.631,24.552,23.833,38.584,51.062,50.432q2.053.893,4.21,1.773a17.856,17.856,0,0,0,5.442,2.368Z" transform="translate(-373.785 -293.164)" fill="#3f3d56"/>
    <rect id="Rectangle_2705" data-name="Rectangle 2705" width="1.369" height="49.967" transform="translate(494.246 160.332) rotate(-45.355)" fill="#3f3d56"/>
    <path id="Path_2081" data-name="Path 2081" d="M422.881,405.8l.018-22.494-13.222,1.182,4.666,14.187L397.4,424.356a5.594,5.594,0,1,0,6.769,4.715Z" transform="translate(-228.65 -275.539)" fill="#ffb6b6"/>
  </g>
</svg>
