<svg width="41" height="41" viewBox="0 0 41 41" fill="none" xmlns="http://www.w3.org/2000/svg">
<g clip-path="url(#clip0_403_13124)">
<path d="M25.423 36.3005L25.5002 36.2232C25.5774 36.2232 25.5774 36.146 25.6547 36.146C25.6547 36.0688 25.5774 36.0688 25.5774 35.9915L25.5002 35.9143C25.5002 35.9143 25.5002 35.9143 25.423 35.9143L25.3457 35.8371C25.3457 35.8371 25.3457 35.8371 25.2685 35.8371L25.1913 35.7598C25.1913 35.6826 25.114 35.6826 25.114 35.6053L25.0368 35.5281C25.0368 35.5281 25.0368 35.5281 25.0368 35.4509L24.9596 35.3736C24.9596 35.3736 24.9596 35.3736 24.9596 35.2964L24.8823 35.2192C24.8823 35.1419 24.8051 35.1419 24.8051 35.0647C24.8051 35.0647 24.8051 35.0647 24.8051 34.9875C24.8051 34.9875 24.8051 34.9102 24.7279 34.9102C24.7279 34.9102 24.7279 34.9102 24.7279 34.833V34.7558C24.7279 34.7558 24.7279 34.7558 24.7279 34.6785C24.7279 34.6013 24.7279 34.6013 24.6506 34.5241C24.6506 34.4468 24.6506 34.4468 24.6506 34.3696C24.6506 34.3696 24.6506 34.3696 24.6506 34.2924C24.6506 34.2151 24.6506 34.2151 24.6506 34.1379C24.6506 34.1379 24.6506 34.1379 24.6506 34.0606C24.6506 33.9834 24.6506 33.9834 24.6506 33.9062C24.6506 33.9062 24.6506 33.9062 24.6506 33.8289C24.6506 33.7517 24.6506 33.7517 24.6506 33.6745C24.6506 33.5972 24.6506 33.5972 24.6506 33.52C24.6506 33.52 24.6506 33.52 24.6506 33.4428C24.6506 33.3655 24.6506 33.3655 24.6506 33.2883C24.6506 33.2883 24.6506 33.2883 24.6506 33.2111C24.6506 33.1338 24.6506 33.1338 24.6506 33.0566C24.6506 33.0566 24.6506 33.0566 24.6506 32.9794C24.6506 32.9021 24.6506 32.9021 24.6506 32.8249C24.6506 32.7477 24.6506 32.7477 24.7279 32.6704C24.7279 32.6704 24.7279 32.6704 24.7279 32.5932V32.5159C24.7279 32.5159 24.7279 32.5159 24.7279 32.4387C24.7279 32.4387 24.7279 32.3615 24.8051 32.3615C24.8051 32.3615 24.8051 32.3615 24.8051 32.2842C24.8051 32.207 24.8823 32.207 24.8823 32.1298C24.8051 32.207 24.8051 32.207 24.8051 32.207C24.8051 32.207 24.8051 32.207 24.8051 32.1298L24.8823 32.0525C24.8823 32.0525 24.8823 32.0525 24.8823 31.9753L24.9596 31.8981C24.9596 31.8208 25.0368 31.8208 25.0368 31.7436L25.114 31.6664C25.114 31.6664 25.114 31.6664 25.1913 31.6664L25.2685 31.5891C25.2685 31.5891 25.2685 31.5891 25.3457 31.5891L25.423 31.5119C25.5002 31.5119 25.5002 31.4347 25.5774 31.4347C25.5002 31.4347 25.5002 31.3574 25.423 31.3574L25.3457 31.2802C25.3457 31.2802 25.3457 31.2802 25.2685 31.2802L25.1913 31.203C25.1913 31.203 25.1913 31.203 25.114 31.203L25.0368 31.1257C25.0368 31.0485 24.9596 31.0485 24.9596 30.9712L24.8823 30.894C24.8823 30.894 24.8823 30.894 24.8823 30.8168L24.8051 30.7395C24.8051 30.7395 24.8051 30.7395 24.8051 30.6623L24.7279 30.5851C24.7279 30.5078 24.6506 30.5078 24.6506 30.4306C24.6506 30.4306 24.6506 30.4306 24.6506 30.3534C24.6506 30.3534 24.6506 30.2761 24.5734 30.2761C24.5734 30.2761 24.5734 30.2761 24.5734 30.1989V30.1217C24.5734 30.1217 24.5734 30.1217 24.5734 30.0444C24.5734 29.9672 24.5734 29.9672 24.4962 29.89C24.4962 29.8127 24.4962 29.8127 24.4962 29.7355C24.4962 29.7355 24.4962 29.7355 24.4962 29.6583C24.4962 29.581 24.4962 29.581 24.4962 29.5038C24.4962 29.5038 24.4962 29.5038 24.4962 29.4265C24.4962 29.3493 24.4962 29.3493 24.4962 29.2721C24.4962 29.2721 24.4962 29.2721 24.4962 29.1948C24.4962 29.1176 24.4962 29.1176 24.4962 29.0404C24.4962 28.9631 24.4962 28.9631 24.4962 28.8859C24.4962 28.8859 24.4962 28.8859 24.4962 28.8087C24.4962 28.7314 24.4962 28.7314 24.4962 28.6542C24.4962 28.6542 24.4962 28.6542 24.4962 28.577C24.4962 28.4997 24.4962 28.4997 24.4962 28.4225C24.4962 28.4225 24.4962 28.4225 24.4962 28.3453C24.4962 28.268 24.4962 28.268 24.4962 28.1908C24.4962 28.1136 24.4962 28.1136 24.5734 28.0363C24.5734 28.0363 24.5734 28.0363 24.5734 27.9591V27.8818C24.5734 27.8818 24.5734 27.8818 24.5734 27.8046C24.5734 27.8046 24.5734 27.7274 24.6506 27.7274C24.6506 27.7274 24.6506 27.7274 24.6506 27.6501C24.6506 27.5729 24.7279 27.5729 24.7279 27.4957L24.8051 27.4184C24.8051 27.4184 24.8051 27.4184 24.8051 27.3412L24.8823 27.264C24.8823 27.264 24.8823 27.264 24.8823 27.1867L24.9596 27.1095C24.9596 27.0323 25.0368 27.0323 25.0368 26.955L25.114 26.8778C25.114 26.8778 25.114 26.8778 25.1913 26.8778L25.2685 26.8006C25.2685 26.8006 25.2685 26.8006 25.3457 26.8006L25.423 26.7233C25.5002 26.7233 25.5002 26.6461 25.5774 26.6461C25.5002 26.6461 25.5002 26.5689 25.423 26.5689L25.3457 26.4916C25.3457 26.4916 25.3457 26.4916 25.2685 26.4916L25.1913 26.4144C25.1913 26.4144 25.1913 26.4144 25.114 26.4144L25.0368 26.3371C25.0368 26.2599 24.9596 26.2599 24.9596 26.1827L24.8823 26.1054C24.8823 26.1054 24.8823 26.1054 24.8823 26.0282L24.8051 25.951C24.8051 25.951 24.8051 25.951 24.8051 25.8737L24.7279 25.7965C24.7279 25.7193 24.6506 25.7193 24.6506 25.642C24.6506 25.642 24.6506 25.642 24.6506 25.5648C24.6506 25.5648 24.6506 25.4876 24.5734 25.4876C24.5734 25.4876 24.5734 25.4876 24.5734 25.4103V25.3331C24.5734 25.3331 24.5734 25.3331 24.5734 25.2559C24.5734 25.1786 24.5734 25.1786 24.4962 25.1014C24.4962 25.0242 24.4962 25.0242 24.4962 24.9469C24.4962 24.9469 24.4962 24.9469 24.4962 24.8697C24.4962 24.7924 24.4962 24.7924 24.4962 24.7152C24.4962 24.7152 24.4962 24.7152 24.4962 24.638C24.4962 24.5607 24.4962 24.5607 24.4962 24.4835C24.4962 24.4835 24.4962 24.4835 24.4962 24.4063C24.4962 24.329 24.4962 24.329 24.4962 24.2518C24.4962 24.1746 24.4962 24.1746 24.4962 24.0973C24.4962 24.0973 24.4962 24.0973 24.4962 24.0201V23.9429C24.4962 23.9429 24.4962 23.9429 24.4962 23.8656V23.7884V23.7112V23.6339V23.5567V23.4795V23.4022V23.325V23.2477V23.1705C24.4962 23.1705 24.4962 23.1705 24.4962 23.0933V23.016C24.4962 23.016 24.4962 23.016 24.4962 22.9388V22.8616C24.4962 22.8616 24.4962 22.8616 24.4962 22.7843V22.7071C24.4962 22.7071 24.4962 22.7071 24.4962 22.6299C24.4962 22.6299 24.4962 22.5526 24.5734 22.5526C24.5734 22.5526 24.5734 22.5526 24.5734 22.4754C24.5734 22.4754 24.5734 22.3982 24.6506 22.3982L24.7279 22.3209L24.8051 22.2437C24.8051 22.2437 24.8051 22.1665 24.8823 22.1665H23.6311C23.0828 22.1665 22.6116 22.012 22.2254 21.7803C22.2254 22.1665 22.1482 22.5526 22.1482 22.9388C21.7543 26.0282 20.5031 28.4225 18.5568 29.8127C18.4795 29.89 18.4023 29.89 18.2401 29.89C18.0857 29.89 17.9312 29.8127 17.8462 29.6583C17.6918 29.4265 17.769 29.1176 17.9235 28.9631C21.0515 26.7233 21.3604 22.2437 21.2059 20.0811C21.1287 19.5405 21.1287 19.0771 21.1287 18.7681V15.0608C21.1287 13.6706 19.9547 12.5121 18.5491 12.5121H17.2206V18.7681C17.2206 19.6949 16.8267 21.2396 16.3633 22.4754C15.9694 23.4795 15.2666 24.638 14.332 24.9469V40.4712H24.8823C24.8823 40.4712 24.8823 40.3939 24.8051 40.3939L24.7279 40.3167L24.6506 40.2394C24.6506 40.2394 24.6506 40.1622 24.5734 40.1622C24.5734 40.1622 24.5734 40.1622 24.5734 40.085C24.5734 40.085 24.5734 40.0077 24.4962 40.0077C24.4962 40.0077 24.4962 40.0077 24.4962 39.9305V39.8533C24.4962 39.8533 24.4962 39.8533 24.4962 39.776V39.6988C24.4962 39.6988 24.4962 39.6988 24.4962 39.6216V39.5443C24.4962 39.5443 24.4962 39.5443 24.4962 39.4671V39.3899V39.3126V39.2354V39.1582V39.0809V39.0037V38.9265V38.8492V38.772C24.4962 38.772 24.4962 38.772 24.4962 38.6947V38.6175C24.4962 38.6175 24.4962 38.6175 24.4962 38.5403C24.4962 38.463 24.4962 38.463 24.4962 38.3858C24.4962 38.3086 24.4962 38.3086 24.4962 38.2313C24.4962 38.2313 24.4962 38.2313 24.4962 38.1541C24.4962 38.0769 24.4962 38.0769 24.4962 37.9996C24.4962 37.9996 24.4962 37.9996 24.4962 37.9224C24.4962 37.8452 24.4962 37.8452 24.4962 37.7679C24.4962 37.7679 24.4962 37.7679 24.4962 37.6907C24.4962 37.6135 24.4962 37.6135 24.4962 37.5362C24.4962 37.459 24.4962 37.459 24.5734 37.3818C24.5734 37.3818 24.5734 37.3818 24.5734 37.3045V37.2273C24.5734 37.2273 24.5734 37.2273 24.5734 37.15C24.5734 37.15 24.5734 37.0728 24.6506 37.0728C24.6506 37.0728 24.6506 37.0728 24.6506 36.9956C24.6506 36.9183 24.7279 36.9183 24.7279 36.8411L24.8051 36.7639C24.8051 36.7639 24.8051 36.7639 24.8051 36.6866L24.8823 36.6094C24.8823 36.6094 24.8823 36.6094 24.8823 36.5322L24.9596 36.4549C24.9596 36.3777 25.0368 36.3777 25.0368 36.3005L25.114 36.2232C25.114 36.2232 25.114 36.2232 25.1913 36.2232C25.3457 36.3777 25.3457 36.3777 25.423 36.3005Z" fill="white"/>
<path d="M34.6467 31.7436H27.3017C26.205 31.7436 25.3477 32.5932 25.3477 33.6745C25.3477 34.7558 26.205 35.6053 27.3017 35.6053H34.6467C35.7435 35.6053 36.6008 34.7558 36.6008 33.6745C36.6008 32.5932 35.7358 31.7436 34.6467 31.7436Z" fill="white"/>
<path d="M34.6467 36.6094H27.3017C26.205 36.6094 25.3477 37.459 25.3477 38.5402C25.3477 39.6215 26.205 40.4711 27.3017 40.4711H34.6467C35.7435 40.4711 36.6008 39.6215 36.6008 38.5402C36.6008 37.459 35.7358 36.6094 34.6467 36.6094Z" fill="white"/>
<path d="M13.6307 25.0241H9.72266V40.4711H13.6307V25.0241Z" fill="white"/>
<path d="M6.82554 16.0649L9.25072 14.3657H6.2849C6.05319 14.3657 5.891 14.2112 5.81377 14.0568L4.87922 11.2763L3.94468 14.0568C3.86745 14.2885 3.71298 14.3657 3.47355 14.3657H0.5L2.92518 16.0649C3.07965 16.2193 3.15688 16.3738 3.07965 16.6055L2.14511 19.386L4.57028 17.6868C4.64752 17.6096 4.72475 17.6096 4.87922 17.6096C5.03369 17.6096 5.11093 17.6096 5.18816 17.6868L7.61334 19.386L6.6788 16.6055C6.59384 16.3738 6.67107 16.1421 6.82554 16.0649Z" fill="white"/>
<path d="M32.2212 16.2966C33.0013 16.2966 33.7041 15.6787 33.7041 14.8291C33.7041 13.9795 33.0785 13.3616 32.2212 13.3616C31.4411 13.3616 30.7383 13.9795 30.7383 14.8291C30.7383 15.6787 31.3639 16.2966 32.2212 16.2966Z" fill="white"/>
<path d="M18.079 4.24792L17.3762 6.33327L19.1758 5.02027C19.3303 4.8658 19.5697 4.8658 19.7242 5.02027L21.5237 6.33327L20.8904 4.24792C20.8132 4.01622 20.8904 3.86175 21.0449 3.70728L22.8444 2.39428H20.6587C20.427 2.39428 20.2648 2.23981 20.1876 2.08534L19.4847 0L18.7819 2.08534C18.7046 2.31705 18.5502 2.39428 18.3108 2.39428H16.125L17.9246 3.70728C18.079 3.78451 18.1563 4.01622 18.079 4.24792Z" fill="white"/>
<path d="M38.0814 4.7113C36.753 4.7113 35.6562 5.79259 35.6562 7.10559C35.6562 8.41858 36.753 9.49987 38.0814 9.49987C39.4099 9.49987 40.5066 8.41858 40.5066 7.10559C40.4989 5.79259 39.4099 4.7113 38.0814 4.7113Z" fill="white"/>
<path d="M34.6467 26.955H27.3017C26.205 26.955 25.3477 27.8046 25.3477 28.8859C25.3477 29.9672 26.205 30.8168 27.3017 30.8168H34.6467C35.7435 30.8168 36.6008 29.9672 36.6008 28.8859C36.6008 27.8046 35.7358 26.955 34.6467 26.955Z" fill="white"/>
<path d="M34.6467 22.0892H27.3017C26.205 22.0892 25.3477 22.9388 25.3477 24.0201C25.3477 25.1014 26.205 25.951 27.3017 25.951H34.6467C35.7435 25.951 36.6008 25.1014 36.6008 24.0201C36.6008 22.9388 35.7358 22.0892 34.6467 22.0892Z" fill="white"/>
</g>
<defs>
<clipPath id="clip0_403_13124">
<rect width="40" height="40.4711" fill="white" transform="translate(0.5)"/>
</clipPath>
</defs>
</svg>
