<svg width="75" height="75" viewBox="0 0 75 75" fill="none" xmlns="http://www.w3.org/2000/svg">
<path d="M48.4375 15.625C52.8264 15.625 55.0209 15.625 56.5973 16.6783C57.2798 17.1343 57.8657 17.7202 58.3217 18.4027C59.375 19.9791 59.375 22.1736 59.375 26.5625V56.25C59.375 62.1426 59.375 65.0888 57.5444 66.9194C55.7138 68.75 52.7676 68.75 46.875 68.75H28.125C22.2324 68.75 19.2862 68.75 17.4556 66.9194C15.625 65.0888 15.625 62.1426 15.625 56.25V26.5625C15.625 22.1736 15.625 19.9791 16.6783 18.4027C17.1343 17.7202 17.7202 17.1343 18.4027 16.6783C19.9791 15.625 22.1736 15.625 26.5625 15.625" stroke="white" stroke-width="2"/>
<path d="M28.125 15.625C28.125 12.1732 30.9232 9.375 34.375 9.375H40.625C44.0768 9.375 46.875 12.1732 46.875 15.625C46.875 19.0768 44.0768 21.875 40.625 21.875H34.375C30.9232 21.875 28.125 19.0768 28.125 15.625Z" stroke="white" stroke-width="2"/>
<path d="M28.125 37.5L46.875 37.5" stroke="white" stroke-width="2" stroke-linecap="round"/>
<path d="M28.125 50L40.625 50" stroke="white" stroke-width="2" stroke-linecap="round"/>
</svg>
