<svg width="18" height="19" viewBox="0 0 18 19" fill="none" xmlns="http://www.w3.org/2000/svg">
<path d="M11.625 4.25C12.6783 4.25 13.205 4.25 13.5834 4.5028C13.7471 4.61223 13.8878 4.75286 13.9972 4.91664C14.25 5.29498 14.25 5.82165 14.25 6.875V14C14.25 15.4142 14.25 16.1213 13.8107 16.5607C13.3713 17 12.6642 17 11.25 17H6.75C5.33579 17 4.62868 17 4.18934 16.5607C3.75 16.1213 3.75 15.4142 3.75 14V6.875C3.75 5.82165 3.75 5.29498 4.0028 4.91664C4.11223 4.75286 4.25286 4.61223 4.41664 4.5028C4.79498 4.25 5.32165 4.25 6.375 4.25" stroke="#77C7BD"/>
<path d="M6.75 4.25C6.75 3.42157 7.42157 2.75 8.25 2.75H9.75C10.5784 2.75 11.25 3.42157 11.25 4.25C11.25 5.07843 10.5784 5.75 9.75 5.75H8.25C7.42157 5.75 6.75 5.07843 6.75 4.25Z" stroke="#77C7BD"/>
<path d="M6.75 9.5L11.25 9.5" stroke="#77C7BD" stroke-linecap="round"/>
<path d="M6.75 12.5L9.75 12.5" stroke="#77C7BD" stroke-linecap="round"/>
</svg>
