<svg width="16" height="16" viewBox="0 0 16 16" fill="none" xmlns="http://www.w3.org/2000/svg">
<g clip-path="url(#clip0_484_13091)">
<path fill-rule="evenodd" clip-rule="evenodd" d="M7.9987 1.83331C6.3632 1.83331 4.79468 2.48301 3.63821 3.63949C2.48173 4.79596 1.83203 6.36448 1.83203 7.99998C1.83203 9.63548 2.48173 11.204 3.63821 12.3605C4.79468 13.5169 6.3632 14.1666 7.9987 14.1666C9.6342 14.1666 11.2027 13.5169 12.3592 12.3605C13.5157 11.204 14.1654 9.63548 14.1654 7.99998C14.1654 6.36448 13.5157 4.79596 12.3592 3.63949C11.2027 2.48301 9.6342 1.83331 7.9987 1.83331ZM0.832031 7.99998C0.832031 4.04198 4.0407 0.833313 7.9987 0.833313C11.9567 0.833313 15.1654 4.04198 15.1654 7.99998C15.1654 11.958 11.9567 15.1666 7.9987 15.1666C4.0407 15.1666 0.832031 11.958 0.832031 7.99998ZM7.9987 3.49998C8.13131 3.49998 8.25848 3.55266 8.35225 3.64643C8.44602 3.74019 8.4987 3.86737 8.4987 3.99998V4.21131C9.58536 4.40598 10.4987 5.22265 10.4987 6.33331C10.4987 6.46592 10.446 6.5931 10.3523 6.68687C10.2585 6.78063 10.1313 6.83331 9.9987 6.83331C9.86609 6.83331 9.73891 6.78063 9.64514 6.68687C9.55138 6.5931 9.4987 6.46592 9.4987 6.33331C9.4987 5.88131 9.1227 5.40198 8.4987 5.23131V7.54465C9.58536 7.73931 10.4987 8.55598 10.4987 9.66665C10.4987 10.7773 9.58536 11.594 8.4987 11.7886V12C8.4987 12.1326 8.44602 12.2598 8.35225 12.3535C8.25848 12.4473 8.13131 12.5 7.9987 12.5C7.86609 12.5 7.73891 12.4473 7.64514 12.3535C7.55138 12.2598 7.4987 12.1326 7.4987 12V11.7886C6.41203 11.594 5.4987 10.7773 5.4987 9.66665C5.4987 9.53404 5.55138 9.40686 5.64514 9.31309C5.73891 9.21932 5.86609 9.16665 5.9987 9.16665C6.13131 9.16665 6.25848 9.21932 6.35225 9.31309C6.44602 9.40686 6.4987 9.53404 6.4987 9.66665C6.4987 10.1186 6.8747 10.598 7.4987 10.768V8.45531C6.41203 8.26065 5.4987 7.44398 5.4987 6.33331C5.4987 5.22265 6.41203 4.40598 7.4987 4.21131V3.99998C7.4987 3.86737 7.55138 3.74019 7.64514 3.64643C7.73891 3.55266 7.86609 3.49998 7.9987 3.49998ZM7.4987 5.23131C6.8747 5.40198 6.4987 5.88131 6.4987 6.33331C6.4987 6.78531 6.8747 7.26465 7.4987 7.43465V5.23131ZM8.4987 8.56465V10.7686C9.1227 10.598 9.4987 10.1193 9.4987 9.66665C9.4987 9.21465 9.1227 8.73465 8.4987 8.56465Z" fill="white"/>
</g>
<defs>
<clipPath id="clip0_484_13091">
<rect width="16" height="16" fill="white"/>
</clipPath>
</defs>
</svg>
