<svg width="196" height="152" viewBox="0 0 196 152" fill="none" xmlns="http://www.w3.org/2000/svg">
<path fill-rule="evenodd" clip-rule="evenodd" d="M49.3921 100.52H120.736C121.14 100.52 121.533 100.477 121.912 100.394C122.291 100.477 122.684 100.52 123.088 100.52H163.856C166.887 100.52 169.344 98.0755 169.344 95.06C169.344 92.0446 166.887 89.6 163.856 89.6H159.152C156.121 89.6 153.664 87.1555 153.664 84.14C153.664 81.1246 156.121 78.68 159.152 78.68H174.048C177.079 78.68 179.536 76.2355 179.536 73.22C179.536 70.2046 177.079 67.76 174.048 67.76H156.8C159.831 67.76 162.288 65.3155 162.288 62.3C162.288 59.2846 159.831 56.84 156.8 56.84H106.624C109.655 56.84 112.112 54.3955 112.112 51.38C112.112 48.3646 109.655 45.92 106.624 45.92H61.9361C58.9052 45.92 56.4481 48.3646 56.4481 51.38C56.4481 54.3955 58.9052 56.84 61.9361 56.84H30.5761C27.5452 56.84 25.0881 59.2846 25.0881 62.3C25.0881 65.3155 27.5452 67.76 30.5761 67.76H50.1761C53.2071 67.76 55.6641 70.2046 55.6641 73.22C55.6641 76.2355 53.2071 78.68 50.1761 78.68H18.8161C15.7852 78.68 13.3281 81.1246 13.3281 84.14C13.3281 87.1555 15.7852 89.6 18.8161 89.6H49.3921C46.3612 89.6 43.9041 92.0446 43.9041 95.06C43.9041 98.0755 46.3612 100.52 49.3921 100.52ZM177.184 100.52C180.215 100.52 182.672 98.0755 182.672 95.06C182.672 92.0446 180.215 89.6 177.184 89.6C174.153 89.6 171.696 92.0446 171.696 95.06C171.696 98.0755 174.153 100.52 177.184 100.52Z" fill="#F3F7FF"/>
<path d="M135.24 31.1V35.78" stroke="white" stroke-width="2.5" stroke-linecap="round" stroke-linejoin="round"/>
<path d="M135.24 42.02V46.7" stroke="white" stroke-width="2.5" stroke-linecap="round" stroke-linejoin="round"/>
<path d="M127.4 38.9H132.104" stroke="white" stroke-width="2.5" stroke-linecap="round" stroke-linejoin="round"/>
<path d="M138.377 38.9H143.081" stroke="white" stroke-width="2.5" stroke-linecap="round" stroke-linejoin="round"/>
<path d="M70.1693 111.44V114.56" stroke="#74C0FC" stroke-width="2.5" stroke-linecap="round" stroke-linejoin="round"/>
<path d="M70.1693 120.8V123.92" stroke="#74C0FC" stroke-width="2.5" stroke-linecap="round" stroke-linejoin="round"/>
<path d="M63.8965 117.68H67.0325" stroke="#74C0FC" stroke-width="2.5" stroke-linecap="round" stroke-linejoin="round"/>
<path d="M73.3047 117.68H76.4407" stroke="#74C0FC" stroke-width="2.5" stroke-linecap="round" stroke-linejoin="round"/>
<path fill-rule="evenodd" clip-rule="evenodd" d="M125.997 98.2786C127.088 96.9502 128.068 95.5609 128.937 94.123C130.85 90.9606 132.229 87.563 133.071 84.0601C133.923 80.5174 134.227 76.867 133.981 73.2431C133.765 70.081 133.131 66.9391 132.076 63.9067C131.03 60.8982 129.569 57.9975 127.694 55.2918C126.576 53.6794 125.311 52.1363 123.898 50.6809C121.824 48.544 119.548 46.7171 117.131 45.2014C114.533 43.5729 111.771 42.3035 108.918 41.3948C105.344 40.2567 101.628 39.6842 97.9101 39.6801C95.0176 39.6768 92.1249 40.0176 89.2991 40.7038C86.1178 41.4763 83.0214 42.6864 80.106 44.3361C77.5431 45.7862 75.1201 47.576 72.9021 49.7067C70.1148 52.3843 67.8571 55.4026 66.1309 58.6329C64.4409 61.7955 63.2604 65.1612 62.5914 68.6092C61.9021 72.1616 61.7557 75.8012 62.1542 79.3959C62.6708 84.0551 64.1028 88.6389 66.4548 92.8593C67.9598 95.5598 69.8415 98.1116 72.1011 100.439C75.6882 104.134 79.8761 106.902 84.3615 108.738C89.8161 110.969 95.7107 111.822 101.5 111.284C106.359 110.833 111.143 109.402 115.531 106.986" fill="white"/>
<path d="M125.997 98.2786C127.088 96.9502 128.068 95.5609 128.937 94.123C130.85 90.9606 132.229 87.563 133.071 84.0601C133.923 80.5174 134.227 76.867 133.981 73.2431C133.765 70.081 133.131 66.9391 132.076 63.9067C131.03 60.8982 129.569 57.9975 127.694 55.2918C126.576 53.6794 125.311 52.1363 123.898 50.6808C121.824 48.544 119.548 46.7171 117.131 45.2014C114.533 43.5729 111.771 42.3035 108.918 41.3948C105.344 40.2567 101.628 39.6842 97.9101 39.6801C95.0176 39.6768 92.1249 40.0176 89.2991 40.7038C86.1178 41.4763 83.0214 42.6864 80.106 44.3361C77.5431 45.7862 75.1201 47.576 72.9021 49.7067C70.1148 52.3843 67.8571 55.4026 66.1309 58.6329C64.4409 61.7955 63.2604 65.1612 62.5914 68.6092C61.9021 72.1616 61.7557 75.8012 62.1542 79.3959C62.6708 84.0551 64.1028 88.6389 66.4548 92.8593C67.9598 95.5598 69.8415 98.1116 72.1011 100.439C75.6882 104.134 79.8761 106.902 84.3615 108.738C89.8161 110.969 95.7107 111.822 101.5 111.284C106.359 110.833 111.143 109.402 115.531 106.986" stroke="#33A194" stroke-width="2.5" stroke-linecap="round" stroke-linejoin="round"/>
<path fill-rule="evenodd" clip-rule="evenodd" d="M118.151 105.495C120.429 104.036 122.455 102.216 123.773 100.747L118.151 105.495Z" fill="white"/>
<path d="M118.151 105.495C120.429 104.036 122.455 102.216 123.773 100.747" stroke="#33A194" stroke-width="2.5" stroke-linecap="round"/>
<path d="M130.928 77.6013C130.704 77.6053 130.479 77.6073 130.254 77.6073C110.455 77.6073 94.2439 62.2503 92.8854 42.8C77.1264 45.2731 65.0723 58.9091 65.0723 75.3599C65.0723 93.5633 79.8314 108.32 98.0378 108.32C115.491 108.32 129.776 94.7594 130.928 77.6013Z" fill="#E8F0FE"/>
<path fill-rule="evenodd" clip-rule="evenodd" d="M85.4735 74.2909C84.5144 73.4098 83.0267 73.4774 82.1506 74.442C81.2745 75.4065 81.3418 76.9027 82.3009 77.7838L93.3702 87.9534C94.7129 89.187 96.7956 89.0922 98.0221 87.7419C98.0734 87.6845 98.0734 87.6845 98.1229 87.6256L113.92 68.5179C114.75 67.5133 114.614 66.0219 113.615 65.1867C112.616 64.3514 111.133 64.4887 110.303 65.4932L95.4511 83.4575L85.4735 74.2909Z" fill="white" stroke="#33A194" stroke-width="2.5" stroke-linecap="round"/>
<path fill-rule="evenodd" clip-rule="evenodd" d="M86.8858 46.2428C85.3568 46.8133 83.8633 47.5067 82.4204 48.3231C80.1783 49.5918 78.0586 51.1577 76.1183 53.0219C75.3229 53.786 74.5768 54.5819 73.8801 55.4056M71.724 58.2738C71.17 59.1067 70.6602 59.9605 70.1947 60.832C69.8508 61.4757 69.5311 62.1289 69.2355 62.7905" fill="white"/>
<path d="M87.3261 47.4102C87.974 47.1683 88.3022 46.4497 88.0591 45.8049C87.8159 45.1602 87.0935 44.8336 86.4455 45.0754L87.3261 47.4102ZM82.4204 48.3231L83.0401 49.4069L82.4204 48.3231ZM76.1183 53.0219L75.2476 52.1249L76.1183 53.0219ZM72.9212 54.6027C72.4756 55.1295 72.5437 55.9161 73.0733 56.3595C73.6029 56.8029 74.3934 56.7353 74.839 56.2085L72.9212 54.6027ZM72.7691 58.9619C73.1511 58.3877 72.9927 57.6141 72.4155 57.2341C71.8383 56.854 71.0608 57.0114 70.6789 57.5856L72.7691 58.9619ZM70.1947 60.832L71.3013 61.4173L70.1947 60.832ZM68.0903 62.2838C67.8092 62.913 68.094 63.6499 68.7264 63.9297C69.3589 64.2095 70.0995 63.9263 70.3806 63.2971L68.0903 62.2838ZM86.4455 45.0754C84.8551 45.6688 83.3016 46.3901 81.8007 47.2393L83.0401 49.4069C84.4249 48.6233 85.8584 47.9578 87.3261 47.4102L86.4455 45.0754ZM81.8007 47.2393C79.4682 48.5592 77.264 50.1876 75.2476 52.1249L76.9889 53.9188C78.8531 52.1278 80.8884 50.6245 83.0401 49.4069L81.8007 47.2393ZM75.2476 52.1249C74.4212 52.9189 73.6456 53.7462 72.9212 54.6027L74.839 56.2085C75.508 55.4176 76.2246 54.6531 76.9889 53.9188L75.2476 52.1249ZM70.6789 57.5856C70.1027 58.452 69.5724 59.3402 69.0881 60.2467L71.3013 61.4173C71.7481 60.5809 72.2374 59.7614 72.7691 58.9619L70.6789 57.5856ZM69.0881 60.2467C68.7304 60.9162 68.3978 61.5957 68.0903 62.2838L70.3806 63.2971C70.6643 62.6621 70.9712 62.0351 71.3013 61.4173L69.0881 60.2467Z" fill="#33A194"/>
</svg>
