<svg width="196" height="156" viewBox="0 0 196 156" fill="none" xmlns="http://www.w3.org/2000/svg">
<rect width="196" height="156" fill="white"/>
<path fill-rule="evenodd" clip-rule="evenodd" d="M49.3921 104.52H120.736C121.14 104.52 121.533 104.477 121.912 104.394C122.291 104.477 122.684 104.52 123.088 104.52H163.856C166.887 104.52 169.344 102.075 169.344 99.06C169.344 96.0445 166.887 93.6 163.856 93.6H159.152C156.121 93.6 153.664 91.1555 153.664 88.14C153.664 85.1245 156.121 82.68 159.152 82.68H174.048C177.079 82.68 179.536 80.2355 179.536 77.22C179.536 74.2045 177.079 71.76 174.048 71.76H156.8C159.831 71.76 162.288 69.3155 162.288 66.3C162.288 63.2845 159.831 60.84 156.8 60.84H106.624C109.655 60.84 112.112 58.3955 112.112 55.38C112.112 52.3645 109.655 49.92 106.624 49.92H61.9361C58.9052 49.92 56.4481 52.3645 56.4481 55.38C56.4481 58.3955 58.9052 60.84 61.9361 60.84H30.5761C27.5452 60.84 25.0881 63.2845 25.0881 66.3C25.0881 69.3155 27.5452 71.76 30.5761 71.76H50.1761C53.2071 71.76 55.6641 74.2045 55.6641 77.22C55.6641 80.2355 53.2071 82.68 50.1761 82.68H18.8161C15.7852 82.68 13.3281 85.1245 13.3281 88.14C13.3281 91.1555 15.7852 93.6 18.8161 93.6H49.3921C46.3612 93.6 43.9041 96.0445 43.9041 99.06C43.9041 102.075 46.3612 104.52 49.3921 104.52ZM177.184 104.52C180.215 104.52 182.672 102.075 182.672 99.06C182.672 96.0445 180.215 93.6 177.184 93.6C174.153 93.6 171.696 96.0445 171.696 99.06C171.696 102.075 174.153 104.52 177.184 104.52Z" fill="#F3F7FF"/>
<path d="M135.24 35.1V39.78" stroke="#33A194" stroke-width="2.5" stroke-linecap="round" stroke-linejoin="round"/>
<path d="M135.24 46.02V50.7" stroke="#33A194" stroke-width="2.5" stroke-linecap="round" stroke-linejoin="round"/>
<path d="M127.398 42.9H132.102" stroke="#33A194" stroke-width="2.5" stroke-linecap="round" stroke-linejoin="round"/>
<path d="M138.375 42.9H143.079" stroke="#33A194" stroke-width="2.5" stroke-linecap="round" stroke-linejoin="round"/>
<path d="M70.1654 115.44V118.56" stroke="#33A194" stroke-width="2.5" stroke-linecap="round" stroke-linejoin="round"/>
<path d="M70.1654 124.8V127.92" stroke="#33A194" stroke-width="2.5" stroke-linecap="round" stroke-linejoin="round"/>
<path d="M63.8945 121.68H67.0305" stroke="#33A194" stroke-width="2.5" stroke-linecap="round" stroke-linejoin="round"/>
<path d="M73.3008 121.68H76.4368" stroke="#33A194" stroke-width="2.5" stroke-linecap="round" stroke-linejoin="round"/>
<path fill-rule="evenodd" clip-rule="evenodd" d="M125.999 102.279C127.09 100.95 128.07 99.5608 128.939 98.123C130.852 94.9605 132.231 91.5629 133.073 88.06C133.925 84.5173 134.229 80.8669 133.983 77.2431C133.767 74.0809 133.133 70.939 132.078 67.9066C131.032 64.8982 129.571 61.9975 127.696 59.2917C126.578 57.6794 125.313 56.1363 123.9 54.6808C121.826 52.5439 119.55 50.7171 117.133 49.2014C114.535 47.5728 111.773 46.3035 108.92 45.3947C105.346 44.2567 101.629 43.6842 97.912 43.68C95.0196 43.6768 92.1268 44.0176 89.301 44.7037C86.1198 45.4762 83.0234 46.6863 80.1079 48.336C77.5451 49.7862 75.1221 51.576 72.9041 53.7066C70.1168 56.3842 67.859 59.4026 66.1329 62.6329C64.4429 65.7955 63.2624 69.1612 62.5934 72.6092C61.9041 76.1615 61.7577 79.8011 62.1562 83.3958C62.6727 88.055 64.1047 92.6388 66.4568 96.8592C67.9618 99.5598 69.8435 102.112 72.103 104.439C75.6901 108.134 79.878 110.902 84.3634 112.738C89.8181 114.969 95.7127 115.822 101.502 115.284C106.36 114.833 111.145 113.402 115.533 110.986" fill="white"/>
<path d="M125.999 102.279C127.09 100.95 128.07 99.5608 128.939 98.123C130.852 94.9605 132.231 91.5629 133.073 88.06C133.925 84.5173 134.229 80.8669 133.983 77.2431C133.767 74.0809 133.133 70.939 132.078 67.9066C131.032 64.8982 129.571 61.9975 127.696 59.2917C126.578 57.6794 125.313 56.1363 123.9 54.6808C121.826 52.5439 119.55 50.7171 117.133 49.2014C114.535 47.5728 111.773 46.3035 108.92 45.3947C105.346 44.2567 101.629 43.6842 97.912 43.68C95.0196 43.6768 92.1268 44.0176 89.301 44.7037C86.1198 45.4762 83.0234 46.6863 80.1079 48.336C77.5451 49.7862 75.1221 51.576 72.9041 53.7066C70.1168 56.3842 67.859 59.4026 66.1329 62.6329C64.4429 65.7955 63.2624 69.1612 62.5934 72.6092C61.9041 76.1615 61.7577 79.8011 62.1562 83.3958C62.6727 88.055 64.1047 92.6388 66.4568 96.8592C67.9618 99.5598 69.8435 102.112 72.103 104.439C75.6901 108.134 79.878 110.902 84.3634 112.738C89.8181 114.969 95.7127 115.822 101.502 115.284C106.36 114.833 111.145 113.402 115.533 110.986" stroke="#33A194" stroke-width="2.5" stroke-linecap="round" stroke-linejoin="round"/>
<path fill-rule="evenodd" clip-rule="evenodd" d="M118.149 109.495C120.427 108.036 122.453 106.216 123.771 104.747L118.149 109.495Z" fill="white"/>
<path d="M118.149 109.495C120.427 108.036 122.453 106.216 123.771 104.747" stroke="#33A194" stroke-width="2.5" stroke-linecap="round"/>
<path d="M130.926 81.6012C130.702 81.6052 130.477 81.6072 130.252 81.6072C110.453 81.6072 94.2419 66.2502 92.8834 46.8C77.1245 49.2731 65.0703 62.909 65.0703 79.3599C65.0703 97.5632 79.8295 112.32 98.0358 112.32C115.489 112.32 129.774 98.7593 130.926 81.6012Z" fill="#E8F0FE"/>
<path fill-rule="evenodd" clip-rule="evenodd" d="M85.4735 78.2909C84.5144 77.4098 83.0267 77.4774 82.1506 78.442C81.2745 79.4065 81.3418 80.9027 82.3009 81.7838L93.3702 91.9534C94.7129 93.187 96.7956 93.0922 98.0221 91.7419C98.0734 91.6845 98.0734 91.6845 98.1229 91.6256L113.92 72.5179C114.75 71.5133 114.614 70.0219 113.615 69.1867C112.616 68.3514 111.133 68.4887 110.303 69.4932L95.4511 87.4575L85.4735 78.2909Z" fill="white" stroke="#33A194" stroke-width="2.5" stroke-linecap="round"/>
<path fill-rule="evenodd" clip-rule="evenodd" d="M86.8877 50.2427C85.3587 50.8133 83.8652 51.5066 82.4224 52.3231C80.1803 53.5918 78.0605 55.1576 76.1202 57.0218C75.3248 57.786 74.5788 58.5818 73.8821 59.4055M71.726 62.2737C71.172 63.1066 70.6622 63.9605 70.1966 64.832C69.8528 65.4756 69.533 66.1289 69.2374 66.7904" fill="white"/>
<path d="M87.328 51.4101C87.976 51.1683 88.3042 50.4496 88.061 49.8049C87.8178 49.1601 87.0954 48.8335 86.4474 49.0753L87.328 51.4101ZM82.4224 52.3231L83.0421 53.4069L82.4224 52.3231ZM76.1202 57.0218L75.2496 56.1249L76.1202 57.0218ZM72.9232 58.6027C72.4776 59.1295 72.5456 59.916 73.0752 60.3594C73.6048 60.8028 74.3954 60.7352 74.841 60.2084L72.9232 58.6027ZM72.7711 62.9619C73.153 62.3877 72.9947 61.6141 72.4175 61.234C71.8402 60.854 71.0627 61.0113 70.6808 61.5856L72.7711 62.9619ZM70.1966 64.832L71.3032 65.4173L70.1966 64.832ZM68.0923 66.2838C67.8111 66.9129 68.0959 67.6498 68.7284 67.9296C69.3608 68.2095 70.1014 67.9262 70.3826 67.2971L68.0923 66.2838ZM86.4474 49.0753C84.8571 49.6688 83.3035 50.39 81.8027 51.2393L83.0421 53.4069C84.4269 52.6233 85.8604 51.9578 87.328 51.4101L86.4474 49.0753ZM81.8027 51.2393C79.4702 52.5591 77.266 54.1876 75.2496 56.1249L76.9908 57.9188C78.855 56.1277 80.8904 54.6244 83.0421 53.4069L81.8027 51.2393ZM75.2496 56.1249C74.4231 56.9189 73.6476 57.7462 72.9232 58.6027L74.841 60.2084C75.51 59.4175 76.2266 58.653 76.9908 57.9188L75.2496 56.1249ZM70.6808 61.5856C70.1046 62.4519 69.5743 63.3401 69.09 64.2466L71.3032 65.4173C71.7501 64.5808 72.2394 63.7613 72.7711 62.9619L70.6808 61.5856ZM69.09 64.2466C68.7323 64.9162 68.3997 65.5957 68.0923 66.2838L70.3826 67.2971C70.6663 66.6621 70.9732 66.035 71.3032 65.4173L69.09 64.2466Z" fill="#33A194"/>
</svg>
