<svg width="18" height="18" viewBox="0 0 18 18" fill="none" xmlns="http://www.w3.org/2000/svg">
<path d="M6.75 7.5L9.0081 9.19358C9.42658 9.50743 10.0162 9.44575 10.3607 9.05208L15 3.75" stroke="white" stroke-linecap="round"/>
<path d="M15.75 9C15.75 10.4104 15.3082 11.7853 14.4867 12.9317C13.6652 14.0781 12.5052 14.9384 11.1697 15.3918C9.8342 15.8451 8.39022 15.8688 7.04058 15.4593C5.69094 15.0499 4.50344 14.2281 3.64487 13.1091C2.78629 11.9902 2.29976 10.6305 2.25361 9.22085C2.20747 7.81124 2.60402 6.42258 3.38758 5.2499C4.17114 4.07722 5.30234 3.17944 6.62231 2.68264C7.94228 2.18583 9.38472 2.11497 10.747 2.48" stroke="white" stroke-linecap="round"/>
</svg>
