<svg width="196" height="156" viewBox="0 0 196 156" fill="none" xmlns="http://www.w3.org/2000/svg">
<rect width="196" height="156" fill="white"/>
<path fill-rule="evenodd" clip-rule="evenodd" d="M162.288 50.7C165.319 50.7 167.776 53.1445 167.776 56.16C167.776 59.1755 165.319 61.62 162.288 61.62H130.928C133.959 61.62 136.416 64.0645 136.416 67.08C136.416 70.0955 133.959 72.54 130.928 72.54H148.176C151.207 72.54 153.664 74.9845 153.664 78C153.664 81.0155 151.207 83.46 148.176 83.46H140.2C136.378 83.46 133.28 85.9045 133.28 88.92C133.28 90.9303 134.848 92.7503 137.984 94.38C141.015 94.38 143.472 96.8245 143.472 99.84C143.472 102.855 141.015 105.3 137.984 105.3H72.912C69.8811 105.3 67.424 102.855 67.424 99.84C67.424 96.8245 69.8811 94.38 72.912 94.38H42.336C39.3051 94.38 36.848 91.9355 36.848 88.92C36.848 85.9045 39.3051 83.46 42.336 83.46H73.696C76.727 83.46 79.184 81.0155 79.184 78C79.184 74.9845 76.727 72.54 73.696 72.54H54.096C51.0651 72.54 48.608 70.0955 48.608 67.08C48.608 64.0645 51.0651 61.62 54.096 61.62H85.456C82.4251 61.62 79.968 59.1755 79.968 56.16C79.968 53.1445 82.4251 50.7 85.456 50.7H162.288ZM162.288 72.54C165.319 72.54 167.776 74.9845 167.776 78C167.776 81.0155 165.319 83.46 162.288 83.46C159.257 83.46 156.8 81.0155 156.8 78C156.8 74.9845 159.257 72.54 162.288 72.54Z" fill="#F3F7FF"/>
<path d="M94.472 103.74C108.977 103.74 120.736 92.0412 120.736 77.61C120.736 63.1788 108.977 51.48 94.472 51.48C79.9668 51.48 68.208 63.1788 68.208 77.61C68.208 92.0412 79.9668 103.74 94.472 103.74Z" fill="#F3F7FF" stroke="#77C7BD" stroke-width="2.5"/>
<path fill-rule="evenodd" clip-rule="evenodd" d="M90.2635 97.8852C91.6424 98.1385 93.0452 98.27 94.472 98.28C105.946 98.28 115.248 89.0257 115.248 77.61C115.248 66.1943 105.946 56.94 94.472 56.94C91.5244 56.94 88.7202 57.5507 86.1803 58.6518C81.7664 60.5653 78.1503 63.9599 75.9664 68.2047C74.5149 71.026 73.696 74.2228 73.696 77.61C73.696 80.6832 74.3701 83.5998 75.5793 86.2213C76.4425 88.0929 77.5785 89.8141 78.9365 91.3346" fill="white"/>
<path d="M90.2635 97.8852C91.6424 98.1384 93.0452 98.27 94.472 98.28C105.946 98.28 115.248 89.0257 115.248 77.61C115.248 66.1943 105.946 56.94 94.472 56.94C91.5244 56.94 88.7202 57.5507 86.1803 58.6518C81.7664 60.5653 78.1503 63.9599 75.9664 68.2047C74.5149 71.026 73.696 74.2228 73.696 77.61C73.696 80.6832 74.3701 83.5998 75.5793 86.2213C76.4425 88.0929 77.5785 89.8141 78.9365 91.3346" stroke="#77C7BD" stroke-width="2.5" stroke-linecap="round"/>
<path d="M81.3772 93.6583C83.0613 95.0201 84.964 96.1249 87.0247 96.9124" stroke="#77C7BD" stroke-width="2.5" stroke-linecap="round"/>
<path d="M116.032 98.28L120.736 102.96" stroke="#77C7BD" stroke-width="2.5"/>
<path fill-rule="evenodd" clip-rule="evenodd" d="M119.976 102.204C118.492 103.68 118.492 106.074 119.976 107.55L128.667 116.196C130.151 117.673 132.556 117.673 134.04 116.196C135.524 114.72 135.524 112.326 134.04 110.85L125.349 102.204C123.866 100.727 121.46 100.727 119.976 102.204Z" fill="#E8F0FE" stroke="#77C7BD" stroke-width="2.5"/>
<path d="M123.872 103.74L132.496 112.32" stroke="white" stroke-width="2.5" stroke-linecap="round"/>
<path fill-rule="evenodd" clip-rule="evenodd" d="M89.376 68.64C89.376 77.6864 96.7472 85.02 105.84 85.02C107.626 85.02 109.346 84.737 110.957 84.2136C108.328 90.7039 101.938 95.2853 94.472 95.2853C84.6601 95.2853 76.7061 87.3718 76.7061 77.61C76.7061 68.7645 83.2371 61.4365 91.7633 60.1388C90.2486 62.6179 89.376 65.5276 89.376 68.64Z" fill="#E8F0FE"/>
<path d="M94.864 63.18C93.8657 63.18 92.8903 63.2777 91.947 63.464M89.0975 64.3313C83.7342 66.5736 79.968 71.8492 79.968 78" stroke="#77C7BD" stroke-width="2.5" stroke-linecap="round"/>
<path d="M136.554 77.8263H130.144M141.512 71.76H128.046H141.512ZM147 71.76H145.259H147Z" stroke="#77C7BD" stroke-width="2.5" stroke-linecap="round" stroke-linejoin="round"/>
<path d="M65.9938 94.9863H59.584M62.328 88.14H48.8622H62.328ZM44.296 88.14H40.9866H44.296Z" stroke="#77C7BD" stroke-width="2.5" stroke-linecap="round" stroke-linejoin="round"/>
</svg>
