<svg width="200" height="133" viewBox="0 0 200 133" fill="none" xmlns="http://www.w3.org/2000/svg">
<g clip-path="url(#clip0_2_407)">
<path d="M71.7401 76.4932C78.5941 64.4362 91.6683 55.1784 105.508 56.0702C95.2995 67.1719 89.3465 81.5269 88.7026 96.5952C88.4754 102.407 88.8278 108.896 84.9687 113.248C82.5676 115.956 78.8973 117.267 75.2887 117.542C71.6799 117.817 68.0719 117.165 64.5113 116.516L63.6476 116.781C63.3187 102.916 64.886 88.5502 71.7401 76.4932Z" fill="#F0F0F0"/>
<path d="M105.529 56.3605C95.2944 61.2875 86.5676 69.516 81.2104 79.5513C80.0522 81.7209 79.0661 84.0226 78.636 86.4563C78.2056 88.891 78.5062 91.2086 79.3378 93.5211C80.0981 95.6352 81.1205 97.7096 81.3536 99.9716C81.5994 102.356 80.7221 104.585 79.1429 106.355C77.2107 108.52 74.6159 109.861 72.0328 111.085C69.1648 112.443 66.1643 113.809 64.1329 116.345C63.8868 116.652 63.4245 116.252 63.6702 115.946C67.2045 111.534 73.2542 110.704 77.4494 107.151C79.4069 105.492 80.8766 103.234 80.7838 100.588C80.7027 98.2739 79.6502 96.1338 78.8619 93.9999C78.0342 91.7593 77.6214 89.5064 77.9183 87.1176C78.2219 84.674 79.1201 82.3289 80.2177 80.1391C82.6932 75.2008 86.081 70.6671 89.9619 66.7479C94.4222 62.243 99.6202 58.5342 105.331 55.7821C105.685 55.6119 105.88 56.1914 105.529 56.3605Z" fill="white"/>
<path d="M82.7796 76.1975C81.2107 75.0502 80.1006 73.3826 79.6476 71.4925C79.1946 69.6023 79.4283 67.6127 80.3069 65.8789C80.4859 65.5287 81.0385 65.7903 80.8593 66.141C80.0381 67.754 79.8207 69.6074 80.246 71.3666C80.6714 73.1259 81.7117 74.6751 83.1791 75.7348C83.4977 75.9654 83.0964 76.4268 82.7796 76.1975Z" fill="white"/>
<path d="M78.8112 92.5C82.7427 91.9255 86.3133 89.8903 88.8109 86.8002C89.0581 86.4938 89.5205 86.8936 89.2736 87.1996C86.6685 90.4104 82.9485 92.5208 78.8559 93.1096C78.4658 93.1654 78.4232 92.5555 78.8112 92.5Z" fill="white"/>
<path d="M94.7241 62.9951C95.2387 63.5655 95.8869 63.9992 96.6105 64.2571C97.3341 64.5151 98.1104 64.5893 98.8698 64.4731C99.259 64.4123 99.3013 65.0223 98.9146 65.0827C98.075 65.2072 97.2177 65.1242 96.4176 64.8409C95.6175 64.5577 94.8989 64.0828 94.3247 63.4578C94.2656 63.4034 94.2295 63.3286 94.2236 63.2485C94.2177 63.1685 94.2426 63.0892 94.2931 63.0267C94.3462 62.9657 94.4214 62.9282 94.5021 62.9223C94.5828 62.9163 94.6626 62.9425 94.7241 62.9951Z" fill="white"/>
<path d="M133.046 94.1056C132.804 94.1505 132.562 94.1953 132.318 94.2449C129.068 94.8648 125.874 95.7477 122.767 96.8849C122.526 96.969 122.282 97.0579 122.044 97.1488C114.588 99.9683 107.72 104.148 101.79 109.474C99.4322 111.596 97.2393 113.894 95.2301 116.348C92.4556 119.738 89.717 123.634 86.0914 125.845C85.7158 126.08 85.3259 126.291 84.9241 126.478L64.038 117.814C64.0005 117.771 63.9607 117.732 63.9229 117.688L63.0731 117.381C63.1679 117.247 63.2691 117.11 63.3639 116.976C63.4185 116.898 63.4778 116.822 63.5325 116.744C63.5704 116.693 63.6086 116.642 63.6398 116.593C63.6524 116.576 63.6652 116.559 63.6758 116.547C63.707 116.499 63.7412 116.457 63.7705 116.413C64.334 115.647 64.9038 114.884 65.48 114.123C65.4819 114.118 65.4819 114.118 65.4886 114.115C69.8935 108.33 74.8201 102.862 80.4201 98.3147C80.5886 98.178 80.7589 98.0364 80.937 97.9036C83.4726 95.8681 86.1703 94.0432 89.0032 92.4472C90.5572 91.5783 92.1542 90.7886 93.7881 90.0812C98.0132 88.2614 102.498 87.1175 107.079 86.6914C116.211 85.8435 125.512 87.9254 132.515 93.6621C132.694 93.809 132.869 93.954 133.046 94.1056Z" fill="#F0F0F0"/>
<path d="M132.889 94.3512C121.751 92.1232 109.829 93.439 99.5097 98.2263C97.2787 99.2613 95.1055 100.505 93.2969 102.19C91.4874 103.874 90.332 105.906 89.6037 108.253C88.9379 110.399 88.5054 112.671 87.3296 114.617C86.0903 116.669 84.0476 117.921 81.7214 118.383C78.8753 118.948 75.9958 118.457 73.1966 117.878C70.0886 117.237 66.8706 116.521 63.722 117.322C63.3405 117.419 63.212 116.822 63.593 116.725C69.0711 115.33 74.4008 118.31 79.8901 117.998C82.4515 117.853 84.9846 116.935 86.5037 114.766C87.8321 112.87 88.2801 110.527 88.9355 108.349C89.6236 106.061 90.6504 104.014 92.3257 102.285C94.0393 100.517 96.1684 99.1855 98.3632 98.098C103.313 95.6454 108.748 94.0652 114.206 93.2725C120.479 92.3609 126.863 92.5293 133.079 93.7702C133.464 93.8472 133.271 94.4277 132.889 94.3512Z" fill="white"/>
<path d="M102.782 96.4932C102.22 94.6326 102.338 92.6327 103.114 90.8508C103.89 89.0689 105.275 87.621 107.02 86.7656C107.374 86.5938 107.657 87.1354 107.303 87.3075C105.677 88.101 104.387 89.4499 103.667 91.1107C102.948 92.7715 102.846 94.6348 103.379 96.3643C103.495 96.7403 102.897 96.8671 102.782 96.4932Z" fill="white"/>
<path d="M89.798 107.121C93.283 109.029 97.3593 109.554 101.214 108.59C101.596 108.494 101.724 109.092 101.343 109.188C97.3298 110.183 93.0889 109.628 89.4667 107.634C89.1216 107.444 89.4548 106.931 89.798 107.121Z" fill="white"/>
<path d="M120.268 93.1433C120.335 93.9085 120.592 94.645 121.014 95.2867C121.436 95.9283 122.012 96.455 122.688 96.8194C123.035 97.0052 122.702 97.5177 122.357 97.3331C121.611 96.927 120.977 96.3446 120.508 95.6367C120.04 94.9288 119.752 94.117 119.67 93.2723C119.656 93.1933 119.672 93.1118 119.715 93.0443C119.759 92.9768 119.826 92.9285 119.904 92.909C119.984 92.8924 120.066 92.9076 120.134 92.9515C120.202 92.9953 120.25 93.0643 120.268 93.1433Z" fill="white"/>
<path d="M93.2596 108.398C90.3345 94.2552 86.6782 89.5399 86.6782 89.5399L85.2814 88.4567L83.6017 87.1519L83.6098 86.9842L83.2114 86.8487L83.1178 86.776L82.9644 86.6583L82.9398 86.6848L82.8877 86.7387L75.2865 84.155L65.6432 80.8794L61.1777 75.0752C60.4505 74.1299 59.5142 73.3658 58.4422 72.843C57.3703 72.3201 56.1918 72.0526 54.9991 72.0614L40.7378 72.1669C38.8095 72.1812 36.9563 72.9163 35.5425 74.2277L26.1688 82.9225L11.5628 89.8982L11.5381 89.8736L11.3847 89.9831L9.12797 91.0622L9.2211 91.547L7.8243 92.5549C7.8243 92.5549 4.168 96.9424 1.24295 110.102C0.49885 113.451 0.132576 120.634 0.000371524 129.485C-0.00626912 129.933 0.0761714 130.378 0.242897 130.793C0.409623 131.209 0.65731 131.587 0.971554 131.906C1.2858 132.225 1.66033 132.479 2.07338 132.652C2.48642 132.825 2.92974 132.914 3.37755 132.914H81.3914L91.1285 132.914C91.576 132.914 92.019 132.825 92.4318 132.652C92.8446 132.479 93.2189 132.226 93.5331 131.907C93.8473 131.589 94.095 131.211 94.262 130.796C94.429 130.38 94.5118 129.936 94.5057 129.489C94.3766 119.857 94.0104 112.03 93.2596 108.398Z" fill="#3F3D56"/>
<path d="M103.269 12.3339C100.234 12.3339 97.323 13.5396 95.1768 15.6858C93.0306 17.832 91.8249 20.7429 91.8249 23.7781C91.8249 26.8133 93.0306 29.7242 95.1768 31.8704C97.323 34.0166 100.234 35.2223 103.269 35.2223H188.556C191.591 35.2223 194.502 34.0166 196.648 31.8704C198.794 29.7242 200 26.8133 200 23.7781C200 20.7429 198.794 17.832 196.648 15.6858C194.502 13.5396 191.591 12.3339 188.556 12.3339H103.269Z" fill="#E5E5E5"/>
<path d="M103.269 14.65C100.848 14.65 98.5264 15.6117 96.8146 17.3236C95.1027 19.0354 94.141 21.3572 94.141 23.7781C94.141 26.1991 95.1027 28.5208 96.8146 30.2327C98.5264 31.9445 100.848 32.9063 103.269 32.9063H188.556C190.977 32.9063 193.298 31.9445 195.01 30.2327C196.722 28.5208 197.684 26.1991 197.684 23.7781C197.684 21.3572 196.722 19.0354 195.01 17.3236C193.298 15.6117 190.977 14.65 188.556 14.65H103.269Z" fill="white"/>
<path d="M50.1081 66.7038C60.4268 66.7038 68.7917 58.3388 68.7917 48.0201C68.7917 37.7014 60.4268 29.3364 50.1081 29.3364C39.7894 29.3364 31.4244 37.7014 31.4244 48.0201C31.4244 58.3388 39.7894 66.7038 50.1081 66.7038Z" fill="#9E616A"/>
<path d="M45.3284 65.7889C45.2486 65.6132 45.169 65.4368 45.0896 65.2599C45.1202 65.2609 45.1505 65.2653 45.1811 65.2661L45.3284 65.7889Z" fill="#2F2E41"/>
<path d="M30.9049 30.1861C31.8498 29.4322 32.9543 28.7386 34.1625 28.7776C35.3706 28.8166 36.5958 29.9078 36.3455 31.0904C38.5646 27.1611 42.0968 24.1391 46.3221 22.5548C50.5474 20.9704 55.1958 20.9249 59.4513 22.4263C62.4541 23.4857 65.3988 25.6052 66.0885 28.7137C66.2656 29.5117 66.3036 30.3867 66.8019 31.0347C67.4301 31.8517 68.632 32.0365 69.6217 31.7491C69.6316 31.7462 69.6415 31.7433 69.6514 31.7403C69.8186 31.6832 69.9991 31.6776 70.1695 31.7242C70.3399 31.7708 70.4924 31.8675 70.6073 32.0017C70.7222 32.1359 70.7942 32.3015 70.8139 32.4771C70.8336 32.6527 70.8003 32.8301 70.718 32.9865L69.8684 34.5711C70.9394 34.8098 72.0523 34.7861 73.1122 34.5021C73.2883 34.4559 73.4743 34.4653 73.6448 34.5291C73.8153 34.5928 73.9619 34.7077 74.0645 34.8581C74.1671 35.0084 74.2207 35.1869 74.2179 35.3689C74.215 35.5509 74.156 35.7275 74.0488 35.8747C71.2472 39.7211 66.5667 42.2049 61.7904 42.1757C58.3957 42.155 54.966 40.985 51.6621 41.7657C50.384 42.0677 49.1897 42.652 48.1668 43.4758C47.144 44.2995 46.3186 45.3419 45.7511 46.5263C45.1836 47.7106 44.8885 49.0071 44.8874 50.3204C44.8863 51.6337 45.1793 52.9306 45.7448 54.1159C44.7298 53.0058 42.7678 53.2686 41.7296 54.3571C40.6914 55.4456 40.4226 57.0702 40.5273 58.5708C40.6872 60.8658 41.5864 63.0284 42.5344 65.1332C34.5866 64.883 27.0692 59.3077 24.5389 51.767C21.9979 44.1948 24.661 35.167 30.9049 30.1861Z" fill="#2F2E41"/>
<path opacity="0.2" d="M18.3895 104.128L23.6299 132.64L26.7742 132.914L18.3895 104.128Z" fill="black"/>
<path opacity="0.2" d="M76.113 101.978L70.8727 132.62L67.7283 132.914L76.113 101.978Z" fill="black"/>
<path d="M35.3744 20.5905C34.3696 21.0101 33.3212 20.5502 32.8815 19.4973C32.4351 18.4282 32.8521 17.3429 33.8729 16.9166C34.8939 16.4903 35.9236 16.9512 36.3772 18.0376C36.8241 19.1076 36.4117 20.1574 35.3744 20.5905ZM33.4497 14.8123L32.6508 15.1459C32.4512 15.2283 32.228 15.2327 32.0253 15.1584C31.8226 15.084 31.6552 14.9363 31.5562 14.7445L31.5167 14.6672C30.6571 13.1169 30.5587 11.2327 31.2257 9.07003C31.8436 7.12996 32.1003 5.76552 31.5841 4.52941C30.9874 3.10024 29.713 2.65254 28.088 3.30108C27.4577 3.56426 27.2571 3.56006 26.7611 4.0521C26.6533 4.16043 26.5246 4.24592 26.383 4.30348C26.2414 4.36104 26.0896 4.38949 25.9367 4.38712C25.7889 4.38538 25.643 4.3539 25.5076 4.29455C25.3723 4.2352 25.2503 4.1492 25.1489 4.04168C24.9535 3.83447 24.844 3.56084 24.8426 3.27606C24.8412 2.99128 24.9479 2.71656 25.1411 2.50739C25.9748 1.63468 26.9803 0.944259 28.0943 0.479688C31.5858 -0.978266 33.3435 1.17419 34.1478 3.10044C34.9346 4.98454 34.492 6.73266 33.7809 8.99665C33.185 10.8779 33.2198 12.2719 33.8966 13.6579C33.9455 13.7627 33.9727 13.8763 33.9766 13.9918C33.9805 14.1074 33.9609 14.2225 33.9192 14.3304C33.8775 14.4382 33.8143 14.5365 33.7337 14.6193C33.653 14.7021 33.5564 14.7678 33.4497 14.8123Z" fill="#33A194"/>
<path d="M122.108 29.2362H105.139C105.085 29.2366 105.032 29.2263 104.982 29.2059C104.932 29.1856 104.886 29.1555 104.848 29.1175C104.81 29.0795 104.78 29.0343 104.759 28.9846C104.738 28.9348 104.727 28.8814 104.727 28.8275C104.727 28.7736 104.738 28.7202 104.759 28.6705C104.78 28.6207 104.81 28.5755 104.848 28.5375C104.886 28.4995 104.932 28.4695 104.982 28.4491C105.032 28.4287 105.085 28.4184 105.139 28.4188H122.108C122.216 28.4195 122.319 28.4629 122.395 28.5395C122.471 28.6161 122.514 28.7196 122.514 28.8275C122.514 28.9354 122.471 29.039 122.395 29.1155C122.319 29.1921 122.216 29.2355 122.108 29.2362Z" fill="#7F79F5"/>
<path d="M143.634 29.3725H126.665C126.611 29.3728 126.558 29.3625 126.508 29.3422C126.458 29.3218 126.412 29.2917 126.374 29.2537C126.336 29.2158 126.306 29.1706 126.285 29.1208C126.264 29.071 126.253 29.0177 126.253 28.9638C126.253 28.9098 126.264 28.8565 126.285 28.8067C126.306 28.7569 126.336 28.7117 126.374 28.6737C126.412 28.6358 126.458 28.6057 126.508 28.5853C126.558 28.565 126.611 28.5547 126.665 28.555H143.634C143.688 28.5547 143.741 28.565 143.791 28.5853C143.841 28.6057 143.886 28.6358 143.925 28.6737C143.963 28.7117 143.993 28.7569 144.014 28.8067C144.035 28.8565 144.045 28.9098 144.045 28.9638C144.045 29.0177 144.035 29.071 144.014 29.1208C143.993 29.1706 143.963 29.2158 143.925 29.2537C143.886 29.2917 143.841 29.3218 143.791 29.3422C143.741 29.3625 143.688 29.3728 143.634 29.3725Z" fill="#7F79F5"/>
<path d="M165.16 29.5087H148.191C148.083 29.508 147.98 29.4646 147.904 29.388C147.828 29.3115 147.785 29.2079 147.785 29.1C147.785 28.9921 147.828 28.8885 147.904 28.812C147.98 28.7354 148.083 28.692 148.191 28.6913H165.16C165.214 28.6909 165.267 28.7012 165.317 28.7216C165.367 28.742 165.412 28.772 165.451 28.81C165.489 28.848 165.519 28.8932 165.54 28.9429C165.561 28.9927 165.571 29.0461 165.571 29.1C165.571 29.1539 165.561 29.2073 165.54 29.2571C165.519 29.3068 165.489 29.352 165.451 29.39C165.412 29.428 165.367 29.458 165.317 29.4784C165.267 29.4988 165.214 29.5091 165.16 29.5087Z" fill="#7F79F5"/>
<path d="M186.686 29.645H169.717C169.609 29.6442 169.506 29.6008 169.43 29.5243C169.354 29.4477 169.311 29.3441 169.311 29.2362C169.311 29.1283 169.354 29.0248 169.43 28.9482C169.506 28.8716 169.609 28.8282 169.717 28.8275H186.686C186.794 28.8282 186.897 28.8716 186.973 28.9482C187.049 29.0248 187.092 29.1283 187.092 29.2362C187.092 29.3441 187.049 29.4477 186.973 29.5243C186.897 29.6008 186.794 29.6442 186.686 29.645Z" fill="#7F79F5"/>
<path d="M113.586 25.4747C115.328 25.4747 116.74 24.0627 116.74 22.3209C116.74 20.5791 115.328 19.1671 113.586 19.1671C111.844 19.1671 110.432 20.5791 110.432 22.3209C110.432 24.0627 111.844 25.4747 113.586 25.4747Z" fill="#33A194"/>
<path d="M135.242 25.4747C136.984 25.4747 138.396 24.0627 138.396 22.3209C138.396 20.5791 136.984 19.1671 135.242 19.1671C133.5 19.1671 132.088 20.5791 132.088 22.3209C132.088 24.0627 133.5 25.4747 135.242 25.4747Z" fill="#33A194"/>
<path d="M156.898 25.4747C158.64 25.4747 160.052 24.0627 160.052 22.3209C160.052 20.5791 158.64 19.1671 156.898 19.1671C155.156 19.1671 153.744 20.5791 153.744 22.3209C153.744 24.0627 155.156 25.4747 156.898 25.4747Z" fill="#33A194"/>
<path d="M178.554 25.4747C180.296 25.4747 181.708 24.0627 181.708 22.3209C181.708 20.5791 180.296 19.1671 178.554 19.1671C176.812 19.1671 175.4 20.5791 175.4 22.3209C175.4 24.0627 176.812 25.4747 178.554 25.4747Z" fill="#33A194"/>
</g>
<defs>
<clipPath id="clip0_2_407">
<rect width="200" height="132.914" fill="white"/>
</clipPath>
</defs>
</svg>
