<svg width="600" height="870" viewBox="0 0 600 870" fill="none" xmlns="http://www.w3.org/2000/svg">
<g filter="url(#filter0_f_4127_30106)">
<path fill-rule="evenodd" clip-rule="evenodd" d="M0 819.23C330.72 772.003 577.425 584.537 574.903 363.366C572.407 144.478 326.619 -35.8395 0 -77.9961V819.23Z" fill="#008B99"/>
</g>
<path fill-rule="evenodd" clip-rule="evenodd" d="M0 869.076C343.208 827.935 602.488 636.639 599.903 409.93C597.344 185.492 338.997 1.6043 0 -34.3711V869.076Z" fill="#C8E9F2"/>
<path d="M79.3242 596.746L121.671 596.54L164.018 596.462L248.72 596.316L333.422 596.462L375.768 596.531L418.115 596.746L375.768 596.952L333.422 597.029L248.72 597.175L164.018 597.029L121.671 596.952L79.3242 596.746Z" fill="#263238"/>
<path d="M247.783 243.082H91.7851C89.6935 243.1 87.6259 243.53 85.7005 244.347C83.775 245.165 82.0295 246.353 80.5637 247.845C79.0978 249.338 77.9404 251.104 77.1574 253.044C76.3745 254.983 75.9814 257.058 76.0007 259.15V580.336C75.9663 584.558 77.6093 588.622 80.5688 591.635C83.5282 594.648 87.5623 596.363 91.7851 596.403H247.783C252.008 596.365 256.044 594.651 259.005 591.638C261.967 588.625 263.611 584.56 263.576 580.336V259.15C263.595 257.058 263.2 254.983 262.417 253.043C261.633 251.103 260.474 249.337 259.008 247.845C257.541 246.353 255.795 245.164 253.869 244.347C251.943 243.53 249.875 243.1 247.783 243.082ZM253.718 570.365C253.718 578.824 247.388 585.66 239.582 585.66H100.012C92.1888 585.66 85.8595 578.79 85.8595 570.365V271.327C85.8595 254.152 92.1888 253.293 100.012 253.293H127.966C129.589 253.293 130.92 255.139 130.92 257.424V258.411C130.92 263.779 133.857 263.796 137.464 263.796H202.113C205.746 263.796 208.657 263.796 208.657 258.411V257.398C208.657 255.114 209.963 253.267 211.62 253.267H239.582C247.388 253.267 253.718 255.552 253.718 271.302V570.365Z" fill="#455A64"/>
<path d="M178.609 257.072H160.97C160.68 257.072 160.403 256.957 160.198 256.752C159.994 256.548 159.879 256.271 159.879 255.981C159.879 255.692 159.994 255.415 160.198 255.21C160.403 255.006 160.68 254.891 160.97 254.891H178.609C178.898 254.891 179.176 255.006 179.38 255.21C179.585 255.415 179.7 255.692 179.7 255.981C179.7 256.271 179.585 256.548 179.38 256.752C179.176 256.957 178.898 257.072 178.609 257.072Z" fill="#263238"/>
<path d="M253.718 271.326V570.363C253.718 578.822 247.388 585.658 239.582 585.658H100.012C92.1886 585.658 85.8594 578.788 85.8594 570.363V271.326C85.8594 254.15 92.1886 253.291 100.012 253.291H127.966C129.589 253.291 130.92 255.138 130.92 257.422V258.41C130.92 263.777 133.857 263.794 137.464 263.794H202.113C205.746 263.794 208.657 263.794 208.657 258.41V257.396C208.657 255.112 209.962 253.266 211.62 253.266H239.582C247.388 253.266 253.718 255.533 253.718 271.326Z" fill="white"/>
<path d="M249.011 255.871H208.863C209.301 254.342 210.358 253.295 211.611 253.295H239.582C243.206 253.26 246.504 253.758 249.011 255.871Z" fill="#DBDBDB"/>
<path d="M85.8594 555.628V559.612H99.7631V555.628H85.8594ZM253.709 309.397L208.537 357.283H187.746V317.779H195.999V313.768H183.769V357.326H161.244V263.77H153.248V291.792H85.8594V299.778H153.248V357.317H87.9806V373.024H85.8594V377.026H87.972V436.445L99.995 463.927H85.8594V471.913H103.482L112.928 493.383C107.107 495.907 102.297 500.305 99.2632 505.877C96.2291 511.449 95.1452 517.875 96.1837 524.134C97.2223 530.393 100.324 536.126 104.995 540.419C109.666 544.713 115.639 547.321 121.963 547.83L141.5 579.76L135.6 585.659H154.493L130.92 547.16C137.126 545.653 142.648 542.108 146.601 537.091C150.555 532.075 152.711 525.877 152.724 519.49C152.714 516.032 152.068 512.606 150.818 509.382L206.639 482.854H253.735V474.867H231.406L184.611 424.002H253.743V420.008H180.875L130.551 365.261H211.981L239.462 336.062L253.675 350.275V338.999L244.958 330.291L253.675 321.033L253.709 309.397ZM124.196 539.972C120.145 539.972 116.185 538.771 112.816 536.52C109.448 534.27 106.823 531.071 105.273 527.328C103.722 523.586 103.317 519.467 104.107 515.494C104.897 511.521 106.848 507.871 109.713 505.007C112.577 502.143 116.227 500.192 120.2 499.401C124.173 498.611 128.291 499.017 132.034 500.567C135.776 502.117 138.975 504.743 141.226 508.111C143.476 511.479 144.678 515.439 144.678 519.49C144.673 524.921 142.514 530.128 138.673 533.968C134.833 537.808 129.626 539.967 124.196 539.972ZM220.517 474.867H204.81L146.971 502.349C143.955 498.343 139.936 495.205 135.318 493.252C130.7 491.299 125.649 490.601 120.675 491.227L95.9587 434.728V365.261H119.687L220.517 474.867ZM226.46 585.651H232.119L253.709 564.052V558.393L226.46 585.651Z" fill="#EBEBEB"/>
<path d="M114.414 371.324H102.803V382.935H114.414V371.324Z" fill="#DBDBDB"/>
<path d="M223.488 415.859V393.428H215.33V384.059H200.971V415.859H223.488Z" fill="#DBDBDB"/>
<path d="M183.649 263.77V286.33H171.488V272.589H164.91V263.77H183.649Z" fill="#DBDBDB"/>
<path d="M253.709 271.318V279.099H243.566V259.527H251.733C253.013 262.207 253.709 265.994 253.709 271.318Z" fill="#DBDBDB"/>
<path d="M190.914 353.892V337.215H222.165L205.282 354.099L190.914 353.892Z" fill="#DBDBDB"/>
<path d="M180.619 338.398H164.92V354.097H180.619V338.398Z" fill="#DBDBDB"/>
<path d="M149.494 302.906H130.584V320.297H149.494V302.906Z" fill="#DBDBDB"/>
<path d="M149.495 323.715V354.099H126.368L111.623 339.345V323.715H149.495Z" fill="#DBDBDB"/>
<path d="M107.45 342.699L119.061 354.319H88.0586V342.699H107.45Z" fill="#DBDBDB"/>
<path d="M105.783 489.486H85.8594V475.496H100.15L105.783 489.486Z" fill="#DBDBDB"/>
<path d="M100.364 543.407V550.097H85.8594V520.211H89.8441C90.9326 528.827 94.5996 536.912 100.364 543.407Z" fill="#DBDBDB"/>
<path d="M169.806 485.354L157.688 459.109H142.848L117.574 470.832L124.195 485.268C133.189 485.243 141.83 488.768 148.241 495.075L169.806 485.354Z" fill="#DBDBDB"/>
<path d="M253.709 452.66V470.093H234.704L218.662 452.66H253.709Z" fill="#EBEBEB"/>
<path d="M134.312 578.299L127.356 585.659H100.012C98.9975 585.657 97.9862 585.539 96.998 585.307V577.02H108.824V558.685L117.729 551.188L134.312 578.299Z" fill="#EBEBEB"/>
<path d="M190.605 547.523L166.628 522.523L157.43 529.711C156.081 534.077 153.884 538.133 150.965 541.647C148.045 545.162 144.461 548.066 140.418 550.193L160.479 582.965L190.605 547.523Z" fill="#DBDBDB"/>
<path d="M164.48 511.505L206.612 490.68H227.627V527.307L194.864 543.486L164.48 511.505Z" fill="#DBDBDB"/>
<path d="M253.692 571.043C253.4 578.437 248.265 584.44 241.669 585.496H239.273L253.692 571.043Z" fill="#DBDBDB"/>
<path d="M102.803 387.785V433.825L115.65 465.248L139.095 453.637H193.757L132.457 387.785H102.803Z" fill="#EBEBEB"/>
<path d="M236.146 321.934H190.914V333.27H225.454L236.146 321.934Z" fill="#DBDBDB"/>
<path d="M93.9405 460.122H85.8594V441.418L93.9405 460.122Z" fill="#DBDBDB"/>
<path d="M253.708 490.68H233.449V514.64H253.708V490.68Z" fill="#DBDBDB"/>
<path d="M253.708 518.367H233.449V526.775H253.708V518.367Z" fill="#DBDBDB"/>
<path d="M228.41 577.553L220.303 585.66H167.041L195.235 551.223L228.41 577.553Z" fill="#DBDBDB"/>
<path d="M231.312 573.585L244.992 560.454L228.401 546.009V533.016L199.15 547.916L231.312 573.585Z" fill="#EBEBEB"/>
<path d="M253.708 530.492V550.863L248.289 555.964L233.449 543.486V530.492H253.708Z" fill="#DBDBDB"/>
<path d="M91.073 564.18V582.215C89.4124 580.721 88.0888 578.891 87.19 576.846C86.2912 574.801 85.8379 572.589 85.8602 570.355V564.172L91.073 564.18Z" fill="#DBDBDB"/>
<path d="M104.039 566.07H96.9883V573.121H104.039V566.07Z" fill="#DBDBDB"/>
<path d="M148.284 263.769V286.957H103.584V260.411L111.313 253.258H127.973C129.588 253.258 130.911 255.113 130.911 257.397V258.385C130.911 263.744 133.856 263.769 137.454 263.769H148.284Z" fill="#DBDBDB"/>
<path d="M99.7717 272.734H85.8594V286.99H99.7717V272.734Z" fill="#EBEBEB"/>
<path d="M99.7717 261.082V269.052H85.9023C85.9462 266.36 86.3183 263.684 87.0102 261.082H99.7717Z" fill="#DBDBDB"/>
<path d="M107.139 253.258L102.227 257.869H88.375C90.9514 253.576 95.1852 253.258 100.012 253.258H107.139Z" fill="#DBDBDB"/>
<path d="M196.342 428.844L215.33 448.785H233.45V428.844H196.342Z" fill="#DBDBDB"/>
<path d="M253.708 439.613H237.211V448.785H253.708V439.613Z" fill="#DBDBDB"/>
<path d="M246.915 428.844H237.211V437.174H246.915V428.844Z" fill="#EBEBEB"/>
<path d="M253.708 428.836H249.328V437.175H253.708V428.836Z" fill="#DBDBDB"/>
<path d="M163.33 459.109H193.757V473.666L174.305 482.494L163.33 459.109Z" fill="#DBDBDB"/>
<path d="M137.794 521.26C138.712 513.77 133.385 506.954 125.895 506.035C118.405 505.117 111.589 510.444 110.671 517.934C109.752 525.424 115.08 532.241 122.57 533.159C130.059 534.077 136.876 528.75 137.794 521.26Z" fill="#EBEBEB"/>
<path d="M93.1676 302.906H85.8594V313.401H93.1676V302.906Z" fill="#DBDBDB"/>
<path d="M107.114 338.906V302.914H95.9586V331.855H88.0664V338.906H107.114Z" fill="#DBDBDB"/>
<path d="M127.408 302.906H111.623V319.335H127.408V302.906Z" fill="#EBEBEB"/>
<path d="M93.1676 315.418H85.8594V328.686H93.1676V315.418Z" fill="#DBDBDB"/>
<path d="M250.351 393.43H226.889V415.861H250.351V393.43Z" fill="#EBEBEB"/>
<path d="M141.234 369.273L165.71 395.904H196.42V369.273H141.234Z" fill="#DBDBDB"/>
<path d="M169.195 398.977L184.722 415.86H196.342V398.977H169.195Z" fill="#EBEBEB"/>
<path d="M215.33 369.273H200.971V380.395H215.33V369.273Z" fill="#DBDBDB"/>
<path d="M250.352 379.928V354.92L238.999 342.699L219.221 363.92V388.189H242.674V379.928H250.352Z" fill="#EBEBEB"/>
<path d="M253.708 327.293V334L250.471 330.831L253.708 327.293Z" fill="#DBDBDB"/>
<path d="M253.708 282.75V303.369L240.088 318.329H222.156V282.75H253.708Z" fill="#DBDBDB"/>
<path d="M217.993 295.777H200.551V318.329H217.993V295.777Z" fill="#EBEBEB"/>
<path d="M240.132 259.526V279.097H217.993V292.941H200.551V263.742H202.114C205.472 263.742 208.211 263.742 208.606 259.5L240.132 259.526Z" fill="#EBEBEB"/>
<path d="M198.291 263.77H185.77V278.627H198.291V263.77Z" fill="#DBDBDB"/>
<path d="M198.301 288.762H164.92V305.173H198.301V288.762Z" fill="#DBDBDB"/>
<path d="M198.299 280.996H185.77V286.321H198.299V280.996Z" fill="#DBDBDB"/>
<path d="M180.619 335.264H171.49L164.92 329.021V310.875H180.619V335.264Z" fill="#DBDBDB"/>
<path d="M123.139 259.981L122.873 260.247L122.718 260.402C122.377 260.058 121.972 259.786 121.525 259.6C121.079 259.414 120.6 259.319 120.116 259.319C119.632 259.319 119.153 259.414 118.707 259.6C118.26 259.786 117.855 260.058 117.514 260.402C117.461 260.357 117.412 260.309 117.368 260.256L117.102 259.99C117.213 259.895 117.325 259.783 117.445 259.689C117.688 259.492 117.953 259.325 118.235 259.191C118.564 259.019 118.917 258.9 119.283 258.839C119.455 258.839 119.626 258.787 119.807 258.761C119.987 258.736 120.253 258.761 120.262 258.761C120.27 258.761 120.502 258.761 120.614 258.761C120.956 258.787 121.294 258.856 121.619 258.968C121.845 259.051 122.063 259.155 122.271 259.277C122.493 259.397 122.7 259.541 122.89 259.706L123.173 259.964L123.139 259.981Z" fill="#A6A6A6"/>
<path d="M118.364 261.252C118.227 261.106 118.089 260.968 117.943 260.831C118.405 260.363 119.009 260.061 119.661 259.972C120.128 259.905 120.603 259.948 121.051 260.097C121.498 260.246 121.904 260.497 122.237 260.831L121.808 261.26C121.584 261.032 121.316 260.851 121.022 260.727C120.727 260.603 120.41 260.539 120.09 260.539C119.443 260.539 118.823 260.795 118.364 261.252Z" fill="#A6A6A6"/>
<path d="M121.438 261.68L121.008 262.101C120.782 261.87 120.473 261.737 120.15 261.732C119.826 261.738 119.518 261.87 119.291 262.101L118.861 261.68C119.207 261.347 119.669 261.16 120.15 261.16C120.63 261.16 121.092 261.347 121.438 261.68Z" fill="#A6A6A6"/>
<path d="M120.501 262.488C120.501 262.564 120.479 262.639 120.436 262.703C120.394 262.766 120.333 262.816 120.263 262.845C120.192 262.874 120.115 262.882 120.04 262.867C119.965 262.852 119.896 262.815 119.842 262.761C119.788 262.707 119.751 262.638 119.736 262.563C119.721 262.488 119.729 262.411 119.758 262.34C119.787 262.27 119.837 262.209 119.9 262.167C119.964 262.124 120.039 262.102 120.115 262.102C120.166 262.102 120.216 262.112 120.263 262.131C120.31 262.15 120.352 262.179 120.388 262.215C120.424 262.251 120.453 262.293 120.472 262.34C120.491 262.387 120.501 262.437 120.501 262.488Z" fill="#A6A6A6"/>
<path d="M97.9172 261.916C98.5338 261.916 99.0336 261.417 99.0336 260.8C99.0336 260.183 98.5338 259.684 97.9172 259.684C97.3006 259.684 96.8008 260.183 96.8008 260.8C96.8008 261.417 97.3006 261.916 97.9172 261.916Z" fill="#A6A6A6"/>
<path d="M100.305 260.8C100.305 260.579 100.37 260.363 100.493 260.18C100.616 259.996 100.79 259.853 100.994 259.769C101.198 259.684 101.422 259.662 101.639 259.705C101.855 259.748 102.054 259.854 102.211 260.011C102.367 260.167 102.473 260.366 102.516 260.582C102.559 260.799 102.537 261.023 102.453 261.227C102.368 261.431 102.225 261.606 102.041 261.728C101.858 261.851 101.642 261.916 101.421 261.916C101.125 261.916 100.841 261.799 100.632 261.589C100.422 261.38 100.305 261.096 100.305 260.8Z" fill="#A6A6A6"/>
<path d="M104.925 261.916C105.542 261.916 106.041 261.417 106.041 260.8C106.041 260.183 105.542 259.684 104.925 259.684C104.308 259.684 103.809 260.183 103.809 260.8C103.809 261.417 104.308 261.916 104.925 261.916Z" fill="#A6A6A6"/>
<path d="M107.312 260.8C107.312 260.579 107.378 260.363 107.501 260.18C107.623 259.996 107.798 259.853 108.002 259.769C108.206 259.684 108.43 259.662 108.647 259.705C108.863 259.748 109.062 259.854 109.218 260.011C109.374 260.167 109.481 260.366 109.524 260.582C109.567 260.799 109.545 261.023 109.46 261.227C109.376 261.431 109.233 261.606 109.049 261.728C108.866 261.851 108.65 261.916 108.429 261.916C108.133 261.916 107.849 261.799 107.639 261.589C107.43 261.38 107.313 261.096 107.312 260.8Z" fill="#A6A6A6"/>
<path d="M110.816 260.8C110.816 260.579 110.882 260.363 111.005 260.18C111.127 259.996 111.302 259.853 111.506 259.769C111.71 259.684 111.934 259.662 112.151 259.705C112.367 259.748 112.566 259.854 112.722 260.011C112.878 260.167 112.985 260.366 113.028 260.582C113.071 260.799 113.049 261.023 112.964 261.227C112.88 261.431 112.737 261.606 112.553 261.728C112.369 261.851 112.154 261.916 111.933 261.916C111.637 261.916 111.353 261.799 111.143 261.589C110.934 261.38 110.816 261.096 110.816 260.8Z" fill="#A6A6A6"/>
<path d="M240.895 259.262H232.299V262.997H240.895V259.262Z" fill="#A6A6A6"/>
<path d="M241.101 263.212H232.084V259.047H241.101V263.212ZM232.513 262.783H240.672V259.476H232.513V262.783Z" fill="white"/>
<path d="M238.654 259.742H232.814V262.516H238.654V259.742Z" fill="#A6A6A6"/>
<path d="M241.934 260.008H241.127V262.249H241.934V260.008Z" fill="#A6A6A6"/>
<path d="M145.924 317.901C145.168 310.386 139.99 302.906 130.895 302.906C121.801 302.906 116.639 310.386 115.883 317.901C114.75 329.486 122.556 340.006 130.895 349.59C139.26 340.006 147.083 329.486 145.924 317.901ZM130.895 326.239C129.271 326.233 127.686 325.745 126.339 324.838C124.993 323.931 123.944 322.646 123.327 321.144C122.71 319.642 122.552 317.991 122.872 316.4C123.193 314.808 123.977 313.347 125.127 312.2C126.277 311.054 127.741 310.274 129.333 309.959C130.926 309.644 132.577 309.807 134.076 310.429C135.576 311.05 136.858 312.103 137.761 313.452C138.664 314.802 139.146 316.389 139.148 318.012C139.15 319.095 138.938 320.168 138.524 321.169C138.11 322.17 137.501 323.079 136.734 323.844C135.967 324.609 135.056 325.214 134.054 325.625C133.052 326.036 131.978 326.245 130.895 326.239Z" fill="#FFC727"/>
<path d="M157.741 146.444C156.051 129.684 144.47 113 124.132 113C103.795 113 92.2525 129.684 90.5625 146.444C88.0275 172.283 105.485 195.747 124.132 217.124C142.838 195.747 160.333 172.283 157.741 146.444ZM124.132 165.043C120.501 165.028 116.956 163.94 113.945 161.918C110.933 159.895 108.589 157.028 107.209 153.678C105.829 150.329 105.475 146.646 106.191 143.096C106.908 139.546 108.662 136.287 111.234 133.73C113.805 131.173 117.078 129.433 120.64 128.73C124.202 128.027 127.893 128.392 131.247 129.778C134.601 131.165 137.468 133.512 139.487 136.522C141.505 139.532 142.584 143.071 142.588 146.693C142.593 149.109 142.119 151.502 141.193 153.734C140.266 155.967 138.906 157.994 137.19 159.7C135.475 161.406 133.438 162.756 131.197 163.673C128.956 164.59 126.555 165.055 124.132 165.043Z" fill="#FFC727"/>
<path d="M253.718 516.371V570.363C253.718 578.822 247.388 585.658 239.582 585.658H100.012C92.1886 585.658 85.8594 578.788 85.8594 570.363V516.371H253.718Z" fill="white"/>
<path d="M124.633 535.069C124.117 529.959 120.588 524.875 114.405 524.875C108.221 524.875 104.717 529.959 104.202 535.069C103.429 542.944 108.737 550.098 114.405 556.616C120.09 550.098 125.414 542.944 124.633 535.069ZM114.405 540.737C113.3 540.733 112.22 540.403 111.303 539.786C110.386 539.17 109.672 538.296 109.252 537.274C108.831 536.252 108.723 535.128 108.941 534.045C109.158 532.962 109.692 531.967 110.475 531.187C111.257 530.407 112.253 529.876 113.337 529.662C114.421 529.447 115.545 529.559 116.565 529.983C117.586 530.406 118.458 531.123 119.071 532.042C119.685 532.961 120.012 534.041 120.012 535.146C120.015 535.882 119.871 536.612 119.59 537.292C119.309 537.973 118.895 538.591 118.374 539.11C117.853 539.63 117.233 540.042 116.552 540.321C115.871 540.6 115.141 540.741 114.405 540.737Z" fill="#FFC727"/>
<path d="M237.934 545.074H134.072V546.715H237.934V545.074Z" fill="#EBEBEB"/>
<path d="M199.142 549.574H134.072V551.214H199.142V549.574Z" fill="#EBEBEB"/>
<path d="M166.612 526.121H134.072V528.491H166.612V526.121Z" fill="#FFC727"/>
<path d="M137.344 532.227L138.547 534.013L140.616 534.605L139.285 536.297L139.371 538.453L137.344 537.706L135.326 538.453L135.403 536.297L134.072 534.605L136.151 534.013L137.344 532.227Z" fill="#FFC727"/>
<path d="M146.592 532.227L147.795 534.013L149.864 534.605L148.533 536.297L148.619 538.453L146.592 537.706L144.574 538.453L144.651 536.297L143.32 534.605L145.399 534.013L146.592 532.227Z" fill="#FFC727"/>
<path d="M155.842 532.227L157.045 534.013L159.114 534.605L157.783 536.297L157.869 538.453L155.842 537.706L153.824 538.453L153.901 536.297L152.57 534.605L154.649 534.013L155.842 532.227Z" fill="#FFC727"/>
<path d="M165.09 532.227L166.293 534.013L168.362 534.605L167.031 536.297L167.108 538.453L165.09 537.706L163.072 538.453L163.149 536.297L161.818 534.605L163.888 534.013L165.09 532.227Z" fill="#FFC727"/>
<path d="M174.34 537.706V532.227L173.138 534.013L171.068 534.605L172.399 536.297L172.322 538.453L174.34 537.706Z" fill="#FFC727"/>
<path d="M174.339 532.227L175.61 533.944C176.04 533.944 177.027 534.305 177.646 534.442L177.852 534.494L177.723 534.666L176.426 536.383V536.263L176.529 538.418V538.71L174.228 537.852H174.374L172.064 538.71V538.418L172.158 536.263V536.383L170.861 534.666L170.732 534.494L170.939 534.442C171.548 534.305 172.553 533.97 172.974 533.944L174.245 532.227H174.339ZM174.339 532.227C173.91 532.853 173.584 533.54 173.163 534.099C172.484 534.322 171.797 534.528 171.11 534.743L171.179 534.52L172.544 536.186C172.544 536.237 172.544 536.237 172.544 536.306L172.484 538.453L172.218 538.264L174.228 537.508H174.305H174.382L176.392 538.264L176.126 538.453L176.065 536.306C176.065 536.237 176.065 536.237 176.065 536.186L177.431 534.52L177.5 534.743C176.821 534.528 176.126 534.322 175.447 534.099C175.035 533.54 174.7 532.853 174.271 532.227H174.339Z" fill="#FFC727"/>
<path d="M148.284 563.949H104.125V575.234H148.284V563.949Z" fill="#FFC727"/>
<path d="M192.322 575.663H157.688V563.52H192.339L192.322 575.663ZM158.529 574.804H191.464V564.378H158.546L158.529 574.804Z" fill="#DBDBDB"/>
<path d="M234.98 575.663H200.354V563.52H234.98V575.663ZM201.178 574.804H234.121V564.378H201.212L201.178 574.804Z" fill="#DBDBDB"/>
<path d="M237.932 508.97C242.656 508.97 246.486 505.141 246.486 500.417C246.486 495.693 242.656 491.863 237.932 491.863C233.208 491.863 229.379 495.693 229.379 500.417C229.379 505.141 233.208 508.97 237.932 508.97Z" fill="#455A64"/>
<path d="M237.752 504.815L236.584 501.38L233.148 500.203L241.144 496.957L237.752 504.815ZM234.978 500.186L237.082 500.907L237.812 503.037L239.916 498.177L234.978 500.186Z" fill="white"/>
<path d="M231.131 291.869H108.437C107.358 291.869 106.291 291.657 105.295 291.244C104.299 290.832 103.394 290.227 102.631 289.465C101.869 288.702 101.264 287.797 100.852 286.801C100.439 285.805 100.227 284.737 100.227 283.659C100.227 281.482 101.092 279.394 102.631 277.854C104.171 276.314 106.259 275.449 108.437 275.449H231.131C233.309 275.449 235.397 276.314 236.937 277.854C238.476 279.394 239.341 281.482 239.341 283.659C239.341 284.737 239.129 285.805 238.716 286.801C238.304 287.797 237.699 288.702 236.937 289.465C236.174 290.227 235.269 290.832 234.273 291.244C233.277 291.657 232.209 291.869 231.131 291.869Z" fill="white"/>
<path d="M231.132 291.871L119.773 292.034H110.498C107.364 292.275 104.006 291.596 101.97 289.003C97.4447 283.644 101.412 275.185 108.437 275.262L219.796 275.425H229.079C231.381 275.348 233.828 275.425 235.769 276.86C242.382 281.411 239.204 291.854 231.132 291.88V291.871ZM231.132 291.871C239.11 291.871 242.373 281.437 235.735 276.903C233.785 275.503 231.441 275.417 229.079 275.494H219.796L108.437 275.649C106.923 275.659 105.442 276.098 104.166 276.913C102.89 277.728 101.87 278.887 101.224 280.257C100.578 281.626 100.332 283.15 100.514 284.654C100.696 286.157 101.299 287.578 102.254 288.754C104.255 291.279 107.407 291.888 110.498 291.682H119.773L156.898 291.742L231.132 291.845V291.871Z" fill="#263238"/>
<path d="M112.55 286.967L111.691 287.637L110.068 285.49L109.467 284.699C109.59 284.654 109.706 284.59 109.81 284.511C110.009 284.354 110.166 284.15 110.265 283.918L110.892 284.777L112.55 286.967Z" fill="#263238"/>
<path d="M110.823 281.908C110.544 281.547 110.168 281.272 109.738 281.118C109.309 280.963 108.844 280.935 108.398 281.036C107.953 281.136 107.546 281.362 107.225 281.687C106.903 282.011 106.682 282.421 106.585 282.867C106.489 283.313 106.522 283.778 106.681 284.206C106.84 284.634 107.117 285.008 107.482 285.283C107.846 285.559 108.281 285.725 108.736 285.761C109.191 285.797 109.647 285.703 110.051 285.489C110.162 285.42 110.274 285.352 110.377 285.274C110.568 285.129 110.736 284.955 110.875 284.759C111.17 284.34 111.325 283.838 111.315 283.325C111.306 282.812 111.134 282.316 110.823 281.908ZM109.793 284.484C109.688 284.564 109.573 284.627 109.449 284.673C109.129 284.795 108.776 284.798 108.454 284.682C108.132 284.566 107.862 284.338 107.693 284.041C107.524 283.743 107.467 283.395 107.533 283.059C107.598 282.723 107.781 282.421 108.05 282.208C108.302 282.007 108.614 281.897 108.937 281.896C109.259 281.894 109.573 282.001 109.827 282.2C110.081 282.398 110.26 282.676 110.337 282.99C110.413 283.303 110.382 283.633 110.248 283.926C110.147 284.155 109.991 284.356 109.793 284.51V284.484Z" fill="#263238"/>
<path d="M380.689 124.027V187.367H271.576L261.759 205.385L251.941 187.367H236.785V124.027H380.689Z" fill="white"/>
<path d="M380.69 124.029L381.11 187.368V187.772C381.11 187.772 271.706 188.015 271.577 188.015L272.159 187.675L262.454 205.726L261.807 206.923L261.193 205.807L251.31 187.821L252.022 188.225H236.09V187.368L236.268 124.029V123.414H236.866C272.725 123.414 344.928 123.77 380.819 124.029H380.69ZM380.69 124.029C344.798 124.287 272.644 124.562 236.737 124.627L237.335 124.029L237.513 187.368L236.737 186.592H251.892H252.361L252.604 187.012L262.309 205.063H261.193L271.075 187.077L271.253 186.721H271.657L380.77 186.98L380.35 187.4L380.77 124.061L380.69 124.029Z" fill="#263238"/>
<path d="M384.62 124.027V124.125L384.539 124.222L384.62 124.027Z" fill="white"/>
<path d="M368.446 124.027V124.125L368.365 124.222L368.446 124.027Z" fill="#FFC727"/>
<path d="M274.018 148.793C273.387 142.582 269.166 136.387 261.58 136.387C253.994 136.387 249.805 142.582 249.174 148.793C248.252 158.368 254.722 167.07 261.58 175.076C268.502 167.07 274.972 158.368 274.018 148.793ZM261.58 155.667C260.238 155.66 258.927 155.256 257.814 154.506C256.702 153.756 255.836 152.693 255.327 151.451C254.817 150.209 254.688 148.844 254.953 147.528C255.219 146.213 255.869 145.005 256.82 144.059C257.771 143.112 258.982 142.468 260.299 142.208C261.616 141.949 262.98 142.085 264.219 142.6C265.459 143.115 266.518 143.986 267.263 145.103C268.008 146.219 268.405 147.531 268.405 148.873C268.41 149.769 268.236 150.657 267.894 151.486C267.552 152.314 267.049 153.066 266.414 153.698C265.779 154.33 265.024 154.83 264.194 155.168C263.365 155.506 262.476 155.675 261.58 155.667Z" fill="#FFC727"/>
<path d="M353.547 156.41H287.361V158.4H353.547V156.41Z" fill="#EBEBEB"/>
<path d="M343.147 161.957H287.361V163.946H343.147V161.957Z" fill="#EBEBEB"/>
<path d="M350.28 167.488H287.361V169.478H350.28V167.488Z" fill="#EBEBEB"/>
<path d="M324.935 173.02H287.361V175.009H324.935V173.02Z" fill="#EBEBEB"/>
<path d="M293.508 136.402L295.772 139.767L299.67 140.866L297.179 144.053L297.325 148.113L293.508 146.722L289.707 148.113L289.852 144.053L287.361 140.866L291.259 139.767L293.508 136.402Z" fill="#FFC727"/>
<path d="M310.929 136.402L313.194 139.767L317.092 140.866L314.585 144.053L314.747 148.113L310.929 146.722L307.128 148.113L307.274 144.053L304.783 140.866L308.681 139.767L310.929 136.402Z" fill="#FFC727"/>
<path d="M328.347 136.402L330.612 139.767L334.51 140.866L332.003 144.053L332.165 148.113L328.347 146.722L324.546 148.113L324.692 144.053L322.201 140.866L326.099 139.767L328.347 136.402Z" fill="#FFC727"/>
<path d="M345.769 136.402L348.034 139.767L351.932 140.866L349.425 144.053L349.587 148.113L345.769 146.722L341.968 148.113L342.114 144.053L339.623 140.866L343.521 139.767L345.769 136.402Z" fill="#FFC727"/>
<path d="M363.188 146.722V136.402L360.94 139.767L357.025 140.866L359.532 144.053L359.387 148.113L363.188 146.722Z" fill="#FFC727"/>
<path d="M363.187 136.387L365.581 139.622C366.39 139.622 368.266 140.301 369.431 140.56L369.803 140.657L369.56 141.11L367.118 144.345L367.199 144.134L367.376 148.178V148.728L363.042 147.11H363.317L358.966 148.728V148.178L359.144 144.134L359.225 144.361L356.782 141.126L356.523 140.802L356.912 140.705C358.076 140.447 359.952 139.816 360.761 139.767L363.139 136.532L363.187 136.387ZM363.187 136.387C362.379 137.567 361.764 138.861 360.971 139.913C359.694 140.349 358.4 140.721 357.106 141.126L357.235 140.705L359.855 143.843C359.952 143.94 359.855 143.956 359.855 144.07L359.726 148.129L359.225 147.757L363.026 146.334H363.155H363.301L367.102 147.757L366.6 148.129L366.471 144.07C366.471 143.94 366.471 143.94 366.552 143.843L369.107 140.705L369.253 141.126C367.959 140.721 366.665 140.349 365.371 139.913C364.594 138.861 363.964 137.567 363.155 136.387H363.187Z" fill="#FFC727"/>
<path d="M270.762 441.813L278.088 441.723L285.415 441.693L300.069 441.625L314.722 441.693L322.043 441.723L329.369 441.813L322.043 441.903L314.722 441.941L300.069 442.001L285.415 441.941L278.088 441.903L270.762 441.813Z" fill="#263238"/>
<path d="M316.033 405.934C323.606 405.934 329.746 399.71 329.746 392.033C329.746 384.356 323.606 378.133 316.033 378.133C308.46 378.133 302.32 384.356 302.32 392.033C302.32 399.71 308.46 405.934 316.033 405.934Z" fill="#455A64"/>
<path d="M279.404 421.335C284.591 421.335 288.796 417.13 288.796 411.943C288.796 406.756 284.591 402.551 279.404 402.551C274.217 402.551 270.012 406.756 270.012 411.943C270.012 417.13 274.217 421.335 279.404 421.335Z" fill="#EBEBEB"/>
<path d="M311.338 393.91H285.791V416.827H311.338V393.91Z" fill="#FFC727"/>
<path d="M299.378 406.262L300.442 411.192H295.939L297.003 406.262C296.586 406.01 296.264 405.631 296.087 405.183C295.909 404.736 295.885 404.243 296.019 403.781C296.153 403.319 296.436 402.912 296.827 402.622C297.218 402.333 297.695 402.176 298.185 402.176C298.675 402.176 299.151 402.333 299.542 402.622C299.933 402.912 300.217 403.319 300.351 403.781C300.484 404.243 300.46 404.736 300.283 405.183C300.105 405.631 299.784 406.01 299.367 406.262H299.378Z" fill="#263238"/>
<path d="M307.204 383.898V393.912H304.395V383.898C304.395 380.086 301.526 376.986 297.999 376.986C294.473 376.986 291.604 380.086 291.604 383.898V393.912H288.795V383.898C288.795 378.44 292.925 374 297.999 374C303.074 374 307.204 378.44 307.204 383.898Z" fill="#C7C7C7"/>
<path d="M370.896 334.728C405.01 334.728 432.664 317.104 432.664 295.364C432.664 273.624 405.01 256 370.896 256C336.783 256 309.129 273.624 309.129 295.364C309.129 317.104 336.783 334.728 370.896 334.728Z" fill="#FCF288"/>
<path d="M348.614 315.184C344.545 315.171 340.611 313.724 337.503 311.098C334.395 308.472 332.311 304.834 331.619 300.824C330.938 296.481 331.918 292.041 334.363 288.387C336.809 284.733 340.54 282.135 344.815 281.108C348.323 280.3 351.996 280.611 355.318 281.999C358.639 283.386 361.443 285.78 363.333 288.844L402.988 280.663C404.512 280.329 406.106 280.583 407.451 281.373C408.796 282.163 409.794 283.431 410.245 284.925C410.452 285.71 410.498 286.529 410.378 287.332C410.258 288.136 409.975 288.906 409.548 289.596C409.12 290.287 408.556 290.883 407.89 291.348C407.224 291.813 406.471 292.137 405.675 292.301L404.648 292.506C404.496 292.534 404.352 292.596 404.227 292.688C404.102 292.78 404.001 292.899 403.929 293.037C403.866 293.177 403.833 293.329 403.833 293.482C403.833 293.636 403.866 293.787 403.929 293.927L404.631 295.741C404.866 296.329 404.889 296.981 404.695 297.584C404.502 298.187 404.104 298.703 403.57 299.044C403.149 299.304 402.793 299.657 402.53 300.075C402.266 300.493 402.101 300.966 402.047 301.458C401.996 302.022 401.769 302.556 401.397 302.983C401.025 303.41 400.528 303.709 399.976 303.836L399.172 304.008C398.614 304.111 398.038 304.034 397.527 303.787C397.016 303.541 396.597 303.139 396.33 302.638C395.975 302.042 395.443 301.57 394.807 301.29C394.171 301.011 393.464 300.936 392.784 301.078C392.103 301.219 391.484 301.569 391.013 302.079C390.541 302.589 390.24 303.233 390.152 303.922C390.104 304.483 389.88 305.014 389.511 305.438C389.141 305.863 388.647 306.159 388.098 306.284L387.294 306.455C386.736 306.555 386.162 306.477 385.651 306.231C385.141 305.985 384.722 305.584 384.453 305.086C384.196 304.661 383.851 304.298 383.44 304.02C383.029 303.742 382.563 303.557 382.074 303.477C381.416 303.398 380.809 303.081 380.368 302.586C379.927 302.092 379.681 301.453 379.678 300.79V298.839C379.671 298.686 379.631 298.537 379.561 298.401C379.491 298.265 379.392 298.146 379.272 298.052C379.152 297.958 379.013 297.891 378.864 297.855C378.716 297.82 378.561 297.817 378.411 297.846L365.763 300.448C365.247 303.952 363.665 307.212 361.23 309.784C358.795 312.357 355.627 314.116 352.157 314.824C350.991 315.063 349.804 315.183 348.614 315.184ZM345.191 282.665C341.309 283.572 337.915 285.916 335.692 289.225C333.469 292.534 332.583 296.563 333.211 300.499C333.884 304.161 335.846 307.462 338.741 309.804C341.636 312.145 345.274 313.373 348.996 313.266C352.718 313.158 356.279 311.722 359.034 309.217C361.789 306.713 363.557 303.304 364.018 299.609V298.993L377.966 296.169C378.366 296.072 378.783 296.066 379.186 296.15C379.589 296.234 379.968 296.407 380.296 296.656C380.624 296.906 380.892 297.225 381.081 297.59C381.27 297.956 381.375 298.359 381.389 298.771V300.722C381.393 300.954 381.477 301.178 381.626 301.355C381.776 301.533 381.982 301.654 382.211 301.697C382.959 301.804 383.673 302.08 384.299 302.504C384.924 302.928 385.445 303.489 385.822 304.145C385.913 304.329 386.059 304.481 386.24 304.579C386.42 304.677 386.627 304.717 386.832 304.692L387.619 304.521C387.819 304.47 387.996 304.355 388.126 304.195C388.255 304.035 388.33 303.837 388.338 303.631C388.446 302.566 388.89 301.562 389.605 300.766C390.321 299.969 391.271 299.42 392.319 299.199C393.367 298.978 394.458 299.096 395.434 299.536C396.411 299.976 397.222 300.715 397.751 301.646C397.839 301.829 397.982 301.98 398.16 302.079C398.338 302.177 398.542 302.217 398.744 302.193L399.565 302.022C399.762 301.968 399.935 301.852 400.062 301.692C400.188 301.532 400.26 301.336 400.267 301.132C400.352 300.381 400.607 299.659 401.013 299.021C401.42 298.383 401.966 297.847 402.612 297.453C402.8 297.317 402.938 297.122 403.003 296.898C403.068 296.675 403.057 296.436 402.971 296.22L402.269 294.406C402.124 294.032 402.063 293.631 402.089 293.231C402.115 292.83 402.228 292.441 402.42 292.089C402.612 291.736 402.879 291.431 403.202 291.192C403.525 290.954 403.896 290.789 404.289 290.709L405.333 290.487C405.898 290.366 406.433 290.133 406.906 289.801C407.378 289.469 407.779 289.045 408.084 288.555C408.39 288.064 408.593 287.517 408.682 286.946C408.771 286.376 408.743 285.793 408.602 285.233C408.268 284.156 407.539 283.245 406.561 282.683C405.583 282.121 404.429 281.95 403.33 282.203L362.563 290.675L362.255 290.145C360.617 287.229 358.074 284.925 355.011 283.582C351.948 282.239 348.531 281.929 345.277 282.7L345.191 282.665ZM348.614 308.817C346.488 308.841 344.401 308.246 342.607 307.105C340.485 305.712 338.911 303.626 338.155 301.202C337.399 298.779 337.507 296.168 338.46 293.815C339.413 291.462 341.153 289.512 343.383 288.299C345.613 287.085 348.195 286.682 350.689 287.159C353.182 287.636 355.433 288.963 357.058 290.914C358.683 292.865 359.58 295.319 359.598 297.858C359.616 300.397 358.753 302.863 357.155 304.836C355.558 306.81 353.326 308.168 350.839 308.68C350.111 308.812 349.371 308.869 348.631 308.851L348.614 308.817ZM348.614 288.604C347.977 288.608 347.341 288.671 346.715 288.793C345.522 289.047 344.392 289.533 343.387 290.224C342.383 290.915 341.524 291.797 340.861 292.819C340.197 293.842 339.742 294.985 339.52 296.184C339.298 297.383 339.315 298.614 339.569 299.806C339.823 300.998 340.309 302.129 341 303.133C341.691 304.138 342.573 304.996 343.596 305.66C344.619 306.323 345.762 306.779 346.961 307C348.159 307.222 349.39 307.205 350.582 306.951C352.372 306.579 354.012 305.685 355.294 304.382C356.577 303.079 357.445 301.425 357.789 299.629C358.133 297.834 357.938 295.976 357.228 294.292C356.518 292.607 355.325 291.17 353.8 290.162C352.285 289.154 350.502 288.623 348.683 288.639L348.614 288.604Z" fill="#0A0F6B"/>
<path opacity="0.6" d="M320.63 357.815C331.841 357.815 340.928 352.022 340.928 344.876C340.928 337.73 331.841 331.938 320.63 331.938C309.42 331.938 300.332 337.73 300.332 344.876C300.332 352.022 309.42 357.815 320.63 357.815Z" fill="#FCF288"/>
<path opacity="0.3" d="M288.335 363.123C292.938 363.123 296.67 360.748 296.67 357.817C296.67 354.887 292.938 352.512 288.335 352.512C283.732 352.512 280 354.887 280 357.817C280 360.748 283.732 363.123 288.335 363.123Z" fill="#FCF288"/>
<path d="M320.436 460.26C321.606 460.52 322.734 460.945 323.785 461.521C324.792 462.062 325.694 462.778 326.449 463.636C327.172 464.461 327.708 465.432 328.022 466.483C328.342 467.608 328.365 468.796 328.09 469.933C327.908 470.834 327.551 471.691 327.039 472.455C326.571 473.108 326.015 473.692 325.385 474.19C324.766 474.67 324.106 475.094 323.412 475.458L321.46 476.495C320.872 476.801 320.314 477.162 319.792 477.573C319.321 477.934 318.959 478.42 318.748 478.976C318.645 479.23 318.474 479.45 318.254 479.613C318.149 479.694 318.028 479.75 317.899 479.777C317.77 479.804 317.636 479.801 317.508 479.769L314.634 479.132C314.495 479.103 314.364 479.046 314.248 478.966C314.131 478.886 314.032 478.783 313.956 478.664C313.875 478.553 313.821 478.425 313.799 478.29C313.776 478.154 313.786 478.015 313.827 477.884C314.059 476.994 314.467 476.16 315.027 475.43C315.538 474.785 316.131 474.209 316.789 473.715C317.431 473.246 318.112 472.831 318.823 472.475C319.501 472.129 320.179 471.797 320.769 471.465C321.317 471.17 321.833 470.818 322.307 470.414C322.723 470.066 323.012 469.589 323.128 469.059C323.235 468.598 323.23 468.118 323.112 467.66C322.994 467.202 322.767 466.779 322.45 466.428C321.657 465.563 320.597 464.988 319.44 464.795C317.298 464.32 315.49 465.041 314.017 466.957C313.875 467.166 313.696 467.348 313.488 467.493C313.254 467.609 312.984 467.628 312.736 467.547L309.679 466.869C309.461 466.827 309.268 466.7 309.143 466.517C309.076 466.418 309.032 466.307 309.012 466.19C308.992 466.073 308.997 465.953 309.028 465.839C309.288 464.897 309.771 464.032 310.438 463.317C311.189 462.488 312.082 461.8 313.075 461.283C314.16 460.716 315.33 460.326 316.539 460.131C317.834 459.92 319.158 459.964 320.436 460.26ZM317.189 482.074C317.458 482.137 317.692 482.303 317.84 482.536C317.988 482.769 318.039 483.051 317.982 483.321L317.25 486.642C317.226 486.781 317.172 486.914 317.092 487.031C317.013 487.147 316.91 487.246 316.789 487.32C316.676 487.399 316.547 487.452 316.412 487.478C316.277 487.504 316.137 487.501 316.003 487.469L312.722 486.717C312.583 486.693 312.45 486.64 312.333 486.561C312.216 486.481 312.118 486.377 312.044 486.256C311.968 486.142 311.917 486.013 311.892 485.878C311.868 485.742 311.871 485.604 311.902 485.47L312.641 482.148C312.704 481.879 312.87 481.645 313.102 481.496C313.335 481.346 313.617 481.293 313.888 481.348L317.189 482.074Z" fill="#DD0000"/>
<path d="M324.057 492.057C324.873 491.926 325.704 491.91 326.524 492.01C327.308 492.103 328.07 492.332 328.775 492.687C329.446 493.036 330.037 493.521 330.51 494.111C330.935 494.689 331.234 495.349 331.389 496.05C331.543 496.75 331.548 497.475 331.405 498.178C331.276 498.719 331.068 499.237 330.788 499.717C330.518 500.184 330.205 500.624 329.853 501.032C329.507 501.439 329.175 501.825 328.87 502.198C328.571 502.545 328.306 502.92 328.077 503.316C327.862 503.664 327.753 504.067 327.765 504.476C327.759 504.667 327.705 504.853 327.609 505.018C327.56 505.094 327.495 505.159 327.419 505.208C327.343 505.257 327.258 505.289 327.168 505.303L325.135 505.628C325.04 505.645 324.942 505.643 324.848 505.622C324.753 505.601 324.664 505.562 324.586 505.506C324.505 505.456 324.438 505.387 324.39 505.306C324.342 505.224 324.314 505.133 324.308 505.038C324.222 504.407 324.269 503.766 324.443 503.154C324.603 502.612 324.83 502.093 325.121 501.608C325.406 501.143 325.733 500.706 326.097 500.3C326.456 499.893 326.775 499.514 327.087 499.148C327.365 498.821 327.606 498.464 327.805 498.083C327.982 497.756 328.046 497.38 327.988 497.012C327.937 496.689 327.809 496.383 327.614 496.119C327.42 495.856 327.164 495.644 326.87 495.501C326.141 495.149 325.316 495.048 324.525 495.216C323.808 495.321 323.141 495.645 322.615 496.144C322.09 496.642 321.731 497.292 321.589 498.002C321.55 498.173 321.481 498.336 321.386 498.483C321.265 498.612 321.101 498.692 320.925 498.707L318.783 499.053C318.632 499.081 318.477 499.05 318.349 498.965C318.284 498.92 318.229 498.861 318.188 498.794C318.147 498.726 318.121 498.65 318.112 498.571C318.048 497.899 318.153 497.221 318.417 496.599C318.685 495.875 319.08 495.205 319.583 494.619C320.134 493.978 320.784 493.429 321.508 492.993C322.289 492.519 323.155 492.201 324.057 492.057ZM327.555 506.868C327.648 506.854 327.743 506.857 327.835 506.88C327.927 506.902 328.014 506.942 328.09 506.997C328.17 507.05 328.238 507.119 328.289 507.199C328.341 507.28 328.374 507.37 328.388 507.465L328.768 509.79C328.797 509.979 328.751 510.171 328.64 510.326C328.528 510.481 328.36 510.585 328.171 510.617L325.901 510.99C325.712 511.019 325.52 510.973 325.365 510.861C325.286 510.808 325.22 510.739 325.17 510.658C325.119 510.578 325.087 510.487 325.074 510.393L324.694 508.068C324.677 507.975 324.679 507.879 324.702 507.787C324.724 507.695 324.765 507.608 324.823 507.533C324.876 507.454 324.945 507.388 325.026 507.337C325.106 507.287 325.196 507.254 325.291 507.241L327.555 506.868Z" fill="#DD0000"/>
<g opacity="0.2">
<path d="M324.057 492.057C324.873 491.926 325.704 491.91 326.524 492.01C327.308 492.103 328.07 492.332 328.775 492.687C329.446 493.036 330.037 493.521 330.51 494.111C330.935 494.689 331.234 495.349 331.389 496.05C331.543 496.75 331.548 497.475 331.405 498.178C331.276 498.719 331.068 499.237 330.788 499.717C330.518 500.184 330.205 500.624 329.853 501.032C329.507 501.439 329.175 501.825 328.87 502.198C328.571 502.545 328.306 502.92 328.077 503.316C327.862 503.664 327.753 504.067 327.765 504.476C327.759 504.667 327.705 504.853 327.609 505.018C327.56 505.094 327.495 505.159 327.419 505.208C327.343 505.257 327.258 505.289 327.168 505.303L325.135 505.628C325.04 505.645 324.942 505.643 324.848 505.622C324.753 505.601 324.664 505.562 324.586 505.506C324.505 505.456 324.438 505.387 324.39 505.306C324.342 505.224 324.314 505.133 324.308 505.038C324.222 504.407 324.269 503.766 324.443 503.154C324.603 502.612 324.83 502.093 325.121 501.608C325.406 501.143 325.733 500.706 326.097 500.3C326.456 499.893 326.775 499.514 327.087 499.148C327.365 498.821 327.606 498.464 327.805 498.083C327.982 497.756 328.046 497.38 327.988 497.012C327.937 496.689 327.809 496.383 327.614 496.119C327.42 495.856 327.164 495.644 326.87 495.501C326.141 495.149 325.316 495.048 324.525 495.216C323.808 495.321 323.141 495.645 322.615 496.144C322.09 496.642 321.731 497.292 321.589 498.002C321.55 498.173 321.481 498.336 321.386 498.483C321.265 498.612 321.101 498.692 320.925 498.707L318.783 499.053C318.632 499.081 318.477 499.05 318.349 498.965C318.284 498.92 318.229 498.861 318.188 498.794C318.147 498.726 318.121 498.65 318.112 498.571C318.048 497.899 318.153 497.221 318.417 496.599C318.685 495.875 319.08 495.205 319.583 494.619C320.134 493.978 320.784 493.429 321.508 492.993C322.289 492.519 323.155 492.201 324.057 492.057ZM327.555 506.868C327.648 506.854 327.743 506.857 327.835 506.88C327.927 506.902 328.014 506.942 328.09 506.997C328.17 507.05 328.238 507.119 328.289 507.199C328.341 507.28 328.374 507.37 328.388 507.465L328.768 509.79C328.797 509.979 328.751 510.171 328.64 510.326C328.528 510.481 328.36 510.585 328.171 510.617L325.901 510.99C325.712 511.019 325.52 510.973 325.365 510.861C325.286 510.808 325.22 510.739 325.17 510.658C325.119 510.578 325.087 510.487 325.074 510.393L324.694 508.068C324.677 507.975 324.679 507.879 324.702 507.787C324.724 507.695 324.765 507.608 324.823 507.533C324.876 507.454 324.945 507.388 325.026 507.337C325.106 507.287 325.196 507.254 325.291 507.241L327.555 506.868Z" fill="black"/>
</g>
<path d="M343.225 495.713C343.318 495.777 343.396 495.86 343.456 495.955C343.515 496.051 343.554 496.157 343.571 496.269C343.593 496.379 343.591 496.493 343.567 496.602C343.542 496.712 343.495 496.815 343.429 496.906L341.815 499.177C341.751 499.269 341.669 499.348 341.573 499.407C341.478 499.466 341.371 499.506 341.26 499.523C341.149 499.544 341.036 499.543 340.926 499.518C340.816 499.494 340.713 499.447 340.622 499.38L338.399 497.801C338.306 497.737 338.228 497.655 338.17 497.559C338.111 497.463 338.074 497.356 338.06 497.245C338.038 497.135 338.04 497.021 338.064 496.911C338.089 496.802 338.136 496.698 338.202 496.608L339.836 494.337C339.968 494.153 340.167 494.028 340.391 493.99C340.614 493.952 340.843 494.004 341.029 494.133L343.225 495.713ZM352.607 480.332C353.418 480.9 354.14 481.586 354.749 482.366C355.344 483.091 355.803 483.918 356.105 484.806C356.386 485.657 356.481 486.559 356.383 487.45C356.268 488.4 355.908 489.304 355.339 490.073C354.916 490.695 354.372 491.225 353.739 491.632C353.182 491.981 352.577 492.246 351.943 492.418C351.325 492.58 350.695 492.689 350.058 492.744L348.255 492.907C347.715 492.95 347.179 493.043 346.655 493.184C346.172 493.294 345.731 493.539 345.381 493.889C345.223 494.05 345.024 494.163 344.805 494.215C344.701 494.245 344.591 494.249 344.485 494.228C344.379 494.207 344.279 494.16 344.195 494.093L342.229 492.696C342.041 492.562 341.912 492.361 341.87 492.134C341.844 492.024 341.845 491.909 341.872 491.8C341.899 491.69 341.952 491.589 342.026 491.503C342.485 490.907 343.059 490.41 343.713 490.039C344.303 489.717 344.932 489.473 345.584 489.314C346.214 489.161 346.856 489.064 347.503 489.022C348.14 488.982 348.736 488.934 349.292 488.88C349.801 488.835 350.303 488.735 350.79 488.582C351.216 488.44 351.583 488.161 351.834 487.789C352.061 487.474 352.208 487.11 352.264 486.726C352.319 486.343 352.281 485.951 352.153 485.586C351.832 484.682 351.219 483.912 350.411 483.396C348.947 482.352 347.349 482.318 345.618 483.294C345.444 483.405 345.251 483.483 345.049 483.525C344.944 483.532 344.838 483.519 344.738 483.485C344.638 483.451 344.545 483.398 344.466 483.328L342.378 481.844C342.302 481.794 342.238 481.729 342.188 481.653C342.138 481.577 342.103 481.492 342.087 481.403C342.07 481.311 342.073 481.216 342.096 481.125C342.118 481.034 342.159 480.949 342.215 480.874C342.708 480.243 343.348 479.743 344.08 479.417C344.91 479.041 345.8 478.811 346.71 478.739C347.71 478.655 348.718 478.736 349.692 478.976C350.744 479.23 351.735 479.691 352.607 480.332Z" fill="#DD0000"/>
<g opacity="0.6">
<path d="M343.225 495.713C343.318 495.777 343.396 495.86 343.456 495.955C343.515 496.051 343.554 496.157 343.571 496.269C343.593 496.379 343.591 496.493 343.567 496.602C343.542 496.712 343.495 496.815 343.429 496.906L341.815 499.177C341.751 499.269 341.669 499.348 341.573 499.407C341.478 499.466 341.371 499.506 341.26 499.523C341.149 499.544 341.036 499.543 340.926 499.518C340.816 499.494 340.713 499.447 340.622 499.38L338.399 497.801C338.306 497.737 338.228 497.655 338.17 497.559C338.111 497.463 338.074 497.356 338.06 497.245C338.038 497.135 338.04 497.021 338.064 496.911C338.089 496.802 338.136 496.698 338.202 496.608L339.836 494.337C339.968 494.153 340.167 494.028 340.391 493.99C340.614 493.952 340.843 494.004 341.029 494.133L343.225 495.713ZM352.607 480.332C353.418 480.9 354.14 481.586 354.749 482.366C355.344 483.091 355.803 483.918 356.105 484.806C356.386 485.657 356.481 486.559 356.383 487.45C356.268 488.4 355.908 489.304 355.339 490.073C354.916 490.695 354.372 491.225 353.739 491.632C353.182 491.981 352.577 492.246 351.943 492.418C351.325 492.58 350.695 492.689 350.058 492.744L348.255 492.907C347.715 492.95 347.179 493.043 346.655 493.184C346.172 493.294 345.731 493.539 345.381 493.889C345.223 494.05 345.024 494.163 344.805 494.215C344.701 494.245 344.591 494.249 344.485 494.228C344.379 494.207 344.279 494.16 344.195 494.093L342.229 492.696C342.041 492.562 341.912 492.361 341.87 492.134C341.844 492.024 341.845 491.909 341.872 491.8C341.899 491.69 341.952 491.589 342.026 491.503C342.485 490.907 343.059 490.41 343.713 490.039C344.303 489.717 344.932 489.473 345.584 489.314C346.214 489.161 346.856 489.064 347.503 489.022C348.14 488.982 348.736 488.934 349.292 488.88C349.801 488.835 350.303 488.735 350.79 488.582C351.216 488.44 351.583 488.161 351.834 487.789C352.061 487.474 352.208 487.11 352.264 486.726C352.319 486.343 352.281 485.951 352.153 485.586C351.832 484.682 351.219 483.912 350.411 483.396C348.947 482.352 347.349 482.318 345.618 483.294C345.444 483.405 345.251 483.483 345.049 483.525C344.944 483.532 344.838 483.519 344.738 483.485C344.638 483.451 344.545 483.398 344.466 483.328L342.378 481.844C342.302 481.794 342.238 481.729 342.188 481.653C342.138 481.577 342.103 481.492 342.087 481.403C342.07 481.311 342.073 481.216 342.096 481.125C342.118 481.034 342.159 480.949 342.215 480.874C342.708 480.243 343.348 479.743 344.08 479.417C344.91 479.041 345.8 478.811 346.71 478.739C347.71 478.655 348.718 478.736 349.692 478.976C350.744 479.23 351.735 479.691 352.607 480.332Z" fill="white"/>
</g>
<defs>
<filter id="filter0_f_4127_30106" x="-16" y="-93.9961" width="606.922" height="929.227" filterUnits="userSpaceOnUse" color-interpolation-filters="sRGB">
<feFlood flood-opacity="0" result="BackgroundImageFix"/>
<feBlend mode="normal" in="SourceGraphic" in2="BackgroundImageFix" result="shape"/>
<feGaussianBlur stdDeviation="8" result="effect1_foregroundBlur_4127_30106"/>
</filter>
</defs>
</svg>
