<svg width="155" height="101" viewBox="0 0 155 101" fill="none" xmlns="http://www.w3.org/2000/svg">
<g opacity="0.2">
<path d="M58.5112 -0.535441C46.3049 -0.600024 34.4216 11.1541 39.8466 25.75H19.3737C15.948 25.75 12.6626 27.1108 10.2402 29.5332C7.81789 31.9555 6.45703 35.2409 6.45703 38.6666V51.5833C6.45703 53.2962 7.13746 54.9389 8.34863 56.15C9.55981 57.3612 11.2025 58.0416 12.9154 58.0416H71.0404V38.6666H83.957V58.0416H142.082C143.795 58.0416 145.438 57.3612 146.649 56.15C147.86 54.9389 148.54 53.2962 148.54 51.5833V38.6666C148.54 35.2409 147.179 31.9555 144.757 29.5332C142.335 27.1108 139.049 25.75 135.624 25.75H115.151C122.707 4.63123 94.2904 -10.2875 81.1799 7.92498L77.4987 12.8333L73.8174 7.79581C69.7487 2.04789 64.1299 -0.470857 58.5112 -0.535441ZM58.1237 12.8333C63.8716 12.8333 66.7779 19.8083 62.7091 23.8771C58.6404 27.9458 51.6654 25.0396 51.6654 19.2916C51.6654 17.5788 52.3458 15.9361 53.557 14.7249C54.7681 13.5137 56.4108 12.8333 58.1237 12.8333ZM96.8737 12.8333C102.622 12.8333 105.528 19.8083 101.459 23.8771C97.3904 27.9458 90.4154 25.0396 90.4154 19.2916C90.4154 17.5788 91.0958 15.9361 92.307 14.7249C93.5181 13.5137 95.1608 12.8333 96.8737 12.8333ZM12.9154 64.5V116.167C12.9154 119.592 14.2762 122.878 16.6986 125.3C19.1209 127.722 22.4063 129.083 25.832 129.083H129.165C132.591 129.083 135.876 127.722 138.299 125.3C140.721 122.878 142.082 119.592 142.082 116.167V64.5H83.957V116.167H71.0404V64.5H12.9154Z" fill="white"/>
</g>
</svg>
