<svg width="77" height="73" viewBox="0 0 77 73" fill="none" xmlns="http://www.w3.org/2000/svg">
<path d="M56.303 55.214L37.483 41.93C37.2963 41.798 37.0732 41.7271 36.8445 41.7271C36.6158 41.7271 36.3927 41.798 36.206 41.93L17.386 55.214C17.241 55.3162 17.1228 55.4518 17.0411 55.6093C16.9595 55.7668 16.9169 55.9416 16.917 56.119V57.226C16.917 57.3714 16.9456 57.5153 17.0013 57.6496C17.0569 57.7839 17.1384 57.906 17.2412 58.0088C17.344 58.1116 17.4661 58.1931 17.6004 58.2487C17.7347 58.3044 17.8786 58.333 18.024 58.333H55.663C55.8084 58.333 55.9523 58.3044 56.0866 58.2487C56.2209 58.1931 56.343 58.1116 56.4458 58.0088C56.5486 57.906 56.6301 57.7839 56.6857 57.6496C56.7414 57.5153 56.77 57.3714 56.77 57.226V56.119C56.7703 55.9418 56.728 55.7671 56.6467 55.6096C56.5655 55.4521 56.4476 55.3165 56.303 55.214Z" fill="#CFD8DC"/>
<path d="M37.483 41.929L18.663 28.645C18.4971 28.5275 18.3021 28.4579 18.0993 28.4439C17.8965 28.4299 17.6938 28.4719 17.5134 28.5655C17.3329 28.6591 17.1817 28.8006 17.0763 28.9744C16.971 29.1482 16.9155 29.3477 16.916 29.551V56.12C16.9155 56.3233 16.971 56.5228 17.0763 56.6966C17.1817 56.8704 17.3329 57.0119 17.5134 57.1055C17.6938 57.199 17.8965 57.2411 18.0993 57.2271C18.3021 57.2131 18.4971 57.1435 18.663 57.026L37.483 43.742C37.6279 43.6398 37.746 43.5043 37.8276 43.3469C37.9092 43.1895 37.9518 43.0148 37.9518 42.8375C37.9518 42.6602 37.9092 42.4855 37.8276 42.3281C37.746 42.1707 37.6279 42.0352 37.483 41.933V41.929Z" fill="#FAFAFA"/>
<path d="M56.173 28.567C55.9923 28.4748 55.79 28.4334 55.5877 28.4472C55.3854 28.4609 55.1905 28.5293 55.024 28.645L36.204 41.932C36.0591 42.0342 35.941 42.1697 35.8594 42.3271C35.7778 42.4845 35.7352 42.6592 35.7352 42.8365C35.7352 43.0138 35.7778 43.1885 35.8594 43.3459C35.941 43.5033 36.0591 43.6388 36.204 43.741L55.024 57.025C55.1894 57.1422 55.3839 57.2118 55.5862 57.226C55.7884 57.2403 55.9907 57.1987 56.171 57.1058C56.3512 57.013 56.5025 56.8724 56.6083 56.6994C56.7141 56.5265 56.7704 56.3278 56.771 56.125V29.55C56.771 29.3471 56.7152 29.1481 56.6097 28.9747C56.5043 28.8013 56.3532 28.6603 56.173 28.567Z" fill="#EEEEEE"/>
<path d="M58.929 19.242C58.8563 19.0203 58.7154 18.8273 58.5265 18.6905C58.3376 18.5536 58.1103 18.48 57.877 18.48H15.81C15.5776 18.4799 15.351 18.553 15.1625 18.6889C14.9739 18.8248 14.8329 19.0166 14.7594 19.2371C14.6859 19.4576 14.6838 19.6956 14.7531 19.9175C14.8225 20.1393 14.96 20.3337 15.146 20.473L36.18 35.973C36.3702 36.1131 36.6003 36.1887 36.8365 36.1887C37.0727 36.1887 37.3028 36.1131 37.493 35.973L58.527 20.473C58.7147 20.336 58.8546 20.1434 58.9268 19.9224C58.9989 19.7015 58.9997 19.4634 58.929 19.242Z" fill="#ECEFF1"/>
<path d="M57.875 18.48C57.6356 18.4799 57.4026 18.5575 57.211 18.701L36.844 33.711L16.475 18.701C16.2831 18.5573 16.0497 18.4797 15.81 18.48C14.342 18.48 12.9342 19.0631 11.8962 20.1012C10.8581 21.1392 10.275 22.547 10.275 24.015L10.275 52.798C10.275 54.266 10.8581 55.6738 11.8962 56.7118C12.9342 57.7498 14.342 58.333 15.81 58.333H18.024C18.3176 58.333 18.5992 58.2164 18.8068 58.0088C19.0144 57.8012 19.131 57.5196 19.131 57.226V31.687L36.204 43.74C36.3908 43.8719 36.6138 43.9427 36.8425 43.9427C37.0712 43.9427 37.2942 43.8719 37.481 43.74L54.556 31.687V57.226C54.556 57.5196 54.6726 57.8012 54.8802 58.0088C55.0878 58.2164 55.3694 58.333 55.663 58.333H57.875C59.343 58.333 60.7508 57.7498 61.7888 56.7118C62.8268 55.6738 63.41 54.266 63.41 52.798V24.015C63.41 22.547 62.8268 21.1392 61.7888 20.1012C60.7508 19.0631 59.343 18.48 57.875 18.48Z" fill="#F44336"/>
</svg>
