<svg width="75" height="75" viewBox="0 0 75 75" fill="none" xmlns="http://www.w3.org/2000/svg">
<circle cx="37.5" cy="25" r="8.375" stroke="white" stroke-width="2" stroke-linecap="round"/>
<path d="M43.3253 18.9347C44.1816 17.9625 45.2973 17.2546 46.5417 16.8941C47.786 16.5336 49.1074 16.5353 50.3508 16.8992C51.5942 17.263 52.708 17.9739 53.5617 18.9484C54.4154 19.9228 54.9736 21.1205 55.1707 22.401C55.3678 23.6814 55.1957 24.9916 54.6746 26.1777C54.1535 27.3638 53.305 28.3767 52.2286 29.0977C51.1522 29.8186 49.8926 30.2177 48.5974 30.2481C47.3022 30.2785 46.0252 29.939 44.9162 29.2694" stroke="white" stroke-width="2"/>
<path d="M31.632 18.8866C30.7636 17.9193 29.6367 17.2207 28.3842 16.8731C27.1317 16.5255 25.806 16.5435 24.5634 16.9249C23.3208 17.3064 22.2132 18.0353 21.3715 19.0258C20.5297 20.0162 19.9889 21.2268 19.8128 22.5147C19.6367 23.8025 19.8328 25.1139 20.3778 26.2939C20.9228 27.474 21.794 28.4735 22.8886 29.1744C23.9832 29.8754 25.2555 30.2486 26.5553 30.25C27.8552 30.2514 29.1282 29.8808 30.2243 29.1822" stroke="white" stroke-width="2"/>
<path d="M37.5 39.0625C52.2949 39.0625 54.3544 52.9556 54.6411 56.8236C54.682 57.3744 54.2398 57.8125 53.6875 57.8125H21.3125C20.7602 57.8125 20.318 57.3744 20.3589 56.8236C20.6456 52.9556 22.7051 39.0625 37.5 39.0625Z" stroke="white" stroke-width="2" stroke-linecap="round"/>
<path d="M60.7823 50.4729L59.796 50.638L60.7823 50.4729ZM40.897 39.331L40.1585 38.6567L38.9176 40.0158L40.733 40.3174L40.897 39.331ZM53.6914 51.5625L52.7308 51.8404L52.9397 52.5625H53.6914V51.5625ZM48.4373 36.9375C52.5371 36.9375 55.1996 39.363 56.9636 42.3799C58.7382 45.415 59.5065 48.9083 59.796 50.638L61.7686 50.3079C61.4645 48.4907 60.6465 44.7163 58.6901 41.3704C56.723 38.0062 53.5098 34.9375 48.4373 34.9375V36.9375ZM41.6355 40.0052C43.2865 38.1969 45.4737 36.9375 48.4373 36.9375V34.9375C44.8179 34.9375 42.1202 36.5082 40.1585 38.6567L41.6355 40.0052ZM40.733 40.3174C48.2312 41.5635 51.3843 47.1861 52.7308 51.8404L54.652 51.2846C53.2073 46.2911 49.6578 39.7731 41.0609 38.3445L40.733 40.3174ZM59.8322 50.5625H53.6914V52.5625H59.8322V50.5625ZM59.796 50.638C59.7952 50.6334 59.7947 50.6211 59.7992 50.6059C59.8034 50.592 59.8098 50.5818 59.8155 50.5754C59.8272 50.5621 59.8374 50.5625 59.8322 50.5625V52.5625C61.0007 52.5625 61.975 51.5412 61.7686 50.3079L59.796 50.638Z" fill="white"/>
<path d="M34.1027 39.331L34.2666 40.3174L36.082 40.0158L34.8412 38.6567L34.1027 39.331ZM14.2173 50.4729L13.231 50.3079L14.2173 50.4729ZM21.3083 51.5625V52.5625H22.06L22.2689 51.8404L21.3083 51.5625ZM26.5624 36.9375C29.526 36.9375 31.7132 38.1969 33.3642 40.0052L34.8412 38.6567C32.8795 36.5082 30.1818 34.9375 26.5624 34.9375V36.9375ZM15.2036 50.638C15.4931 48.9082 16.2614 45.415 18.0361 42.3799C19.8001 39.363 22.4626 36.9375 26.5624 36.9375V34.9375C21.4899 34.9375 18.2766 38.0062 16.3096 41.3704C14.3532 44.7163 13.5352 48.4907 13.231 50.3079L15.2036 50.638ZM15.1674 50.5625C15.1622 50.5625 15.1724 50.5621 15.1841 50.5754C15.1898 50.5818 15.1963 50.592 15.2004 50.6059C15.2049 50.6211 15.2044 50.6334 15.2036 50.638L13.231 50.3079C13.0246 51.5412 13.9989 52.5625 15.1674 52.5625V50.5625ZM21.3083 50.5625H15.1674V52.5625H21.3083V50.5625ZM22.2689 51.8404C23.6154 47.1861 26.7685 41.5635 34.2666 40.3174L33.9388 38.3445C25.3418 39.7731 21.7923 46.2911 20.3477 51.2846L22.2689 51.8404Z" fill="white"/>
</svg>
