<svg width="155" height="101" viewBox="0 0 155 101" fill="none" xmlns="http://www.w3.org/2000/svg">
<g opacity="0.2">
<path d="M102.333 24.6666C102.333 38.3817 91.2144 49.5 77.4993 49.5C63.7843 49.5 52.666 38.3817 52.666 24.6666C52.666 10.9516 63.7843 -0.166687 77.4993 -0.166687C91.2144 -0.166687 102.333 10.9516 102.333 24.6666Z" stroke="white" stroke-width="2" stroke-linecap="round"/>
<path d="M93.8778 21.9375C96.3145 17.7171 100.328 14.6374 105.035 13.3761C109.743 12.1148 114.758 12.7751 118.979 15.2118C123.199 17.6485 126.279 21.6619 127.54 26.3692C128.801 31.0765 128.141 36.0921 125.704 40.3125C123.268 44.5329 119.254 47.6126 114.547 48.8739C109.84 50.1352 104.824 49.4749 100.604 47.0382C96.3831 44.6015 93.3034 40.5881 92.0421 35.8808C90.7808 31.1735 91.4411 26.1579 93.8778 21.9375L93.8778 21.9375Z" stroke="white" stroke-width="2"/>
<path d="M29.2958 21.9375C31.7324 17.7171 35.7459 14.6374 40.4532 13.3761C45.1605 12.1148 50.176 12.7751 54.3965 15.2118C58.6169 17.6485 61.6966 21.6619 62.9579 26.3692C64.2192 31.0765 63.5589 36.0921 61.1222 40.3125C58.6855 44.5329 54.6721 47.6126 49.9648 48.8739C45.2575 50.1352 40.2419 49.4749 36.0215 47.0382C31.801 44.6015 28.7214 40.5881 27.4601 35.8808C26.1988 31.1735 26.8591 26.1579 29.2958 21.9375L29.2958 21.9375Z" stroke="white" stroke-width="2"/>
<path d="M109.027 89.25L108.046 89.4475L108.208 90.25H109.027V89.25ZM135.44 88.1332L134.457 88.3177V88.3177L135.44 88.1332ZM95.459 68.0055L94.8541 67.2092L93.6976 68.0877L94.9309 68.8547L95.459 68.0055ZM134.492 88.25H109.027V90.25H134.492V88.25ZM134.457 88.3177C134.457 88.3142 134.456 88.3034 134.46 88.2897C134.463 88.2774 134.469 88.2685 134.474 88.2628C134.478 88.2573 134.483 88.2539 134.488 88.252C134.493 88.2496 134.495 88.25 134.492 88.25V90.25C135.687 90.25 136.656 89.1871 136.423 87.9487L134.457 88.3177ZM109.791 64.4167C119.274 64.4167 125.173 69.129 128.857 74.4832C132.566 79.8755 134.003 85.8962 134.457 88.3177L136.423 87.9487C135.947 85.4141 134.444 79.0766 130.504 73.3496C126.538 67.5846 120.078 62.4167 109.791 62.4167V64.4167ZM96.0638 68.8019C99.4812 66.2062 103.943 64.4167 109.791 64.4167V62.4167C103.499 62.4167 98.6138 64.3535 94.8541 67.2092L96.0638 68.8019ZM94.9309 68.8547C103.523 74.1987 106.802 83.2681 108.046 89.4475L110.007 89.0526C108.719 82.656 105.269 72.9291 95.9871 67.1564L94.9309 68.8547Z" fill="white"/>
<path d="M59.541 68.0055L60.0691 68.8546L61.3024 68.0876L60.1458 67.2091L59.541 68.0055ZM19.5596 88.1332L18.5768 87.9487L19.5596 88.1332ZM45.9731 89.25V90.25H46.7918L46.9534 89.4475L45.9731 89.25ZM45.2089 64.4167C51.0574 64.4167 55.5188 66.2062 58.9361 68.8018L60.1458 67.2091C56.3862 64.3535 51.5013 62.4167 45.2089 62.4167V64.4167ZM20.5425 88.3177C20.997 85.8962 22.4337 79.8755 26.1434 74.4832C29.8269 69.129 35.7258 64.4167 45.2089 64.4167V62.4167C34.9223 62.4167 28.4618 67.5846 24.4957 73.3496C20.5557 79.0766 19.0526 85.4141 18.5768 87.9487L20.5425 88.3177ZM20.5082 88.25C20.5049 88.25 20.5073 88.2496 20.5124 88.252C20.5167 88.2539 20.5215 88.2573 20.5263 88.2628C20.5311 88.2685 20.5366 88.2774 20.54 88.2897C20.5438 88.3034 20.5431 88.3142 20.5425 88.3177L18.5768 87.9487C18.3443 89.1871 19.3132 90.25 20.5082 90.25V88.25ZM45.9731 88.25H20.5082V90.25H45.9731V88.25ZM46.9534 89.4475C48.198 83.2681 51.4766 74.1986 60.0691 68.8546L59.0128 67.1563C49.731 72.929 46.2811 82.656 44.9928 89.0526L46.9534 89.4475Z" fill="white"/>
<path d="M77.5006 63.4167C106.421 63.4167 109.44 89.3176 109.756 94.7259C109.788 95.2773 109.345 95.7084 108.792 95.7084H46.209C45.6567 95.7084 45.2136 95.2773 45.2457 94.7259C45.561 89.3176 48.5803 63.4167 77.5006 63.4167Z" stroke="white" stroke-width="2" stroke-linecap="round"/>
</g>
</svg>
