<svg width="155" height="101" viewBox="0 0 155 101" fill="none" xmlns="http://www.w3.org/2000/svg">
<g opacity="0.2">
<circle cx="58.1263" cy="31.125" r="24.8333" stroke="white" stroke-width="2" stroke-linecap="round"/>
<path d="M74.5048 28.3959C76.9414 24.1754 80.9549 21.0958 85.6622 19.8345C90.3695 18.5732 95.385 19.2335 99.6055 21.6702C103.826 24.1068 106.906 28.1203 108.167 32.8276C109.428 37.5349 108.768 42.5504 106.331 46.7709C103.895 50.9913 99.8811 54.0709 95.1738 55.3323C90.4665 56.5936 85.4509 55.9333 81.2305 53.4966C77.01 51.0599 73.9304 47.0465 72.6691 42.3392C71.4078 37.6319 72.0681 32.6163 74.5048 28.3959L74.5048 28.3959Z" stroke="white" stroke-width="2"/>
<path d="M89.6536 95.7083L88.6733 95.9058L88.8349 96.7083H89.6536V95.7083ZM116.067 94.5915L115.084 94.776V94.776L116.067 94.5915ZM76.0859 74.4639L75.4811 73.6675L74.3245 74.546L75.5578 75.313L76.0859 74.4639ZM115.119 94.7083H89.6536V96.7083H115.119V94.7083ZM115.084 94.776C115.084 94.7725 115.083 94.7617 115.087 94.7481C115.09 94.7357 115.096 94.7268 115.101 94.7211C115.105 94.7156 115.11 94.7122 115.114 94.7103C115.12 94.7079 115.122 94.7083 115.119 94.7083V96.7083C116.314 96.7083 117.283 95.6454 117.05 94.407L115.084 94.776ZM90.4182 70.875C99.9013 70.875 105.8 75.5873 109.484 80.9415C113.193 86.3338 114.63 92.3545 115.084 94.776L117.05 94.407C116.574 91.8724 115.071 85.5349 111.131 79.808C107.165 74.0429 100.705 68.875 90.4182 68.875V70.875ZM76.6908 75.2602C80.1081 72.6646 84.5695 70.875 90.4182 70.875V68.875C84.1257 68.875 79.2407 70.8119 75.4811 73.6675L76.6908 75.2602ZM75.5578 75.313C84.1502 80.657 87.4288 89.7264 88.6733 95.9058L90.6339 95.5109C89.3457 89.1144 85.8958 79.3874 76.6141 73.6147L75.5578 75.313Z" fill="white"/>
<path d="M58.1256 69.875C87.046 69.875 90.0653 95.776 90.3806 101.184C90.4127 101.736 89.9696 102.167 89.4173 102.167H26.834C26.2817 102.167 25.8386 101.736 25.8707 101.184C26.186 95.7759 29.2053 69.875 58.1256 69.875Z" stroke="white" stroke-width="2" stroke-linecap="round"/>
</g>
</svg>
