<svg width="25" height="27" viewBox="0 0 25 27" fill="none" xmlns="http://www.w3.org/2000/svg">
<path d="M5.308 0.295984C5.28649 0.297037 5.2651 0.299707 5.244 0.30398C4.96485 0.301769 4.68588 0.318523 4.409 0.354029C4.35586 0.361281 4.30468 0.378919 4.25837 0.40597C4.21206 0.43302 4.17155 0.468898 4.13913 0.511621C4.10672 0.554345 4.08304 0.603051 4.06947 0.654932C4.05589 0.706813 4.05267 0.760865 4.06 0.81399L5.122 8.44601H1.893C1.59061 8.44535 1.29848 8.55559 1.072 8.75595C0.94572 8.87173 0.844894 9.01257 0.775919 9.1694C0.706944 9.32623 0.671326 9.49563 0.671326 9.66696C0.671326 9.83828 0.706944 10.0078 0.775919 10.1646C0.844894 10.3215 0.94572 10.4622 1.072 10.578C1.29814 10.7791 1.59033 10.8902 1.893 10.89H5.401L5.415 10.9799C5.574 11.9989 5.961 14.538 5.967 14.58V17.809C5.967 17.917 6.00988 18.0204 6.0862 18.0968C6.16253 18.1731 6.26605 18.216 6.374 18.216H7.597V21.073C7.597 21.1809 7.63988 21.2845 7.7162 21.3608C7.79253 21.4371 7.89605 21.4799 8.004 21.4799H10.448V23.925H8.412C7.177 23.925 6.484 24.273 6.173 24.78C5.97942 25.1417 5.90754 25.5562 5.968 25.962C5.968 26.0699 6.01088 26.1735 6.0872 26.2498C6.16353 26.3262 6.26705 26.369 6.375 26.369H16.967C17.0749 26.369 17.1785 26.3262 17.2548 26.2498C17.3311 26.1735 17.374 26.0699 17.374 25.962C17.4219 25.5564 17.337 25.1463 17.132 24.7931C16.8649 24.4805 16.5255 24.238 16.1433 24.0868C15.761 23.9355 15.3476 23.8799 14.939 23.925H12.893V21.4799H15.337C15.4449 21.4799 15.5485 21.4371 15.6248 21.3608C15.7011 21.2845 15.744 21.1809 15.744 21.073V18.216H16.244L18.2 25.255C18.2235 25.3413 18.2749 25.4175 18.3461 25.4718C18.4173 25.526 18.5045 25.5553 18.594 25.555H23.494C23.7708 25.5558 24.0393 25.46 24.253 25.284C24.3872 25.1648 24.4945 25.0184 24.5681 24.8547C24.6416 24.691 24.6796 24.5134 24.6796 24.3339C24.6796 24.1545 24.6416 23.9771 24.5681 23.8133C24.4945 23.6496 24.3872 23.5032 24.253 23.384C24.0391 23.2084 23.7708 23.1126 23.494 23.113H20.124L18.724 18.219H20.629C20.7357 18.219 20.8382 18.1771 20.9143 18.1023C20.9905 18.0274 21.0342 17.9258 21.036 17.8191C21.025 17.2021 20.8963 16.5928 20.657 16.024C20.45 15.5215 20.1108 15.0844 19.6754 14.7592C19.2399 14.434 18.7246 14.2328 18.184 14.177V11.708C18.1958 10.8876 17.9066 10.0915 17.371 9.47006C17.06 9.13483 16.6807 8.87011 16.2588 8.69381C15.8369 8.51752 15.3821 8.43365 14.925 8.44796H8.705C8.88004 8.31041 9.04114 8.15607 9.186 7.98702C9.40307 7.73346 9.56396 7.43679 9.65807 7.11654C9.75218 6.79629 9.77738 6.45969 9.732 6.12899L9.325 3.04897C9.25594 2.63763 9.09896 2.24606 8.86478 1.9009C8.63059 1.55575 8.32471 1.26514 7.968 1.04897C7.16967 0.554214 6.24716 0.296556 5.308 0.305994V0.295984ZM5.308 1.11599C6.08941 1.10761 6.85751 1.31861 7.525 1.725C7.78525 1.8762 8.0091 2.08276 8.18069 2.33004C8.35229 2.57733 8.46744 2.85926 8.518 3.15597L8.925 6.23605C8.96092 6.45501 8.94674 6.67924 8.88352 6.89193C8.8203 7.10463 8.70969 7.30016 8.56 7.46395C8.16926 7.884 7.69561 8.21844 7.169 8.44601H5.945L4.929 1.13601C5.056 1.12801 5.182 1.11599 5.305 1.11599H5.308ZM1.896 9.26095H7.201C7.23684 9.26575 7.27316 9.26575 7.309 9.26095H14.931C15.2734 9.24266 15.6156 9.30022 15.9331 9.42953C16.2507 9.55883 16.5358 9.75673 16.768 10.009C17.1708 10.4828 17.387 11.0872 17.376 11.7089V14.149H16.557V12.524C16.6093 11.9614 16.4856 11.3963 16.203 10.9069C15.9503 10.6066 15.6269 10.3737 15.262 10.2292C14.897 10.0847 14.5018 10.033 14.112 10.0789H1.893C1.78937 10.0756 1.68995 10.0373 1.611 9.97006C1.57121 9.93088 1.53961 9.88411 1.51804 9.83261C1.49647 9.7811 1.48536 9.72585 1.48536 9.67001C1.48536 9.61417 1.49647 9.55891 1.51804 9.50741C1.53961 9.45591 1.57121 9.40913 1.611 9.36996C1.69019 9.30356 1.78967 9.26621 1.893 9.264L1.896 9.26095ZM6.228 10.891H7.094L7.603 14.613C7.61644 14.7098 7.66424 14.7984 7.73768 14.8629C7.81112 14.9273 7.90529 14.9632 8.003 14.964H17.781C18.2393 14.9276 18.6968 15.0437 19.0824 15.2942C19.4679 15.5446 19.7599 15.9154 19.913 16.349C20.0636 16.6816 20.1407 17.0429 20.139 17.408H6.782V14.556C6.78347 14.536 6.78347 14.516 6.782 14.4961C6.782 14.4961 6.394 11.943 6.23 10.896L6.228 10.891ZM7.917 10.891H14.117C15.027 10.891 15.361 11.108 15.536 11.364C15.7115 11.7229 15.7849 12.1231 15.748 12.521V14.146H8.357L7.917 10.891ZM10.044 18.2201H13.303V19.04H10.041V18.2201H10.044ZM8.414 18.228H9.229V19.45C9.229 19.5581 9.27184 19.6616 9.34814 19.7381C9.42444 19.8146 9.52796 19.8577 9.636 19.858H13.707C13.815 19.8577 13.9186 19.8146 13.9949 19.7381C14.0711 19.6616 14.114 19.5581 14.114 19.45V18.228H14.929V20.672H8.411V18.228H8.414ZM17.1 18.228H17.885L19.43 23.636C19.4547 23.7205 19.5061 23.7949 19.5766 23.8477C19.6471 23.9006 19.7329 23.9291 19.821 23.929H23.498C23.5868 23.9332 23.6723 23.9634 23.744 24.016C23.8251 24.1022 23.8702 24.2162 23.8702 24.3346C23.8702 24.4529 23.8251 24.5668 23.744 24.653C23.6723 24.706 23.5869 24.7372 23.498 24.743H18.908L17.097 18.224L17.1 18.228ZM11.266 21.487H12.081V23.931H11.266V21.487ZM8.414 24.7461H14.924C15.976 24.7721 16.317 25.0361 16.453 25.2461C16.512 25.3361 16.488 25.459 16.501 25.562H6.828C6.8158 25.444 6.8298 25.3249 6.869 25.213C6.994 25.013 7.32 24.747 8.412 24.747L8.414 24.7461Z" fill="#7E7E7E"/>
</svg>
