<svg width="600" height="870" viewBox="0 0 600 870" fill="none" xmlns="http://www.w3.org/2000/svg">
<g filter="url(#filter0_f_4123_29573)">
<path fill-rule="evenodd" clip-rule="evenodd" d="M0 819.23C330.72 772.003 577.425 584.537 574.903 363.366C572.407 144.478 326.619 -35.8395 0 -77.9961V819.23Z" fill="#008B99"/>
</g>
<path fill-rule="evenodd" clip-rule="evenodd" d="M0 869.076C343.208 827.935 602.488 636.639 599.903 409.93C597.344 185.492 338.997 1.6043 0 -34.3711V869.076Z" fill="#C8E9F2"/>
<path d="M414.754 257.611C408.588 257.611 304.684 258.298 298.157 258.092C297.684 258.092 297.435 257.387 297.899 257.156C302.021 255.12 306.693 255.524 310.987 254.081C313.512 253.222 315.058 251.591 316.801 249.701C318.235 248.066 320.083 246.846 322.151 246.172C324.065 245.598 326.097 245.535 328.043 245.991C330.147 246.489 331.976 247.709 333.994 248.465C338.983 250.345 343.836 248.551 347.391 244.858C350.337 241.818 353.222 238.941 357.215 237.309C358.853 236.564 360.627 236.167 362.426 236.142C364.225 236.117 366.009 236.464 367.667 237.163C371.48 238.881 374.099 242.359 377.68 244.446C381.923 246.927 386.998 246.343 391.678 247.091C396.359 247.838 399.966 251.788 404.079 254.055C405.416 254.919 406.963 255.4 408.554 255.447C409.472 255.447 410.374 255.172 411.285 255.06C412.702 254.888 414.041 254.923 414.994 256.108C415.209 256.383 415.166 257.611 414.754 257.611Z" fill="#EBEBEB"/>
<path d="M413.69 369.418C409.181 369.418 333.324 369.916 328.558 369.761C328.215 369.761 328.034 369.246 328.378 369.083C331.384 367.588 334.793 367.889 337.91 366.841C339.748 366.223 340.882 365.021 342.153 363.638C343.209 362.434 344.576 361.543 346.103 361.062C347.498 360.642 348.979 360.597 350.397 360.933C351.934 361.294 353.274 362.178 354.743 362.736C358.384 364.11 361.931 362.805 364.524 360.1C366.671 357.884 368.818 355.806 371.704 354.586C372.895 354.048 374.185 353.761 375.493 353.743C376.801 353.725 378.098 353.977 379.304 354.483C382.086 355.746 383.993 358.279 386.603 359.799C389.704 361.611 393.405 361.182 396.832 361.732C400.258 362.281 402.843 365.167 405.883 366.816C406.859 367.45 407.992 367.801 409.155 367.829C409.825 367.829 410.478 367.631 411.139 367.554C412.178 367.425 413.157 367.451 413.853 368.318C414.042 368.525 413.99 369.418 413.69 369.418Z" fill="#EBEBEB"/>
<path d="M370.32 330.41C365.82 330.41 289.963 330.908 285.197 330.753C284.853 330.753 284.664 330.238 285.008 330.075C288.014 328.581 291.423 328.881 294.549 327.833C296.387 327.207 297.512 326.013 298.783 324.63C299.841 323.428 301.207 322.537 302.733 322.054C304.128 321.635 305.608 321.588 307.027 321.916C308.573 322.286 309.904 323.17 311.373 323.72C315.022 325.103 318.561 323.789 321.163 321.092C323.31 318.876 325.414 316.798 328.334 315.579C329.525 315.04 330.815 314.753 332.123 314.735C333.431 314.718 334.728 314.97 335.934 315.476C338.716 316.738 340.623 319.271 343.234 320.791C346.334 322.603 350.044 322.174 353.462 322.724C356.88 323.273 359.473 326.159 362.513 327.808C363.491 328.438 364.623 328.788 365.785 328.821C366.455 328.821 367.116 328.624 367.778 328.546C368.255 328.414 368.759 328.415 369.235 328.548C369.712 328.681 370.143 328.942 370.483 329.302C370.655 329.517 370.62 330.41 370.32 330.41Z" fill="#EBEBEB"/>
<path d="M297.246 292.03C297.152 292.287 177.686 292.03 179.198 292.03C179.885 292.03 178.15 291.008 178.829 290.673C182.71 288.741 186.97 288.689 191.204 288.303C193.703 288.205 196.159 287.622 198.435 286.585C200.685 285.409 202.093 283.365 203.69 281.432C206.154 278.518 209.319 276.279 212.887 274.927C216.456 273.574 220.31 273.153 224.086 273.703C232.58 275.034 239.278 281.51 247.789 282.695C252.942 283.416 257.734 281.432 262.732 280.737C266.594 280.21 270.523 280.929 273.948 282.789C276.644 284.129 279.1 285.254 282.183 285.46C284.519 285.623 286.872 285.357 289.217 285.331C293.041 285.413 296.704 286.885 299.522 289.471C299.934 289.797 301.137 292.03 297.246 292.03Z" fill="#EBEBEB"/>
<path d="M340.246 603.09H378.857V400.674H340.246V603.09Z" fill="#DBDBDB"/>
<path d="M365.365 414.992H372.871V407.263H365.365V414.992Z" fill="#EBEBEB"/>
<path d="M355.756 414.992H363.262V407.263H355.756V414.992Z" fill="#EBEBEB"/>
<path d="M365.365 428.113H372.871V420.384H365.365V428.113Z" fill="#EBEBEB"/>
<path d="M355.756 428.113H363.262V420.384H355.756V428.113Z" fill="#EBEBEB"/>
<path d="M365.365 441.227H372.871V433.497H365.365V441.227Z" fill="#EBEBEB"/>
<path d="M355.756 441.227H363.262V433.497H355.756V441.227Z" fill="#EBEBEB"/>
<path d="M365.365 454.352H372.871V446.622H365.365V454.352Z" fill="#EBEBEB"/>
<path d="M355.756 454.352H363.262V446.622H355.756V454.352Z" fill="#EBEBEB"/>
<path d="M365.365 467.473H372.871V459.744H365.365V467.473Z" fill="#EBEBEB"/>
<path d="M355.756 467.473H363.262V459.744H355.756V467.473Z" fill="#EBEBEB"/>
<path d="M365.365 480.594H372.871V472.865H365.365V480.594Z" fill="#EBEBEB"/>
<path d="M355.756 480.594H363.262V472.865H355.756V480.594Z" fill="#EBEBEB"/>
<path d="M365.365 493.715H372.871V485.986H365.365V493.715Z" fill="#EBEBEB"/>
<path d="M355.756 493.715H363.262V485.986H355.756V493.715Z" fill="#EBEBEB"/>
<path d="M365.365 506.84H372.871V499.111H365.365V506.84Z" fill="#EBEBEB"/>
<path d="M355.756 506.84H363.262V499.111H355.756V506.84Z" fill="#EBEBEB"/>
<path d="M365.365 519.961H372.871V512.232H365.365V519.961Z" fill="#EBEBEB"/>
<path d="M355.756 519.961H363.262V512.232H355.756V519.961Z" fill="#EBEBEB"/>
<path d="M365.365 533.082H372.871V525.353H365.365V533.082Z" fill="#EBEBEB"/>
<path d="M355.756 533.082H363.262V525.353H355.756V533.082Z" fill="#EBEBEB"/>
<path d="M365.365 546.207H372.871V538.478H365.365V546.207Z" fill="#EBEBEB"/>
<path d="M355.756 546.207H363.262V538.478H355.756V546.207Z" fill="#EBEBEB"/>
<path d="M365.365 559.328H372.871V551.599H365.365V559.328Z" fill="#EBEBEB"/>
<path d="M355.756 559.328H363.262V551.599H355.756V559.328Z" fill="#EBEBEB"/>
<path d="M365.365 572.449H372.871V564.72H365.365V572.449Z" fill="#EBEBEB"/>
<path d="M355.756 572.449H363.262V564.72H355.756V572.449Z" fill="#EBEBEB"/>
<path d="M365.365 585.562H372.871V577.833H365.365V585.562Z" fill="#EBEBEB"/>
<path d="M353.746 577.844H346.24V585.573H353.746V577.844Z" fill="#EBEBEB"/>
<path d="M353.746 564.723H346.24V572.452H353.746V564.723Z" fill="#EBEBEB"/>
<path d="M353.746 551.598H346.24V559.327H353.746V551.598Z" fill="#EBEBEB"/>
<path d="M353.746 538.477H346.24V546.206H353.746V538.477Z" fill="#EBEBEB"/>
<path d="M353.746 525.355H346.24V533.085H353.746V525.355Z" fill="#EBEBEB"/>
<path d="M353.746 512.23H346.24V519.96H353.746V512.23Z" fill="#EBEBEB"/>
<path d="M353.746 499.109H346.24V506.838H353.746V499.109Z" fill="#EBEBEB"/>
<path d="M353.746 485.988H346.24V493.717H353.746V485.988Z" fill="#EBEBEB"/>
<path d="M353.746 472.863H346.24V480.592H353.746V472.863Z" fill="#EBEBEB"/>
<path d="M353.746 459.742H346.24V467.471H353.746V459.742Z" fill="#EBEBEB"/>
<path d="M353.746 446.621H346.24V454.35H353.746V446.621Z" fill="#EBEBEB"/>
<path d="M353.746 433.5H346.24V441.229H353.746V433.5Z" fill="#EBEBEB"/>
<path d="M353.746 420.375H346.24V428.104H353.746V420.375Z" fill="#EBEBEB"/>
<path d="M353.746 407.254H346.24V414.983H353.746V407.254Z" fill="#EBEBEB"/>
<path d="M355.756 585.562H363.262V577.833H355.756V585.562Z" fill="#EBEBEB"/>
<path d="M309.802 603.09H340.246V400.674H309.802V603.09Z" fill="#A6A6A6"/>
<path d="M319.136 577.844H312.936V585.573H319.136V577.844Z" fill="#C7C7C7"/>
<path d="M327.072 577.844H320.871V585.573H327.072V577.844Z" fill="#C7C7C7"/>
<path d="M319.136 564.723H312.936V572.452H319.136V564.723Z" fill="#C7C7C7"/>
<path d="M327.072 564.723H320.871V572.452H327.072V564.723Z" fill="#C7C7C7"/>
<path d="M319.136 551.598H312.936V559.327H319.136V551.598Z" fill="#C7C7C7"/>
<path d="M327.072 551.598H320.871V559.327H327.072V551.598Z" fill="#C7C7C7"/>
<path d="M319.136 538.477H312.936V546.206H319.136V538.477Z" fill="#C7C7C7"/>
<path d="M327.072 538.477H320.871V546.206H327.072V538.477Z" fill="#C7C7C7"/>
<path d="M319.136 525.355H312.936V533.085H319.136V525.355Z" fill="#C7C7C7"/>
<path d="M327.072 525.355H320.871V533.085H327.072V525.355Z" fill="#C7C7C7"/>
<path d="M319.136 512.23H312.936V519.96H319.136V512.23Z" fill="#C7C7C7"/>
<path d="M327.072 512.23H320.871V519.96H327.072V512.23Z" fill="#C7C7C7"/>
<path d="M319.136 499.109H312.936V506.838H319.136V499.109Z" fill="#C7C7C7"/>
<path d="M327.072 499.109H320.871V506.838H327.072V499.109Z" fill="#C7C7C7"/>
<path d="M319.136 485.988H312.936V493.717H319.136V485.988Z" fill="#C7C7C7"/>
<path d="M327.072 485.988H320.871V493.717H327.072V485.988Z" fill="#C7C7C7"/>
<path d="M319.136 472.863H312.936V480.592H319.136V472.863Z" fill="#C7C7C7"/>
<path d="M327.072 472.863H320.871V480.592H327.072V472.863Z" fill="#C7C7C7"/>
<path d="M319.136 459.742H312.936V467.471H319.136V459.742Z" fill="#C7C7C7"/>
<path d="M327.072 459.742H320.871V467.471H327.072V459.742Z" fill="#C7C7C7"/>
<path d="M319.136 446.621H312.936V454.35H319.136V446.621Z" fill="#C7C7C7"/>
<path d="M327.072 446.621H320.871V454.35H327.072V446.621Z" fill="#C7C7C7"/>
<path d="M319.136 433.5H312.936V441.229H319.136V433.5Z" fill="#C7C7C7"/>
<path d="M327.072 433.5H320.871V441.229H327.072V433.5Z" fill="#C7C7C7"/>
<path d="M319.136 420.375H312.936V428.104H319.136V420.375Z" fill="#C7C7C7"/>
<path d="M327.072 420.375H320.871V428.104H327.072V420.375Z" fill="#C7C7C7"/>
<path d="M319.136 407.254H312.936V414.983H319.136V407.254Z" fill="#C7C7C7"/>
<path d="M328.729 414.992H334.93V407.263H328.729V414.992Z" fill="#C7C7C7"/>
<path d="M328.729 428.113H334.93V420.384H328.729V428.113Z" fill="#C7C7C7"/>
<path d="M328.729 441.227H334.93V433.497H328.729V441.227Z" fill="#C7C7C7"/>
<path d="M328.729 454.352H334.93V446.622H328.729V454.352Z" fill="#C7C7C7"/>
<path d="M328.729 467.473H334.93V459.744H328.729V467.473Z" fill="#C7C7C7"/>
<path d="M328.729 480.594H334.93V472.865H328.729V480.594Z" fill="#C7C7C7"/>
<path d="M328.729 493.715H334.93V485.986H328.729V493.715Z" fill="#C7C7C7"/>
<path d="M328.729 506.84H334.93V499.111H328.729V506.84Z" fill="#C7C7C7"/>
<path d="M328.729 519.961H334.93V512.232H328.729V519.961Z" fill="#C7C7C7"/>
<path d="M328.729 533.082H334.93V525.353H328.729V533.082Z" fill="#C7C7C7"/>
<path d="M328.729 546.207H334.93V538.478H328.729V546.207Z" fill="#C7C7C7"/>
<path d="M328.729 559.328H334.93V551.599H328.729V559.328Z" fill="#C7C7C7"/>
<path d="M328.729 572.449H334.93V564.72H328.729V572.449Z" fill="#C7C7C7"/>
<path d="M328.729 585.562H334.93V577.833H328.729V585.562Z" fill="#C7C7C7"/>
<path d="M327.072 407.254H320.871V414.983H327.072V407.254Z" fill="#C7C7C7"/>
<path d="M413.955 480.914H365.537V603.171H413.955V480.914Z" fill="#EBEBEB"/>
<path d="M365.538 480.91H415.115V476.788H365.538V480.91Z" fill="#C7C7C7"/>
<path d="M409.576 486.992H404.672V603.177H409.576V486.992Z" fill="white"/>
<path d="M400.893 486.992H395.98V603.177H400.893V486.992Z" fill="white"/>
<path d="M392.203 486.992H387.299V603.177H392.203V486.992Z" fill="white"/>
<path d="M383.52 486.992H378.607V603.177H383.52V486.992Z" fill="white"/>
<path d="M374.82 486.992H369.916V603.177H374.82V486.992Z" fill="white"/>
<path d="M404.673 500.32H409.576V492.188H404.673V500.32Z" fill="#EBEBEB"/>
<path d="M395.989 500.32H400.893V492.188H395.989V500.32Z" fill="#EBEBEB"/>
<path d="M387.29 500.32H392.193V492.188H387.29V500.32Z" fill="#EBEBEB"/>
<path d="M378.608 500.32H383.512V492.188H378.608V500.32Z" fill="#EBEBEB"/>
<path d="M369.926 500.32H374.83V492.188H369.926V500.32Z" fill="#EBEBEB"/>
<path d="M404.673 513.539H409.576V505.406H404.673V513.539Z" fill="#EBEBEB"/>
<path d="M395.989 513.539H400.893V505.406H395.989V513.539Z" fill="#EBEBEB"/>
<path d="M387.29 513.539H392.193V505.406H387.29V513.539Z" fill="#EBEBEB"/>
<path d="M378.608 513.539H383.512V505.406H378.608V513.539Z" fill="#EBEBEB"/>
<path d="M369.926 513.539H374.83V505.406H369.926V513.539Z" fill="#EBEBEB"/>
<path d="M404.673 526.746H409.576V518.613H404.673V526.746Z" fill="#EBEBEB"/>
<path d="M395.989 526.746H400.893V518.613H395.989V526.746Z" fill="#EBEBEB"/>
<path d="M387.29 526.746H392.193V518.613H387.29V526.746Z" fill="#EBEBEB"/>
<path d="M378.608 526.746H383.512V518.613H378.608V526.746Z" fill="#EBEBEB"/>
<path d="M369.926 526.746H374.83V518.613H369.926V526.746Z" fill="#EBEBEB"/>
<path d="M404.673 539.961H409.576V531.828H404.673V539.961Z" fill="#EBEBEB"/>
<path d="M395.989 539.961H400.893V531.828H395.989V539.961Z" fill="#EBEBEB"/>
<path d="M387.29 539.961H392.193V531.828H387.29V539.961Z" fill="#EBEBEB"/>
<path d="M378.608 539.961H383.512V531.828H378.608V539.961Z" fill="#EBEBEB"/>
<path d="M369.926 539.961H374.83V531.828H369.926V539.961Z" fill="#EBEBEB"/>
<path d="M404.673 553.172H409.576V545.039H404.673V553.172Z" fill="#EBEBEB"/>
<path d="M395.989 553.172H400.893V545.039H395.989V553.172Z" fill="#EBEBEB"/>
<path d="M387.29 553.172H392.193V545.039H387.29V553.172Z" fill="#EBEBEB"/>
<path d="M378.608 553.172H383.512V545.039H378.608V553.172Z" fill="#EBEBEB"/>
<path d="M369.926 553.172H374.83V545.039H369.926V553.172Z" fill="#EBEBEB"/>
<path d="M404.673 566.387H409.576V558.254H404.673V566.387Z" fill="#EBEBEB"/>
<path d="M395.989 566.387H400.893V558.254H395.989V566.387Z" fill="#EBEBEB"/>
<path d="M387.29 566.387H392.193V558.254H387.29V566.387Z" fill="#EBEBEB"/>
<path d="M378.608 566.387H383.512V558.254H378.608V566.387Z" fill="#EBEBEB"/>
<path d="M369.926 566.387H374.83V558.254H369.926V566.387Z" fill="#EBEBEB"/>
<path d="M404.673 579.605H409.576V571.473H404.673V579.605Z" fill="#EBEBEB"/>
<path d="M395.989 579.605H400.893V571.473H395.989V579.605Z" fill="#EBEBEB"/>
<path d="M387.29 579.605H392.193V571.473H387.29V579.605Z" fill="#EBEBEB"/>
<path d="M378.608 579.605H383.512V571.473H378.608V579.605Z" fill="#EBEBEB"/>
<path d="M369.926 579.605H374.83V571.473H369.926V579.605Z" fill="#EBEBEB"/>
<path d="M404.673 592.812H409.576V584.68H404.673V592.812Z" fill="#EBEBEB"/>
<path d="M395.989 592.812H400.893V584.68H395.989V592.812Z" fill="#EBEBEB"/>
<path d="M387.29 592.812H392.193V584.68H387.29V592.812Z" fill="#EBEBEB"/>
<path d="M378.608 592.812H383.512V584.68H378.608V592.812Z" fill="#EBEBEB"/>
<path d="M369.926 592.812H374.83V584.68H369.926V592.812Z" fill="#EBEBEB"/>
<path d="M409.576 597.902H404.672V603.175H409.576V597.902Z" fill="#EBEBEB"/>
<path d="M400.893 597.902H395.98V603.175H400.893V597.902Z" fill="#EBEBEB"/>
<path d="M392.203 597.902H387.299V603.175H392.203V597.902Z" fill="#EBEBEB"/>
<path d="M383.52 597.902H378.607V603.175H383.52V597.902Z" fill="#EBEBEB"/>
<path d="M374.82 597.902H369.916V603.175H374.82V597.902Z" fill="#EBEBEB"/>
<path d="M365.536 480.914H334.457V603.171H365.536V480.914Z" fill="#DBDBDB"/>
<path d="M333.109 480.91H365.537V476.788H333.109V480.91Z" fill="#C7C7C7"/>
<path d="M361.166 486.992H356.254V603.177H361.166V486.992Z" fill="#C7C7C7"/>
<path d="M352.474 486.992H347.57V603.177H352.474V486.992Z" fill="#C7C7C7"/>
<path d="M343.793 486.992H338.881V603.177H343.793V486.992Z" fill="#C7C7C7"/>
<path d="M356.262 500.32H361.166V492.188H356.262V500.32Z" fill="#DBDBDB"/>
<path d="M347.571 500.32H352.475V492.188H347.571V500.32Z" fill="#DBDBDB"/>
<path d="M338.889 500.32H343.793V492.188H338.889V500.32Z" fill="#DBDBDB"/>
<path d="M356.262 513.539H361.166V505.406H356.262V513.539Z" fill="#DBDBDB"/>
<path d="M347.571 513.539H352.475V505.406H347.571V513.539Z" fill="#DBDBDB"/>
<path d="M338.889 513.539H343.793V505.406H338.889V513.539Z" fill="#DBDBDB"/>
<path d="M356.262 526.746H361.166V518.613H356.262V526.746Z" fill="#DBDBDB"/>
<path d="M347.571 526.746H352.475V518.613H347.571V526.746Z" fill="#DBDBDB"/>
<path d="M338.889 526.746H343.793V518.613H338.889V526.746Z" fill="#DBDBDB"/>
<path d="M356.262 539.961H361.166V531.828H356.262V539.961Z" fill="#DBDBDB"/>
<path d="M347.571 539.961H352.475V531.828H347.571V539.961Z" fill="#DBDBDB"/>
<path d="M338.889 539.961H343.793V531.828H338.889V539.961Z" fill="#DBDBDB"/>
<path d="M356.262 553.172H361.166V545.039H356.262V553.172Z" fill="#DBDBDB"/>
<path d="M347.571 553.172H352.475V545.039H347.571V553.172Z" fill="#DBDBDB"/>
<path d="M338.889 553.172H343.793V545.039H338.889V553.172Z" fill="#DBDBDB"/>
<path d="M356.262 566.387H361.166V558.254H356.262V566.387Z" fill="#DBDBDB"/>
<path d="M347.571 566.387H352.475V558.254H347.571V566.387Z" fill="#DBDBDB"/>
<path d="M338.889 566.387H343.793V558.254H338.889V566.387Z" fill="#DBDBDB"/>
<path d="M356.262 579.605H361.166V571.473H356.262V579.605Z" fill="#DBDBDB"/>
<path d="M347.571 579.605H352.475V571.473H347.571V579.605Z" fill="#DBDBDB"/>
<path d="M338.889 579.605H343.793V571.473H338.889V579.605Z" fill="#DBDBDB"/>
<path d="M356.262 592.812H361.166V584.68H356.262V592.812Z" fill="#DBDBDB"/>
<path d="M347.571 592.812H352.475V584.68H347.571V592.812Z" fill="#DBDBDB"/>
<path d="M338.889 592.812H343.793V584.68H338.889V592.812Z" fill="#DBDBDB"/>
<path d="M361.166 597.902H356.254V603.175H361.166V597.902Z" fill="#DBDBDB"/>
<path d="M352.474 597.902H347.57V603.175H352.474V597.902Z" fill="#DBDBDB"/>
<path d="M343.793 597.902H338.881V603.175H343.793V597.902Z" fill="#DBDBDB"/>
<path d="M287.173 484.758H307.578V460.652H287.173V484.758Z" fill="#DBDBDB"/>
<path d="M274.239 485.645H287.172V460.662H274.239V485.645Z" fill="#C7C7C7"/>
<path d="M273.38 485.645H286.219V471.303H273.38V485.645Z" fill="#DBDBDB"/>
<path d="M265.369 485.645H273.373V471.303H265.369V485.645Z" fill="#C7C7C7"/>
<path d="M282.406 603.102H315.4V483.198H282.406V603.102Z" fill="#EBEBEB"/>
<path d="M301.257 492.59H311.631V488.347H301.257V492.59Z" fill="white"/>
<path d="M287.981 492.59H298.355V488.347H287.981V492.59Z" fill="white"/>
<path d="M301.257 499.781H311.631V495.539H301.257V499.781Z" fill="white"/>
<path d="M287.981 499.781H298.355V495.539H287.981V499.781Z" fill="white"/>
<path d="M301.257 506.977H311.631V502.734H301.257V506.977Z" fill="white"/>
<path d="M287.981 506.977H298.355V502.734H287.981V506.977Z" fill="white"/>
<path d="M301.257 514.172H311.631V509.929H301.257V514.172Z" fill="white"/>
<path d="M287.981 514.172H298.355V509.929H287.981V514.172Z" fill="white"/>
<path d="M301.257 521.371H311.631V517.129H301.257V521.371Z" fill="white"/>
<path d="M287.981 521.371H298.355V517.129H287.981V521.371Z" fill="white"/>
<path d="M301.257 528.566H311.631V524.324H301.257V528.566Z" fill="white"/>
<path d="M287.981 528.566H298.355V524.324H287.981V528.566Z" fill="white"/>
<path d="M301.257 535.762H311.631V531.519H301.257V535.762Z" fill="white"/>
<path d="M287.981 535.762H298.355V531.519H287.981V535.762Z" fill="white"/>
<path d="M301.257 542.961H311.631V538.719H301.257V542.961Z" fill="white"/>
<path d="M287.981 542.961H298.355V538.719H287.981V542.961Z" fill="white"/>
<path d="M301.257 550.164H311.631V545.922H301.257V550.164Z" fill="white"/>
<path d="M287.981 550.164H298.355V545.922H287.981V550.164Z" fill="white"/>
<path d="M301.257 557.359H311.631V553.117H301.257V557.359Z" fill="white"/>
<path d="M287.981 557.359H298.355V553.117H287.981V557.359Z" fill="white"/>
<path d="M301.257 564.559H311.631V560.316H301.257V564.559Z" fill="white"/>
<path d="M287.981 564.559H298.355V560.316H287.981V564.559Z" fill="white"/>
<path d="M301.257 571.754H311.631V567.512H301.257V571.754Z" fill="white"/>
<path d="M287.981 571.754H298.355V567.512H287.981V571.754Z" fill="white"/>
<path d="M301.257 578.949H311.631V574.707H301.257V578.949Z" fill="white"/>
<path d="M287.981 578.949H298.355V574.707H287.981V578.949Z" fill="white"/>
<path d="M301.257 586.148H311.631V581.906H301.257V586.148Z" fill="white"/>
<path d="M287.981 586.148H298.355V581.906H287.981V586.148Z" fill="white"/>
<path d="M255.682 603.102H282.416V483.198H255.682V603.102Z" fill="#C7C7C7"/>
<path d="M266.871 581.906H258.352V586.149H266.871V581.906Z" fill="#EBEBEB"/>
<path d="M277.769 581.906H269.25V586.149H277.769V581.906Z" fill="#EBEBEB"/>
<path d="M266.871 574.707H258.352V578.949H266.871V574.707Z" fill="#EBEBEB"/>
<path d="M277.769 574.707H269.25V578.949H277.769V574.707Z" fill="#EBEBEB"/>
<path d="M266.871 567.512H258.352V571.754H266.871V567.512Z" fill="#EBEBEB"/>
<path d="M277.769 567.512H269.25V571.754H277.769V567.512Z" fill="#EBEBEB"/>
<path d="M266.871 560.316H258.352V564.559H266.871V560.316Z" fill="#EBEBEB"/>
<path d="M277.769 560.316H269.25V564.559H277.769V560.316Z" fill="#EBEBEB"/>
<path d="M266.871 553.117H258.352V557.36H266.871V553.117Z" fill="#EBEBEB"/>
<path d="M277.769 553.117H269.25V557.36H277.769V553.117Z" fill="#EBEBEB"/>
<path d="M266.871 545.922H258.352V550.164H266.871V545.922Z" fill="#EBEBEB"/>
<path d="M277.769 545.922H269.25V550.164H277.769V545.922Z" fill="#EBEBEB"/>
<path d="M266.871 538.727H258.352V542.969H266.871V538.727Z" fill="#EBEBEB"/>
<path d="M277.769 538.727H269.25V542.969H277.769V538.727Z" fill="#EBEBEB"/>
<path d="M266.871 531.527H258.352V535.77H266.871V531.527Z" fill="#EBEBEB"/>
<path d="M277.769 531.527H269.25V535.77H277.769V531.527Z" fill="#EBEBEB"/>
<path d="M266.871 524.332H258.352V528.574H266.871V524.332Z" fill="#EBEBEB"/>
<path d="M277.769 524.332H269.25V528.574H277.769V524.332Z" fill="#EBEBEB"/>
<path d="M266.871 517.137H258.352V521.379H266.871V517.137Z" fill="#EBEBEB"/>
<path d="M277.769 517.137H269.25V521.379H277.769V517.137Z" fill="#EBEBEB"/>
<path d="M266.871 509.938H258.352V514.18H266.871V509.938Z" fill="#EBEBEB"/>
<path d="M277.769 509.938H269.25V514.18H277.769V509.938Z" fill="#EBEBEB"/>
<path d="M266.871 502.742H258.352V506.985H266.871V502.742Z" fill="#EBEBEB"/>
<path d="M277.769 502.742H269.25V506.985H277.769V502.742Z" fill="#EBEBEB"/>
<path d="M266.871 495.547H258.352V499.789H266.871V495.547Z" fill="#EBEBEB"/>
<path d="M277.769 495.547H269.25V499.789H277.769V495.547Z" fill="#EBEBEB"/>
<path d="M266.871 488.34H258.352V492.582H266.871V488.34Z" fill="#EBEBEB"/>
<path d="M277.769 488.34H269.25V492.582H277.769V488.34Z" fill="#EBEBEB"/>
<path d="M280.715 350.66V383.285H356.211L363.004 395.755L369.797 383.285H380.282V350.66H280.715Z" fill="white"/>
<path d="M280.715 350.658L280.938 383.292C279.504 382.682 356.554 383.138 356.21 382.94H356.417L356.52 383.12L363.39 395.573H362.703L369.384 383.078L369.504 382.854H380.248L379.836 383.266L379.922 350.633L380.248 350.95C355.438 350.95 305.491 350.753 280.68 350.633L280.715 350.658ZM280.715 350.658C305.542 350.538 355.429 350.358 380.282 350.332H380.6V350.658L380.686 383.292V383.704H380.274H369.788L370.157 383.481L363.373 395.942L363.029 396.578L362.686 395.942L355.901 383.481L356.21 383.67C355.858 383.558 280.801 383.61 280.5 383.533V383.309L280.715 350.676V350.658Z" fill="#EBEBEB"/>
<path d="M297.228 361.445L299.384 364.657L303.111 365.722L300.715 368.762L300.861 372.635L297.228 371.304L293.596 372.635L293.733 368.762L291.346 365.722L295.073 364.657L297.228 361.445Z" fill="#EBEBEB"/>
<path d="M313.863 361.445L316.019 364.657L319.746 365.722L317.358 368.762L317.496 372.635L313.863 371.304L310.23 372.635L310.376 368.762L307.98 365.722L311.708 364.657L313.863 361.445Z" fill="#EBEBEB"/>
<path d="M330.498 361.445L332.653 364.657L336.381 365.722L333.993 368.762L334.131 372.635L330.498 371.304L326.865 372.635L327.011 368.762L324.615 365.722L328.342 364.657L330.498 361.445Z" fill="#EBEBEB"/>
<path d="M347.133 361.445L349.288 364.657L353.015 365.722L350.628 368.762L350.765 372.635L347.133 371.304L343.5 372.635L343.646 368.762L341.25 365.722L344.977 364.657L347.133 361.445Z" fill="#EBEBEB"/>
<path d="M359.681 373.254L359.844 368.908L357.156 365.473L361.347 364.28L363.769 360.664L366.199 364.28L370.39 365.473L367.668 368.883L367.831 373.228L363.743 371.734L359.681 373.254ZM363.769 370.841L366.955 372.009L366.809 368.625L368.904 365.954L365.641 365.035L363.752 362.218L361.862 365.035L358.608 365.954L360.694 368.625L360.574 372.009L363.769 370.841Z" fill="#EBEBEB"/>
<path d="M407.849 433.02V457.881H350.327L345.157 467.38L339.979 457.881H331.992V433.02H407.849Z" fill="white"/>
<path d="M407.849 433.018L408.072 457.88V458.104L379.088 458.198L350.328 458.25L350.671 458.052L345.519 467.559L345.158 468.22L344.797 467.559L339.602 458.069L339.979 458.293H331.598V457.872L331.649 433.01V432.641H332.018L407.875 433.01L407.849 433.018ZM407.849 433.018L331.993 433.388L332.362 433.018L332.414 457.88L331.993 457.46H340.237L340.357 457.683L345.51 467.19H344.789L349.984 457.743L350.096 457.545H350.319C364.644 457.545 393.516 457.64 407.858 457.709L407.626 457.932L407.858 433.07L407.849 433.018Z" fill="#EBEBEB"/>
<path d="M344.575 441.246L346.215 443.694L349.049 444.501L347.228 446.82L347.34 449.765L344.575 448.752L341.801 449.765L341.912 446.82L340.092 444.501L342.926 443.694L344.575 441.246Z" fill="#EBEBEB"/>
<path d="M357.25 441.246L358.891 443.694L361.725 444.501L359.904 446.82L360.016 449.765L357.25 448.752L354.477 449.765L354.588 446.82L352.768 444.501L355.602 443.694L357.25 441.246Z" fill="#EBEBEB"/>
<path d="M369.916 441.246L371.565 443.694L374.399 444.501L372.579 446.82L372.69 449.765L369.916 448.752L367.151 449.765L367.263 446.82L365.434 444.501L368.276 443.694L369.916 441.246Z" fill="#EBEBEB"/>
<path d="M385.812 450.392L382.592 449.207L379.371 450.392L379.5 446.956L377.379 444.26L380.677 443.324L382.592 440.473L384.507 443.324L387.805 444.26L385.701 446.956L385.812 450.392ZM382.592 448.296L384.91 449.155L384.816 446.682L386.345 444.741L383.966 444.071L382.592 442.018L381.218 444.071L378.847 444.741L380.367 446.682L380.273 449.155L382.592 448.296Z" fill="#EBEBEB"/>
<path d="M398.488 450.392L395.268 449.207L392.047 450.392L392.176 446.956L390.055 444.26L393.352 443.324L395.268 440.473L397.183 443.324L400.48 444.26L398.359 446.956L398.488 450.392ZM391.515 444.732L393.043 446.673L392.949 449.146L395.268 448.288L397.586 449.146L397.492 446.673L399.012 444.732L396.642 444.062L395.268 442.01L393.893 444.062L391.515 444.732Z" fill="#EBEBEB"/>
<path d="M76.3242 602.746L118.671 602.54L161.018 602.462L245.72 602.316L330.422 602.462L372.768 602.531L415.115 602.746L372.768 602.952L330.422 603.029L245.72 603.175L161.018 603.029L118.671 602.952L76.3242 602.746Z" fill="#263238"/>
<path d="M244.783 249.082H88.7851C86.6935 249.1 84.6259 249.53 82.7005 250.347C80.775 251.165 79.0295 252.353 77.5637 253.845C76.0978 255.338 74.9404 257.104 74.1574 259.044C73.3745 260.983 72.9814 263.058 73.0007 265.15V586.336C72.9663 590.558 74.6093 594.622 77.5688 597.635C80.5282 600.648 84.5623 602.363 88.7851 602.403H244.783C249.008 602.365 253.044 600.651 256.005 597.638C258.967 594.625 260.611 590.56 260.576 586.336V265.15C260.595 263.058 260.2 260.983 259.417 259.043C258.633 257.103 257.474 255.337 256.008 253.845C254.541 252.353 252.795 251.164 250.869 250.347C248.943 249.53 246.875 249.1 244.783 249.082ZM250.718 576.365C250.718 584.824 244.388 591.66 236.582 591.66H97.0123C89.1888 591.66 82.8595 584.79 82.8595 576.365V277.327C82.8595 260.152 89.1888 259.293 97.0123 259.293H124.966C126.589 259.293 127.92 261.139 127.92 263.424V264.411C127.92 269.779 130.857 269.796 134.464 269.796H199.113C202.746 269.796 205.657 269.796 205.657 264.411V263.398C205.657 261.114 206.963 259.267 208.62 259.267H236.582C244.388 259.267 250.718 261.552 250.718 277.302V576.365Z" fill="#455A64"/>
<path d="M175.609 263.072H157.97C157.68 263.072 157.403 262.957 157.198 262.752C156.994 262.548 156.879 262.271 156.879 261.981C156.879 261.692 156.994 261.415 157.198 261.21C157.403 261.006 157.68 260.891 157.97 260.891H175.609C175.898 260.891 176.176 261.006 176.38 261.21C176.585 261.415 176.7 261.692 176.7 261.981C176.7 262.271 176.585 262.548 176.38 262.752C176.176 262.957 175.898 263.072 175.609 263.072Z" fill="#263238"/>
<path d="M250.718 277.326V576.363C250.718 584.822 244.388 591.658 236.582 591.658H97.0121C89.1886 591.658 82.8594 584.788 82.8594 576.363V277.326C82.8594 260.15 89.1886 259.291 97.0121 259.291H124.966C126.589 259.291 127.92 261.138 127.92 263.422V264.41C127.92 269.777 130.857 269.794 134.464 269.794H199.113C202.746 269.794 205.657 269.794 205.657 264.41V263.396C205.657 261.112 206.962 259.266 208.62 259.266H236.582C244.388 259.266 250.718 261.533 250.718 277.326Z" fill="white"/>
<path d="M246.011 261.871H205.863C206.301 260.342 207.358 259.295 208.611 259.295H236.582C240.206 259.26 243.504 259.758 246.011 261.871Z" fill="#DBDBDB"/>
<path d="M82.8594 561.628V565.612H96.7631V561.628H82.8594ZM250.709 315.397L205.537 363.283H184.746V323.779H192.999V319.768H180.769V363.326H158.244V269.77H150.248V297.792H82.8594V305.778H150.248V363.317H84.9806V379.024H82.8594V383.026H84.972V442.445L96.995 469.927H82.8594V477.913H100.482L109.928 499.383C104.107 501.907 99.2973 506.305 96.2632 511.877C93.2291 517.449 92.1452 523.875 93.1837 530.134C94.2223 536.393 97.3237 542.126 101.995 546.419C106.666 550.713 112.639 553.321 118.963 553.83L138.5 585.76L132.6 591.659H151.493L127.92 553.16C134.126 551.653 139.648 548.108 143.601 543.091C147.555 538.075 149.711 531.877 149.724 525.49C149.714 522.032 149.068 518.606 147.818 515.382L203.639 488.854H250.735V480.867H228.406L181.611 430.002H250.743V426.008H177.875L127.551 371.261H208.981L236.462 342.062L250.675 356.275V344.999L241.958 336.291L250.675 327.033L250.709 315.397ZM121.196 545.972C117.145 545.972 113.185 544.771 109.816 542.52C106.448 540.27 103.823 537.071 102.273 533.328C100.722 529.586 100.317 525.467 101.107 521.494C101.897 517.521 103.848 513.871 106.713 511.007C109.577 508.143 113.227 506.192 117.2 505.401C121.173 504.611 125.291 505.017 129.034 506.567C132.776 508.117 135.975 510.743 138.226 514.111C140.476 517.479 141.678 521.439 141.678 525.49C141.673 530.921 139.514 536.128 135.673 539.968C131.833 543.808 126.626 545.967 121.196 545.972ZM217.517 480.867H201.81L143.971 508.349C140.955 504.343 136.936 501.205 132.318 499.252C127.7 497.299 122.649 496.601 117.675 497.227L92.9587 440.728V371.261H116.687L217.517 480.867ZM223.46 591.651H229.119L250.709 570.052V564.393L223.46 591.651Z" fill="#EBEBEB"/>
<path d="M111.414 377.324H99.8027V388.935H111.414V377.324Z" fill="#DBDBDB"/>
<path d="M220.488 421.859V399.428H212.33V390.059H197.971V421.859H220.488Z" fill="#DBDBDB"/>
<path d="M180.649 269.77V292.33H168.488V278.589H161.91V269.77H180.649Z" fill="#DBDBDB"/>
<path d="M250.709 277.318V285.099H240.566V265.527H248.733C250.013 268.207 250.709 271.994 250.709 277.318Z" fill="#DBDBDB"/>
<path d="M187.914 359.892V343.215H219.165L202.282 360.099L187.914 359.892Z" fill="#DBDBDB"/>
<path d="M177.619 344.398H161.92V360.097H177.619V344.398Z" fill="#DBDBDB"/>
<path d="M146.494 308.906H127.584V326.297H146.494V308.906Z" fill="#DBDBDB"/>
<path d="M146.495 329.715V360.099H123.368L108.623 345.345V329.715H146.495Z" fill="#DBDBDB"/>
<path d="M104.45 348.699L116.061 360.319H85.0586V348.699H104.45Z" fill="#DBDBDB"/>
<path d="M102.783 495.486H82.8594V481.496H97.1496L102.783 495.486Z" fill="#DBDBDB"/>
<path d="M97.3643 549.407V556.097H82.8594V526.211H86.8441C87.9326 534.827 91.5996 542.912 97.3643 549.407Z" fill="#DBDBDB"/>
<path d="M166.806 491.354L154.688 465.109H139.848L114.574 476.832L121.195 491.268C130.189 491.243 138.83 494.768 145.241 501.075L166.806 491.354Z" fill="#DBDBDB"/>
<path d="M250.709 458.66V476.093H231.704L215.662 458.66H250.709Z" fill="#EBEBEB"/>
<path d="M131.312 584.299L124.356 591.659H97.0124C95.9975 591.657 94.9862 591.539 93.998 591.307V583.02H105.824V564.685L114.729 557.188L131.312 584.299Z" fill="#EBEBEB"/>
<path d="M187.605 553.523L163.628 528.523L154.43 535.711C153.081 540.077 150.884 544.133 147.965 547.647C145.045 551.162 141.461 554.066 137.418 556.193L157.479 588.965L187.605 553.523Z" fill="#DBDBDB"/>
<path d="M161.48 517.505L203.612 496.68H224.627V533.307L191.864 549.486L161.48 517.505Z" fill="#DBDBDB"/>
<path d="M250.692 577.043C250.4 584.437 245.265 590.44 238.669 591.496H236.273L250.692 577.043Z" fill="#DBDBDB"/>
<path d="M99.8027 393.785V439.825L112.65 471.248L136.095 459.637H190.757L129.457 393.785H99.8027Z" fill="#EBEBEB"/>
<path d="M233.146 327.934H187.914V339.27H222.454L233.146 327.934Z" fill="#DBDBDB"/>
<path d="M90.9405 466.122H82.8594V447.418L90.9405 466.122Z" fill="#DBDBDB"/>
<path d="M250.708 496.68H230.449V520.64H250.708V496.68Z" fill="#DBDBDB"/>
<path d="M250.708 524.367H230.449V532.775H250.708V524.367Z" fill="#DBDBDB"/>
<path d="M225.41 583.553L217.303 591.66H164.041L192.235 557.223L225.41 583.553Z" fill="#DBDBDB"/>
<path d="M228.312 579.585L241.992 566.454L225.401 552.009V539.016L196.15 553.916L228.312 579.585Z" fill="#EBEBEB"/>
<path d="M250.708 536.492V556.863L245.289 561.964L230.449 549.486V536.492H250.708Z" fill="#DBDBDB"/>
<path d="M88.073 570.18V588.215C86.4124 586.721 85.0888 584.891 84.19 582.846C83.2912 580.801 82.8379 578.589 82.8602 576.355V570.172L88.073 570.18Z" fill="#DBDBDB"/>
<path d="M101.039 572.07H93.9883V579.121H101.039V572.07Z" fill="#DBDBDB"/>
<path d="M145.284 269.769V292.957H100.584V266.411L108.313 259.258H124.973C126.588 259.258 127.911 261.113 127.911 263.397V264.385C127.911 269.744 130.856 269.769 134.454 269.769H145.284Z" fill="#DBDBDB"/>
<path d="M96.7717 278.734H82.8594V292.99H96.7717V278.734Z" fill="#EBEBEB"/>
<path d="M96.7717 267.082V275.052H82.9023C82.9462 272.36 83.3183 269.684 84.0102 267.082H96.7717Z" fill="#DBDBDB"/>
<path d="M104.139 259.258L99.2272 263.869H85.375C87.9514 259.576 92.1852 259.258 97.0115 259.258H104.139Z" fill="#DBDBDB"/>
<path d="M193.342 434.844L212.33 454.785H230.45V434.844H193.342Z" fill="#DBDBDB"/>
<path d="M250.708 445.613H234.211V454.785H250.708V445.613Z" fill="#DBDBDB"/>
<path d="M243.915 434.844H234.211V443.174H243.915V434.844Z" fill="#EBEBEB"/>
<path d="M250.708 434.836H246.328V443.175H250.708V434.836Z" fill="#DBDBDB"/>
<path d="M160.33 465.109H190.757V479.666L171.305 488.494L160.33 465.109Z" fill="#DBDBDB"/>
<path d="M134.794 527.26C135.712 519.77 130.385 512.954 122.895 512.035C115.405 511.117 108.589 516.444 107.671 523.934C106.752 531.424 112.08 538.241 119.57 539.159C127.059 540.077 133.876 534.75 134.794 527.26Z" fill="#EBEBEB"/>
<path d="M90.1676 308.906H82.8594V319.401H90.1676V308.906Z" fill="#DBDBDB"/>
<path d="M104.114 344.906V308.914H92.9586V337.855H85.0664V344.906H104.114Z" fill="#DBDBDB"/>
<path d="M124.408 308.906H108.623V325.335H124.408V308.906Z" fill="#EBEBEB"/>
<path d="M90.1676 321.418H82.8594V334.686H90.1676V321.418Z" fill="#DBDBDB"/>
<path d="M247.351 399.43H223.889V421.861H247.351V399.43Z" fill="#EBEBEB"/>
<path d="M138.234 375.273L162.71 401.904H193.42V375.273H138.234Z" fill="#DBDBDB"/>
<path d="M166.195 404.977L181.722 421.86H193.342V404.977H166.195Z" fill="#EBEBEB"/>
<path d="M212.33 375.273H197.971V386.395H212.33V375.273Z" fill="#DBDBDB"/>
<path d="M247.352 385.928V360.92L235.999 348.699L216.221 369.92V394.189H239.674V385.928H247.352Z" fill="#EBEBEB"/>
<path d="M250.708 333.293V340L247.471 336.831L250.708 333.293Z" fill="#DBDBDB"/>
<path d="M250.708 288.75V309.369L237.088 324.329H219.156V288.75H250.708Z" fill="#DBDBDB"/>
<path d="M214.993 301.777H197.551V324.329H214.993V301.777Z" fill="#EBEBEB"/>
<path d="M237.132 265.526V285.097H214.993V298.941H197.551V269.742H199.114C202.472 269.742 205.211 269.742 205.606 265.5L237.132 265.526Z" fill="#EBEBEB"/>
<path d="M195.291 269.77H182.77V284.627H195.291V269.77Z" fill="#DBDBDB"/>
<path d="M195.301 294.762H161.92V311.173H195.301V294.762Z" fill="#DBDBDB"/>
<path d="M195.299 286.996H182.77V292.321H195.299V286.996Z" fill="#DBDBDB"/>
<path d="M177.619 341.264H168.49L161.92 335.021V316.875H177.619V341.264Z" fill="#DBDBDB"/>
<path d="M120.139 265.981L119.873 266.247L119.718 266.402C119.377 266.058 118.972 265.786 118.525 265.6C118.079 265.414 117.6 265.319 117.116 265.319C116.632 265.319 116.153 265.414 115.707 265.6C115.26 265.786 114.855 266.058 114.514 266.402C114.461 266.357 114.412 266.309 114.368 266.256L114.102 265.99C114.213 265.895 114.325 265.783 114.445 265.689C114.688 265.492 114.953 265.325 115.235 265.191C115.564 265.019 115.917 264.9 116.283 264.839C116.455 264.839 116.626 264.787 116.807 264.761C116.987 264.736 117.253 264.761 117.262 264.761C117.27 264.761 117.502 264.761 117.614 264.761C117.956 264.787 118.294 264.856 118.619 264.968C118.845 265.051 119.063 265.155 119.271 265.277C119.493 265.397 119.7 265.541 119.89 265.706L120.173 265.964L120.139 265.981Z" fill="#A6A6A6"/>
<path d="M115.364 267.252C115.227 267.106 115.089 266.968 114.943 266.831C115.405 266.363 116.009 266.061 116.661 265.972C117.128 265.905 117.603 265.948 118.051 266.097C118.498 266.246 118.904 266.497 119.237 266.831L118.808 267.26C118.584 267.032 118.316 266.851 118.022 266.727C117.727 266.603 117.41 266.539 117.09 266.539C116.443 266.539 115.823 266.795 115.364 267.252Z" fill="#A6A6A6"/>
<path d="M118.438 267.68L118.008 268.101C117.782 267.87 117.473 267.737 117.15 267.732C116.826 267.738 116.518 267.87 116.291 268.101L115.861 267.68C116.207 267.347 116.669 267.16 117.15 267.16C117.63 267.16 118.092 267.347 118.438 267.68Z" fill="#A6A6A6"/>
<path d="M117.501 268.488C117.501 268.564 117.479 268.639 117.436 268.703C117.394 268.766 117.333 268.816 117.263 268.845C117.192 268.874 117.115 268.882 117.04 268.867C116.965 268.852 116.896 268.815 116.842 268.761C116.788 268.707 116.751 268.638 116.736 268.563C116.721 268.488 116.729 268.411 116.758 268.34C116.787 268.27 116.837 268.209 116.9 268.167C116.964 268.124 117.039 268.102 117.115 268.102C117.166 268.102 117.216 268.112 117.263 268.131C117.31 268.15 117.352 268.179 117.388 268.215C117.424 268.251 117.453 268.293 117.472 268.34C117.491 268.387 117.501 268.437 117.501 268.488Z" fill="#A6A6A6"/>
<path d="M94.9172 267.916C95.5338 267.916 96.0336 267.417 96.0336 266.8C96.0336 266.183 95.5338 265.684 94.9172 265.684C94.3006 265.684 93.8008 266.183 93.8008 266.8C93.8008 267.417 94.3006 267.916 94.9172 267.916Z" fill="#A6A6A6"/>
<path d="M97.3047 266.8C97.3047 266.579 97.3702 266.363 97.4928 266.18C97.6155 265.996 97.7899 265.853 97.9939 265.769C98.1979 265.684 98.4223 265.662 98.6389 265.705C98.8555 265.748 99.0544 265.854 99.2105 266.011C99.3667 266.167 99.473 266.366 99.5161 266.582C99.5592 266.799 99.537 267.023 99.4525 267.227C99.368 267.431 99.225 267.606 99.0414 267.728C98.8578 267.851 98.6419 267.916 98.4211 267.916C98.125 267.916 97.841 267.799 97.6317 267.589C97.4223 267.38 97.3047 267.096 97.3047 266.8Z" fill="#A6A6A6"/>
<path d="M101.925 267.916C102.542 267.916 103.041 267.417 103.041 266.8C103.041 266.183 102.542 265.684 101.925 265.684C101.308 265.684 100.809 266.183 100.809 266.8C100.809 267.417 101.308 267.916 101.925 267.916Z" fill="#A6A6A6"/>
<path d="M104.312 266.8C104.312 266.579 104.378 266.363 104.501 266.18C104.623 265.996 104.798 265.853 105.002 265.769C105.206 265.684 105.43 265.662 105.647 265.705C105.863 265.748 106.062 265.854 106.218 266.011C106.374 266.167 106.481 266.366 106.524 266.582C106.567 266.799 106.545 267.023 106.46 267.227C106.376 267.431 106.233 267.606 106.049 267.728C105.866 267.851 105.65 267.916 105.429 267.916C105.133 267.916 104.849 267.799 104.639 267.589C104.43 267.38 104.313 267.096 104.312 266.8Z" fill="#A6A6A6"/>
<path d="M107.816 266.8C107.816 266.579 107.882 266.363 108.005 266.18C108.127 265.996 108.302 265.853 108.506 265.769C108.71 265.684 108.934 265.662 109.151 265.705C109.367 265.748 109.566 265.854 109.722 266.011C109.878 266.167 109.985 266.366 110.028 266.582C110.071 266.799 110.049 267.023 109.964 267.227C109.88 267.431 109.737 267.606 109.553 267.728C109.369 267.851 109.154 267.916 108.933 267.916C108.637 267.916 108.353 267.799 108.143 267.589C107.934 267.38 107.816 267.096 107.816 266.8Z" fill="#A6A6A6"/>
<path d="M237.895 265.262H229.299V268.997H237.895V265.262Z" fill="#A6A6A6"/>
<path d="M238.101 269.212H229.084V265.047H238.101V269.212ZM229.513 268.783H237.672V265.476H229.513V268.783Z" fill="white"/>
<path d="M235.654 265.742H229.814V268.516H235.654V265.742Z" fill="#A6A6A6"/>
<path d="M238.934 266.008H238.127V268.249H238.934V266.008Z" fill="#A6A6A6"/>
<path d="M142.924 323.901C142.168 316.386 136.99 308.906 127.895 308.906C118.801 308.906 113.639 316.386 112.883 323.901C111.75 335.486 119.556 346.006 127.895 355.59C136.26 346.006 144.083 335.486 142.924 323.901ZM127.895 332.239C126.271 332.233 124.686 331.745 123.339 330.838C121.993 329.931 120.944 328.646 120.327 327.144C119.71 325.642 119.552 323.991 119.872 322.4C120.193 320.808 120.977 319.347 122.127 318.2C123.277 317.054 124.741 316.274 126.333 315.959C127.926 315.644 129.577 315.807 131.076 316.429C132.576 317.05 133.858 318.103 134.761 319.452C135.664 320.802 136.146 322.389 136.148 324.012C136.15 325.095 135.938 326.168 135.524 327.169C135.11 328.17 134.501 329.079 133.734 329.844C132.967 330.609 132.056 331.214 131.054 331.625C130.052 332.036 128.978 332.245 127.895 332.239Z" fill="#FFC727"/>
<path d="M154.741 152.444C153.051 135.684 141.47 119 121.132 119C100.795 119 89.2525 135.684 87.5625 152.444C85.0275 178.283 102.485 201.747 121.132 223.124C139.838 201.747 157.333 178.283 154.741 152.444ZM121.132 171.043C117.501 171.028 113.956 169.94 110.945 167.918C107.933 165.895 105.589 163.028 104.209 159.678C102.829 156.329 102.475 152.646 103.191 149.096C103.908 145.546 105.662 142.287 108.234 139.73C110.805 137.173 114.078 135.433 117.64 134.73C121.202 134.027 124.893 134.392 128.247 135.778C131.601 137.165 134.468 139.512 136.487 142.522C138.505 145.532 139.584 149.071 139.588 152.693C139.593 155.109 139.119 157.502 138.193 159.734C137.266 161.967 135.906 163.994 134.19 165.7C132.475 167.406 130.438 168.756 128.197 169.673C125.956 170.59 123.555 171.055 121.132 171.043Z" fill="#FFC727"/>
<path d="M250.718 522.371V576.363C250.718 584.822 244.388 591.658 236.582 591.658H97.0121C89.1886 591.658 82.8594 584.788 82.8594 576.363V522.371H250.718Z" fill="white"/>
<path d="M121.633 541.069C121.117 535.959 117.588 530.875 111.405 530.875C105.221 530.875 101.717 535.959 101.202 541.069C100.429 548.944 105.737 556.098 111.405 562.616C117.09 556.098 122.414 548.944 121.633 541.069ZM111.405 546.737C110.3 546.733 109.22 546.403 108.303 545.786C107.386 545.17 106.672 544.296 106.252 543.274C105.831 542.252 105.723 541.128 105.941 540.045C106.158 538.962 106.692 537.967 107.475 537.187C108.257 536.407 109.253 535.876 110.337 535.662C111.421 535.447 112.545 535.559 113.565 535.983C114.586 536.406 115.458 537.123 116.071 538.042C116.685 538.961 117.012 540.041 117.012 541.146C117.015 541.882 116.871 542.612 116.59 543.292C116.309 543.973 115.895 544.591 115.374 545.11C114.853 545.63 114.233 546.042 113.552 546.321C112.871 546.6 112.141 546.741 111.405 546.737Z" fill="#FFC727"/>
<path d="M234.934 551.074H131.072V552.715H234.934V551.074Z" fill="#EBEBEB"/>
<path d="M196.142 555.574H131.072V557.214H196.142V555.574Z" fill="#EBEBEB"/>
<path d="M163.612 532.121H131.072V534.491H163.612V532.121Z" fill="#FFC727"/>
<path d="M134.344 538.227L135.547 540.013L137.616 540.605L136.285 542.297L136.371 544.453L134.344 543.706L132.326 544.453L132.403 542.297L131.072 540.605L133.151 540.013L134.344 538.227Z" fill="#FFC727"/>
<path d="M143.592 538.227L144.795 540.013L146.864 540.605L145.533 542.297L145.619 544.453L143.592 543.706L141.574 544.453L141.651 542.297L140.32 540.605L142.399 540.013L143.592 538.227Z" fill="#FFC727"/>
<path d="M152.842 538.227L154.045 540.013L156.114 540.605L154.783 542.297L154.869 544.453L152.842 543.706L150.824 544.453L150.901 542.297L149.57 540.605L151.649 540.013L152.842 538.227Z" fill="#FFC727"/>
<path d="M162.09 538.227L163.293 540.013L165.362 540.605L164.031 542.297L164.108 544.453L162.09 543.706L160.072 544.453L160.149 542.297L158.818 540.605L160.888 540.013L162.09 538.227Z" fill="#FFC727"/>
<path d="M171.34 543.706V538.227L170.138 540.013L168.068 540.605L169.399 542.297L169.322 544.453L171.34 543.706Z" fill="#FFC727"/>
<path d="M171.339 538.227L172.61 539.944C173.04 539.944 174.027 540.305 174.646 540.442L174.852 540.494L174.723 540.666L173.426 542.383V542.263L173.529 544.418V544.71L171.228 543.852H171.374L169.064 544.71V544.418L169.158 542.263V542.383L167.861 540.666L167.732 540.494L167.939 540.442C168.548 540.305 169.553 539.97 169.974 539.944L171.245 538.227H171.339ZM171.339 538.227C170.91 538.853 170.584 539.54 170.163 540.099C169.484 540.322 168.797 540.528 168.11 540.743L168.179 540.52L169.544 542.186C169.544 542.237 169.544 542.237 169.544 542.306L169.484 544.453L169.218 544.264L171.228 543.508H171.305H171.382L173.392 544.264L173.126 544.453L173.065 542.306C173.065 542.237 173.065 542.237 173.065 542.186L174.431 540.52L174.5 540.743C173.821 540.528 173.126 540.322 172.447 540.099C172.035 539.54 171.7 538.853 171.271 538.227H171.339Z" fill="#FFC727"/>
<path d="M145.284 569.949H101.125V581.234H145.284V569.949Z" fill="#FFC727"/>
<path d="M189.322 581.663H154.688V569.52H189.339L189.322 581.663ZM155.529 580.804H188.464V570.378H155.546L155.529 580.804Z" fill="#DBDBDB"/>
<path d="M231.98 581.663H197.354V569.52H231.98V581.663ZM198.178 580.804H231.121V570.378H198.212L198.178 580.804Z" fill="#DBDBDB"/>
<path d="M234.932 514.97C239.656 514.97 243.486 511.141 243.486 506.417C243.486 501.693 239.656 497.863 234.932 497.863C230.208 497.863 226.379 501.693 226.379 506.417C226.379 511.141 230.208 514.97 234.932 514.97Z" fill="#455A64"/>
<path d="M234.752 510.815L233.584 507.38L230.148 506.203L238.144 502.957L234.752 510.815ZM231.978 506.186L234.082 506.907L234.812 509.037L236.916 504.177L231.978 506.186Z" fill="white"/>
<path d="M228.131 297.869H105.437C104.358 297.869 103.291 297.657 102.295 297.244C101.299 296.832 100.394 296.227 99.6312 295.465C98.8688 294.702 98.2641 293.797 97.8515 292.801C97.4389 291.805 97.2266 290.737 97.2266 289.659C97.2266 287.482 98.0915 285.394 99.6312 283.854C101.171 282.314 103.259 281.449 105.437 281.449H228.131C230.309 281.449 232.397 282.314 233.937 283.854C235.476 285.394 236.341 287.482 236.341 289.659C236.341 290.737 236.129 291.805 235.716 292.801C235.304 293.797 234.699 294.702 233.937 295.465C233.174 296.227 232.269 296.832 231.273 297.244C230.277 297.657 229.209 297.869 228.131 297.869Z" fill="white"/>
<path d="M228.132 297.871L116.773 298.034H107.498C104.364 298.275 101.006 297.596 98.9705 295.003C94.4447 289.644 98.4123 281.185 105.437 281.262L216.796 281.425H226.079C228.381 281.348 230.828 281.425 232.769 282.86C239.382 287.411 236.204 297.854 228.132 297.88V297.871ZM228.132 297.871C236.11 297.871 239.373 287.437 232.735 282.903C230.785 281.503 228.441 281.417 226.079 281.494H216.796L105.437 281.649C103.923 281.659 102.442 282.098 101.166 282.913C99.8903 283.728 98.8704 284.887 98.2242 286.257C97.5781 287.626 97.3319 289.15 97.5141 290.654C97.6962 292.157 98.2993 293.578 99.2539 294.754C101.255 297.279 104.407 297.888 107.498 297.682H116.773L153.898 297.742L228.132 297.845V297.871Z" fill="#263238"/>
<path d="M109.55 292.967L108.691 293.637L107.068 291.49L106.467 290.699C106.59 290.654 106.706 290.59 106.81 290.511C107.009 290.354 107.166 290.15 107.265 289.918L107.892 290.777L109.55 292.967Z" fill="#263238"/>
<path d="M107.823 287.908C107.544 287.547 107.168 287.272 106.738 287.118C106.309 286.963 105.844 286.935 105.398 287.036C104.953 287.136 104.546 287.362 104.225 287.687C103.903 288.011 103.682 288.421 103.585 288.867C103.489 289.313 103.522 289.778 103.681 290.206C103.84 290.634 104.117 291.008 104.482 291.283C104.846 291.559 105.281 291.725 105.736 291.761C106.191 291.797 106.647 291.703 107.051 291.489C107.162 291.42 107.274 291.352 107.377 291.274C107.568 291.129 107.736 290.955 107.875 290.759C108.17 290.34 108.325 289.838 108.315 289.325C108.306 288.812 108.134 288.316 107.823 287.908ZM106.793 290.484C106.688 290.564 106.573 290.627 106.449 290.673C106.129 290.795 105.776 290.798 105.454 290.682C105.132 290.566 104.862 290.338 104.693 290.041C104.524 289.743 104.467 289.395 104.533 289.059C104.598 288.723 104.781 288.421 105.05 288.208C105.302 288.007 105.614 287.897 105.937 287.896C106.259 287.894 106.573 288.001 106.827 288.2C107.081 288.398 107.26 288.676 107.337 288.99C107.413 289.303 107.382 289.633 107.248 289.926C107.147 290.155 106.991 290.356 106.793 290.51V290.484Z" fill="#263238"/>
<path d="M377.689 130.027V193.367H268.576L258.759 211.385L248.941 193.367H233.785V130.027H377.689Z" fill="white"/>
<path d="M377.69 130.029L378.11 193.368V193.772C378.11 193.772 268.706 194.015 268.577 194.015L269.159 193.675L259.454 211.726L258.807 212.923L258.193 211.807L248.31 193.821L249.022 194.225H233.09V193.368L233.268 130.029V129.414H233.866C269.725 129.414 341.928 129.77 377.819 130.029H377.69ZM377.69 130.029C341.798 130.287 269.644 130.562 233.737 130.627L234.335 130.029L234.513 193.368L233.737 192.592H248.892H249.361L249.604 193.012L259.309 211.063H258.193L268.075 193.077L268.253 192.721H268.657L377.77 192.98L377.35 193.4L377.77 130.061L377.69 130.029Z" fill="#263238"/>
<path d="M381.62 130.027V130.125L381.539 130.222L381.62 130.027Z" fill="white"/>
<path d="M365.446 130.027V130.125L365.365 130.222L365.446 130.027Z" fill="#FFC727"/>
<path d="M271.018 154.793C270.387 148.582 266.166 142.387 258.58 142.387C250.994 142.387 246.805 148.582 246.174 154.793C245.252 164.368 251.722 173.07 258.58 181.076C265.502 173.07 271.972 164.368 271.018 154.793ZM258.58 161.667C257.238 161.66 255.927 161.256 254.814 160.506C253.702 159.756 252.836 158.693 252.327 157.451C251.817 156.209 251.688 154.844 251.953 153.528C252.219 152.213 252.869 151.005 253.82 150.059C254.771 149.112 255.982 148.468 257.299 148.208C258.616 147.949 259.98 148.085 261.219 148.6C262.459 149.115 263.518 149.986 264.263 151.103C265.008 152.219 265.405 153.531 265.405 154.873C265.41 155.769 265.236 156.657 264.894 157.486C264.552 158.314 264.049 159.066 263.414 159.698C262.779 160.33 262.024 160.83 261.194 161.168C260.365 161.506 259.476 161.675 258.58 161.667Z" fill="#FFC727"/>
<path d="M350.547 162.41H284.361V164.4H350.547V162.41Z" fill="#EBEBEB"/>
<path d="M340.147 167.957H284.361V169.946H340.147V167.957Z" fill="#EBEBEB"/>
<path d="M347.28 173.488H284.361V175.478H347.28V173.488Z" fill="#EBEBEB"/>
<path d="M321.935 179.02H284.361V181.009H321.935V179.02Z" fill="#EBEBEB"/>
<path d="M290.508 142.402L292.772 145.767L296.67 146.866L294.179 150.053L294.325 154.113L290.508 152.722L286.707 154.113L286.852 150.053L284.361 146.866L288.259 145.767L290.508 142.402Z" fill="#FFC727"/>
<path d="M307.929 142.402L310.194 145.767L314.092 146.866L311.585 150.053L311.747 154.113L307.929 152.722L304.128 154.113L304.274 150.053L301.783 146.866L305.681 145.767L307.929 142.402Z" fill="#FFC727"/>
<path d="M325.347 142.402L327.612 145.767L331.51 146.866L329.003 150.053L329.165 154.113L325.347 152.722L321.546 154.113L321.692 150.053L319.201 146.866L323.099 145.767L325.347 142.402Z" fill="#FFC727"/>
<path d="M342.769 142.402L345.034 145.767L348.932 146.866L346.425 150.053L346.587 154.113L342.769 152.722L338.968 154.113L339.114 150.053L336.623 146.866L340.521 145.767L342.769 142.402Z" fill="#FFC727"/>
<path d="M360.188 152.722V142.402L357.94 145.767L354.025 146.866L356.532 150.053L356.387 154.113L360.188 152.722Z" fill="#FFC727"/>
<path d="M360.187 142.387L362.581 145.622C363.39 145.622 365.266 146.301 366.431 146.56L366.803 146.657L366.56 147.11L364.118 150.345L364.199 150.134L364.376 154.178V154.728L360.042 153.11H360.317L355.966 154.728V154.178L356.144 150.134L356.225 150.361L353.782 147.126L353.523 146.802L353.912 146.705C355.076 146.447 356.952 145.816 357.761 145.767L360.139 142.532L360.187 142.387ZM360.187 142.387C359.379 143.567 358.764 144.861 357.971 145.913C356.694 146.349 355.4 146.721 354.106 147.126L354.235 146.705L356.855 149.843C356.952 149.94 356.855 149.956 356.855 150.07L356.726 154.129L356.225 153.757L360.026 152.334H360.155H360.301L364.102 153.757L363.6 154.129L363.471 150.07C363.471 149.94 363.471 149.94 363.552 149.843L366.107 146.705L366.253 147.126C364.959 146.721 363.665 146.349 362.371 145.913C361.594 144.861 360.964 143.567 360.155 142.387H360.187Z" fill="#FFC727"/>
<defs>
<filter id="filter0_f_4123_29573" x="-16" y="-93.9961" width="606.922" height="929.227" filterUnits="userSpaceOnUse" color-interpolation-filters="sRGB">
<feFlood flood-opacity="0" result="BackgroundImageFix"/>
<feBlend mode="normal" in="SourceGraphic" in2="BackgroundImageFix" result="shape"/>
<feGaussianBlur stdDeviation="8" result="effect1_foregroundBlur_4123_29573"/>
</filter>
</defs>
</svg>
