<svg width="600" height="870" viewBox="0 0 600 870" fill="none" xmlns="http://www.w3.org/2000/svg">
<g filter="url(#filter0_f_4126_30104)">
<path fill-rule="evenodd" clip-rule="evenodd" d="M0 819.23C330.72 772.003 577.425 584.537 574.903 363.366C572.407 144.478 326.619 -35.8395 0 -77.9961V819.23Z" fill="#008B99"/>
</g>
<path fill-rule="evenodd" clip-rule="evenodd" d="M0 869.076C343.208 827.935 602.488 636.639 599.903 409.93C597.344 185.492 338.997 1.6043 0 -34.3711V869.076Z" fill="#C8E9F2"/>
<path d="M92.3242 603.746L134.671 603.54L177.018 603.462L261.72 603.316L346.422 603.462L388.768 603.531L431.115 603.746L388.768 603.952L346.422 604.029L261.72 604.175L177.018 604.029L134.671 603.952L92.3242 603.746Z" fill="#263238"/>
<path d="M260.783 250.082H104.785C102.694 250.1 100.626 250.53 98.7005 251.347C96.775 252.165 95.0295 253.353 93.5637 254.845C92.0978 256.338 90.9404 258.104 90.1574 260.044C89.3745 261.983 88.9814 264.058 89.0007 266.15V587.336C88.9663 591.558 90.6093 595.622 93.5688 598.635C96.5282 601.648 100.562 603.363 104.785 603.403H260.783C265.008 603.365 269.044 601.651 272.005 598.638C274.967 595.625 276.611 591.56 276.576 587.336V266.15C276.595 264.058 276.2 261.983 275.417 260.043C274.633 258.103 273.474 256.337 272.008 254.845C270.541 253.353 268.795 252.164 266.869 251.347C264.943 250.53 262.875 250.1 260.783 250.082ZM266.718 577.365C266.718 585.824 260.388 592.66 252.582 592.66H113.012C105.189 592.66 98.8595 585.79 98.8595 577.365V278.327C98.8595 261.152 105.189 260.293 113.012 260.293H140.966C142.589 260.293 143.92 262.139 143.92 264.424V265.411C143.92 270.779 146.857 270.796 150.464 270.796H215.113C218.746 270.796 221.657 270.796 221.657 265.411V264.398C221.657 262.114 222.963 260.267 224.62 260.267H252.582C260.388 260.267 266.718 262.552 266.718 278.302V577.365Z" fill="#455A64"/>
<path d="M191.609 264.072H173.97C173.68 264.072 173.403 263.957 173.198 263.752C172.994 263.548 172.879 263.271 172.879 262.981C172.879 262.692 172.994 262.415 173.198 262.21C173.403 262.006 173.68 261.891 173.97 261.891H191.609C191.898 261.891 192.176 262.006 192.38 262.21C192.585 262.415 192.7 262.692 192.7 262.981C192.7 263.271 192.585 263.548 192.38 263.752C192.176 263.957 191.898 264.072 191.609 264.072Z" fill="#263238"/>
<path d="M266.718 278.326V577.363C266.718 585.822 260.388 592.658 252.582 592.658H113.012C105.189 592.658 98.8594 585.788 98.8594 577.363V278.326C98.8594 261.15 105.189 260.291 113.012 260.291H140.966C142.589 260.291 143.92 262.138 143.92 264.422V265.41C143.92 270.777 146.857 270.794 150.464 270.794H215.113C218.746 270.794 221.657 270.794 221.657 265.41V264.396C221.657 262.112 222.962 260.266 224.62 260.266H252.582C260.388 260.266 266.718 262.533 266.718 278.326Z" fill="white"/>
<path d="M262.011 262.871H221.863C222.301 261.342 223.358 260.295 224.611 260.295H252.582C256.206 260.26 259.504 260.758 262.011 262.871Z" fill="#DBDBDB"/>
<path d="M98.8594 562.628V566.612H112.763V562.628H98.8594ZM266.709 316.397L221.537 364.283H200.746V324.779H208.999V320.768H196.769V364.326H174.244V270.77H166.248V298.792H98.8594V306.778H166.248V364.317H100.981V380.024H98.8594V384.026H100.972V443.445L112.995 470.927H98.8594V478.913H116.482L125.928 500.383C120.107 502.907 115.297 507.305 112.263 512.877C109.229 518.449 108.145 524.875 109.184 531.134C110.222 537.393 113.324 543.126 117.995 547.419C122.666 551.713 128.639 554.321 134.963 554.83L154.5 586.76L148.6 592.659H167.493L143.92 554.16C150.126 552.653 155.648 549.108 159.601 544.091C163.555 539.075 165.711 532.877 165.724 526.49C165.714 523.032 165.068 519.606 163.818 516.382L219.639 489.854H266.735V481.867H244.406L197.611 431.002H266.743V427.008H193.875L143.551 372.261H224.981L252.462 343.062L266.675 357.275V345.999L257.958 337.291L266.675 328.033L266.709 316.397ZM137.196 546.972C133.145 546.972 129.185 545.771 125.816 543.52C122.448 541.27 119.823 538.071 118.273 534.328C116.722 530.586 116.317 526.467 117.107 522.494C117.897 518.521 119.848 514.871 122.713 512.007C125.577 509.143 129.227 507.192 133.2 506.401C137.173 505.611 141.291 506.017 145.034 507.567C148.776 509.117 151.975 511.743 154.226 515.111C156.476 518.479 157.678 522.439 157.678 526.49C157.673 531.921 155.514 537.128 151.673 540.968C147.833 544.808 142.626 546.967 137.196 546.972ZM233.517 481.867H217.81L159.971 509.349C156.955 505.343 152.936 502.205 148.318 500.252C143.7 498.299 138.649 497.601 133.675 498.227L108.959 441.728V372.261H132.687L233.517 481.867ZM239.46 592.651H245.119L266.709 571.052V565.393L239.46 592.651Z" fill="#EBEBEB"/>
<path d="M127.414 378.324H115.803V389.935H127.414V378.324Z" fill="#DBDBDB"/>
<path d="M236.488 422.859V400.428H228.33V391.059H213.971V422.859H236.488Z" fill="#DBDBDB"/>
<path d="M196.649 270.77V293.33H184.488V279.589H177.91V270.77H196.649Z" fill="#DBDBDB"/>
<path d="M266.709 278.318V286.099H256.566V266.527H264.733C266.013 269.207 266.709 272.994 266.709 278.318Z" fill="#DBDBDB"/>
<path d="M203.914 360.892V344.215H235.165L218.282 361.099L203.914 360.892Z" fill="#DBDBDB"/>
<path d="M193.619 345.398H177.92V361.097H193.619V345.398Z" fill="#DBDBDB"/>
<path d="M162.494 309.906H143.584V327.297H162.494V309.906Z" fill="#DBDBDB"/>
<path d="M162.495 330.715V361.099H139.368L124.623 346.345V330.715H162.495Z" fill="#DBDBDB"/>
<path d="M120.45 349.699L132.061 361.319H101.059V349.699H120.45Z" fill="#DBDBDB"/>
<path d="M118.783 496.486H98.8594V482.496H113.15L118.783 496.486Z" fill="#DBDBDB"/>
<path d="M113.364 550.407V557.097H98.8594V527.211H102.844C103.933 535.827 107.6 543.912 113.364 550.407Z" fill="#DBDBDB"/>
<path d="M182.806 492.354L170.688 466.109H155.848L130.574 477.832L137.195 492.268C146.189 492.243 154.83 495.768 161.241 502.075L182.806 492.354Z" fill="#DBDBDB"/>
<path d="M266.709 459.66V477.093H247.704L231.662 459.66H266.709Z" fill="#EBEBEB"/>
<path d="M147.312 585.299L140.356 592.659H113.012C111.997 592.657 110.986 592.539 109.998 592.307V584.02H121.824V565.685L130.729 558.188L147.312 585.299Z" fill="#EBEBEB"/>
<path d="M203.605 554.523L179.628 529.523L170.43 536.711C169.081 541.077 166.884 545.133 163.965 548.647C161.045 552.162 157.461 555.066 153.418 557.193L173.479 589.965L203.605 554.523Z" fill="#DBDBDB"/>
<path d="M177.48 518.505L219.612 497.68H240.627V534.307L207.864 550.486L177.48 518.505Z" fill="#DBDBDB"/>
<path d="M266.692 578.043C266.4 585.437 261.265 591.44 254.669 592.496H252.273L266.692 578.043Z" fill="#DBDBDB"/>
<path d="M115.803 394.785V440.825L128.65 472.248L152.095 460.637H206.757L145.457 394.785H115.803Z" fill="#EBEBEB"/>
<path d="M249.146 328.934H203.914V340.27H238.454L249.146 328.934Z" fill="#DBDBDB"/>
<path d="M106.941 467.122H98.8594V448.418L106.941 467.122Z" fill="#DBDBDB"/>
<path d="M266.708 497.68H246.449V521.64H266.708V497.68Z" fill="#DBDBDB"/>
<path d="M266.708 525.367H246.449V533.775H266.708V525.367Z" fill="#DBDBDB"/>
<path d="M241.41 584.553L233.303 592.66H180.041L208.235 558.223L241.41 584.553Z" fill="#DBDBDB"/>
<path d="M244.312 580.585L257.992 567.454L241.401 553.009V540.016L212.15 554.916L244.312 580.585Z" fill="#EBEBEB"/>
<path d="M266.708 537.492V557.863L261.289 562.964L246.449 550.486V537.492H266.708Z" fill="#DBDBDB"/>
<path d="M104.073 571.18V589.215C102.412 587.721 101.089 585.891 100.19 583.846C99.2912 581.801 98.8379 579.589 98.8602 577.355V571.172L104.073 571.18Z" fill="#DBDBDB"/>
<path d="M117.039 573.07H109.988V580.121H117.039V573.07Z" fill="#DBDBDB"/>
<path d="M161.284 270.769V293.957H116.584V267.411L124.313 260.258H140.973C142.588 260.258 143.911 262.113 143.911 264.397V265.385C143.911 270.744 146.856 270.769 150.454 270.769H161.284Z" fill="#DBDBDB"/>
<path d="M112.772 279.734H98.8594V293.99H112.772V279.734Z" fill="#EBEBEB"/>
<path d="M112.772 268.082V276.052H98.9023C98.9462 273.36 99.3183 270.684 100.01 268.082H112.772Z" fill="#DBDBDB"/>
<path d="M120.139 260.258L115.227 264.869H101.375C103.951 260.576 108.185 260.258 113.012 260.258H120.139Z" fill="#DBDBDB"/>
<path d="M209.342 435.844L228.33 455.785H246.45V435.844H209.342Z" fill="#DBDBDB"/>
<path d="M266.708 446.613H250.211V455.785H266.708V446.613Z" fill="#DBDBDB"/>
<path d="M259.915 435.844H250.211V444.174H259.915V435.844Z" fill="#EBEBEB"/>
<path d="M266.708 435.836H262.328V444.175H266.708V435.836Z" fill="#DBDBDB"/>
<path d="M176.33 466.109H206.757V480.666L187.305 489.494L176.33 466.109Z" fill="#DBDBDB"/>
<path d="M150.794 528.26C151.712 520.77 146.385 513.954 138.895 513.035C131.405 512.117 124.589 517.444 123.671 524.934C122.752 532.424 128.08 539.241 135.57 540.159C143.059 541.077 149.876 535.75 150.794 528.26Z" fill="#EBEBEB"/>
<path d="M106.168 309.906H98.8594V320.401H106.168V309.906Z" fill="#DBDBDB"/>
<path d="M120.114 345.906V309.914H108.959V338.855H101.066V345.906H120.114Z" fill="#DBDBDB"/>
<path d="M140.408 309.906H124.623V326.335H140.408V309.906Z" fill="#EBEBEB"/>
<path d="M106.168 322.418H98.8594V335.686H106.168V322.418Z" fill="#DBDBDB"/>
<path d="M263.351 400.43H239.889V422.861H263.351V400.43Z" fill="#EBEBEB"/>
<path d="M154.234 376.273L178.71 402.904H209.42V376.273H154.234Z" fill="#DBDBDB"/>
<path d="M182.195 405.977L197.722 422.86H209.342V405.977H182.195Z" fill="#EBEBEB"/>
<path d="M228.33 376.273H213.971V387.395H228.33V376.273Z" fill="#DBDBDB"/>
<path d="M263.352 386.928V361.92L251.999 349.699L232.221 370.92V395.189H255.674V386.928H263.352Z" fill="#EBEBEB"/>
<path d="M266.708 334.293V341L263.471 337.831L266.708 334.293Z" fill="#DBDBDB"/>
<path d="M266.708 289.75V310.369L253.088 325.329H235.156V289.75H266.708Z" fill="#DBDBDB"/>
<path d="M230.993 302.777H213.551V325.329H230.993V302.777Z" fill="#EBEBEB"/>
<path d="M253.132 266.526V286.097H230.993V299.941H213.551V270.742H215.114C218.472 270.742 221.211 270.742 221.606 266.5L253.132 266.526Z" fill="#EBEBEB"/>
<path d="M211.291 270.77H198.77V285.627H211.291V270.77Z" fill="#DBDBDB"/>
<path d="M211.301 295.762H177.92V312.173H211.301V295.762Z" fill="#DBDBDB"/>
<path d="M211.299 287.996H198.77V293.321H211.299V287.996Z" fill="#DBDBDB"/>
<path d="M193.619 342.264H184.49L177.92 336.021V317.875H193.619V342.264Z" fill="#DBDBDB"/>
<path d="M136.139 266.981L135.873 267.247L135.718 267.402C135.377 267.058 134.972 266.786 134.525 266.6C134.079 266.414 133.6 266.319 133.116 266.319C132.632 266.319 132.153 266.414 131.707 266.6C131.26 266.786 130.855 267.058 130.514 267.402C130.461 267.357 130.412 267.309 130.368 267.256L130.102 266.99C130.213 266.895 130.325 266.783 130.445 266.689C130.688 266.492 130.953 266.325 131.235 266.191C131.564 266.019 131.917 265.9 132.283 265.839C132.455 265.839 132.626 265.787 132.807 265.761C132.987 265.736 133.253 265.761 133.262 265.761C133.27 265.761 133.502 265.761 133.614 265.761C133.956 265.787 134.294 265.856 134.619 265.968C134.845 266.051 135.063 266.155 135.271 266.277C135.493 266.397 135.7 266.541 135.89 266.706L136.173 266.964L136.139 266.981Z" fill="#A6A6A6"/>
<path d="M131.364 268.252C131.227 268.106 131.089 267.968 130.943 267.831C131.405 267.363 132.009 267.061 132.661 266.972C133.128 266.905 133.603 266.948 134.051 267.097C134.498 267.246 134.904 267.497 135.237 267.831L134.808 268.26C134.584 268.032 134.316 267.851 134.022 267.727C133.727 267.603 133.41 267.539 133.09 267.539C132.443 267.539 131.823 267.795 131.364 268.252Z" fill="#A6A6A6"/>
<path d="M134.438 268.68L134.008 269.101C133.782 268.87 133.473 268.737 133.15 268.732C132.826 268.738 132.518 268.87 132.291 269.101L131.861 268.68C132.207 268.347 132.669 268.16 133.15 268.16C133.63 268.16 134.092 268.347 134.438 268.68Z" fill="#A6A6A6"/>
<path d="M133.501 269.488C133.501 269.564 133.479 269.639 133.436 269.703C133.394 269.766 133.333 269.816 133.263 269.845C133.192 269.874 133.115 269.882 133.04 269.867C132.965 269.852 132.896 269.815 132.842 269.761C132.788 269.707 132.751 269.638 132.736 269.563C132.721 269.488 132.729 269.411 132.758 269.34C132.787 269.27 132.837 269.209 132.9 269.167C132.964 269.124 133.039 269.102 133.115 269.102C133.166 269.102 133.216 269.112 133.263 269.131C133.31 269.15 133.352 269.179 133.388 269.215C133.424 269.251 133.453 269.293 133.472 269.34C133.491 269.387 133.501 269.437 133.501 269.488Z" fill="#A6A6A6"/>
<path d="M110.917 268.916C111.534 268.916 112.034 268.417 112.034 267.8C112.034 267.183 111.534 266.684 110.917 266.684C110.301 266.684 109.801 267.183 109.801 267.8C109.801 268.417 110.301 268.916 110.917 268.916Z" fill="#A6A6A6"/>
<path d="M113.305 267.8C113.305 267.579 113.37 267.363 113.493 267.18C113.616 266.996 113.79 266.853 113.994 266.769C114.198 266.684 114.422 266.662 114.639 266.705C114.855 266.748 115.054 266.854 115.211 267.011C115.367 267.167 115.473 267.366 115.516 267.582C115.559 267.799 115.537 268.023 115.453 268.227C115.368 268.431 115.225 268.606 115.041 268.728C114.858 268.851 114.642 268.916 114.421 268.916C114.125 268.916 113.841 268.799 113.632 268.589C113.422 268.38 113.305 268.096 113.305 267.8Z" fill="#A6A6A6"/>
<path d="M117.925 268.916C118.542 268.916 119.041 268.417 119.041 267.8C119.041 267.183 118.542 266.684 117.925 266.684C117.308 266.684 116.809 267.183 116.809 267.8C116.809 268.417 117.308 268.916 117.925 268.916Z" fill="#A6A6A6"/>
<path d="M120.312 267.8C120.312 267.579 120.378 267.363 120.501 267.18C120.623 266.996 120.798 266.853 121.002 266.769C121.206 266.684 121.43 266.662 121.647 266.705C121.863 266.748 122.062 266.854 122.218 267.011C122.374 267.167 122.481 267.366 122.524 267.582C122.567 267.799 122.545 268.023 122.46 268.227C122.376 268.431 122.233 268.606 122.049 268.728C121.866 268.851 121.65 268.916 121.429 268.916C121.133 268.916 120.849 268.799 120.639 268.589C120.43 268.38 120.313 268.096 120.312 267.8Z" fill="#A6A6A6"/>
<path d="M123.816 267.8C123.816 267.579 123.882 267.363 124.005 267.18C124.127 266.996 124.302 266.853 124.506 266.769C124.71 266.684 124.934 266.662 125.151 266.705C125.367 266.748 125.566 266.854 125.722 267.011C125.878 267.167 125.985 267.366 126.028 267.582C126.071 267.799 126.049 268.023 125.964 268.227C125.88 268.431 125.737 268.606 125.553 268.728C125.369 268.851 125.154 268.916 124.933 268.916C124.637 268.916 124.353 268.799 124.143 268.589C123.934 268.38 123.816 268.096 123.816 267.8Z" fill="#A6A6A6"/>
<path d="M253.895 266.262H245.299V269.997H253.895V266.262Z" fill="#A6A6A6"/>
<path d="M254.101 270.212H245.084V266.047H254.101V270.212ZM245.513 269.783H253.672V266.476H245.513V269.783Z" fill="white"/>
<path d="M251.654 266.742H245.814V269.516H251.654V266.742Z" fill="#A6A6A6"/>
<path d="M254.934 267.008H254.127V269.249H254.934V267.008Z" fill="#A6A6A6"/>
<path d="M158.924 324.901C158.168 317.386 152.99 309.906 143.895 309.906C134.801 309.906 129.639 317.386 128.883 324.901C127.75 336.486 135.556 347.006 143.895 356.59C152.26 347.006 160.083 336.486 158.924 324.901ZM143.895 333.239C142.271 333.233 140.686 332.745 139.339 331.838C137.993 330.931 136.944 329.646 136.327 328.144C135.71 326.642 135.552 324.991 135.872 323.4C136.193 321.808 136.977 320.347 138.127 319.2C139.277 318.054 140.741 317.274 142.333 316.959C143.926 316.644 145.577 316.807 147.076 317.429C148.576 318.05 149.858 319.103 150.761 320.452C151.664 321.802 152.146 323.389 152.148 325.012C152.15 326.095 151.938 327.168 151.524 328.169C151.11 329.17 150.501 330.079 149.734 330.844C148.967 331.609 148.056 332.214 147.054 332.625C146.052 333.036 144.978 333.245 143.895 333.239Z" fill="#FFC727"/>
<path d="M170.741 153.444C169.051 136.684 157.47 120 137.132 120C116.795 120 105.253 136.684 103.563 153.444C101.027 179.283 118.485 202.747 137.132 224.124C155.838 202.747 173.333 179.283 170.741 153.444ZM137.132 172.043C133.501 172.028 129.956 170.94 126.945 168.918C123.933 166.895 121.589 164.028 120.209 160.678C118.829 157.329 118.475 153.646 119.191 150.096C119.908 146.546 121.662 143.287 124.234 140.73C126.805 138.173 130.078 136.433 133.64 135.73C137.202 135.027 140.893 135.392 144.247 136.778C147.601 138.165 150.468 140.512 152.487 143.522C154.505 146.532 155.584 150.071 155.588 153.693C155.593 156.109 155.119 158.502 154.193 160.734C153.266 162.967 151.906 164.994 150.19 166.7C148.475 168.406 146.438 169.756 144.197 170.673C141.956 171.59 139.555 172.055 137.132 172.043Z" fill="#FFC727"/>
<path d="M266.718 523.371V577.363C266.718 585.822 260.388 592.658 252.582 592.658H113.012C105.189 592.658 98.8594 585.788 98.8594 577.363V523.371H266.718Z" fill="white"/>
<path d="M137.633 542.069C137.117 536.959 133.588 531.875 127.405 531.875C121.221 531.875 117.717 536.959 117.202 542.069C116.429 549.944 121.737 557.098 127.405 563.616C133.09 557.098 138.414 549.944 137.633 542.069ZM127.405 547.737C126.3 547.733 125.22 547.403 124.303 546.786C123.386 546.17 122.672 545.296 122.252 544.274C121.831 543.252 121.723 542.128 121.941 541.045C122.158 539.962 122.692 538.967 123.475 538.187C124.257 537.407 125.253 536.876 126.337 536.662C127.421 536.447 128.545 536.559 129.565 536.983C130.586 537.406 131.458 538.123 132.071 539.042C132.685 539.961 133.012 541.041 133.012 542.146C133.015 542.882 132.871 543.612 132.59 544.292C132.309 544.973 131.895 545.591 131.374 546.11C130.853 546.63 130.233 547.042 129.552 547.321C128.871 547.6 128.141 547.741 127.405 547.737Z" fill="#FFC727"/>
<path d="M250.934 552.074H147.072V553.715H250.934V552.074Z" fill="#EBEBEB"/>
<path d="M212.142 556.574H147.072V558.214H212.142V556.574Z" fill="#EBEBEB"/>
<path d="M179.612 533.121H147.072V535.491H179.612V533.121Z" fill="#FFC727"/>
<path d="M150.344 539.227L151.547 541.013L153.616 541.605L152.285 543.297L152.371 545.453L150.344 544.706L148.326 545.453L148.403 543.297L147.072 541.605L149.151 541.013L150.344 539.227Z" fill="#FFC727"/>
<path d="M159.592 539.227L160.795 541.013L162.864 541.605L161.533 543.297L161.619 545.453L159.592 544.706L157.574 545.453L157.651 543.297L156.32 541.605L158.399 541.013L159.592 539.227Z" fill="#FFC727"/>
<path d="M168.842 539.227L170.045 541.013L172.114 541.605L170.783 543.297L170.869 545.453L168.842 544.706L166.824 545.453L166.901 543.297L165.57 541.605L167.649 541.013L168.842 539.227Z" fill="#FFC727"/>
<path d="M178.09 539.227L179.293 541.013L181.362 541.605L180.031 543.297L180.108 545.453L178.09 544.706L176.072 545.453L176.149 543.297L174.818 541.605L176.888 541.013L178.09 539.227Z" fill="#FFC727"/>
<path d="M187.34 544.706V539.227L186.138 541.013L184.068 541.605L185.399 543.297L185.322 545.453L187.34 544.706Z" fill="#FFC727"/>
<path d="M187.339 539.227L188.61 540.944C189.04 540.944 190.027 541.305 190.646 541.442L190.852 541.494L190.723 541.666L189.426 543.383V543.263L189.529 545.418V545.71L187.228 544.852H187.374L185.064 545.71V545.418L185.158 543.263V543.383L183.861 541.666L183.732 541.494L183.939 541.442C184.548 541.305 185.553 540.97 185.974 540.944L187.245 539.227H187.339ZM187.339 539.227C186.91 539.853 186.584 540.54 186.163 541.099C185.484 541.322 184.797 541.528 184.11 541.743L184.179 541.52L185.544 543.186C185.544 543.237 185.544 543.237 185.544 543.306L185.484 545.453L185.218 545.264L187.228 544.508H187.305H187.382L189.392 545.264L189.126 545.453L189.065 543.306C189.065 543.237 189.065 543.237 189.065 543.186L190.431 541.52L190.5 541.743C189.821 541.528 189.126 541.322 188.447 541.099C188.035 540.54 187.7 539.853 187.271 539.227H187.339Z" fill="#FFC727"/>
<path d="M161.284 570.949H117.125V582.234H161.284V570.949Z" fill="#FFC727"/>
<path d="M205.322 582.663H170.688V570.52H205.339L205.322 582.663ZM171.529 581.804H204.464V571.378H171.546L171.529 581.804Z" fill="#DBDBDB"/>
<path d="M247.98 582.663H213.354V570.52H247.98V582.663ZM214.178 581.804H247.121V571.378H214.212L214.178 581.804Z" fill="#DBDBDB"/>
<path d="M250.932 515.97C255.656 515.97 259.486 512.141 259.486 507.417C259.486 502.693 255.656 498.863 250.932 498.863C246.208 498.863 242.379 502.693 242.379 507.417C242.379 512.141 246.208 515.97 250.932 515.97Z" fill="#455A64"/>
<path d="M250.752 511.815L249.584 508.38L246.148 507.203L254.144 503.957L250.752 511.815ZM247.978 507.186L250.082 507.907L250.812 510.037L252.916 505.177L247.978 507.186Z" fill="white"/>
<path d="M244.131 298.869H121.437C120.358 298.869 119.291 298.657 118.295 298.244C117.299 297.832 116.394 297.227 115.631 296.465C114.869 295.702 114.264 294.797 113.852 293.801C113.439 292.805 113.227 291.737 113.227 290.659C113.227 288.482 114.092 286.394 115.631 284.854C117.171 283.314 119.259 282.449 121.437 282.449H244.131C246.309 282.449 248.397 283.314 249.937 284.854C251.476 286.394 252.341 288.482 252.341 290.659C252.341 291.737 252.129 292.805 251.716 293.801C251.304 294.797 250.699 295.702 249.937 296.465C249.174 297.227 248.269 297.832 247.273 298.244C246.277 298.657 245.209 298.869 244.131 298.869Z" fill="white"/>
<path d="M244.132 298.871L132.773 299.034H123.498C120.364 299.275 117.006 298.596 114.97 296.003C110.445 290.644 114.412 282.185 121.437 282.262L232.796 282.425H242.079C244.381 282.348 246.828 282.425 248.769 283.86C255.382 288.411 252.204 298.854 244.132 298.88V298.871ZM244.132 298.871C252.11 298.871 255.373 288.437 248.735 283.903C246.785 282.503 244.441 282.417 242.079 282.494H232.796L121.437 282.649C119.923 282.659 118.442 283.098 117.166 283.913C115.89 284.728 114.87 285.887 114.224 287.257C113.578 288.626 113.332 290.15 113.514 291.654C113.696 293.157 114.299 294.578 115.254 295.754C117.255 298.279 120.407 298.888 123.498 298.682H132.773L169.898 298.742L244.132 298.845V298.871Z" fill="#263238"/>
<path d="M125.55 293.967L124.691 294.637L123.068 292.49L122.467 291.699C122.59 291.654 122.706 291.59 122.81 291.511C123.009 291.354 123.166 291.15 123.265 290.918L123.892 291.777L125.55 293.967Z" fill="#263238"/>
<path d="M123.823 288.908C123.544 288.547 123.168 288.272 122.738 288.118C122.309 287.963 121.844 287.935 121.398 288.036C120.953 288.136 120.546 288.362 120.225 288.687C119.903 289.011 119.682 289.421 119.585 289.867C119.489 290.313 119.522 290.778 119.681 291.206C119.84 291.634 120.117 292.008 120.482 292.283C120.846 292.559 121.281 292.725 121.736 292.761C122.191 292.797 122.647 292.703 123.051 292.489C123.162 292.42 123.274 292.352 123.377 292.274C123.568 292.129 123.736 291.955 123.875 291.759C124.17 291.34 124.325 290.838 124.315 290.325C124.306 289.812 124.134 289.316 123.823 288.908ZM122.793 291.484C122.688 291.564 122.573 291.627 122.449 291.673C122.129 291.795 121.776 291.798 121.454 291.682C121.132 291.566 120.862 291.338 120.693 291.041C120.524 290.743 120.467 290.395 120.533 290.059C120.598 289.723 120.781 289.421 121.05 289.208C121.302 289.007 121.614 288.897 121.937 288.896C122.259 288.894 122.573 289.001 122.827 289.2C123.081 289.398 123.26 289.676 123.337 289.99C123.413 290.303 123.382 290.633 123.248 290.926C123.147 291.155 122.991 291.356 122.793 291.51V291.484Z" fill="#263238"/>
<path d="M393.689 131.027V194.367H284.576L274.759 212.385L264.941 194.367H249.785V131.027H393.689Z" fill="white"/>
<path d="M393.69 131.029L394.11 194.368V194.772C394.11 194.772 284.706 195.015 284.577 195.015L285.159 194.675L275.454 212.726L274.807 213.923L274.193 212.807L264.31 194.821L265.022 195.225H249.09V194.368L249.268 131.029V130.414H249.866C285.725 130.414 357.928 130.77 393.819 131.029H393.69ZM393.69 131.029C357.798 131.287 285.644 131.562 249.737 131.627L250.335 131.029L250.513 194.368L249.737 193.592H264.892H265.361L265.604 194.012L275.309 212.063H274.193L284.075 194.077L284.253 193.721H284.657L393.77 193.98L393.35 194.4L393.77 131.061L393.69 131.029Z" fill="#263238"/>
<path d="M397.62 131.027V131.125L397.539 131.222L397.62 131.027Z" fill="white"/>
<path d="M381.446 131.027V131.125L381.365 131.222L381.446 131.027Z" fill="#FFC727"/>
<path d="M287.018 155.793C286.387 149.582 282.166 143.387 274.58 143.387C266.994 143.387 262.805 149.582 262.174 155.793C261.252 165.368 267.722 174.07 274.58 182.076C281.502 174.07 287.972 165.368 287.018 155.793ZM274.58 162.667C273.238 162.66 271.927 162.256 270.814 161.506C269.702 160.756 268.836 159.693 268.327 158.451C267.817 157.209 267.688 155.844 267.953 154.528C268.219 153.213 268.869 152.005 269.82 151.059C270.771 150.112 271.982 149.468 273.299 149.208C274.616 148.949 275.98 149.085 277.219 149.6C278.459 150.115 279.518 150.986 280.263 152.103C281.008 153.219 281.405 154.531 281.405 155.873C281.41 156.769 281.236 157.657 280.894 158.486C280.552 159.314 280.049 160.066 279.414 160.698C278.779 161.33 278.024 161.83 277.194 162.168C276.365 162.506 275.476 162.675 274.58 162.667Z" fill="#FFC727"/>
<path d="M366.547 163.41H300.361V165.4H366.547V163.41Z" fill="#EBEBEB"/>
<path d="M356.147 168.957H300.361V170.946H356.147V168.957Z" fill="#EBEBEB"/>
<path d="M363.28 174.488H300.361V176.478H363.28V174.488Z" fill="#EBEBEB"/>
<path d="M337.935 180.02H300.361V182.009H337.935V180.02Z" fill="#EBEBEB"/>
<path d="M306.508 143.402L308.772 146.767L312.67 147.866L310.179 151.053L310.325 155.113L306.508 153.722L302.707 155.113L302.852 151.053L300.361 147.866L304.259 146.767L306.508 143.402Z" fill="#FFC727"/>
<path d="M323.929 143.402L326.194 146.767L330.092 147.866L327.585 151.053L327.747 155.113L323.929 153.722L320.128 155.113L320.274 151.053L317.783 147.866L321.681 146.767L323.929 143.402Z" fill="#FFC727"/>
<path d="M341.347 143.402L343.612 146.767L347.51 147.866L345.003 151.053L345.165 155.113L341.347 153.722L337.546 155.113L337.692 151.053L335.201 147.866L339.099 146.767L341.347 143.402Z" fill="#FFC727"/>
<path d="M358.769 143.402L361.034 146.767L364.932 147.866L362.425 151.053L362.587 155.113L358.769 153.722L354.968 155.113L355.114 151.053L352.623 147.866L356.521 146.767L358.769 143.402Z" fill="#FFC727"/>
<path d="M376.188 153.722V143.402L373.94 146.767L370.025 147.866L372.532 151.053L372.387 155.113L376.188 153.722Z" fill="#FFC727"/>
<path d="M376.187 143.387L378.581 146.622C379.39 146.622 381.266 147.301 382.431 147.56L382.803 147.657L382.56 148.11L380.118 151.345L380.199 151.134L380.376 155.178V155.728L376.042 154.11H376.317L371.966 155.728V155.178L372.144 151.134L372.225 151.361L369.782 148.126L369.523 147.802L369.912 147.705C371.076 147.447 372.952 146.816 373.761 146.767L376.139 143.532L376.187 143.387ZM376.187 143.387C375.379 144.567 374.764 145.861 373.971 146.913C372.694 147.349 371.4 147.721 370.106 148.126L370.235 147.705L372.855 150.843C372.952 150.94 372.855 150.956 372.855 151.07L372.726 155.129L372.225 154.757L376.026 153.334H376.155H376.301L380.102 154.757L379.6 155.129L379.471 151.07C379.471 150.94 379.471 150.94 379.552 150.843L382.107 147.705L382.253 148.126C380.959 147.721 379.665 147.349 378.371 146.913C377.594 145.861 376.964 144.567 376.155 143.387H376.187Z" fill="#FFC727"/>
<path d="M431.66 480H295V364.382L363.319 321L431.66 364.382V480Z" fill="#FCF288"/>
<path opacity="0.2" d="M431.66 480H295V364.382L363.319 321L431.66 364.382V480Z" fill="black"/>
<path d="M423.947 350.715H302.701V475.495H423.947V350.715Z" fill="#EBEBEB"/>
<path d="M314.526 371.211H413.301V367.218H314.526V371.211Z" fill="#DBDBDB"/>
<path d="M314.526 381.289H413.301V377.297H314.526V381.289Z" fill="#DBDBDB"/>
<path d="M314.526 391.379H413.301V387.386H314.526V391.379Z" fill="#DBDBDB"/>
<path d="M314.526 401.473H413.301V397.48H314.526V401.473Z" fill="#DBDBDB"/>
<path d="M314.526 411.562H413.301V407.57H314.526V411.562Z" fill="#DBDBDB"/>
<path d="M314.526 421.652H413.301V417.66H314.526V421.652Z" fill="#DBDBDB"/>
<path d="M314.526 431.73H413.301V427.738H314.526V431.73Z" fill="#DBDBDB"/>
<path d="M314.526 441.82H413.301V437.828H314.526V441.82Z" fill="#DBDBDB"/>
<path d="M314.526 451.91H413.301V447.918H314.526V451.91Z" fill="#DBDBDB"/>
<path d="M314.526 462H413.301V458.008H314.526V462Z" fill="#DBDBDB"/>
<path d="M431.66 393.32V479.998H295V393.32C300.869 396.647 306.639 400.138 312.453 403.541C318.267 406.945 324.027 410.479 329.776 414.013C336.146 417.911 342.539 421.864 348.953 425.871L349.16 425.751C349.094 425.751 349.051 425.849 348.996 425.893L363.33 434.859C368.086 431.87 372.875 428.849 377.653 425.893C377.598 425.893 377.554 425.794 377.489 425.751C377.551 425.797 377.621 425.83 377.696 425.849C384.074 421.864 390.47 417.911 396.884 413.992C402.636 410.479 408.403 406.996 414.185 403.541C420.053 400.138 425.791 396.647 431.66 393.32Z" fill="#FCF288"/>
<g opacity="0.2">
<path d="M431.66 393.32C426.14 397.204 420.522 400.956 414.959 404.73C409.396 408.505 403.734 412.203 398.084 415.901C392.193 419.762 386.292 423.587 380.38 427.376L379.845 427.736L364.104 437.783L363.319 438.252L362.555 437.783L346.836 427.725L346.28 427.376C340.353 423.58 334.445 419.748 328.554 415.879C322.925 412.206 317.308 408.49 311.701 404.73C306.137 400.913 300.52 397.204 295 393.32C300.869 396.647 306.639 400.138 312.453 403.541C318.267 406.945 324.027 410.479 329.776 414.013C336.146 417.911 342.539 421.864 348.953 425.871L363.33 434.859C368.086 431.87 372.875 428.849 377.653 425.893C384.03 421.907 390.426 417.955 396.84 414.035C402.593 410.523 408.359 407.039 414.141 403.585C420.053 400.138 425.791 396.647 431.66 393.32Z" fill="black"/>
<path d="M349.149 425.75C349.084 425.75 349.04 425.848 348.986 425.892L346.804 427.724C343.379 430.615 339.866 433.386 336.299 436.069C331.936 439.342 327.496 442.614 323.024 445.745C318.552 448.876 314.014 451.919 309.388 454.875C304.763 457.831 300.116 460.722 295.295 463.373C299.44 459.74 303.749 456.348 308.101 453.043C312.454 449.737 316.926 446.498 321.377 443.378C325.827 440.258 330.409 437.182 335.023 434.226C338.699 431.87 342.441 429.546 346.248 427.375C347.131 426.863 348.015 426.361 348.92 425.87L349.149 425.75Z" fill="black"/>
<path d="M431.333 463.373C426.511 460.722 421.832 457.831 417.239 454.875C412.647 451.919 408.098 448.843 403.582 445.745C399.066 442.647 394.659 439.396 390.306 436.069C386.761 433.386 383.249 430.615 379.845 427.735C379.104 427.124 378.384 426.514 377.664 425.892C377.609 425.892 377.565 425.794 377.5 425.75C377.562 425.796 377.633 425.829 377.707 425.848L380.38 427.375C384.187 429.557 387.907 431.87 391.605 434.226C396.219 437.182 400.735 440.258 405.229 443.378C409.723 446.498 414.152 449.727 418.504 453.043C422.857 456.359 427.188 459.74 431.333 463.373Z" fill="black"/>
</g>
<path d="M423.829 405.086C424.874 396.401 418.681 388.513 409.996 387.468C401.311 386.423 393.423 392.617 392.378 401.302C391.333 409.987 397.527 417.874 406.212 418.919C414.897 419.964 422.784 413.771 423.829 405.086Z" fill="#455A64"/>
<path d="M410.235 394.458V411.475C410.233 411.685 410.19 411.893 410.108 412.087C410.026 412.281 409.907 412.457 409.757 412.605C409.607 412.753 409.43 412.87 409.235 412.949C409.04 413.029 408.831 413.069 408.62 413.067C408.411 413.07 408.203 413.031 408.009 412.952C407.815 412.873 407.639 412.755 407.491 412.607C407.344 412.458 407.227 412.281 407.15 412.087C407.072 411.892 407.034 411.684 407.038 411.475V397.294L405.882 397.959C405.64 398.11 405.36 398.189 405.075 398.188C404.797 398.185 404.524 398.109 404.285 397.968C404.045 397.826 403.848 397.624 403.711 397.381C403.597 397.205 403.52 397.007 403.485 396.801C403.45 396.594 403.457 396.382 403.506 396.178C403.555 395.974 403.645 395.782 403.77 395.614C403.895 395.446 404.054 395.305 404.235 395.199L407.791 393.094C407.791 393.094 407.868 393.094 407.9 393.094C407.933 393.094 407.988 393.039 408.042 393.007C408.097 392.974 408.162 393.007 408.217 393.007C408.256 392.997 408.297 392.997 408.337 393.007C408.401 392.991 408.468 392.991 408.533 393.007H408.849C408.888 393.022 408.931 393.022 408.969 393.007C409.026 392.988 409.087 392.988 409.144 393.007C409.144 393.007 409.231 393.007 409.253 393.007C409.275 393.007 409.373 393.094 409.427 393.094C409.464 393.124 409.504 393.15 409.547 393.17L409.656 393.258C409.722 393.258 409.744 393.345 409.776 393.378C409.813 393.412 409.843 393.452 409.864 393.498L409.984 393.607C409.984 393.607 409.984 393.672 409.984 393.694C410.016 393.739 410.035 393.792 410.038 393.847C410.038 393.901 410.038 393.956 410.104 393.988C410.169 394.021 410.104 394.098 410.104 394.13C410.076 394.197 410.076 394.271 410.104 394.338L410.235 394.458Z" fill="white"/>
<defs>
<filter id="filter0_f_4126_30104" x="-16" y="-93.9961" width="606.922" height="929.227" filterUnits="userSpaceOnUse" color-interpolation-filters="sRGB">
<feFlood flood-opacity="0" result="BackgroundImageFix"/>
<feBlend mode="normal" in="SourceGraphic" in2="BackgroundImageFix" result="shape"/>
<feGaussianBlur stdDeviation="8" result="effect1_foregroundBlur_4126_30104"/>
</filter>
</defs>
</svg>
