<svg width="19" height="30" viewBox="0 0 19 30" fill="none" xmlns="http://www.w3.org/2000/svg">
<path d="M7.78302 0.429999C6.86506 0.431585 5.98516 0.796945 5.33606 1.44604C4.68697 2.09514 4.32161 2.97504 4.32002 3.893V8.168C3.21031 9.14803 2.32611 10.3569 1.7283 11.7113C1.13048 13.0658 0.833234 14.5337 0.85702 16.014L1.15702 28.73C1.15702 28.883 1.21781 29.0298 1.32602 29.138C1.43423 29.2462 1.58099 29.307 1.73402 29.307H17.894C18.0471 29.307 18.1938 29.2462 18.302 29.138C18.4102 29.0298 18.471 28.883 18.471 28.73L18.171 16.013C18.1947 14.5327 17.8974 13.0648 17.2996 11.7104C16.7018 10.356 15.8176 9.14711 14.708 8.167V6.239C14.708 6.22633 14.708 6.21367 14.708 6.201V3.892C14.7064 2.97421 14.3412 2.09446 13.6923 1.44539C13.0435 0.796326 12.1638 0.43085 11.246 0.428999H7.78302V0.429999ZM7.78302 1.584H11.246C11.8104 1.58016 12.3562 1.78581 12.7778 2.16117C13.1993 2.53653 13.4666 3.05491 13.528 3.616C12.9008 3.05347 12.0885 2.74131 11.246 2.739H7.78302C6.94054 2.74159 6.1284 3.05371 5.50102 3.616C5.56262 3.055 5.83001 2.53675 6.2515 2.16143C6.67299 1.78611 7.21866 1.58038 7.78302 1.584ZM7.78302 3.893H11.246C11.5498 3.89034 11.8511 3.94813 12.1324 4.06302C12.4136 4.1779 12.6692 4.34758 12.8843 4.56218C13.0994 4.77677 13.2696 5.032 13.3851 5.31301C13.5006 5.59402 13.559 5.89519 13.557 6.199V17.265C12.9986 16.622 12.2938 16.1227 11.502 15.809C10.4712 15.4085 9.34299 15.3306 8.26688 15.5856C7.19077 15.8406 6.21752 16.4165 5.47602 17.237V6.237C5.47602 6.22433 5.47602 6.21167 5.47602 6.199C5.47403 5.89553 5.53234 5.59469 5.64759 5.31394C5.76283 5.0332 5.9327 4.77815 6.14734 4.56361C6.36198 4.34907 6.6171 4.1793 6.89789 4.06418C7.17868 3.94906 7.47955 3.89087 7.78302 3.893ZM9.97402 4.493L9.50502 4.806L8.93902 5.185L7.78002 4.726L8.11802 5.926L7.31802 6.884L8.56402 6.931L9.22902 7.986L9.66202 6.816L10.868 6.51L9.88902 5.739L9.97402 4.499V4.493ZM9.34602 5.582L9.31802 5.991L9.64102 6.245L9.24102 6.345L9.09902 6.728L8.88002 6.382L8.47302 6.364L8.73202 6.05L8.62202 5.65L9.00302 5.802L9.34402 5.575L9.34602 5.582ZM10.857 9.026L10.746 9.581L10.613 10.248L9.46802 10.74L10.554 11.352L10.669 12.591L11.584 11.746L12.799 12.021L12.277 10.887L12.913 9.816L11.676 9.965L10.857 9.028V9.026ZM14.705 9.774C16.2179 11.4981 17.0402 13.7204 17.014 16.014L17.314 28.152H2.31002L2.01002 16.012C1.98434 13.7191 2.80665 11.4976 4.31902 9.774V18.899C4.32034 19.817 4.68562 20.6971 5.33477 21.3462C5.98392 21.9954 6.86398 22.3607 7.78202 22.362H11.245C12.1632 22.3609 13.0435 21.9958 13.6929 21.3466C14.3423 20.6974 14.7077 19.8172 14.709 18.899V9.773L14.705 9.774ZM11.181 10.245L11.452 10.552L11.859 10.505L11.65 10.857L11.821 11.231L11.421 11.139L11.121 11.416L11.083 11.007L10.727 10.807L11.103 10.645L11.181 10.245ZM8.68102 11.425L8.21202 11.738L7.64602 12.117L6.48702 11.658L6.82502 12.858L6.02502 13.816L7.27102 13.863L7.93602 14.918L8.36902 13.748L9.57502 13.442L8.59602 12.671L8.67702 11.427L8.68102 11.425ZM8.05202 12.514L8.02502 12.923L8.34802 13.177L7.94802 13.277L7.80502 13.66L7.58702 13.314L7.18002 13.296L7.43902 12.982L7.32802 12.587L7.70902 12.738L8.05202 12.514ZM9.43902 16.59C10.0016 16.5822 10.5604 16.6841 11.084 16.89C11.6186 17.0938 12.1048 17.4068 12.5117 17.809C12.9185 18.2112 13.2371 18.6938 13.447 19.226C13.4628 19.2704 13.484 19.3127 13.51 19.352C13.4105 19.8783 13.1292 20.3529 12.7155 20.693C12.3017 21.0331 11.7816 21.2172 11.246 21.213H7.78302C7.23892 21.2166 6.71143 21.0257 6.2956 20.6748C5.87977 20.3239 5.60295 19.836 5.51502 19.299C5.55738 19.25 5.59118 19.1942 5.61502 19.134C5.93622 18.3847 6.46853 17.7451 7.14701 17.2932C7.8255 16.8413 8.62084 16.5966 9.43602 16.589L9.43902 16.59Z" fill="#FF9E59"/>
</svg>
