<svg width="42" height="23" viewBox="0 0 42 23" fill="none" xmlns="http://www.w3.org/2000/svg">
<path d="M1.71898 0.410999C1.5214 0.410999 1.3319 0.48949 1.19219 0.629205C1.05247 0.768919 0.973984 0.958413 0.973984 1.156V22.021C0.973984 22.2186 1.05247 22.4081 1.19219 22.5478C1.3319 22.6875 1.5214 22.766 1.71898 22.766H40.468C40.6656 22.766 40.8551 22.6875 40.9948 22.5478C41.1345 22.4081 41.213 22.2186 41.213 22.021V1.156C41.213 0.958413 41.1345 0.768919 40.9948 0.629205C40.8551 0.48949 40.6656 0.410999 40.468 0.410999H1.71898ZM2.46398 1.901H39.723V21.276H2.46398V1.901ZM4.69998 3.391C4.5024 3.391 4.3129 3.46949 4.17319 3.6092C4.03347 3.74892 3.95498 3.93841 3.95498 4.136V10.097C3.95498 10.2946 4.03347 10.4841 4.17319 10.6238C4.3129 10.7635 4.5024 10.842 4.69998 10.842H10.661C10.8586 10.842 11.0481 10.7635 11.1878 10.6238C11.3275 10.4841 11.406 10.2946 11.406 10.097V4.137C11.406 3.93941 11.3275 3.74992 11.1878 3.6102C11.0481 3.47049 10.8586 3.392 10.661 3.392L4.69998 3.391ZM13.642 3.391C13.4444 3.391 13.2549 3.46949 13.1152 3.6092C12.9755 3.74892 12.897 3.93841 12.897 4.136V10.097C12.897 10.2946 12.9755 10.4841 13.1152 10.6238C13.2549 10.7635 13.4444 10.842 13.642 10.842H19.603C19.8006 10.842 19.9901 10.7635 20.1298 10.6238C20.2695 10.4841 20.348 10.2946 20.348 10.097V4.137C20.348 3.93941 20.2695 3.74992 20.1298 3.6102C19.9901 3.47049 19.8006 3.392 19.603 3.392L13.642 3.391ZM22.584 3.391C22.3864 3.391 22.1969 3.46949 22.0572 3.6092C21.9175 3.74892 21.839 3.93841 21.839 4.136V10.097C21.839 10.2946 21.9175 10.4841 22.0572 10.6238C22.1969 10.7635 22.3864 10.842 22.584 10.842H28.545C28.7426 10.842 28.9321 10.7635 29.0718 10.6238C29.2115 10.4841 29.29 10.2946 29.29 10.097V4.137C29.29 3.93941 29.2115 3.74992 29.0718 3.6102C28.9321 3.47049 28.7426 3.392 28.545 3.392L22.584 3.391ZM31.526 3.391C31.3284 3.391 31.1389 3.46949 30.9992 3.6092C30.8595 3.74892 30.781 3.93841 30.781 4.136V10.097C30.781 10.2946 30.8595 10.4841 30.9992 10.6238C31.1389 10.7635 31.3284 10.842 31.526 10.842H37.487C37.6846 10.842 37.8741 10.7635 38.0138 10.6238C38.1535 10.4841 38.232 10.2946 38.232 10.097V4.137C38.232 3.93941 38.1535 3.74992 38.0138 3.6102C37.8741 3.47049 37.6846 3.392 37.487 3.392L31.526 3.391ZM5.44498 4.882H9.91598V9.353H5.44498V4.882ZM14.387 4.882H18.858V9.353H14.387V4.882ZM23.329 4.882H27.8V9.353H23.329V4.882ZM32.271 4.882H36.742V9.353H32.274L32.271 4.882ZM4.69998 12.334C4.5024 12.334 4.3129 12.4125 4.17319 12.5522C4.03347 12.6919 3.95498 12.8814 3.95498 13.079V19.041C3.95498 19.2386 4.03347 19.4281 4.17319 19.5678C4.3129 19.7075 4.5024 19.786 4.69998 19.786H10.661C10.8586 19.786 11.0481 19.7075 11.1878 19.5678C11.3275 19.4281 11.406 19.2386 11.406 19.041V13.079C11.406 12.8814 11.3275 12.6919 11.1878 12.5522C11.0481 12.4125 10.8586 12.334 10.661 12.334H4.69998ZM13.642 12.334C13.4444 12.334 13.2549 12.4125 13.1152 12.5522C12.9755 12.6919 12.897 12.8814 12.897 13.079V19.041C12.897 19.2386 12.9755 19.4281 13.1152 19.5678C13.2549 19.7075 13.4444 19.786 13.642 19.786H19.603C19.8006 19.786 19.9901 19.7075 20.1298 19.5678C20.2695 19.4281 20.348 19.2386 20.348 19.041V13.079C20.348 12.8814 20.2695 12.6919 20.1298 12.5522C19.9901 12.4125 19.8006 12.334 19.603 12.334H13.642ZM22.584 12.334C22.3864 12.334 22.1969 12.4125 22.0572 12.5522C21.9175 12.6919 21.839 12.8814 21.839 13.079V19.041C21.839 19.2386 21.9175 19.4281 22.0572 19.5678C22.1969 19.7075 22.3864 19.786 22.584 19.786H28.545C28.7426 19.786 28.9321 19.7075 29.0718 19.5678C29.2115 19.4281 29.29 19.2386 29.29 19.041V13.079C29.29 12.8814 29.2115 12.6919 29.0718 12.5522C28.9321 12.4125 28.7426 12.334 28.545 12.334H22.584ZM31.526 12.334C31.3284 12.334 31.1389 12.4125 30.9992 12.5522C30.8595 12.6919 30.781 12.8814 30.781 13.079V19.041C30.781 19.2386 30.8595 19.4281 30.9992 19.5678C31.1389 19.7075 31.3284 19.786 31.526 19.786H37.487C37.6846 19.786 37.8741 19.7075 38.0138 19.5678C38.1535 19.4281 38.232 19.2386 38.232 19.041V13.079C38.232 12.8814 38.1535 12.6919 38.0138 12.5522C37.8741 12.4125 37.6846 12.334 37.487 12.334H31.526ZM5.44498 13.824H9.91598V18.295H5.44498V13.824ZM14.387 13.824H18.858V18.295H14.387V13.824ZM23.329 13.824H27.8V18.295H23.329V13.824ZM32.271 13.824H36.742V18.295H32.274L32.271 13.824Z" fill="#aaa"/>
</svg>
