<svg width="42" height="44" viewBox="0 0 42 44" fill="none" xmlns="http://www.w3.org/2000/svg">
<path d="M4.96101 21.044C5.04107 21.392 5.24109 21.7007 5.52601 21.916L13.71 28.171C13.8444 28.2714 14.004 28.3327 14.1711 28.348C14.3383 28.3633 14.5063 28.3321 14.6568 28.2577C14.8072 28.1834 14.9341 28.0689 15.0235 27.9268C15.1128 27.7848 15.1611 27.6208 15.163 27.453C15.1666 27.2515 15.101 27.0549 14.977 26.896L11.03 21.924C10.392 21.9977 9.75003 21.8248 9.23531 21.4408C8.72058 21.0567 8.37205 20.4905 8.26101 19.858L7.57501 15.693C7.5408 15.4808 7.59227 15.2638 7.71811 15.0895C7.84395 14.9153 8.03384 14.7982 8.24601 14.764C8.45818 14.7298 8.67526 14.7813 8.84948 14.9071C9.0237 15.0329 9.1408 15.2228 9.17501 15.435L9.85301 19.592C9.8946 19.8049 10.013 19.995 10.1857 20.1263C10.3584 20.2575 10.5733 20.3207 10.7896 20.3038C11.0058 20.2869 11.2083 20.1911 11.3585 20.0345C11.5086 19.878 11.596 19.6718 11.604 19.455C11.6056 19.4065 11.6029 19.358 11.596 19.31L11.015 15.734C10.953 15.334 9.98201 14.334 9.78001 13.983L7.35901 10.86C7.30101 10.775 7.23101 10.706 7.17301 10.618C6.70558 10.0098 6.39017 9.29872 6.25301 8.544L5.36101 3.577C5.34426 3.47754 5.30787 3.38242 5.25398 3.29717C5.20009 3.21192 5.12977 3.13825 5.04712 3.08045C4.96447 3.02265 4.87114 2.98188 4.77258 2.96051C4.67401 2.93914 4.57218 2.93761 4.47301 2.956L1.55101 3.464C1.4478 3.48224 1.34941 3.52142 1.2619 3.57912C1.1744 3.63682 1.09963 3.71182 1.04221 3.79951C0.984783 3.88719 0.945914 3.9857 0.927994 4.08897C0.910074 4.19225 0.913484 4.29809 0.938012 4.4L4.96101 21.044Z" stroke="#707070"/>
<path d="M31.392 15.841C31.2516 16.2273 31.1648 16.6311 31.134 17.041L30.854 19.37C30.798 19.838 30.823 20.447 31.266 20.607C31.4157 20.6445 31.5734 20.6331 31.7161 20.5745C31.8588 20.5158 31.979 20.4129 32.059 20.281C32.213 20.0135 32.3066 19.7155 32.333 19.408L32.877 15.993C32.9062 15.6818 32.9962 15.3794 33.142 15.103C33.2062 14.9576 33.3168 14.8375 33.4564 14.7615C33.596 14.6855 33.7569 14.6579 33.9138 14.6829C34.0708 14.7079 34.2151 14.7842 34.3242 14.8998C34.4333 15.0154 34.5011 15.1638 34.517 15.322C34.5689 15.6284 34.5604 15.9419 34.492 16.245L34.072 18.898C34.0004 19.749 33.7401 20.5733 33.31 21.311C33.0864 21.6739 32.7509 21.9543 32.3541 22.1099C31.9573 22.2656 31.5207 22.2881 31.11 22.174C30.121 23.34 27.582 26.336 27.434 26.741C27.286 27.146 27.347 28.374 28.034 28.285C28.2415 28.2396 28.434 28.1418 28.593 28.001L36.05 22.445C36.4334 22.1944 36.7667 21.8747 37.033 21.502C37.2281 21.1469 37.3632 20.7621 37.433 20.363L41.088 4.555C41.106 4.476 41.124 4.394 41.137 4.311C41.1803 4.12085 41.1577 3.92165 41.073 3.746C40.9673 3.6148 40.8338 3.50864 40.6822 3.43516C40.5305 3.36167 40.3645 3.32269 40.196 3.321L37.919 2.973C37.6426 2.89485 37.3467 2.92637 37.093 3.061C36.8825 3.26337 36.7597 3.54016 36.751 3.832L36.077 8.143C36.0047 8.7757 35.8536 9.39686 35.627 9.992C35.3398 10.5875 34.9764 11.1431 34.546 11.645L32.053 14.821C31.7876 15.1292 31.5653 15.473 31.392 15.841Z" stroke="#707070"/>
<path d="M27.215 2.109C25.033 1.04 21.492 1.375 19.123 1.321C16.6426 1.32369 14.2439 2.20797 12.3554 3.81592C10.4668 5.42388 9.21124 7.6508 8.81299 10.099L10.452 12.221C13.067 8.412 22.535 3.803 27.215 2.109Z" stroke="#707070"/>
<path d="M31.744 12.609L33.592 10.196C33.3818 8.76755 32.8736 7.39925 32.1005 6.17989C31.3273 4.96052 30.3064 3.91733 29.104 3.118C27.595 3.683 25.262 4.595 22.744 5.765C24.7514 5.89272 26.6764 6.61037 28.2775 7.82793C29.8786 9.04548 31.0845 10.7087 31.744 12.609Z" stroke="#707070"/>
<path d="M16.239 25.886C16.5745 26.3037 16.7645 26.8195 16.78 27.355C18.903 28.38 22.48 29.462 25.739 27.428C25.6813 27.0645 25.7019 26.6929 25.7993 26.338C25.8967 25.9831 26.0688 25.6531 26.304 25.37L29.686 21.359C29.3027 20.8635 29.1263 20.2388 29.194 19.616L29.67 15.847C29.7804 15.2424 30.0666 14.6837 30.493 14.241C30.1121 12.3079 29.0734 10.5664 27.5535 9.3126C26.0335 8.05885 24.1263 7.37029 22.156 7.364H19.54C15.553 9.511 12.84 11.593 11.477 13.555C12.011 14.0919 12.3998 14.7556 12.607 15.484L13.18 19.043C13.2416 19.4289 13.2125 19.8239 13.0948 20.1966C12.9771 20.5693 12.7741 20.9095 12.502 21.19L16.239 25.886Z" stroke="#707070"/>
<path d="M37.644 42.617C37.744 38.593 32.627 35.557 28.128 34.538C27.4111 34.3925 26.7664 34.0038 26.3032 33.4376C25.84 32.8714 25.5866 32.1625 25.586 31.431V29.349C24.3594 29.9153 23.023 30.2045 21.672 30.196C19.8124 30.1595 17.9823 29.7247 16.305 28.921C16.2414 29.0192 16.1684 29.1109 16.087 29.195V31.895C16.0893 32.5974 15.8572 33.2806 15.4273 33.8361C14.9975 34.3917 14.3945 34.7879 13.714 34.962C10.388 35.857 4.56001 37.475 4.72301 42.129V43.291H37.644V42.617Z" stroke="#707070"/>
</svg>
