<svg width="59" height="59" viewBox="0 0 59 59" fill="none" xmlns="http://www.w3.org/2000/svg">
<path d="M45.215 30.34C45.1382 30.1845 45.0982 30.0134 45.0982 29.84C45.0982 29.6666 45.1382 29.4955 45.215 29.34L46.652 26.399C47.0383 25.6164 47.1035 24.7138 46.8338 23.8838C46.564 23.0537 45.9806 22.362 45.208 21.956L42.318 20.425C42.1647 20.3444 42.0321 20.2295 41.9303 20.0894C41.8285 19.9493 41.7603 19.7877 41.731 19.617L41.166 16.393C41.0186 15.5329 40.541 14.7644 39.835 14.2514C39.129 13.7384 38.2506 13.5215 37.387 13.647L34.146 14.105C33.9747 14.1297 33.8001 14.1146 33.6355 14.0611C33.471 14.0075 33.3209 13.9168 33.197 13.796L30.844 11.522C30.2193 10.9127 29.3812 10.5717 28.5085 10.5717C27.6358 10.5717 26.7977 10.9127 26.173 11.522L23.82 13.797C23.696 13.9177 23.546 14.0084 23.3815 14.0619C23.2169 14.1155 23.0423 14.1306 22.871 14.106L19.63 13.648C18.7665 13.5222 17.8881 13.7389 17.1821 14.2517C16.4761 14.7645 15.9984 15.5329 15.851 16.393L15.286 19.617C15.2566 19.7877 15.1884 19.9493 15.0866 20.0894C14.9848 20.2295 14.8522 20.3443 14.699 20.425L11.808 21.959C11.0345 22.3641 10.45 23.0555 10.1793 23.8856C9.90859 24.7157 9.97307 25.6188 10.359 26.402L11.796 29.342C11.8728 29.4975 11.9128 29.6686 11.9128 29.842C11.9128 30.0154 11.8728 30.1865 11.796 30.342L10.359 33.281C9.9727 34.0636 9.90747 34.9662 10.1772 35.7962C10.447 36.6263 11.0304 37.318 11.803 37.724L14.694 39.258C14.8473 39.3386 14.9799 39.4535 15.0817 39.5936C15.1835 39.7337 15.2517 39.8953 15.281 40.066L15.846 43.29C15.9792 44.0685 16.3836 44.7746 16.9876 45.2835C17.5916 45.7923 18.3562 46.0709 19.146 46.07C19.3069 46.0699 19.4677 46.0586 19.627 46.036L22.871 45.573C23.0423 45.5483 23.2169 45.5634 23.3815 45.6169C23.546 45.6705 23.6961 45.7612 23.82 45.882L26.172 48.158C26.7969 48.7671 27.6349 49.1079 28.5075 49.1079C29.3801 49.1079 30.2181 48.7671 30.843 48.158L33.195 45.882C33.3192 45.761 33.4696 45.6703 33.6345 45.6167C33.7994 45.5631 33.9744 45.5482 34.146 45.573L37.387 46.031C38.2506 46.1567 39.1292 45.94 39.8352 45.4269C40.5413 44.9139 41.0188 44.1452 41.166 43.285L41.732 40.061C41.7614 39.8903 41.8296 39.7287 41.9314 39.5886C42.0332 39.4485 42.1658 39.3337 42.319 39.253L45.21 37.719C45.9826 37.313 46.566 36.6213 46.8358 35.7912C47.1055 34.9612 47.0403 34.0586 46.654 33.276L45.215 30.34ZM24.059 19.839C24.865 19.839 25.6528 20.078 26.323 20.5258C26.9931 20.9735 27.5154 21.61 27.8238 22.3546C28.1322 23.0992 28.2129 23.9185 28.0557 24.709C27.8985 25.4995 27.5104 26.2256 26.9405 26.7955C26.3706 27.3654 25.6445 27.7535 24.854 27.9107C24.0635 28.0679 23.2442 27.9872 22.4996 27.6788C21.755 27.3704 21.1185 26.8481 20.6708 26.1779C20.223 25.5078 19.984 24.72 19.984 23.914C19.9853 22.8336 20.4151 21.7979 21.179 21.034C21.9429 20.2701 22.9786 19.8403 24.059 19.839ZM21.959 37.962C21.7505 38.1705 21.4678 38.2876 21.173 38.2876C20.8782 38.2876 20.5955 38.1705 20.387 37.962C20.1785 37.7535 20.0614 37.4708 20.0614 37.176C20.0614 36.8812 20.1785 36.5985 20.387 36.39L35.059 21.72C35.1622 21.6168 35.2848 21.5349 35.4196 21.479C35.5545 21.4232 35.699 21.3944 35.845 21.3944C35.991 21.3944 36.1355 21.4232 36.2704 21.479C36.4052 21.5349 36.5278 21.6168 36.631 21.72C36.7342 21.8232 36.8161 21.9458 36.872 22.0806C36.9278 22.2155 36.9566 22.36 36.9566 22.506C36.9566 22.652 36.9278 22.7965 36.872 22.9314C36.8161 23.0662 36.7342 23.1888 36.631 23.292L21.959 37.962ZM32.954 39.844C32.1479 39.844 31.3599 39.6049 30.6896 39.157C30.0194 38.709 29.4971 38.0724 29.1888 37.3275C28.8805 36.5827 28.8 35.7631 28.9576 34.9725C29.1152 34.182 29.5037 33.4559 30.074 32.8861C30.6443 32.3164 31.3707 31.9286 32.1615 31.7718C32.9522 31.615 33.7717 31.6963 34.5162 32.0053C35.2607 32.3144 35.8969 32.8373 36.3442 33.508C36.7915 34.1786 37.0298 34.9669 37.029 35.773C37.0266 36.8527 36.5964 37.8874 35.8326 38.6504C35.0688 39.4135 34.0337 39.8427 32.954 39.844Z" fill="#FF9E59"/>
<path d="M32.949 33.916C32.5827 33.916 32.2246 34.0246 31.9201 34.2281C31.6155 34.4316 31.3782 34.7209 31.238 35.0593C31.0978 35.3977 31.0611 35.7701 31.1326 36.1293C31.204 36.4886 31.3804 36.8185 31.6394 37.0776C31.8985 37.3366 32.2284 37.513 32.5877 37.5844C32.9469 37.6559 33.3193 37.6192 33.6577 37.479C33.9961 37.3388 34.2854 37.1015 34.4889 36.7969C34.6924 36.4924 34.801 36.1343 34.801 35.768C34.8002 35.2771 34.6048 34.8065 34.2577 34.4593C33.9105 34.1122 33.4399 33.9168 32.949 33.916Z" fill="#F37022"/>
<path d="M24.062 22.061C23.6957 22.061 23.3377 22.1696 23.0331 22.3731C22.7285 22.5766 22.4912 22.8659 22.351 23.2043C22.2108 23.5427 22.1741 23.9151 22.2456 24.2743C22.3171 24.6336 22.4934 24.9635 22.7525 25.2226C23.0115 25.4816 23.3415 25.6579 23.7007 25.7294C24.06 25.8009 24.4323 25.7642 24.7707 25.624C25.1091 25.4839 25.3984 25.2465 25.6019 24.9419C25.8054 24.6374 25.914 24.2793 25.914 23.913C25.9135 23.422 25.7182 22.9512 25.371 22.604C25.0238 22.2568 24.553 22.0615 24.062 22.061Z" fill="#F37022"/>
</svg>
