<svg width="224" height="224" viewBox="0 0 224 224" fill="none" xmlns="http://www.w3.org/2000/svg">
<path d="M109.169 69.3507C109.396 69.6947 109.695 69.9852 110.045 70.2022C110.395 70.4192 110.789 70.5575 111.198 70.6075C111.607 70.6576 112.022 70.6182 112.414 70.4921C112.806 70.366 113.166 70.1562 113.47 69.8772L126.396 75.7091L128.888 72.5303L113.485 65.7159C112.977 65.2404 112.313 64.9676 111.617 64.9492C110.922 64.9309 110.244 65.1682 109.712 65.6162C109.18 66.0643 108.831 66.6919 108.731 67.3802C108.631 68.0685 108.786 68.7696 109.169 69.3507H109.169Z" fill="#A0616A"/>
<path d="M161.891 105.008L153.956 121.915L184.482 118.823L178.11 102.593L161.891 105.008Z" fill="#E78D9A"/>
<path d="M168.988 202.179L166.094 202.155L164.813 190.731L169.084 190.767L168.988 202.179Z" fill="#A0616A"/>
<path d="M159.717 206.782C159.715 207.125 159.848 207.455 160.089 207.7C160.329 207.944 160.657 208.084 161 208.087L166.755 208.135L167.762 206.093L168.132 208.146L170.304 208.165L169.755 200.845L169 200.795L165.919 200.582L164.924 200.516L164.907 202.587L160.284 205.722C160.111 205.84 159.969 205.998 159.87 206.182C159.772 206.367 159.719 206.572 159.717 206.782Z" fill="#2F2E41"/>
<path d="M136.958 202.193L134.198 201.319L136.33 190.022L140.403 191.312L136.958 202.193Z" fill="#A0616A"/>
<path d="M126.744 203.868C126.64 204.195 126.671 204.55 126.829 204.854C126.987 205.159 127.26 205.388 127.586 205.493L133.073 207.229L134.636 205.573L134.387 207.644L136.456 208.301L138.083 201.142L137.376 200.872L134.493 199.764L133.562 199.408L132.937 201.383L127.597 203.022C127.397 203.083 127.215 203.192 127.066 203.34C126.918 203.487 126.807 203.668 126.744 203.868Z" fill="#2F2E41"/>
<path d="M183.092 114.069L155.336 119.155C155.336 119.155 150.884 122.485 152.075 123.677C153.266 124.87 153.45 124.685 152.668 125.468C151.885 126.25 150.194 127.296 150.177 127.981C150.16 128.665 137.739 159.373 137.739 159.373C137.739 159.373 139.119 158.683 138.084 159.718C137.049 160.753 137.049 161.608 137.049 161.608L132.219 194.221L140.064 194.682L147.745 164.95L164.879 137.174C164.879 137.174 166.579 161.943 166.65 163.591C166.722 165.238 167.757 163.168 166.722 165.238C165.686 167.308 164.996 165.928 165.686 167.308C166.377 168.689 163.201 196.786 163.201 196.786H170.361L185.718 138.548C185.718 138.548 191.182 121.899 183.092 114.069Z" fill="#2F2E41"/>
<path d="M190.222 58.9622C190.295 62.0961 189.124 65.1306 187.441 67.7959C186.942 66.24 186.043 64.8238 185.106 63.4738C185.578 66.3942 185.075 69.3889 183.674 71.9945C183.624 72.0298 183.573 72.0626 183.52 72.0928C182.149 72.9177 180.41 73.2519 178.927 72.656C181.992 69.3518 182.382 63.8772 179.812 60.171C179.085 59.1194 178.144 58.1893 177.693 56.9925C176.981 55.0829 177.665 52.9804 178.097 50.9895C178.5 49.1366 178.571 46.9316 177.328 45.5736C177.461 45.3838 177.642 45.2328 177.852 45.1359C178.062 45.039 178.295 44.9998 178.525 45.0223C179.292 45.1306 179.85 45.7968 180.205 46.4829C180.56 47.1691 180.795 47.9295 181.29 48.5222C182.207 49.6314 183.768 49.8937 185.085 50.4783C188.272 51.898 190.146 55.4751 190.222 58.9622Z" fill="#2F2E41"/>
<path d="M190.91 131.596C192.625 131.596 194.016 130.206 194.016 128.491C194.016 126.776 192.625 125.386 190.91 125.386C189.195 125.386 187.805 126.776 187.805 128.491C187.805 130.206 189.195 131.596 190.91 131.596Z" fill="#BEAE72"/>
<path d="M163.394 57.1704C163.576 56.5329 162.32 60.4296 162.926 60.5C165.685 60.8165 169.473 62.4643 171.394 63.233C171.481 63.2229 171.568 63.2129 171.651 63.2003C171.858 63.1777 172.059 63.1451 172.257 63.1074C176.732 62.2608 178.452 55.3874 178.452 55.3246C178.452 55.0156 177.711 46.5288 176.543 46.4032C176.236 46.3699 175.927 46.3532 175.619 46.353H172.72C172.12 46.2237 171.512 46.1356 170.9 46.0892H170.895C165.058 45.6445 160.457 49.2018 160.887 53.5303C160.889 53.5353 160.894 53.5403 160.897 53.5453C161.022 53.7312 161.131 53.9071 161.228 54.0754C161.322 54.2337 161.401 54.3844 161.47 54.5276C162.002 55.633 160.634 57.0238 161.541 57.2835C162.747 57.6287 158.369 68.9777 163.142 68.9777C160.821 69.6378 162.891 58.9289 163.394 57.1704Z" fill="#2F2E41"/>
<path d="M168.604 63.8295C172.395 63.8295 175.468 60.7564 175.468 56.9657C175.468 53.1749 172.395 50.1018 168.604 50.1018C164.813 50.1018 161.74 53.1749 161.74 56.9657C161.74 60.7564 164.813 63.8295 168.604 63.8295Z" fill="url(#paint0_radial_351_6599)"/>
<path d="M160.887 53.9046C161.001 53.9648 161.113 54.0201 161.228 54.0754C161.348 54.1332 161.467 54.1909 161.587 54.2437C163.885 55.2863 165.756 55.4018 166.891 53.9046C166.922 53.1167 167.098 52.3415 167.413 51.6185C167.357 52.4264 167.57 53.2301 168.019 53.9046H170.304C172.659 55.4671 173.868 55.6304 172.234 60.7603C171.778 62.1897 169.966 70.5075 170.679 71.741C170.885 71.7184 173.079 62.6078 173.277 62.5701C177.752 61.7235 180.595 54.3517 180.231 53.9347C180.233 52.7488 179.96 51.5786 179.434 50.5156C178.769 49.1689 177.732 48.0409 176.446 47.2649C175.679 46.8932 174.88 46.593 174.059 46.368C174.038 46.363 174.02 46.358 174 46.353C173.748 46.2851 173.491 46.2223 173.234 46.1696C172.703 46.0574 172.166 45.9761 171.625 45.9259C171.587 45.9234 171.549 45.9208 171.513 45.9208C171.298 45.9214 171.086 45.9795 170.9 46.0892C170.897 46.0892 170.897 46.0917 170.895 46.0917C170.762 46.1693 170.646 46.2726 170.554 46.3956C170.391 46.6026 170.303 46.8585 170.304 47.1217H167.759C167.665 47.1217 167.571 47.1242 167.477 47.1292C165.778 47.1872 164.162 47.8771 162.945 49.0638C161.728 50.2505 160.998 51.8486 160.897 53.5453C160.889 53.6659 160.887 53.784 160.887 53.9046Z" fill="#2F2E41"/>
<path d="M175.894 51.7104C178.392 51.7104 180.416 49.6859 180.416 47.1885C180.416 44.6911 178.392 42.6665 175.894 42.6665C173.397 42.6665 171.372 44.6911 171.372 47.1885C171.372 49.6859 173.397 51.7104 175.894 51.7104Z" fill="#2F2E41"/>
<path d="M190.945 129.772C191.166 129.424 191.308 129.032 191.363 128.623C191.417 128.215 191.382 127.8 191.26 127.406C191.138 127.012 190.932 126.65 190.656 126.344C190.381 126.038 190.042 125.795 189.663 125.633L189.685 111.452L185.764 110.481L185.861 127.324C185.635 127.982 185.659 128.7 185.927 129.342C186.195 129.984 186.689 130.505 187.316 130.806C187.943 131.108 188.658 131.169 189.327 130.979C189.996 130.788 190.572 130.359 190.945 129.772V129.772Z" fill="#E88F9C"/>
<path d="M164.643 72.9872L165.925 80.2522C165.985 80.5912 165.973 80.9389 165.891 81.273C165.808 81.6071 165.657 81.9203 165.446 82.1925C165.236 82.4646 164.97 82.6897 164.667 82.8532C164.365 83.0168 164.031 83.1152 163.688 83.1422L141.903 84.8553L116.297 73.395L119.355 67.5892L141.584 74.6285L164.643 72.9872Z" fill="#EAEFFF"/>
<path d="M174.915 67.4859L163.797 66.3306L160.916 70.0705L157.561 71.8578C156.14 72.6141 154.968 73.7636 154.184 75.1685C153.4 76.5735 153.037 78.1747 153.139 79.7804L157.061 102.593C157.061 102.593 153.748 110.052 156.026 111.909C158.303 113.766 154.265 118.363 159.131 116.049C163.997 113.735 185.008 116.394 185.008 116.394L180.523 103.628L183.873 91.084L184.242 80.5657C184.311 78.6003 183.728 76.6672 182.583 75.0678C181.439 73.4685 179.797 72.2927 177.915 71.7238L177.446 71.5822L174.915 67.4859Z" fill="#EAEFFF"/>
<path d="M171.528 77.6789L177.63 73.5322C177.915 73.3388 178.237 73.207 178.575 73.1453C178.914 73.0836 179.262 73.0934 179.596 73.1741C179.931 73.2548 180.245 73.4045 180.518 73.6137C180.791 73.8229 181.018 74.0869 181.183 74.3889L191.673 93.5581L191.713 121.612L185.164 121.202L182.475 98.0404L171.528 77.6789Z" fill="#EAEFFF"/>
<path d="M121.459 67.0643H120.44V39.1538C120.44 37.0325 120.022 34.9319 119.21 32.972C118.398 31.0122 117.209 29.2314 115.708 27.7314C114.208 26.2313 112.428 25.0414 110.468 24.2296C108.508 23.4178 106.407 23 104.286 23H45.1539C43.0325 23 40.9319 23.4178 38.972 24.2296C37.0122 25.0414 35.2314 26.2313 33.7314 27.7313C32.2313 29.2313 31.0415 31.0121 30.2296 32.972C29.4178 34.9319 29 37.0324 29 39.1538V192.273C29 194.394 29.4178 196.495 30.2296 198.455C31.0414 200.415 32.2313 202.195 33.7313 203.695C35.2314 205.195 37.0121 206.385 38.972 207.197C40.9319 208.009 43.0325 208.427 45.1538 208.427H104.286C106.407 208.427 108.508 208.009 110.468 207.197C112.428 206.385 114.208 205.195 115.708 203.695C117.208 202.195 118.398 200.415 119.21 198.455C120.022 196.495 120.44 194.394 120.44 192.273V86.9315H121.459V67.0643Z" fill="#3F3D56"/>
<path d="M117.001 39.2648V192.161C117.001 193.745 116.689 195.314 116.083 196.778C115.476 198.241 114.588 199.571 113.467 200.691C112.347 201.811 111.017 202.699 109.553 203.305C108.089 203.911 106.52 204.223 104.936 204.222H45.5191C43.9352 204.222 42.3667 203.91 40.9034 203.304C39.44 202.698 38.1104 201.81 36.9904 200.69C35.8704 199.57 34.9819 198.24 34.3758 196.777C33.7698 195.313 33.4579 193.745 33.458 192.161V39.2648C33.4579 37.6809 33.7698 36.1125 34.3758 34.6491C34.9819 33.1858 35.8704 31.8561 36.9904 30.7361C38.1104 29.6161 39.44 28.7277 40.9034 28.1216C42.3667 27.5156 43.9352 27.2037 45.5191 27.2038H52.7296C52.3756 28.0741 52.241 29.018 52.3374 29.9526C52.4339 30.8871 52.7585 31.7836 53.2827 32.5633C53.8069 33.343 54.5147 33.9819 55.3438 34.4238C56.1728 34.8658 57.0978 35.0973 58.0373 35.0979H91.9125C92.8526 35.0988 93.7784 34.8683 94.6083 34.4267C95.4382 33.9852 96.1467 33.3462 96.6713 32.5661C97.1958 31.786 97.5203 30.8887 97.6161 29.9536C97.7118 29.0184 97.576 28.074 97.2204 27.2038H104.936C106.52 27.2032 108.089 27.5148 109.553 28.1206C111.017 28.7265 112.347 29.6148 113.467 30.7348C114.588 31.8549 115.476 33.1847 116.083 34.6483C116.689 36.1119 117.001 37.6806 117.001 39.2648Z" fill="white"/>
<path d="M98.5187 118.718H46.2931C45.3784 118.717 44.5014 118.353 43.8545 117.706C43.2077 117.059 42.8439 116.182 42.8429 115.268V113.55C42.8439 112.635 43.2077 111.758 43.8545 111.112C44.5014 110.465 45.3784 110.101 46.2931 110.1H98.5187C99.4335 110.101 100.31 110.465 100.957 111.112C101.604 111.758 101.968 112.635 101.969 113.55V115.268C101.968 116.182 101.604 117.059 100.957 117.706C100.31 118.353 99.4335 118.717 98.5187 118.718Z" fill="#F0F0F0"/>
<path d="M101.131 115.407H48.9057C47.9452 115.406 47.0244 115.024 46.3452 114.345C45.666 113.665 45.284 112.745 45.2829 111.784V110.067C45.284 109.106 45.666 108.185 46.3452 107.506C47.0244 106.827 47.9452 106.445 48.9057 106.444H101.131C102.092 106.445 103.013 106.827 103.692 107.506C104.371 108.185 104.753 109.106 104.754 110.067V111.784C104.753 112.745 104.371 113.665 103.692 114.345C103.013 115.024 102.092 115.406 101.131 115.407ZM48.9057 107.134C48.1281 107.135 47.3827 107.444 46.8329 107.994C46.2831 108.544 45.9738 109.289 45.973 110.067V111.784C45.9738 112.562 46.2831 113.307 46.8329 113.857C47.3827 114.407 48.1281 114.716 48.9057 114.717H101.131C101.909 114.716 102.654 114.407 103.204 113.857C103.754 113.307 104.063 112.562 104.064 111.784V110.067C104.063 109.289 103.754 108.544 103.204 107.994C102.654 107.444 101.909 107.135 101.131 107.134H48.9057Z" fill="#3F3D56"/>
<path d="M51.1052 114.21C52.8202 114.21 54.2105 112.82 54.2105 111.105C54.2105 109.39 52.8202 108 51.1052 108C49.3903 108 48 109.39 48 111.105C48 112.82 49.3903 114.21 51.1052 114.21Z" fill="#BEAE72"/>
<path d="M63.1052 114.01C64.8202 114.01 66.2105 112.62 66.2105 110.905C66.2105 109.19 64.8202 107.8 63.1052 107.8C61.3903 107.8 60 109.19 60 110.905C60 112.62 61.3903 114.01 63.1052 114.01Z" fill="#BEAE72"/>
<path d="M75.1052 114.01C76.8202 114.01 78.2105 112.62 78.2105 110.905C78.2105 109.19 76.8202 107.8 75.1052 107.8C73.3903 107.8 72 109.19 72 110.905C72 112.62 73.3903 114.01 75.1052 114.01Z" fill="#BEAE72"/>
<path d="M87.1052 114.01C88.8202 114.01 90.2105 112.62 90.2105 110.905C90.2105 109.19 88.8202 107.8 87.1052 107.8C85.3903 107.8 84 109.19 84 110.905C84 112.62 85.3903 114.01 87.1052 114.01Z" fill="#BEAE72"/>
<path d="M117.001 39.2648V72.5219C111.717 73.9121 106.184 74.0716 100.828 72.9881C95.4725 71.9046 90.4367 69.6069 86.1083 66.2719C81.7798 62.9368 78.2742 58.6533 75.8609 53.7508C73.4477 48.8484 72.1913 43.4576 72.1883 37.9934C72.1883 37.0181 72.2275 36.0529 72.3058 35.0979H91.9125C92.8526 35.0988 93.7784 34.8683 94.6083 34.4267C95.4382 33.9852 96.1467 33.3462 96.6712 32.5661C97.1958 31.786 97.5203 30.8887 97.616 29.9536C97.7118 29.0184 97.5759 28.074 97.2204 27.2038H104.936C106.52 27.2032 108.089 27.5148 109.553 28.1206C111.017 28.7265 112.347 29.6148 113.467 30.7348C114.588 31.8549 115.476 33.1847 116.083 34.6483C116.689 36.1119 117.001 37.6806 117.001 39.2648Z" fill="#F0F0F0"/>
<path d="M63.48 202.145C63.48 202.846 63.4538 203.538 63.3973 204.222H45.5191C43.9352 204.222 42.3667 203.91 40.9034 203.304C39.44 202.698 38.1104 201.81 36.9904 200.69C35.8704 199.57 34.9819 198.24 34.3758 196.777C33.7698 195.313 33.4579 193.745 33.458 192.161V175.807C37.2055 175.319 41.0138 175.636 44.6292 176.737C48.2446 177.837 51.584 179.695 54.4248 182.187C57.2656 184.679 59.5426 187.748 61.104 191.19C62.6654 194.631 63.4754 198.366 63.48 202.145H63.48Z" fill="#F0F0F0"/>
<path d="M83.7147 151.374H58.9203C58.0056 151.373 57.1285 151.009 56.4817 150.362C55.8349 149.715 55.4711 148.838 55.47 147.924V146.206C55.4711 145.292 55.8349 144.415 56.4817 143.768C57.1285 143.121 58.0056 142.757 58.9203 142.756H83.7147C84.6294 142.757 85.5064 143.121 86.1532 143.768C86.8 144.415 87.1639 145.292 87.1649 146.206V147.924C87.1639 148.838 86.8 149.715 86.1532 150.362C85.5064 151.009 84.6294 151.373 83.7147 151.374Z" fill="#EAEFFF"/>
<path d="M86.3272 148.063H61.5328C60.5723 148.062 59.6514 147.68 58.9723 147.001C58.2931 146.322 57.9111 145.401 57.91 144.44V142.723C57.9111 141.763 58.2931 140.842 58.9723 140.163C59.6514 139.483 60.5723 139.101 61.5328 139.1H86.3272C87.2877 139.101 88.2085 139.483 88.8877 140.163C89.5668 140.842 89.9489 141.763 89.95 142.723V144.44C89.9489 145.401 89.5668 146.322 88.8877 147.001C88.2085 147.68 87.2877 148.062 86.3272 148.063ZM61.5328 139.79C60.7552 139.791 60.0098 140.1 59.46 140.65C58.9102 141.2 58.6009 141.945 58.6 142.723V144.44C58.6009 145.218 58.9102 145.963 59.46 146.513C60.0098 147.063 60.7552 147.372 61.5328 147.373H86.3272C87.1047 147.372 87.8502 147.063 88.4 146.513C88.9498 145.963 89.2591 145.218 89.2599 144.44V142.723C89.2591 141.945 88.9498 141.2 88.4 140.65C87.8502 140.1 87.1047 139.791 86.3272 139.79H61.5328Z" fill="#3F3D56"/>
<defs>
<radialGradient id="paint0_radial_351_6599" cx="0" cy="0" r="1" gradientUnits="userSpaceOnUse" gradientTransform="translate(165.898 55.1119) rotate(52.125) scale(9.63506 9.63506)">
<stop stop-color="#F8ABB6"/>
<stop offset="1" stop-color="#E28693"/>
</radialGradient>
</defs>
</svg>
