<svg width="75" height="75" viewBox="0 0 75 75" fill="none" xmlns="http://www.w3.org/2000/svg">
<path d="M56.25 9.37503L59.625 9.37503C62.4534 9.37503 63.8676 9.37503 64.7463 10.2537C65.625 11.1324 65.625 12.5466 65.625 15.375L65.625 27.125C65.625 27.5964 65.625 27.8321 65.4786 27.9786C65.3321 28.125 65.0964 28.125 64.625 28.125L46.875 28.125M56.25 9.37503L52.875 9.37503C50.0466 9.37503 48.6324 9.37503 47.7537 10.2537C46.875 11.1324 46.875 12.5466 46.875 15.375L46.875 28.125M56.25 9.37503L13.375 9.37503C11.4894 9.37503 10.5466 9.37503 9.96078 9.96081C9.375 10.5466 9.375 11.4894 9.375 13.375L9.375 65.625L18.75 62.5L28.125 65.625L37.5 62.5L46.875 65.625L46.875 28.125" stroke="white" stroke-width="2"/>
<path d="M25 34.375H21.875" stroke="white" stroke-width="2" stroke-linecap="round"/>
<path d="M21.875 46.875L31.25 46.875" stroke="white" stroke-width="2" stroke-linecap="round"/>
<path d="M21.6665 19.3333L21.1362 19.8636L20.6058 19.3333L21.1362 18.803L21.6665 19.3333ZM24.9998 27.4166C24.5856 27.4166 24.2498 27.0808 24.2498 26.6666C24.2498 26.2524 24.5856 25.9166 24.9998 25.9166L24.9998 27.4166ZM24.4695 23.197L21.1362 19.8636L22.1968 18.803L25.5302 22.1363L24.4695 23.197ZM21.1362 18.803L24.4695 15.4696L25.5302 16.5303L22.1968 19.8636L21.1362 18.803ZM21.6665 18.5833L28.6665 18.5833L28.6665 20.0833L21.6665 20.0833L21.6665 18.5833ZM28.6665 27.4166L24.9998 27.4166L24.9998 25.9166L28.6665 25.9166L28.6665 27.4166ZM33.0832 23C33.0832 25.4392 31.1058 27.4166 28.6665 27.4166L28.6665 25.9166C30.2773 25.9166 31.5832 24.6108 31.5832 23L33.0832 23ZM28.6665 18.5833C31.1058 18.5833 33.0832 20.5607 33.0832 23L31.5832 23C31.5832 21.3891 30.2773 20.0833 28.6665 20.0833L28.6665 18.5833Z" fill="white"/>
</svg>
