<svg width="75" height="75" viewBox="0 0 75 75" fill="none" xmlns="http://www.w3.org/2000/svg">
<path d="M56.25 9.37503L59.625 9.37503C62.4534 9.37503 63.8676 9.37503 64.7463 10.2537C65.625 11.1324 65.625 12.5466 65.625 15.375L65.625 27.125C65.625 27.5964 65.625 27.8321 65.4786 27.9786C65.3321 28.125 65.0964 28.125 64.625 28.125L46.875 28.125M56.25 9.37503L52.875 9.37503C50.0466 9.37503 48.6324 9.37503 47.7537 10.2537C46.875 11.1324 46.875 12.5466 46.875 15.375L46.875 28.125M56.25 9.37503L13.375 9.37503C11.4894 9.37503 10.5466 9.37503 9.96078 9.96081C9.375 10.5466 9.375 11.4894 9.375 13.375L9.375 65.625L18.75 62.5L28.125 65.625L37.5 62.5L46.875 65.625L46.875 28.125" stroke="white" stroke-width="2"/>
<path d="M21.875 21.875L34.375 21.875" stroke="white" stroke-width="2" stroke-linecap="round"/>
<path d="M25 34.375H21.875" stroke="white" stroke-width="2" stroke-linecap="round"/>
<path d="M21.875 46.875L31.25 46.875" stroke="white" stroke-width="2" stroke-linecap="round"/>
</svg>
