<svg width="600" height="870" viewBox="0 0 600 870" fill="none" xmlns="http://www.w3.org/2000/svg">
<g filter="url(#filter0_f_4132_30778)">
<path fill-rule="evenodd" clip-rule="evenodd" d="M0 819.226C330.72 771.999 577.425 584.533 574.903 363.362C572.407 144.474 326.619 -35.8434 0 -78V819.226Z" fill="#008B99"/>
</g>
<path fill-rule="evenodd" clip-rule="evenodd" d="M0 869.072C343.208 827.931 602.488 636.635 599.903 409.926C597.344 185.488 338.997 1.6004 0 -34.375V869.072Z" fill="#C8E9F2"/>
<path d="M92.3242 603.742L134.671 603.536L177.018 603.458L261.72 603.312L346.422 603.458L388.768 603.527L431.115 603.742L388.768 603.948L346.422 604.025L261.72 604.171L177.018 604.025L134.671 603.948L92.3242 603.742Z" fill="#263238"/>
<path d="M260.783 250.078H104.785C102.694 250.096 100.626 250.526 98.7005 251.343C96.775 252.161 95.0295 253.349 93.5637 254.842C92.0978 256.334 90.9404 258.1 90.1574 260.04C89.3745 261.979 88.9814 264.054 89.0007 266.146V587.332C88.9663 591.555 90.6093 595.618 93.5688 598.631C96.5282 601.644 100.562 603.359 104.785 603.4H260.783C265.008 603.361 269.044 601.647 272.005 598.634C274.967 595.621 276.611 591.556 276.576 587.332V266.146C276.595 264.054 276.2 261.979 275.417 260.039C274.633 258.099 273.474 256.333 272.008 254.841C270.541 253.349 268.795 252.16 266.869 251.343C264.943 250.526 262.875 250.096 260.783 250.078ZM266.718 577.361C266.718 585.82 260.388 592.656 252.582 592.656H113.012C105.189 592.656 98.8595 585.786 98.8595 577.361V278.324C98.8595 261.148 105.189 260.289 113.012 260.289H140.966C142.589 260.289 143.92 262.135 143.92 264.42V265.407C143.92 270.775 146.857 270.792 150.464 270.792H215.113C218.746 270.792 221.657 270.792 221.657 265.407V264.394C221.657 262.11 222.963 260.263 224.62 260.263H252.582C260.388 260.263 266.718 262.548 266.718 278.298V577.361Z" fill="#455A64"/>
<path d="M191.609 264.068H173.97C173.68 264.068 173.403 263.953 173.198 263.749C172.994 263.544 172.879 263.267 172.879 262.977C172.879 262.688 172.994 262.411 173.198 262.206C173.403 262.002 173.68 261.887 173.97 261.887H191.609C191.898 261.887 192.176 262.002 192.38 262.206C192.585 262.411 192.7 262.688 192.7 262.977C192.7 263.267 192.585 263.544 192.38 263.749C192.176 263.953 191.898 264.068 191.609 264.068Z" fill="#263238"/>
<path d="M266.718 278.322V577.36C266.718 585.819 260.388 592.654 252.582 592.654H113.012C105.189 592.654 98.8594 585.784 98.8594 577.36V278.322C98.8594 261.146 105.189 260.287 113.012 260.287H140.966C142.589 260.287 143.92 262.134 143.92 264.418V265.406C143.92 270.773 146.857 270.79 150.464 270.79H215.113C218.746 270.79 221.657 270.79 221.657 265.406V264.392C221.657 262.108 222.962 260.262 224.62 260.262H252.582C260.388 260.262 266.718 262.529 266.718 278.322Z" fill="white"/>
<path d="M262.011 262.867H221.863C222.301 261.338 223.358 260.291 224.611 260.291H252.582C256.206 260.256 259.504 260.754 262.011 262.867Z" fill="#DBDBDB"/>
<path d="M98.8594 562.624V566.608H112.763V562.624H98.8594ZM266.709 316.393L221.537 364.279H200.746V324.775H208.999V320.764H196.769V364.322H174.244V270.766H166.248V298.788H98.8594V306.774H166.248V364.313H100.981V380.02H98.8594V384.022H100.972V443.442L112.995 470.923H98.8594V478.909H116.482L125.928 500.379C120.107 502.903 115.297 507.301 112.263 512.873C109.229 518.445 108.145 524.871 109.184 531.13C110.222 537.389 113.324 543.122 117.995 547.415C122.666 551.709 128.639 554.317 134.963 554.826L154.5 586.756L148.6 592.655H167.493L143.92 554.156C150.126 552.649 155.648 549.104 159.601 544.087C163.555 539.071 165.711 532.873 165.724 526.486C165.714 523.028 165.068 519.602 163.818 516.378L219.639 489.85H266.735V481.864H244.406L197.611 430.998H266.743V427.004H193.875L143.551 372.257H224.981L252.462 343.058L266.675 357.271V345.995L257.958 337.287L266.675 328.029L266.709 316.393ZM137.196 546.968C133.145 546.968 129.185 545.767 125.816 543.516C122.448 541.266 119.823 538.067 118.273 534.324C116.722 530.582 116.317 526.463 117.107 522.49C117.897 518.517 119.848 514.868 122.713 512.003C125.577 509.139 129.227 507.188 133.2 506.398C137.173 505.607 141.291 506.013 145.034 507.563C148.776 509.113 151.975 511.739 154.226 515.107C156.476 518.475 157.678 522.435 157.678 526.486C157.673 531.917 155.514 537.124 151.673 540.964C147.833 544.804 142.626 546.964 137.196 546.968ZM233.517 481.864H217.81L159.971 509.345C156.955 505.339 152.936 502.201 148.318 500.248C143.7 498.295 138.649 497.597 133.675 498.223L108.959 441.724V372.257H132.687L233.517 481.864ZM239.46 592.647H245.119L266.709 571.048V565.389L239.46 592.647Z" fill="#EBEBEB"/>
<path d="M127.414 378.32H115.803V389.931H127.414V378.32Z" fill="#DBDBDB"/>
<path d="M236.488 422.855V400.424H228.33V391.055H213.971V422.855H236.488Z" fill="#DBDBDB"/>
<path d="M196.649 270.766V293.326H184.488V279.585H177.91V270.766H196.649Z" fill="#DBDBDB"/>
<path d="M266.709 278.315V286.095H256.566V266.523H264.733C266.013 269.203 266.709 272.99 266.709 278.315Z" fill="#DBDBDB"/>
<path d="M203.914 360.889V344.211H235.165L218.282 361.095L203.914 360.889Z" fill="#DBDBDB"/>
<path d="M193.619 345.395H177.92V361.093H193.619V345.395Z" fill="#DBDBDB"/>
<path d="M162.494 309.902H143.584V327.293H162.494V309.902Z" fill="#DBDBDB"/>
<path d="M162.495 330.711V361.095H139.368L124.623 346.341V330.711H162.495Z" fill="#DBDBDB"/>
<path d="M120.45 349.695L132.061 361.315H101.059V349.695H120.45Z" fill="#DBDBDB"/>
<path d="M118.783 496.482H98.8594V482.492H113.15L118.783 496.482Z" fill="#DBDBDB"/>
<path d="M113.364 550.403V557.093H98.8594V527.207H102.844C103.933 535.823 107.6 543.908 113.364 550.403Z" fill="#DBDBDB"/>
<path d="M182.806 492.35L170.688 466.105H155.848L130.574 477.828L137.195 492.264C146.189 492.24 154.83 495.764 161.241 502.071L182.806 492.35Z" fill="#DBDBDB"/>
<path d="M266.709 459.656V477.09H247.704L231.662 459.656H266.709Z" fill="#EBEBEB"/>
<path d="M147.312 585.295L140.356 592.655H113.012C111.997 592.653 110.986 592.535 109.998 592.303V584.016H121.824V565.681L130.729 558.184L147.312 585.295Z" fill="#EBEBEB"/>
<path d="M203.605 554.519L179.628 529.52L170.43 536.708C169.081 541.073 166.884 545.129 163.965 548.643C161.045 552.158 157.461 555.062 153.418 557.19L173.479 589.961L203.605 554.519Z" fill="#DBDBDB"/>
<path d="M177.48 518.501L219.612 497.676H240.627V534.303L207.864 550.482L177.48 518.501Z" fill="#DBDBDB"/>
<path d="M266.692 578.039C266.4 585.433 261.265 591.436 254.669 592.492H252.273L266.692 578.039Z" fill="#DBDBDB"/>
<path d="M115.803 394.781V440.821L128.65 472.244L152.095 460.633H206.757L145.457 394.781H115.803Z" fill="#EBEBEB"/>
<path d="M249.146 328.93H203.914V340.266H238.454L249.146 328.93Z" fill="#DBDBDB"/>
<path d="M106.941 467.118H98.8594V448.414L106.941 467.118Z" fill="#DBDBDB"/>
<path d="M266.708 497.676H246.449V521.636H266.708V497.676Z" fill="#DBDBDB"/>
<path d="M266.708 525.363H246.449V533.771H266.708V525.363Z" fill="#DBDBDB"/>
<path d="M241.41 584.549L233.303 592.656H180.041L208.235 558.219L241.41 584.549Z" fill="#DBDBDB"/>
<path d="M244.312 580.581L257.992 567.45L241.401 553.005V540.012L212.15 554.912L244.312 580.581Z" fill="#EBEBEB"/>
<path d="M266.708 537.488V557.859L261.289 562.96L246.449 550.482V537.488H266.708Z" fill="#DBDBDB"/>
<path d="M104.073 571.177V589.211C102.412 587.717 101.089 585.887 100.19 583.842C99.2912 581.797 98.8379 579.585 98.8602 577.351V571.168L104.073 571.177Z" fill="#DBDBDB"/>
<path d="M117.039 573.066H109.988V580.117H117.039V573.066Z" fill="#DBDBDB"/>
<path d="M161.284 270.765V293.953H116.584V267.408L124.313 260.254H140.973C142.588 260.254 143.911 262.109 143.911 264.393V265.381C143.911 270.74 146.856 270.765 150.454 270.765H161.284Z" fill="#DBDBDB"/>
<path d="M112.772 279.73H98.8594V293.986H112.772V279.73Z" fill="#EBEBEB"/>
<path d="M112.772 268.078V276.048H98.9023C98.9462 273.356 99.3183 270.68 100.01 268.078H112.772Z" fill="#DBDBDB"/>
<path d="M120.139 260.254L115.227 264.866H101.375C103.951 260.572 108.185 260.254 113.012 260.254H120.139Z" fill="#DBDBDB"/>
<path d="M209.342 435.84L228.33 455.781H246.45V435.84H209.342Z" fill="#DBDBDB"/>
<path d="M266.708 446.609H250.211V455.781H266.708V446.609Z" fill="#DBDBDB"/>
<path d="M259.915 435.84H250.211V444.17H259.915V435.84Z" fill="#EBEBEB"/>
<path d="M266.708 435.832H262.328V444.171H266.708V435.832Z" fill="#DBDBDB"/>
<path d="M176.33 466.105H206.757V480.662L187.305 489.49L176.33 466.105Z" fill="#DBDBDB"/>
<path d="M150.794 528.256C151.712 520.766 146.385 513.95 138.895 513.032C131.405 512.113 124.589 517.441 123.671 524.93C122.752 532.42 128.08 539.237 135.57 540.155C143.059 541.073 149.876 535.746 150.794 528.256Z" fill="#EBEBEB"/>
<path d="M106.168 309.902H98.8594V320.397H106.168V309.902Z" fill="#DBDBDB"/>
<path d="M120.114 345.902V309.91H108.959V338.851H101.066V345.902H120.114Z" fill="#DBDBDB"/>
<path d="M140.408 309.902H124.623V326.331H140.408V309.902Z" fill="#EBEBEB"/>
<path d="M106.168 322.414H98.8594V335.682H106.168V322.414Z" fill="#DBDBDB"/>
<path d="M263.351 400.426H239.889V422.857H263.351V400.426Z" fill="#EBEBEB"/>
<path d="M154.234 376.266L178.71 402.897H209.42V376.266H154.234Z" fill="#DBDBDB"/>
<path d="M182.195 405.973L197.722 422.856H209.342V405.973H182.195Z" fill="#EBEBEB"/>
<path d="M228.33 376.266H213.971V387.387H228.33V376.266Z" fill="#DBDBDB"/>
<path d="M263.352 386.924V361.916L251.999 349.695L232.221 370.916V395.185H255.674V386.924H263.352Z" fill="#EBEBEB"/>
<path d="M266.708 334.289V340.996L263.471 337.827L266.708 334.289Z" fill="#DBDBDB"/>
<path d="M266.708 289.746V310.366L253.088 325.326H235.156V289.746H266.708Z" fill="#DBDBDB"/>
<path d="M230.993 302.773H213.551V325.325H230.993V302.773Z" fill="#EBEBEB"/>
<path d="M253.132 266.522V286.094H230.993V299.937H213.551V270.738H215.114C218.472 270.738 221.211 270.738 221.606 266.496L253.132 266.522Z" fill="#EBEBEB"/>
<path d="M211.291 270.766H198.77V285.623H211.291V270.766Z" fill="#DBDBDB"/>
<path d="M211.301 295.758H177.92V312.169H211.301V295.758Z" fill="#DBDBDB"/>
<path d="M211.299 287.992H198.77V293.317H211.299V287.992Z" fill="#DBDBDB"/>
<path d="M193.619 342.261H184.49L177.92 336.017V317.871H193.619V342.261Z" fill="#DBDBDB"/>
<path d="M136.139 266.977L135.873 267.243L135.718 267.398C135.377 267.055 134.972 266.782 134.525 266.596C134.079 266.41 133.6 266.315 133.116 266.315C132.632 266.315 132.153 266.41 131.707 266.596C131.26 266.782 130.855 267.055 130.514 267.398C130.461 267.354 130.412 267.305 130.368 267.252L130.102 266.986C130.213 266.891 130.325 266.779 130.445 266.685C130.688 266.488 130.953 266.321 131.235 266.187C131.564 266.015 131.917 265.896 132.283 265.835C132.455 265.835 132.626 265.783 132.807 265.758C132.987 265.732 133.253 265.758 133.262 265.758C133.27 265.758 133.502 265.758 133.614 265.758C133.956 265.783 134.294 265.852 134.619 265.964C134.845 266.047 135.063 266.151 135.271 266.273C135.493 266.393 135.7 266.537 135.89 266.702L136.173 266.96L136.139 266.977Z" fill="#A6A6A6"/>
<path d="M131.364 268.248C131.227 268.102 131.089 267.964 130.943 267.827C131.405 267.359 132.009 267.057 132.661 266.968C133.128 266.901 133.603 266.944 134.051 267.093C134.498 267.242 134.904 267.493 135.237 267.827L134.808 268.256C134.584 268.028 134.316 267.847 134.022 267.723C133.727 267.6 133.41 267.536 133.09 267.535C132.443 267.535 131.823 267.791 131.364 268.248Z" fill="#A6A6A6"/>
<path d="M134.438 268.676L134.008 269.097C133.782 268.866 133.473 268.733 133.15 268.728C132.826 268.734 132.518 268.867 132.291 269.097L131.861 268.676C132.207 268.343 132.669 268.156 133.15 268.156C133.63 268.156 134.092 268.343 134.438 268.676Z" fill="#A6A6A6"/>
<path d="M133.501 269.484C133.501 269.561 133.479 269.635 133.436 269.699C133.394 269.762 133.333 269.812 133.263 269.841C133.192 269.87 133.115 269.878 133.04 269.863C132.965 269.848 132.896 269.811 132.842 269.757C132.788 269.703 132.751 269.634 132.736 269.56C132.721 269.485 132.729 269.407 132.758 269.336C132.787 269.266 132.837 269.205 132.9 269.163C132.964 269.12 133.039 269.098 133.115 269.098C133.166 269.098 133.216 269.108 133.263 269.127C133.31 269.146 133.352 269.175 133.388 269.211C133.424 269.247 133.453 269.289 133.472 269.336C133.491 269.383 133.501 269.433 133.501 269.484Z" fill="#A6A6A6"/>
<path d="M110.917 268.913C111.534 268.913 112.034 268.413 112.034 267.796C112.034 267.18 111.534 266.68 110.917 266.68C110.301 266.68 109.801 267.18 109.801 267.796C109.801 268.413 110.301 268.913 110.917 268.913Z" fill="#A6A6A6"/>
<path d="M113.305 267.796C113.305 267.575 113.37 267.359 113.493 267.176C113.616 266.992 113.79 266.849 113.994 266.765C114.198 266.68 114.422 266.658 114.639 266.701C114.855 266.744 115.054 266.851 115.211 267.007C115.367 267.163 115.473 267.362 115.516 267.578C115.559 267.795 115.537 268.019 115.453 268.223C115.368 268.427 115.225 268.602 115.041 268.724C114.858 268.847 114.642 268.913 114.421 268.913C114.125 268.913 113.841 268.795 113.632 268.586C113.422 268.376 113.305 268.092 113.305 267.796Z" fill="#A6A6A6"/>
<path d="M117.925 268.913C118.542 268.913 119.041 268.413 119.041 267.796C119.041 267.18 118.542 266.68 117.925 266.68C117.308 266.68 116.809 267.18 116.809 267.796C116.809 268.413 117.308 268.913 117.925 268.913Z" fill="#A6A6A6"/>
<path d="M120.312 267.796C120.312 267.575 120.378 267.359 120.501 267.176C120.623 266.992 120.798 266.849 121.002 266.765C121.206 266.68 121.43 266.658 121.647 266.701C121.863 266.744 122.062 266.851 122.218 267.007C122.374 267.163 122.481 267.362 122.524 267.578C122.567 267.795 122.545 268.019 122.46 268.223C122.376 268.427 122.233 268.602 122.049 268.724C121.866 268.847 121.65 268.913 121.429 268.913C121.133 268.913 120.849 268.795 120.639 268.586C120.43 268.376 120.313 268.092 120.312 267.796Z" fill="#A6A6A6"/>
<path d="M123.816 267.796C123.816 267.575 123.882 267.359 124.005 267.176C124.127 266.992 124.302 266.849 124.506 266.765C124.71 266.68 124.934 266.658 125.151 266.701C125.367 266.744 125.566 266.851 125.722 267.007C125.878 267.163 125.985 267.362 126.028 267.578C126.071 267.795 126.049 268.019 125.964 268.223C125.88 268.427 125.737 268.602 125.553 268.724C125.369 268.847 125.154 268.913 124.933 268.913C124.637 268.913 124.353 268.795 124.143 268.586C123.934 268.376 123.816 268.092 123.816 267.796Z" fill="#A6A6A6"/>
<path d="M253.895 266.258H245.299V269.994H253.895V266.258Z" fill="#A6A6A6"/>
<path d="M254.101 270.208H245.084V266.043H254.101V270.208ZM245.513 269.779H253.672V266.472H245.513V269.779Z" fill="white"/>
<path d="M251.654 266.738H245.814V269.512H251.654V266.738Z" fill="#A6A6A6"/>
<path d="M254.934 267.004H254.127V269.245H254.934V267.004Z" fill="#A6A6A6"/>
<path d="M158.924 324.897C158.168 317.382 152.99 309.902 143.895 309.902C134.801 309.902 129.639 317.382 128.883 324.897C127.75 336.482 135.556 347.002 143.895 356.586C152.26 347.002 160.083 336.482 158.924 324.897ZM143.895 333.236C142.271 333.229 140.686 332.741 139.339 331.834C137.993 330.928 136.944 329.642 136.327 328.14C135.71 326.638 135.552 324.988 135.872 323.396C136.193 321.804 136.977 320.343 138.127 319.197C139.277 318.05 140.741 317.27 142.333 316.955C143.926 316.64 145.577 316.803 147.076 317.425C148.576 318.047 149.858 319.099 150.761 320.448C151.664 321.798 152.146 323.385 152.148 325.008C152.15 326.092 151.938 327.165 151.524 328.165C151.11 329.166 150.501 330.075 149.734 330.84C148.967 331.605 148.056 332.21 147.054 332.621C146.052 333.032 144.978 333.241 143.895 333.236Z" fill="#FFC727"/>
<path d="M170.741 153.44C169.051 136.68 157.47 119.996 137.132 119.996C116.795 119.996 105.253 136.68 103.563 153.44C101.027 179.279 118.485 202.744 137.132 224.12C155.838 202.744 173.333 179.279 170.741 153.44ZM137.132 172.039C133.501 172.024 129.956 170.936 126.945 168.914C123.933 166.891 121.589 164.024 120.209 160.674C118.829 157.325 118.475 153.642 119.191 150.092C119.908 146.542 121.662 143.283 124.234 140.726C126.805 138.169 130.078 136.43 133.64 135.726C137.202 135.023 140.893 135.388 144.247 136.774C147.601 138.161 150.468 140.508 152.487 143.518C154.505 146.528 155.584 150.067 155.588 153.689C155.593 156.105 155.119 158.498 154.193 160.73C153.266 162.963 151.906 164.99 150.19 166.696C148.475 168.402 146.438 169.752 144.197 170.669C141.956 171.586 139.555 172.052 137.132 172.039Z" fill="#FFC727"/>
<path d="M266.718 523.367V577.359C266.718 585.818 260.388 592.654 252.582 592.654H113.012C105.189 592.654 98.8594 585.784 98.8594 577.359V523.367H266.718Z" fill="white"/>
<path d="M137.633 542.065C137.117 536.955 133.588 531.871 127.405 531.871C121.221 531.871 117.717 536.955 117.202 542.065C116.429 549.94 121.737 557.094 127.405 563.612C133.09 557.094 138.414 549.94 137.633 542.065ZM127.405 547.733C126.3 547.729 125.22 547.399 124.303 546.782C123.386 546.166 122.672 545.292 122.252 544.27C121.831 543.248 121.723 542.124 121.941 541.041C122.158 539.958 122.692 538.963 123.475 538.183C124.257 537.403 125.253 536.872 126.337 536.658C127.421 536.443 128.545 536.555 129.565 536.979C130.586 537.402 131.458 538.119 132.071 539.038C132.685 539.957 133.012 541.037 133.012 542.142C133.015 542.878 132.871 543.608 132.59 544.288C132.309 544.969 131.895 545.587 131.374 546.107C130.853 546.626 130.233 547.038 129.552 547.317C128.871 547.596 128.141 547.737 127.405 547.733Z" fill="#FFC727"/>
<path d="M250.934 552.07H147.072V553.711H250.934V552.07Z" fill="#EBEBEB"/>
<path d="M212.142 556.57H147.072V558.211H212.142V556.57Z" fill="#EBEBEB"/>
<path d="M179.612 533.117H147.072V535.487H179.612V533.117Z" fill="#FFC727"/>
<path d="M150.344 539.223L151.547 541.009L153.616 541.601L152.285 543.293L152.371 545.449L150.344 544.702L148.326 545.449L148.403 543.293L147.072 541.601L149.151 541.009L150.344 539.223Z" fill="#FFC727"/>
<path d="M159.592 539.223L160.795 541.009L162.864 541.601L161.533 543.293L161.619 545.449L159.592 544.702L157.574 545.449L157.651 543.293L156.32 541.601L158.399 541.009L159.592 539.223Z" fill="#FFC727"/>
<path d="M168.842 539.223L170.045 541.009L172.114 541.601L170.783 543.293L170.869 545.449L168.842 544.702L166.824 545.449L166.901 543.293L165.57 541.601L167.649 541.009L168.842 539.223Z" fill="#FFC727"/>
<path d="M178.09 539.223L179.293 541.009L181.362 541.601L180.031 543.293L180.108 545.449L178.09 544.702L176.072 545.449L176.149 543.293L174.818 541.601L176.888 541.009L178.09 539.223Z" fill="#FFC727"/>
<path d="M187.34 544.702V539.223L186.138 541.009L184.068 541.601L185.399 543.293L185.322 545.449L187.34 544.702Z" fill="#FFC727"/>
<path d="M187.339 539.223L188.61 540.94C189.04 540.94 190.027 541.301 190.646 541.438L190.852 541.49L190.723 541.662L189.426 543.379V543.259L189.529 545.414V545.706L187.228 544.848H187.374L185.064 545.706V545.414L185.158 543.259V543.379L183.861 541.662L183.732 541.49L183.939 541.438C184.548 541.301 185.553 540.966 185.974 540.94L187.245 539.223H187.339ZM187.339 539.223C186.91 539.85 186.584 540.537 186.163 541.095C185.484 541.318 184.797 541.524 184.11 541.739L184.179 541.516L185.544 543.182C185.544 543.233 185.544 543.233 185.544 543.302L185.484 545.449L185.218 545.26L187.228 544.504H187.305H187.382L189.392 545.26L189.126 545.449L189.065 543.302C189.065 543.233 189.065 543.233 189.065 543.182L190.431 541.516L190.5 541.739C189.821 541.524 189.126 541.318 188.447 541.095C188.035 540.537 187.7 539.85 187.271 539.223H187.339Z" fill="#FFC727"/>
<path d="M161.284 570.945H117.125V582.23H161.284V570.945Z" fill="#FFC727"/>
<path d="M205.322 582.659H170.688V570.516H205.339L205.322 582.659ZM171.529 581.8H204.464V571.374H171.546L171.529 581.8Z" fill="#DBDBDB"/>
<path d="M247.98 582.659H213.354V570.516H247.98V582.659ZM214.178 581.8H247.121V571.374H214.212L214.178 581.8Z" fill="#DBDBDB"/>
<path d="M250.932 515.966C255.656 515.966 259.486 512.137 259.486 507.413C259.486 502.689 255.656 498.859 250.932 498.859C246.208 498.859 242.379 502.689 242.379 507.413C242.379 512.137 246.208 515.966 250.932 515.966Z" fill="#455A64"/>
<path d="M250.752 511.811L249.584 508.376L246.148 507.199L254.144 503.953L250.752 511.811ZM247.978 507.182L250.082 507.904L250.812 510.033L252.916 505.173L247.978 507.182Z" fill="white"/>
<path d="M244.131 298.865H121.437C120.358 298.865 119.291 298.653 118.295 298.24C117.299 297.828 116.394 297.223 115.631 296.461C114.869 295.698 114.264 294.793 113.852 293.797C113.439 292.801 113.227 291.733 113.227 290.655C113.227 288.478 114.092 286.39 115.631 284.85C117.171 283.31 119.259 282.445 121.437 282.445H244.131C246.309 282.445 248.397 283.31 249.937 284.85C251.476 286.39 252.341 288.478 252.341 290.655C252.341 291.733 252.129 292.801 251.716 293.797C251.304 294.793 250.699 295.698 249.937 296.461C249.174 297.223 248.269 297.828 247.273 298.24C246.277 298.653 245.209 298.865 244.131 298.865Z" fill="white"/>
<path d="M244.132 298.867L132.773 299.03H123.498C120.364 299.271 117.006 298.592 114.97 295.999C110.445 290.64 114.412 282.181 121.437 282.258L232.796 282.422H242.079C244.381 282.344 246.828 282.422 248.769 283.856C255.382 288.407 252.204 298.85 244.132 298.876V298.867ZM244.132 298.867C252.11 298.867 255.373 288.433 248.735 283.899C246.785 282.499 244.441 282.413 242.079 282.49H232.796L121.437 282.645C119.923 282.655 118.442 283.094 117.166 283.909C115.89 284.724 114.87 285.883 114.224 287.253C113.578 288.622 113.332 290.146 113.514 291.65C113.696 293.153 114.299 294.574 115.254 295.75C117.255 298.275 120.407 298.884 123.498 298.678H132.773L169.898 298.738L244.132 298.841V298.867Z" fill="#263238"/>
<path d="M125.55 293.963L124.691 294.633L123.068 292.486L122.467 291.696C122.59 291.65 122.706 291.586 122.81 291.507C123.009 291.35 123.166 291.147 123.265 290.914L123.892 291.773L125.55 293.963Z" fill="#263238"/>
<path d="M123.823 288.904C123.544 288.543 123.168 288.269 122.738 288.114C122.309 287.96 121.844 287.931 121.398 288.032C120.953 288.133 120.546 288.358 120.225 288.683C119.903 289.007 119.682 289.417 119.585 289.863C119.489 290.309 119.522 290.774 119.681 291.202C119.84 291.63 120.117 292.004 120.482 292.279C120.846 292.555 121.281 292.721 121.736 292.757C122.191 292.793 122.647 292.699 123.051 292.485C123.162 292.416 123.274 292.348 123.377 292.27C123.568 292.125 123.736 291.951 123.875 291.755C124.17 291.336 124.325 290.834 124.315 290.321C124.306 289.808 124.134 289.312 123.823 288.904ZM122.793 291.48C122.688 291.56 122.573 291.623 122.449 291.669C122.129 291.791 121.776 291.794 121.454 291.678C121.132 291.562 120.862 291.334 120.693 291.037C120.524 290.739 120.467 290.391 120.533 290.055C120.598 289.719 120.781 289.417 121.05 289.205C121.302 289.003 121.614 288.893 121.937 288.892C122.259 288.89 122.573 288.997 122.827 289.196C123.081 289.394 123.26 289.673 123.337 289.986C123.413 290.299 123.382 290.629 123.248 290.922C123.147 291.151 122.991 291.352 122.793 291.506V291.48Z" fill="#263238"/>
<path d="M393.689 131.023V194.363H284.576L274.759 212.381L264.941 194.363H249.785V131.023H393.689Z" fill="white"/>
<path d="M393.69 131.025L394.11 194.364V194.768C394.11 194.768 284.706 195.011 284.577 195.011L285.159 194.671L275.454 212.722L274.807 213.919L274.193 212.803L264.31 194.817L265.022 195.221H249.09V194.364L249.268 131.025V130.41H249.866C285.725 130.41 357.928 130.766 393.819 131.025H393.69ZM393.69 131.025C357.798 131.284 285.644 131.559 249.737 131.623L250.335 131.025L250.513 194.364L249.737 193.588H264.892H265.361L265.604 194.008L275.309 212.059H274.193L284.075 194.073L284.253 193.717H284.657L393.77 193.976L393.35 194.396L393.77 131.057L393.69 131.025Z" fill="#263238"/>
<path d="M397.62 131.023V131.121L397.539 131.218L397.62 131.023Z" fill="white"/>
<path d="M381.446 131.023V131.121L381.365 131.218L381.446 131.023Z" fill="#FFC727"/>
<path d="M287.018 155.789C286.387 149.578 282.166 143.383 274.58 143.383C266.994 143.383 262.805 149.578 262.174 155.789C261.252 165.364 267.722 174.066 274.58 182.072C281.502 174.066 287.972 165.364 287.018 155.789ZM274.58 162.663C273.238 162.656 271.927 162.253 270.814 161.502C269.702 160.752 268.836 159.689 268.327 158.447C267.817 157.205 267.688 155.84 267.953 154.524C268.219 153.209 268.869 152.001 269.82 151.055C270.771 150.108 271.982 149.464 273.299 149.204C274.616 148.945 275.98 149.081 277.219 149.596C278.459 150.112 279.518 150.982 280.263 152.099C281.008 153.215 281.405 154.527 281.405 155.869C281.41 156.766 281.236 157.654 280.894 158.482C280.552 159.31 280.049 160.062 279.414 160.694C278.779 161.326 278.024 161.826 277.194 162.164C276.365 162.502 275.476 162.671 274.58 162.663Z" fill="#FFC727"/>
<path d="M366.547 163.406H300.361V165.396H366.547V163.406Z" fill="#EBEBEB"/>
<path d="M356.147 168.953H300.361V170.943H356.147V168.953Z" fill="#EBEBEB"/>
<path d="M363.28 174.484H300.361V176.474H363.28V174.484Z" fill="#EBEBEB"/>
<path d="M337.935 180.016H300.361V182.005H337.935V180.016Z" fill="#EBEBEB"/>
<path d="M306.508 143.398L308.772 146.763L312.67 147.863L310.179 151.049L310.325 155.109L306.508 153.718L302.707 155.109L302.852 151.049L300.361 147.863L304.259 146.763L306.508 143.398Z" fill="#FFC727"/>
<path d="M323.929 143.398L326.194 146.763L330.092 147.863L327.585 151.049L327.747 155.109L323.929 153.718L320.128 155.109L320.274 151.049L317.783 147.863L321.681 146.763L323.929 143.398Z" fill="#FFC727"/>
<path d="M341.347 143.398L343.612 146.763L347.51 147.863L345.003 151.049L345.165 155.109L341.347 153.718L337.546 155.109L337.692 151.049L335.201 147.863L339.099 146.763L341.347 143.398Z" fill="#FFC727"/>
<path d="M358.769 143.398L361.034 146.763L364.932 147.863L362.425 151.049L362.587 155.109L358.769 153.718L354.968 155.109L355.114 151.049L352.623 147.863L356.521 146.763L358.769 143.398Z" fill="#FFC727"/>
<path d="M376.188 153.718V143.398L373.94 146.763L370.025 147.863L372.532 151.049L372.387 155.109L376.188 153.718Z" fill="#FFC727"/>
<path d="M376.187 143.383L378.581 146.618C379.39 146.618 381.266 147.297 382.431 147.556L382.803 147.653L382.56 148.106L380.118 151.341L380.199 151.13L380.376 155.174V155.724L376.042 154.106H376.317L371.966 155.724V155.174L372.144 151.13L372.225 151.357L369.782 148.122L369.523 147.798L369.912 147.701C371.076 147.443 372.952 146.812 373.761 146.763L376.139 143.528L376.187 143.383ZM376.187 143.383C375.379 144.564 374.764 145.857 373.971 146.909C372.694 147.346 371.4 147.718 370.106 148.122L370.235 147.701L372.855 150.839C372.952 150.936 372.855 150.952 372.855 151.066L372.726 155.125L372.225 154.753L376.026 153.33H376.155H376.301L380.102 154.753L379.6 155.125L379.471 151.066C379.471 150.936 379.471 150.936 379.552 150.839L382.107 147.701L382.253 148.122C380.959 147.718 379.665 147.346 378.371 146.909C377.594 145.857 376.964 144.564 376.155 143.383H376.187Z" fill="#FFC727"/>
<path d="M431.66 479.996H295V364.379L363.319 320.996L431.66 364.379V479.996Z" fill="#FCF288"/>
<path opacity="0.2" d="M431.66 479.996H295V364.379L363.319 320.996L431.66 364.379V479.996Z" fill="black"/>
<path d="M423.947 350.711H302.701V475.491H423.947V350.711Z" fill="#EBEBEB"/>
<path d="M314.526 371.207H413.301V367.215H314.526V371.207Z" fill="#DBDBDB"/>
<path d="M314.526 381.285H413.301V377.293H314.526V381.285Z" fill="#DBDBDB"/>
<path d="M314.526 391.375H413.301V387.383H314.526V391.375Z" fill="#DBDBDB"/>
<path d="M314.526 401.469H413.301V397.476H314.526V401.469Z" fill="#DBDBDB"/>
<path d="M314.526 411.559H413.301V407.566H314.526V411.559Z" fill="#DBDBDB"/>
<path d="M314.526 421.648H413.301V417.656H314.526V421.648Z" fill="#DBDBDB"/>
<path d="M314.526 431.727H413.301V427.734H314.526V431.727Z" fill="#DBDBDB"/>
<path d="M314.526 441.816H413.301V437.824H314.526V441.816Z" fill="#DBDBDB"/>
<path d="M314.526 451.906H413.301V447.914H314.526V451.906Z" fill="#DBDBDB"/>
<path d="M314.526 461.996H413.301V458.004H314.526V461.996Z" fill="#DBDBDB"/>
<path d="M431.66 393.316V479.994H295V393.316C300.869 396.643 306.639 400.134 312.453 403.538C318.267 406.941 324.027 410.475 329.776 414.01C336.146 417.907 342.539 421.86 348.953 425.867L349.16 425.747C349.094 425.747 349.051 425.845 348.996 425.889L363.33 434.855C368.086 431.866 372.875 428.845 377.653 425.889C377.598 425.889 377.554 425.791 377.489 425.747C377.551 425.793 377.621 425.826 377.696 425.845C384.074 421.86 390.47 417.907 396.884 413.988C402.636 410.475 408.403 406.992 414.185 403.538C420.053 400.134 425.791 396.643 431.66 393.316Z" fill="#FCF288"/>
<g opacity="0.2">
<path d="M431.66 393.316C426.14 397.2 420.522 400.952 414.959 404.727C409.396 408.501 403.734 412.199 398.084 415.897C392.193 419.758 386.292 423.583 380.38 427.372L379.845 427.732L364.104 437.779L363.319 438.248L362.555 437.779L346.836 427.721L346.28 427.372C340.353 423.576 334.445 419.744 328.554 415.875C322.925 412.202 317.308 408.486 311.701 404.727C306.137 400.909 300.52 397.2 295 393.316C300.869 396.643 306.639 400.134 312.453 403.538C318.267 406.941 324.027 410.475 329.776 414.01C336.146 417.907 342.539 421.86 348.953 425.867L363.33 434.855C368.086 431.866 372.875 428.845 377.653 425.889C384.03 421.904 390.426 417.951 396.84 414.031C402.593 410.519 408.359 407.035 414.141 403.581C420.053 400.134 425.791 396.643 431.66 393.316Z" fill="black"/>
<path d="M349.149 425.746C349.084 425.746 349.04 425.844 348.986 425.888L346.804 427.721C343.379 430.611 339.866 433.382 336.299 436.065C331.936 439.338 327.496 442.61 323.024 445.741C318.552 448.872 314.014 451.915 309.388 454.871C304.763 457.828 300.116 460.718 295.295 463.369C299.44 459.736 303.749 456.344 308.101 453.039C312.454 449.734 316.926 446.494 321.377 443.374C325.827 440.254 330.409 437.178 335.023 434.222C338.699 431.866 342.441 429.542 346.248 427.371C347.131 426.859 348.015 426.357 348.92 425.866L349.149 425.746Z" fill="black"/>
<path d="M431.333 463.369C426.511 460.718 421.832 457.828 417.239 454.871C412.647 451.915 408.098 448.839 403.582 445.741C399.066 442.643 394.659 439.392 390.306 436.065C386.761 433.382 383.249 430.611 379.845 427.731C379.104 427.121 378.384 426.51 377.664 425.888C377.609 425.888 377.565 425.79 377.5 425.746C377.562 425.792 377.633 425.825 377.707 425.844L380.38 427.371C384.187 429.553 387.907 431.866 391.605 434.222C396.219 437.178 400.735 440.254 405.229 443.374C409.723 446.494 414.152 449.723 418.504 453.039C422.857 456.355 427.188 459.736 431.333 463.369Z" fill="black"/>
</g>
<path d="M423.829 405.082C424.874 396.397 418.681 388.509 409.996 387.464C401.311 386.419 393.423 392.613 392.378 401.298C391.333 409.983 397.527 417.87 406.212 418.915C414.897 419.96 422.784 413.767 423.829 405.082Z" fill="#455A64"/>
<path d="M410.235 394.454V411.471C410.233 411.681 410.19 411.889 410.108 412.083C410.026 412.277 409.907 412.453 409.757 412.601C409.607 412.749 409.43 412.866 409.235 412.945C409.04 413.025 408.831 413.065 408.62 413.063C408.411 413.066 408.203 413.027 408.009 412.948C407.815 412.869 407.639 412.751 407.491 412.603C407.344 412.454 407.227 412.277 407.15 412.083C407.072 411.888 407.034 411.68 407.038 411.471V397.29L405.882 397.955C405.64 398.106 405.36 398.185 405.075 398.184C404.797 398.182 404.524 398.105 404.285 397.964C404.045 397.822 403.848 397.62 403.711 397.377C403.597 397.201 403.52 397.003 403.485 396.797C403.45 396.59 403.457 396.378 403.506 396.174C403.555 395.97 403.645 395.778 403.77 395.61C403.895 395.442 404.054 395.301 404.235 395.195L407.791 393.09C407.791 393.09 407.868 393.09 407.9 393.09C407.933 393.09 407.988 393.036 408.042 393.003C408.097 392.97 408.162 393.003 408.217 393.003C408.256 392.993 408.297 392.993 408.337 393.003C408.401 392.987 408.468 392.987 408.533 393.003H408.849C408.888 393.018 408.931 393.018 408.969 393.003C409.026 392.984 409.087 392.984 409.144 393.003C409.144 393.003 409.231 393.003 409.253 393.003C409.275 393.003 409.373 393.09 409.427 393.09C409.464 393.12 409.504 393.146 409.547 393.166L409.656 393.254C409.722 393.254 409.744 393.341 409.776 393.374C409.813 393.408 409.843 393.448 409.864 393.494L409.984 393.603C409.984 393.603 409.984 393.668 409.984 393.69C410.016 393.735 410.035 393.788 410.038 393.843C410.038 393.897 410.038 393.952 410.104 393.985C410.169 394.017 410.104 394.094 410.104 394.126C410.076 394.193 410.076 394.267 410.104 394.334L410.235 394.454Z" fill="white"/>
<defs>
<filter id="filter0_f_4132_30778" x="-16" y="-94" width="606.922" height="929.227" filterUnits="userSpaceOnUse" color-interpolation-filters="sRGB">
<feFlood flood-opacity="0" result="BackgroundImageFix"/>
<feBlend mode="normal" in="SourceGraphic" in2="BackgroundImageFix" result="shape"/>
<feGaussianBlur stdDeviation="8" result="effect1_foregroundBlur_4132_30778"/>
</filter>
</defs>
</svg>
