<svg width="41" height="40" viewBox="0 0 41 40" fill="none" xmlns="http://www.w3.org/2000/svg">
<g clip-path="url(#clip0_403_13111)">
<path d="M0.992542 34.686C0.92317 34.686 0.92317 34.686 0.92317 34.686C0.708117 34.686 0.5 34.8942 0.5 35.1023C0.5 35.3104 0.708117 35.5185 0.92317 35.5185C0.92317 35.5185 0.92317 35.5185 0.992542 35.5185C0.992542 35.5185 0.992543 35.5185 1.06191 35.5185C1.27003 35.5185 1.48508 35.3104 1.48508 35.1023C1.48508 34.8248 1.27003 34.686 0.992542 34.686Z" fill="white"/>
<path d="M22.7491 31.2175C22.8185 31.0787 22.8879 30.94 23.1029 30.8706C24.4349 30.5931 25.6281 30.1075 26.7519 29.3444C26.8906 29.275 27.1057 29.275 27.2444 29.3444L31.0252 31.7031L32.7803 29.9688L30.3939 26.2227C30.3246 26.0839 30.3246 25.8758 30.3939 25.7371C31.0946 24.6271 31.6565 23.3784 31.9409 22.1297C32.0103 21.991 32.0797 21.8522 32.2947 21.7828L36.6444 20.8116V18.3836L32.2947 17.4124C32.156 17.343 32.0173 17.2736 31.9409 17.0655C31.6635 15.8168 31.1709 14.5681 30.3939 13.4582C30.3246 13.3194 30.3246 13.1113 30.3939 12.9726L32.7803 9.22647L31.0252 7.49217L27.2375 9.85082C27.0988 9.92019 26.8837 9.92019 26.745 9.85082C25.6211 9.1571 24.4279 8.67149 23.096 8.32463C22.9572 8.25526 22.8185 8.18589 22.7422 7.97777L21.7571 3.6767H19.3013L18.3162 7.97777C18.2469 8.11652 18.1775 8.25526 17.9625 8.32463C16.6305 8.60212 15.4373 9.1571 14.3135 9.85082C14.1747 9.92019 13.9597 9.92019 13.8209 9.85082L10.0332 7.49217L8.27809 9.22647L10.6645 12.9726C10.7339 13.1113 10.7339 13.3194 10.6645 13.4582C9.96384 14.5681 9.40192 15.8168 9.1175 17.0655C9.04812 17.2043 8.97875 17.343 8.7637 17.4124L4.41406 18.3836V20.9504L8.7637 21.9216C8.90244 21.991 9.04119 22.0603 9.1175 22.2684C9.39499 23.5865 9.88753 24.7658 10.6645 25.8758C10.7339 26.0145 10.7339 26.2227 10.6645 26.3614L8.27809 30.1075L10.0332 31.8418L13.8209 29.4831C13.9597 29.4138 14.1747 29.4138 14.3135 29.4831C15.4373 30.1769 16.6999 30.7318 17.9625 31.0093C18.1012 31.0787 18.2399 31.1481 18.3162 31.3562L19.3013 35.6573H21.7571L22.7491 31.2175ZM22.8616 19.7413C22.8616 15.5096 16.2247 19.7413 20.5049 19.7413C20.5049 15.5096 24.7852 19.7413 20.5049 19.7413C20.5049 23.973 24.7852 19.7413 20.5049 19.7413C16.294 19.7413 22.8616 23.9036 22.8616 19.7413Z" fill="white"/>
<path d="M0.92317 32.9516C1.13129 32.9516 1.34634 32.7435 1.34634 32.5353V19.7709C1.34634 9.36504 9.90687 0.83226 20.5069 0.83226C20.7151 0.83226 20.9301 0.624143 20.9301 0.416026C20.9301 0.20791 20.722 -0.000206624 20.5069 -0.000206624C9.4837 -0.0695788 0.5 8.81006 0.5 19.7709V32.466C0.5 32.7435 0.708117 32.9516 0.92317 32.9516Z" fill="white"/>
<path d="M40.0782 6.3822C39.8701 6.3822 39.655 6.59032 39.655 6.79844V20.1179C39.655 30.5237 31.0945 38.9871 20.5638 38.9871C20.3557 38.9871 20.1406 39.1952 20.1406 39.4034C20.1406 39.6115 20.3487 39.8196 20.5638 39.8196C25.8985 39.8196 30.8794 37.7384 34.6672 33.9923C38.3855 30.3156 40.4944 25.3208 40.4944 20.1179V6.79844C40.5014 6.59032 40.2932 6.3822 40.0782 6.3822Z" fill="white"/>
<path d="M40.0764 4.6479C40.2151 4.6479 40.2845 4.57852 40.3539 4.50915C40.4233 4.43978 40.4926 4.30103 40.4926 4.23166C40.4926 4.09292 40.4233 4.02355 40.3539 3.95417C40.2845 3.8848 40.1458 3.81543 40.0764 3.81543C39.9376 3.81543 39.8683 3.8848 39.7989 3.95417C39.7295 4.02355 39.6602 4.16229 39.6602 4.23166C39.6602 4.37041 39.7295 4.43978 39.7989 4.50915C39.8683 4.57852 39.9376 4.6479 40.0764 4.6479Z" fill="white"/>
</g>
<defs>
<clipPath id="clip0_403_13111">
<rect width="40" height="39.8196" fill="white" transform="translate(0.5)"/>
</clipPath>
</defs>
</svg>
