<svg width="18" height="19" viewBox="0 0 18 19" fill="none" xmlns="http://www.w3.org/2000/svg">
<path fill-rule="evenodd" clip-rule="evenodd" d="M9.39767 13.8008C10.6216 13.1488 14.25 10.9075 14.25 7.25C14.25 4.35051 11.8995 2 9 2C6.10051 2 3.75 4.35051 3.75 7.25C3.75 10.9075 7.37836 13.1488 8.60232 13.8008C8.85373 13.9348 9.14627 13.9348 9.39767 13.8008ZM9 9.5C10.2426 9.5 11.25 8.49264 11.25 7.25C11.25 6.00736 10.2426 5 9 5C7.75736 5 6.75 6.00736 6.75 7.25C6.75 8.49264 7.75736 9.5 9 9.5Z" fill="#77C7BD"/>
<path d="M13.5466 12.875C14.0074 13.217 14.25 13.605 14.25 14C14.25 14.395 14.0074 14.783 13.5466 15.125C13.0859 15.467 12.4231 15.7511 11.625 15.9486C10.8269 16.146 9.92157 16.25 9 16.25C8.07843 16.25 7.1731 16.146 6.375 15.9486C5.5769 15.7511 4.91415 15.467 4.45337 15.125C3.99258 14.783 3.75 14.395 3.75 14C3.75 13.605 3.99258 13.217 4.45337 12.875" stroke="#77C7BD" stroke-width="2" stroke-linecap="round"/>
</svg>
