<svg xmlns="http://www.w3.org/2000/svg" width="368" height="368" viewBox="0 0 368 368">
  <g id="Group_75838" data-name="Group 75838" transform="translate(-137 -96)">
    <rect id="Rectangle_1" data-name="Rectangle 1" width="368" height="368" transform="translate(137 96)" fill="rgba(242,242,242,0)"/>
    <g id="policy" transform="translate(224.446 134.579)">
      <path id="Path_1861" data-name="Path 1861" d="M676.279,647.6c-.146.165-.293.335-.434.5a55.57,55.57,0,0,0-5.341,7.332c-.127.2-.25.4-.363.6a58.8,58.8,0,0,0-7.5,20.308q-.411,2.435-.618,4.9-.149,1.9-.179,3.8c-.075,5.322.4,11.244-3.034,15.311a10.705,10.705,0,0,1-3.294,2.586,13.768,13.768,0,0,1-2.982,1.128h-10.7c-.538-.08-1.076-.165-1.614-.25-.014,0-.028,0-.042,0l-.109.038-.646.217-.028.009v-.009a.231.231,0,0,0,0-.057.758.758,0,0,0,0-.1v0c0-.094-.009-.184-.009-.278l-.014-.25s0,0,0,0c0-.141-.014-.283-.019-.429-.5-12.315.713-25.041,6.526-35.884a40.091,40.091,0,0,1,7.606-10.008.583.583,0,0,1,.057-.052c6.044-5.766,13.858-9.536,22.106-9.409Q675.96,647.587,676.279,647.6Z" transform="translate(-524.864 -415.32)" fill="#f0f0f0"/>
      <path id="Path_1862" data-name="Path 1862" d="M676.409,647.563a49.956,49.956,0,0,0-21.7,21.764,21.514,21.514,0,0,0-2.2,6.373,12.338,12.338,0,0,0,.8,6.443A25.53,25.53,0,0,1,655.309,688a7.556,7.556,0,0,1-1.875,5.887,19.632,19.632,0,0,1-6.392,4.489c-2.591,1.308-5.3,2.626-7.1,4.991-.218.286-.65-.068-.432-.355,3.13-4.115,8.643-5.013,12.4-8.359a7.65,7.65,0,0,0,2.9-6.077c-.128-2.114-1.139-4.046-1.909-5.979a13.163,13.163,0,0,1-1.021-6.271,19.888,19.888,0,0,1,1.942-6.433,48.461,48.461,0,0,1,8.6-12.469,50.842,50.842,0,0,1,13.8-10.38c.319-.164.511.362.194.524Z" transform="translate(-524.971 -415.016)" fill="#fff"/>
      <path id="Path_1863" data-name="Path 1863" d="M671.055,677.062a7.5,7.5,0,0,1-2.5-9.378c.156-.324.667-.1.511.227a6.94,6.94,0,0,0,2.342,8.719C671.706,676.833,671.35,677.264,671.055,677.062Z" transform="translate(-539.96 -425.853)" fill="#fff"/>
      <path id="Path_1864" data-name="Path 1864" d="M667.5,713.31a14.446,14.446,0,0,0,9.012-5.442c.219-.286.651.069.432.354a15.027,15.027,0,0,1-9.389,5.644c-.356.06-.409-.5-.055-.557Z" transform="translate(-539.661 -447.104)" fill="#fff"/>
      <path id="Path_1865" data-name="Path 1865" d="M696.66,661.5a4.242,4.242,0,0,0,3.825,1.256c.354-.064.407.492.055.557a4.754,4.754,0,0,1-4.234-1.38.289.289,0,0,1-.039-.393A.281.281,0,0,1,696.66,661.5Z" transform="translate(-554.948 -422.636)" fill="#fff"/>
      <path id="Path_1866" data-name="Path 1866" d="M702.368,712.762c-.217.047-.434.094-.656.146h0a56.179,56.179,0,0,0-8.672,2.633c-.217.085-.434.17-.651.259h-.005a58.869,58.869,0,0,0-18.138,11.645c-.019.019-.038.033-.057.052a.3.3,0,0,1-.038.038l-.024.024a57.4,57.4,0,0,0-5.808,6.4s0,.009-.01.014c-.283.368-.571.736-.854,1.114H639.466l-.028.01v-.01h-.118s0-.009.01-.014,0,0,0-.01c.033-.047.066-.094.094-.137v0a.131.131,0,0,1,.028-.038c.028-.047.061-.085.085-.127.189-.264.373-.533.562-.8.307-.439.618-.878.934-1.312a0,0,0,0,1,0,0h0v0s0-.009.009-.014l.009-.009a84.045,84.045,0,0,1,13.287-14.788c.151-.132.3-.264.462-.387a54.178,54.178,0,0,1,7.252-5.176q2.095-1.239,4.318-2.274a40.156,40.156,0,0,1,12.074-3.407h.01c.009,0,.019,0,.033,0s.024,0,.033,0c8.309-.963,16.826.731,23.342,5.8C702.042,712.5,702.2,712.63,702.368,712.762Z" transform="translate(-524.903 -446.339)" fill="#f0f0f0"/>
      <path id="Path_1867" data-name="Path 1867" d="M639.294,766.774h.118v.009l.028-.009h7.488a18.572,18.572,0,0,0-6.691-.25c-.052.009-.1.019-.151.033-.226.042-.453.1-.679.16l-.047.014a.153.153,0,0,0-.057.028.069.069,0,0,0-.033.014Z" transform="translate(-524.877 -478.027)" fill="#fff"/>
      <path id="Path_1868" data-name="Path 1868" d="M722.491,719.034c-.175-.028-.344-.061-.519-.085h0a49.741,49.741,0,0,0-11.018-.557c-.184.009-.373.024-.562.033a49.7,49.7,0,0,0-14.9,3.393s0,0,0,0c-.052.019-.1.038-.151.057-1.109.448-2.2.939-3.275,1.468a21.568,21.568,0,0,0-5.591,3.765,12.025,12.025,0,0,0-2.93,4.667c-.061.179-.123.354-.179.533-.043.142-.085.288-.127.43a25.483,25.483,0,0,1-1.93,5.87A6.915,6.915,0,0,1,680.266,740a7.14,7.14,0,0,1-1.4,1.128H677.68A6.856,6.856,0,0,0,679.468,740a5.919,5.919,0,0,0,1.081-1.231c1.17-1.765,1.529-3.916,2.076-5.922.09-.326.184-.642.288-.958a12.571,12.571,0,0,1,2.675-4.667,19.9,19.9,0,0,1,5.421-3.968q1.911-1.005,3.926-1.821c.175-.076.349-.142.524-.208a51,51,0,0,1,26.674-2.812c.174.024.344.057.519.085C723.005,718.557,722.845,719.1,722.491,719.034Z" transform="translate(-545.163 -452.379)" fill="#fff"/>
      <path id="Path_1869" data-name="Path 1869" d="M713.992,715.984a7.5,7.5,0,0,1,3.651-8.992c.32-.165.591.323.271.489a6.94,6.94,0,0,0-3.379,8.371c.114.341-.43.471-.543.131Z" transform="translate(-564.141 -446.679)" fill="#fff"/>
      <path id="Path_1870" data-name="Path 1870" d="M689.293,747.276a14.445,14.445,0,0,0,10.472,1.081c.347-.1.478.447.132.543A15.025,15.025,0,0,1,689,747.753C688.682,747.587,688.975,747.111,689.293,747.276Z" transform="translate(-551.07 -467.955)" fill="#fff"/>
      <path id="Path_1871" data-name="Path 1871" d="M747.521,718.5a4.243,4.243,0,0,0,2.3,3.305c.322.162.029.638-.291.477a4.755,4.755,0,0,1-2.55-3.651.289.289,0,0,1,.206-.338A.281.281,0,0,1,747.521,718.5Z" transform="translate(-581.759 -452.664)" fill="#fff"/>
      <path id="Path_1872" data-name="Path 1872" d="M546.458,233.8q.191-23.434,1.906-47.321c.019-.316.042-.628.066-.944q.906-12.436,2.218-24.961v-.047a5.193,5.193,0,0,0-5.19-5.19H406.263a5.2,5.2,0,0,0-5.19,5.167q-1.812,17.248-2.84,34.327c-.028.373-.047.741-.066,1.114q-.51,8.444-.812,16.845c-.014.33-.028.661-.033.991a697.816,697.816,0,0,0,3.751,102.957,5.2,5.2,0,0,0,5.19,5.162H545.458a5.194,5.194,0,0,0,5.19-5.19v-.052q-1.026-9.109-1.8-18.336-.113-1.352-.222-2.7-.538-6.646-.939-13.344-.085-1.352-.156-2.7-.757-13.405-.991-27.018c-.019-.9-.033-1.8-.047-2.7q-.085-6.646-.052-13.344C546.439,235.606,546.444,234.7,546.458,233.8Z" transform="translate(-396.832 -155.34)" fill="#f0f0f0"/>
      <path id="Path_1873" data-name="Path 1873" d="M630.668,224.53a5.193,5.193,0,0,0-5.19-5.19H486.283a5.2,5.2,0,0,0-5.19,5.167,736.9,736.9,0,0,0-2.331,131.2q.573,7.863,1.34,15.646.411,4.169.873,8.314c.038.359.076.717.118,1.076a5.2,5.2,0,0,0,5.19,5.162H625.478a5.193,5.193,0,0,0,5.19-5.19v-.052c-5.629-49.907-5.629-102.419,0-156.082Z" transform="translate(-439.104 -189.142)" fill="#fff"/>
      <path id="Path_1874" data-name="Path 1874" d="M630.668,224.53a5.193,5.193,0,0,0-5.19-5.19H486.283a5.2,5.2,0,0,0-5.19,5.167,736.9,736.9,0,0,0-2.331,131.2q.573,7.863,1.34,15.646.411,4.169.873,8.314c.038.359.076.717.118,1.076a5.2,5.2,0,0,0,5.19,5.162H625.478a5.193,5.193,0,0,0,5.19-5.19v-.052c-5.629-49.907-5.629-102.419,0-156.082Zm-.944,156.209a4.25,4.25,0,0,1-4.247,4.218H486.283a4.253,4.253,0,0,1-4.247-4.247v-.052c-.033-.3-.066-.609-.1-.911q-.488-4.331-.911-8.687-.743-7.637-1.316-15.359a736.111,736.111,0,0,1,2.326-131.126v-.047a4.253,4.253,0,0,1,4.246-4.247H625.478a4.248,4.248,0,0,1,4.247,4.223C624.095,278.212,624.095,330.781,629.724,380.74Z" transform="translate(-439.104 -189.142)" fill="#e4e4e4"/>
      <path id="Path_142" data-name="Path 142" d="M515.64,321.63a1.353,1.353,0,0,0,0,2.705H628.756a1.352,1.352,0,0,0,0-2.7Z" transform="translate(-458.867 -243.167)" fill="#e6e6e6"/>
      <path id="Path_143" data-name="Path 143" d="M515.64,338.83a1.352,1.352,0,0,0,0,2.7h76.791a1.352,1.352,0,1,0,0-2.7Z" transform="translate(-458.867 -252.251)" fill="#e6e6e6"/>
      <path id="Path_142-2" data-name="Path 142" d="M515.64,355.641a1.352,1.352,0,0,0,0,2.7H628.756a1.352,1.352,0,0,0,0-2.7Z" transform="translate(-458.867 -261.13)" fill="#e6e6e6"/>
      <path id="Path_143-2" data-name="Path 143" d="M515.64,372.84a1.353,1.353,0,0,0,0,2.705h76.791a1.353,1.353,0,1,0,0-2.705Z" transform="translate(-458.867 -270.213)" fill="#e6e6e6"/>
      <path id="Path_142-3" data-name="Path 142" d="M515.64,418.63a1.353,1.353,0,0,0,0,2.705H628.756a1.352,1.352,0,0,0,0-2.7Z" transform="translate(-458.867 -294.398)" fill="#e6e6e6"/>
      <path id="Path_143-3" data-name="Path 143" d="M515.64,435.83a1.352,1.352,0,0,0,0,2.7h76.791a1.352,1.352,0,1,0,0-2.7Z" transform="translate(-458.867 -303.482)" fill="#e6e6e6"/>
      <path id="Path_142-4" data-name="Path 142" d="M515.64,452.641a1.352,1.352,0,0,0,0,2.7H628.756a1.352,1.352,0,0,0,0-2.7Z" transform="translate(-458.867 -312.361)" fill="#e6e6e6"/>
      <path id="Path_143-4" data-name="Path 143" d="M515.64,469.84a1.352,1.352,0,0,0,0,2.7h76.791a1.353,1.353,0,0,0,0-2.705Z" transform="translate(-458.867 -321.444)" fill="#e6e6e6"/>
      <path id="Path_154" data-name="Path 154" d="M539.223,279.8h-21.6a1.056,1.056,0,0,1-1.055-1.055v-3.462a1.056,1.056,0,0,1,1.055-1.055h21.6a1.057,1.057,0,0,1,1.056,1.055v3.462A1.057,1.057,0,0,1,539.223,279.8Z" transform="translate(-460.068 -218.132)" fill="#f37022"/>
      <path id="Path_1875" data-name="Path 1875" d="M705.255,519.063l-6.618,2.187-3.309,1.094a7.445,7.445,0,0,1-3.22.592,2.173,2.173,0,0,1-1.853-1.313,1.9,1.9,0,0,1,.822-1.941c1.579-1.2,3.576.021,4.7,1.266,1.369,1.522,2.143,3.486,3.427,5.079a12.224,12.224,0,0,0,4.239,3.376,9.854,9.854,0,0,0,10.191-.871c3.488-2.691,3.844-7.355,3.863-11.423a.708.708,0,0,0-1.416,0c-.017,3.688-.227,8.208-3.589,10.516a8.811,8.811,0,0,1-10.419-.731,17.074,17.074,0,0,1-3.754-4.8,8.705,8.705,0,0,0-4.367-4.079,3.946,3.946,0,0,0-4.712,1.645,2.995,2.995,0,0,0,1.385,4.278c2.311,1.1,4.955-.189,7.18-.925l7.831-2.588C706.492,520.143,706.123,518.776,705.255,519.063Z" transform="translate(-551.044 -346.048)" fill="#f37022"/>
      <path id="Path_1876" data-name="Path 1876" d="M270.957,567.142l-4.641,1.529-8.105-17.17,6.849-2.256Z" transform="translate(-136.357 -290.085)" fill="#9f616a"/>
      <path id="Path_1877" data-name="Path 1877" d="M669.492,744.96l-.316-.958-.83-2.524-.566-1.717-1.548.51-.321-.024-4.252-.288-.566-.038-.84-.057-.868-.061-2.425,3.525h0a7.2,7.2,0,0,0-4.209,3.624c-.052.1-.1.208-.146.312a6.09,6.09,0,0,0-.3.783,7.183,7.183,0,0,0-.2,3.577,8.152,8.152,0,0,0,.231.873l.014.047.057.174.34-.113,2.982-.981,10.447-3.44,2.071-.684.637-.212h0l1.236-.406Z" transform="translate(-531.582 -464.004)" fill="#2f2e41"/>
      <path id="Path_1878" data-name="Path 1878" d="M183.934,574.637h-4.886l-2.324-18.844h7.211Z" transform="translate(-93.319 -293.544)" fill="#9f616a"/>
      <path id="Path_1879" data-name="Path 1879" d="M567.912,569.507l-2.166,3.746s-2.38.65-1.6,8.408c.549,5.478.727,30,2.11,45.938.576,6.632,1.36,11.775,2.466,13.437l.681.61,7.109.679.179-.063,2.611-18.438a30.982,30.982,0,0,0-.208-9.961h0l-.472-5.19,6.546-26.281a341.482,341.482,0,0,1,10.912,32.886c1.022,3.862,4.905,6.318,6.377,9.632.493,1.11.978,2.186,1.45,3.218,3.114,6.8,4.675,11.746,5.856,12.158h.943l5.662-1.887,1.114-2.8-8.663-25.51-6.488-41.19C589.971,562.253,578.375,561.514,567.912,569.507Z" transform="translate(-485.116 -371.024)" fill="#202020"/>
      <path id="Path_1880" data-name="Path 1880" d="M604.105,442.858a19.237,19.237,0,0,0-1.5-2.7,13.9,13.9,0,0,0-5.271-4.818l-1.859-.411-3.331-.736-1.755-1.968L587.511,429H577.6l-1.326,3.223-1.114,2.7-.476,1.151L566.2,440.32s0,0-.01,0q.17,1.274.335,2.534.361,2.739.68,5.412.163,1.359.311,2.7.474,4.218.816,8.29.3,3.638.486,7.172a157.611,157.611,0,0,1,.066,16.066c-.066,1.26,1.184,2.695,1.085,3.926-.165,2.01-1.718,3.794-1.991,5.714a31.763,31.763,0,0,1-.392,3.548,3.958,3.958,0,0,1-.368.934s0,0,0,.009c-3.4,6.068-.731,3.171-1.047,4.534l.151.038c.071.019.288.075.637.156,2,.477,10.225-7.248,15.75-7.248,3.317,0,12.1,5.455,15.037,5.851,2.326.311,4.4.595,5.639-.5a2.892,2.892,0,0,0,.8-1.17l.014-.042,0-.042-.118-1.581-.071-.944-1.01-13.542a4.8,4.8,0,0,1-.613-5.044l.208-.439-.764-10.229-.142-1.911-.052-.646v0l-.368-4.94.887-2.7v0l1.727-5.256.887-2.7.557-1.7.038-.113A19.3,19.3,0,0,0,604.105,442.858Z" transform="translate(-485.899 -299.874)" fill="#fdf1d9"/>
      <path id="Path_1881" data-name="Path 1881" d="M650,518.96l-9.512-24.584-4.418-8.977,8.5-4.693,6.842,12.055L656,517.95A4.384,4.384,0,1,1,650,518.961Z" transform="translate(-523.187 -327.183)" fill="#9f616a"/>
      <path id="Path_1882" data-name="Path 1882" d="M644.9,471.034l-2.435-1.576-2.8-5.233-1.444-2.7-.911-1.7-.387-.727-4.374-2.987-2.954-2.02-2.406,2.02-1.147.963,1.123,4.45.68,2.7,1.482,5.865,4.345,7.686,1.081,1.911.618,1.1,0,.009.085.146,10.98-.458.345-.014.019-.783.01-.283c0-.141,0-.283,0-.425A17.436,17.436,0,0,0,644.9,471.034Z" transform="translate(-517.889 -313.126)" fill="#f37022"/>
      <path id="Path_1883" data-name="Path 1883" d="M483.677,512.9l19.459-17.782,6.763-7.373,7.455,6.215L508.6,504.71l-21.809,13.411a4.384,4.384,0,1,1-3.116-5.219Z" transform="translate(-439.775 -330.902)" fill="#9f616a"/>
      <path id="Path_1884" data-name="Path 1884" d="M551.354,463.4l-.038-2.7-.071-5.412-.028-2.1-.08-.057a3.546,3.546,0,0,0-1.458-.547,4.228,4.228,0,0,0-1.383,0,4.958,4.958,0,0,0-.712.165s0,0-.01,0A8.159,8.159,0,0,0,544,455.275l-.005,0a35.27,35.27,0,0,0-3.746,5.412c-.533.906-1.043,1.821-1.519,2.7-1.8,3.355-3.1,6.261-3.124,6.313l-5.388,7,.075.127,1.184,2.024,4.341,7.422.689,1.18,1.76-.939a10.232,10.232,0,0,0,4.587-4.992l.627-2.4.231-.274,6-7.172,1.718-2.057Z" transform="translate(-467.281 -312.296)" fill="#f37022"/>
      <circle id="Ellipse_180" data-name="Ellipse 180" cx="9.083" cy="9.083" r="9.083" transform="translate(85.251 125.946) rotate(-80.783)" fill="#9f616a"/>
      <path id="Path_1885" data-name="Path 1885" d="M579.957,385.174c-.4-1.413-1.211-2.624-.807-2.624s.605-1.009.605-1.009.4-.2.606,0,.4-1.413.4-1.413.2-.606.4-.2.2.2.4-.4,1.211-1.009,1.211-1.009,3.835.2,4.441-.606,7.468-.2,8.881.807,6.98,2.813,3.677,8.476c1.887,3.3-.93,9.194-1.658,9.893-1.151,1.105-1.948,1.5-7.4,2.588-1.066.212-3.686-8.706-3.686-8.706S580.361,386.587,579.957,385.174Z" transform="translate(-493.066 -272.692)" fill="#2f2e41"/>
      <path id="Path_1886" data-name="Path 1886" d="M570.444,746.616l-.293-.118-5.256-2.142-.807-.326-3.407,2.586h0a7.266,7.266,0,0,0-7.257,7.262v.236h18.652v-7.5Z" transform="translate(-479.535 -466.259)" fill="#2f2e41"/>
      <path id="Path_1887" data-name="Path 1887" d="M597.057,765.462a.564.564,0,0,1-.561.566H500.569a.564.564,0,0,1,0-1.128H596.5A.563.563,0,0,1,597.057,765.462Z" transform="translate(-451.323 -477.281)" fill="#ccc"/>
      <path id="Path_1888" data-name="Path 1888" d="M444.078,155.34A63.357,63.357,0,0,1,397.9,212.792c-.014.33-.028.661-.033.991a64.307,64.307,0,0,0,47.151-58.443Z" transform="translate(-397.38 -155.34)" fill="#fff"/>
      <path id="Path_1889" data-name="Path 1889" d="M430.571,155.34a63.487,63.487,0,0,1-30.845,39.494c-.028.373-.047.741-.066,1.114a64.465,64.465,0,0,0,31.887-40.607Z" transform="translate(-398.326 -155.34)" fill="#fff"/>
    </g>
  </g>
</svg>
