<svg width="19" height="19" viewBox="0 0 19 19" fill="none" xmlns="http://www.w3.org/2000/svg">
<path d="M13 5H6C4.11438 5 3.17157 5 2.58579 5.58579C2 6.17157 2 7.11438 2 9V10C2 10.4714 2 10.7071 2.14645 10.8536C2.29289 11 2.5286 11 3 11H6.25543C6.34375 11 6.38791 11 6.42127 10.982C6.44699 10.9681 6.4681 10.947 6.48199 10.9213C6.5 10.8879 6.5 10.8438 6.5 10.7554C6.5 10.1666 6.5 9.87224 6.6201 9.64984C6.71269 9.47837 6.85337 9.33769 7.02484 9.2451C7.24724 9.125 7.54164 9.125 8.13043 9.125H10.8696C11.4584 9.125 11.7528 9.125 11.9752 9.2451C12.1466 9.33769 12.2873 9.47837 12.3799 9.64984C12.5 9.87224 12.5 10.1666 12.5 10.7554C12.5 10.8438 12.5 10.8879 12.518 10.9213C12.5319 10.947 12.553 10.9681 12.5787 10.982C12.6121 11 12.6562 11 12.7446 11H15C15.9428 11 16.4142 11 16.7071 10.7071C17 10.4142 17 9.94281 17 9C17 7.11438 17 6.17157 16.4142 5.58579C15.8284 5 14.8856 5 13 5Z" fill="#77C7BD"/>
<path d="M5.75 3.30435C5.75 3.02139 5.75 2.87991 5.77843 2.76324C5.86688 2.40028 6.15028 2.11688 6.51324 2.02843C6.62991 2 6.77139 2 7.05435 2H11.9457C12.2286 2 12.3701 2 12.4868 2.02843C12.8497 2.11688 13.1331 2.40028 13.2216 2.76324C13.25 2.87991 13.25 3.02139 13.25 3.30435C13.25 3.34679 13.25 3.36801 13.2457 3.38551C13.2325 3.43996 13.19 3.48247 13.1355 3.49574C13.118 3.5 13.0968 3.5 13.0543 3.5H5.94565C5.90321 3.5 5.88199 3.5 5.86449 3.49574C5.81004 3.48247 5.76753 3.43996 5.75426 3.38551C5.75 3.36801 5.75 3.34679 5.75 3.30435Z" fill="#77C7BD"/>
<path fill-rule="evenodd" clip-rule="evenodd" d="M4.25 15.5871V10.75C4.25 9.8072 4.25 9.33579 4.54289 9.0429C4.83579 8.75 5.30719 8.75 6.25 8.75L12.75 8.75C13.6928 8.75 14.1642 8.75 14.4571 9.04289C14.75 9.33579 14.75 9.80719 14.75 10.75V15.5871C14.75 15.8911 14.75 16.0431 14.6505 16.1182C14.5511 16.1932 14.4049 16.1514 14.1126 16.0679L12.2624 15.5392C12.1941 15.5197 12.16 15.51 12.125 15.51C12.09 15.51 12.0559 15.5197 11.9876 15.5392L9.63736 16.2108C9.56913 16.2302 9.53501 16.24 9.5 16.24C9.46499 16.24 9.43087 16.2302 9.36264 16.2108L7.01236 15.5392L7.01236 15.5392C6.94413 15.5197 6.91001 15.51 6.875 15.51C6.83999 15.51 6.80587 15.5197 6.73765 15.5392L6.73764 15.5392L4.88736 16.0679C4.59506 16.1514 4.4489 16.1932 4.34945 16.1182C4.25 16.0431 4.25 15.8911 4.25 15.5871ZM7 11C7 10.4477 7.44772 10 8 10L10.25 10C10.8023 10 11.25 10.4477 11.25 11C11.25 11.5523 10.8023 12 10.25 12L8 12C7.44772 12 7 11.5523 7 11ZM8 12.25C7.44772 12.25 7 12.6977 7 13.25C7 13.8023 7.44772 14.25 8 14.25L11.375 14.25C11.9273 14.25 12.375 13.8023 12.375 13.25C12.375 12.6977 11.9273 12.25 11.375 12.25L8 12.25Z" fill="#77C7BD"/>
</svg>
