<svg width="117" height="101" viewBox="0 0 117 101" fill="none" xmlns="http://www.w3.org/2000/svg">
<path fill-rule="evenodd" clip-rule="evenodd" d="M116.625 50.5C116.625 82.6016 90.6016 108.625 58.5 108.625C26.3984 108.625 0.375 82.6016 0.375 50.5C0.375 18.3984 26.3984 -7.625 58.5 -7.625C90.6016 -7.625 116.625 18.3984 116.625 50.5ZM64.9583 89.25C64.9583 92.8168 62.0668 95.7083 58.5 95.7083C54.9332 95.7083 52.0417 92.8168 52.0417 89.25C52.0417 85.6832 54.9332 82.7917 58.5 82.7917C62.0668 82.7917 64.9583 85.6832 64.9583 89.25ZM58.5 10.75C47.2472 10.75 38.125 19.8722 38.125 31.125H40.125C40.125 20.9768 48.3518 12.75 58.5 12.75H59.1091C68.9209 12.75 76.875 20.7041 76.875 30.5159V33.8301C76.875 39.4979 73.2482 44.5298 67.8713 46.3222C61.6777 48.3867 57.5 54.1829 57.5 60.7115V76.3333H59.5V60.7115C59.5 55.0437 63.1268 50.0118 68.5037 48.2195C74.6973 46.155 78.875 40.3588 78.875 33.8301V30.5159C78.875 19.5995 70.0255 10.75 59.1091 10.75H58.5Z" fill="white"/>
</svg>
