<svg width="40" height="41" viewBox="0 0 40 41" fill="none" xmlns="http://www.w3.org/2000/svg">
<g clip-path="url(#clip0_403_13183)">
<path d="M2.24928 19.6991C3.48138 19.6991 4.49857 18.6963 4.49857 17.4785V4.01146C4.49857 3.79656 4.71347 3.58166 4.93553 3.58166H12.6075V0H0V17.4785C0 18.6963 1.01719 19.6991 2.24928 19.6991Z" fill="white"/>
<path d="M35.7965 25.0717H28.1174V38.0373C28.1174 38.1089 28.1174 38.1805 28.1174 38.1805V38.2522V38.3238V38.3954V38.4671V38.5387V38.6103V38.682V38.7536V38.8252V38.8969V38.9685V39.0401V39.1118V39.1834V39.255V39.3267V39.3983V39.4699C28.1174 39.4699 28.1174 39.5416 28.0458 39.5416C28.0458 39.5416 28.0458 39.6132 27.9741 39.6132C27.9741 39.6132 27.9741 39.6848 27.9025 39.6848C27.9025 39.6848 27.9025 39.7565 27.8309 39.7565C27.8309 39.7565 27.8309 39.8281 27.7592 39.8281C27.7592 39.8281 27.7592 39.8997 27.6876 39.8997C27.6876 39.8997 27.6876 39.9714 27.616 39.9714C27.616 39.9714 27.616 40.043 27.5443 40.043C27.5443 40.043 27.5443 40.1146 27.4727 40.1146C27.4727 40.1146 27.4727 40.1863 27.4011 40.1863C27.3294 40.1863 27.4011 40.2579 27.3294 40.2579C27.3294 40.2579 27.3294 40.3295 27.2578 40.3295H36.6776C38.4899 40.3295 40.0085 38.8969 40.0085 37.0344V25.0717H35.7965ZM31.2335 28.6533H34.8581C35.073 28.6533 35.2951 28.8682 35.2951 29.0831C35.2951 29.298 35.0802 29.5129 34.8581 29.5129H31.2335C31.0186 29.5129 30.7965 29.298 30.7965 29.0831C30.7965 28.8682 31.0186 28.6533 31.2335 28.6533ZM36.6704 34.8854H31.2335C31.0186 34.8854 30.7965 34.6705 30.7965 34.4556C30.7965 34.2407 31.0114 34.0258 31.2335 34.0258H36.6704C36.8853 34.0258 37.1074 34.2407 37.1074 34.4556C37.1719 34.6705 36.957 34.8854 36.6704 34.8854ZM36.6704 32.235H31.2335C31.0186 32.235 30.7965 32.0201 30.7965 31.8052C30.7965 31.5903 31.0114 31.3754 31.2335 31.3754H36.6704C36.8853 31.3754 37.1074 31.5903 37.1074 31.8052C37.1719 32.0201 36.957 32.235 36.6704 32.235Z" fill="white"/>
<path d="M5.43514 17.4785C5.43514 17.5502 5.43514 17.6218 5.43514 17.6218V17.6934V17.7651V17.8367V17.9083V17.98V18.0516V18.1232V18.1949V18.2665V18.3381V18.4098V18.4814V18.553V18.6247V18.6963V18.7679V18.8396C5.43514 18.8396 5.43514 18.9112 5.3635 18.9112C5.3635 18.9112 5.36351 18.9828 5.29187 18.9828C5.29187 18.9828 5.29187 19.0545 5.22024 19.0545C5.22024 19.0545 5.22024 19.1261 5.14861 19.1261C5.14861 19.1261 5.14861 19.1977 5.07697 19.1977C5.07697 19.1977 5.07697 19.2694 5.00534 19.2694C5.00534 19.2694 5.00534 19.341 4.93371 19.341C4.93371 19.341 4.93371 19.4126 4.86207 19.4126C4.86207 19.4126 4.86207 19.4843 4.79044 19.4843C4.79044 19.4843 4.79044 19.5559 4.71881 19.5559C4.71881 19.5559 4.71881 19.6275 4.64717 19.6275C4.64717 19.6275 4.64717 19.6275 4.57554 19.6992L4.50391 19.7708H13.9237C15.736 19.7708 17.2546 18.3381 17.2546 16.4757V4.44128H13.2002H5.43514V17.4785ZM8.62282 8.02295H12.2475C12.4624 8.02295 12.6844 8.23785 12.6844 8.45275C12.6844 8.66765 12.4695 8.88254 12.2475 8.88254H8.62282C8.40792 8.88254 8.18585 8.66765 8.18585 8.45275C8.18585 8.23785 8.32912 8.02295 8.62282 8.02295ZM8.62282 10.745H14.0598C14.2747 10.745 14.4967 10.9599 14.4967 11.1748C14.4967 11.3897 14.2818 11.6046 14.0598 11.6046H8.62282C8.40792 11.6046 8.18585 11.3897 8.18585 11.1748C8.18585 10.9599 8.32912 10.745 8.62282 10.745ZM8.62282 13.3954H14.0598C14.2747 13.3954 14.4967 13.6103 14.4967 13.8252C14.4967 14.0401 14.2818 14.255 14.0598 14.255H8.62282C8.40792 14.255 8.18585 14.0401 8.18585 13.8252C8.18585 13.6103 8.32912 13.3954 8.62282 13.3954Z" fill="white"/>
<path d="M27.1711 24.6418C27.1711 24.4269 27.386 24.212 27.6081 24.212H35.2871V20.6304H22.6797V38.1089C22.6797 39.3266 23.6969 40.3295 24.929 40.3295C26.1611 40.3295 27.1783 39.3266 27.1783 38.1089V24.6418H27.1711Z" fill="white"/>
<path d="M31.6681 11.7479C31.5248 11.6046 31.2311 11.6046 31.0162 11.7479C30.873 11.8911 30.873 12.1777 31.0162 12.3926L32.8286 14.1834L32.9002 14.255C32.9002 14.255 32.9002 14.255 32.9718 14.255C32.9718 14.255 32.9718 14.255 33.0434 14.255C33.0434 14.255 33.0434 14.255 33.1151 14.255H33.1867H33.2583C33.2583 14.255 33.2583 14.255 33.33 14.255C33.33 14.255 33.33 14.255 33.4016 14.255C33.4016 14.255 33.4016 14.255 33.4732 14.255C33.4732 14.255 33.5449 14.255 33.5449 14.1834L35.3572 12.3926C35.5005 12.2493 35.5005 11.9628 35.3572 11.7479C35.2139 11.6046 34.9202 11.6046 34.7053 11.7479L33.6881 12.7507V7.59313C33.6881 7.37823 33.4732 7.16333 33.2512 7.16333H24.1323C23.9174 7.16333 23.6953 7.37823 23.6953 7.59313C23.6953 7.80803 23.9102 8.02293 24.1323 8.02293H32.7569V12.7507L31.6681 11.7479Z" fill="white"/>
<path d="M38.1147 4.01146C38.1147 3.79656 37.8998 3.58167 37.6778 3.58167H20.5073C20.2924 3.58167 20.0703 3.79656 20.0703 4.01146C20.0703 4.22636 20.2852 4.44126 20.5073 4.44126H37.6778C37.8998 4.44126 38.1147 4.22636 38.1147 4.01146Z" fill="white"/>
<path d="M5.07355 33.0945H14.128C14.3429 33.0945 14.565 32.8796 14.565 32.6647C14.565 32.4498 14.35 32.2349 14.128 32.2349H5.51051V27.5071L6.5277 28.51C6.59933 28.5816 6.7426 28.6532 6.81424 28.6532C6.88587 28.6532 7.02913 28.5816 7.10077 28.51C7.24403 28.3667 7.24403 28.0802 7.10077 27.8653L5.28845 26.0744L5.21681 26.0028C5.21681 26.0028 5.21681 26.0028 5.14518 26.0028C5.14518 26.0028 5.14518 26.0028 5.07355 26.0028C5.07355 26.0028 5.07355 26.0028 5.00191 26.0028C4.93028 26.0028 4.85865 26.0028 4.85865 26.0028C4.85865 26.0028 4.85865 26.0028 4.78701 26.0028C4.78701 26.0028 4.78701 26.0028 4.71538 26.0028C4.71538 26.0028 4.71538 26.0028 4.64375 26.0028C4.64375 26.0028 4.57211 26.0028 4.57211 26.0744L2.75979 27.8653C2.61653 28.0085 2.61653 28.2951 2.75979 28.51C2.90306 28.6532 3.19676 28.6532 3.41166 28.51L4.42885 27.5071V32.6647C4.63658 32.8796 4.85865 33.0945 5.07355 33.0945Z" fill="white"/>
<path d="M17.752 35.8167H0.581494C0.366594 35.8167 0.144531 36.0315 0.144531 36.2464C0.144531 36.4613 0.359431 36.6762 0.581494 36.6762H17.8308C18.0457 36.6762 18.2677 36.4613 18.2677 36.2464C18.1889 36.0315 17.974 35.8167 17.752 35.8167Z" fill="white"/>
<path d="M23.1861 13.8969V12.9656H24.1245C24.3394 12.9656 24.5615 12.7507 24.5615 12.5358C24.5615 12.3209 24.3466 12.106 24.1245 12.106H23.1861V11.1748C23.1861 10.9599 22.9712 10.745 22.7492 10.745C22.5271 10.745 22.3122 10.9599 22.3122 11.1748V12.106H21.3667C21.1518 12.106 20.9297 12.3209 20.9297 12.5358C20.9297 12.7507 21.1446 12.9656 21.3667 12.9656H22.3122V13.8969C22.3122 14.1118 22.5271 14.3267 22.7492 14.3267C22.9712 14.3267 23.1861 14.1118 23.1861 13.8969Z" fill="white"/>
<path d="M15.0709 29.0831V28.1519H15.9377C16.1526 28.1519 16.3746 27.937 16.3746 27.7221C16.3746 27.5072 16.1597 27.2923 15.9377 27.2923H14.9993V26.3611C14.9993 26.1462 14.7844 25.9313 14.5623 25.9313C14.3474 25.9313 14.1254 26.1462 14.1254 26.3611V27.2923H13.187C12.9721 27.2923 12.75 27.5072 12.75 27.7221C12.75 27.937 12.9649 28.1519 13.187 28.1519H14.1254V29.0831C14.1254 29.298 14.3403 29.5129 14.5623 29.5129C14.7844 29.5129 15.0709 29.298 15.0709 29.0831Z" fill="white"/>
</g>
<defs>
<clipPath id="clip0_403_13183">
<rect width="40" height="40.3295" fill="white"/>
</clipPath>
</defs>
</svg>
