<svg width="196" height="152" viewBox="0 0 196 152" fill="none" xmlns="http://www.w3.org/2000/svg">
<path fill-rule="evenodd" clip-rule="evenodd" d="M72.1289 105.2C62.6031 105.2 54.8809 97.6918 54.8809 88.43C54.8809 79.1681 62.6031 71.66 72.1289 71.66C72.5339 71.66 72.9357 71.6735 73.3338 71.7002C73.0572 70.1684 72.9129 68.591 72.9129 66.98C72.9129 52.3334 84.8472 40.46 99.5689 40.46C111.322 40.46 121.298 48.0275 124.844 58.5322C125.684 58.4448 126.537 58.4 127.401 58.4C140.607 58.4 151.313 68.8765 151.313 81.8C151.313 94.0776 141.65 104.207 129.361 105.183V105.2H85.071H72.1289ZM81.5337 105.2H76.0735H81.5337Z" fill="white"/>
<path d="M81.5337 105.2H76.0735M72.1289 105.2C62.6031 105.2 54.8809 97.6918 54.8809 88.43C54.8809 79.1681 62.6031 71.66 72.1289 71.66C72.5339 71.66 72.9357 71.6735 73.3338 71.7002C73.0572 70.1684 72.9129 68.591 72.9129 66.98C72.9129 52.3334 84.8472 40.46 99.5689 40.46C111.322 40.46 121.298 48.0275 124.844 58.5322C125.684 58.4448 126.537 58.4 127.401 58.4C140.607 58.4 151.313 68.8765 151.313 81.8C151.313 94.0776 141.65 104.207 129.361 105.183V105.2H85.071H72.1289Z" stroke="#33A194" stroke-width="2.5" stroke-linecap="round"/>
<path fill-rule="evenodd" clip-rule="evenodd" d="M91.4237 46.1873C91.4237 71.3213 114.176 92.0321 143.472 94.8283C139.8 99.3197 134.131 102.367 127.672 102.845V102.86H75.0622C68.6791 102.86 58.0156 100.184 58.0156 88.4677C58.0156 76.7511 66.3058 74.0754 75.0622 74.0754C75.4345 74.0754 75.8039 74.0871 76.1698 74.11C75.9156 72.7954 75.8709 71.4404 75.7829 70.059C75.1882 60.7277 79.28 48.9674 91.4379 45.14C91.4281 45.4889 91.4237 45.8377 91.4237 46.1873ZM99.6588 85.5112C97.2765 85.5112 95.3452 87.4099 95.3452 89.752C95.3452 92.0942 97.2765 93.9928 99.6588 93.9928C102.041 93.9928 103.972 92.0942 103.972 89.752C103.972 87.4099 102.041 85.5112 99.6588 85.5112Z" fill="#E8F0FE"/>
<path d="M99.9604 94.28C102.342 94.28 104.272 92.3593 104.272 89.99C104.272 87.6206 102.342 85.7 99.9604 85.7C97.579 85.7 95.6484 87.6206 95.6484 89.99C95.6484 92.3593 97.579 94.28 99.9604 94.28Z" stroke="#33A194" stroke-width="2.5"/>
<path d="M87.8086 81.02L93.2966 76.7353L87.8086 72.6565" stroke="#33A194" stroke-width="2.5" stroke-linecap="round" stroke-linejoin="round"/>
<path d="M112.111 81.02L106.623 76.7353L112.111 72.6565" stroke="#33A194" stroke-width="2.5" stroke-linecap="round" stroke-linejoin="round"/>
<path d="M107.408 48.26C112.511 49.6036 116.54 53.574 117.945 58.6287" stroke="#33A194" stroke-width="2.5" stroke-linecap="round"/>
<path d="M123.872 34.9999C125.171 34.9999 126.224 33.9523 126.224 32.6599C126.224 31.3676 125.171 30.3199 123.872 30.3199C122.573 30.3199 121.52 31.3676 121.52 32.6599C121.52 33.9523 122.573 34.9999 123.872 34.9999Z" stroke="white" stroke-width="2"/>
<path d="M148.176 47.48C149.475 47.48 150.528 46.4324 150.528 45.14C150.528 43.8477 149.475 42.8 148.176 42.8C146.877 42.8 145.824 43.8477 145.824 45.14C145.824 46.4324 146.877 47.48 148.176 47.48Z" fill="white"/>
<path d="M129.953 41.0507L136.506 47.5701M136.606 41.0507L130.053 47.5701L136.606 41.0507Z" stroke="white" stroke-width="2.5" stroke-linecap="round" stroke-linejoin="round"/>
<path d="M55.9805 54.9651L60.6845 59.6451M60.6845 54.9651L55.9805 59.6451L60.6845 54.9651Z" stroke="white" stroke-width="2.5" stroke-linecap="round" stroke-linejoin="round"/>
<path d="M66.6391 49.82C67.9381 49.82 68.9911 48.7724 68.9911 47.48C68.9911 46.1877 67.9381 45.14 66.6391 45.14C65.3401 45.14 64.2871 46.1877 64.2871 47.48C64.2871 48.7724 65.3401 49.82 66.6391 49.82Z" fill="white"/>
</svg>
