<svg width="40" height="43" viewBox="0 0 40 43" fill="none" xmlns="http://www.w3.org/2000/svg">
<g clip-path="url(#clip0_403_13214)">
<path d="M14.4679 13.181L10.0717 10.1853H0.380604L0.148438 39.7678C0.148438 41.1158 1.21191 42.0894 2.64984 42.0894C3.48115 42.0894 4.16267 41.7899 4.54462 41.1907C4.7693 40.8163 4.84419 40.4418 4.84419 39.9176V17.7494C4.84419 17.5248 5.06886 17.3001 5.30103 17.3001H39.774V13.2559H14.6925C14.6176 13.2559 14.5427 13.2559 14.4679 13.181ZM4.31994 14.9035H2.42516V13.0312H4.31994V14.9035ZM7.12091 14.9035H5.22614V13.0312H7.12091V14.9035ZM9.99678 14.9035H8.102V13.0312H9.99678V14.9035Z" fill="white"/>
<path d="M1.43793 3.74459C2.19435 3.74459 2.87587 3.14545 2.87587 2.32164C2.87587 1.49782 2.26924 0.898682 1.43793 0.898682C0.606628 0.898682 0 1.49782 0 2.32164C0 3.14545 0.68152 3.74459 1.43793 3.74459Z" fill="white"/>
<path d="M5.75862 39.9176C5.75862 39.9925 5.75862 40.0674 5.75862 40.0674V40.1423V40.2172V40.2921V40.367V40.4419V40.5168V40.5917V40.6666V40.7414V40.8163V40.8912V40.9661V41.041V41.1159V41.1908V41.2657V41.3406V41.4155V41.4904V41.5653V41.6402C5.75862 41.6402 5.75862 41.715 5.68373 41.715V41.7899C5.68373 41.7899 5.68373 41.8648 5.60884 41.8648C5.60884 41.8648 5.60884 41.8648 5.53394 41.9397C5.53394 41.9397 5.53394 42.0146 5.45905 42.0146C5.45905 42.0146 5.45905 42.0146 5.38416 42.0895C5.38416 42.0895 5.38416 42.1644 5.30927 42.1644C5.30927 42.1644 5.30927 42.1644 5.23438 42.2393H40.0069V18.1989H5.75862V39.9176ZM23.5918 34.8249L23.2173 35.1994C23.2173 35.4241 23.9425 37.4462 23.7103 37.4462L24.7152 31.4548C24.4905 31.4548 22.8429 33.1773 22.8429 32.9526C21.9367 32.3535 18.9397 33.3271 18.9397 32.2786C18.9397 30.4812 20.274 31.4548 22.0939 31.4548C23.9138 31.4548 13.8558 30.4063 13.8558 32.2037C13.8558 33.2522 24.498 34.2258 23.5918 34.8249ZM9.99753 20.9699H16.6629C16.8876 20.9699 17.1198 21.1945 17.1198 21.4192C17.1198 21.6439 16.8951 21.8686 16.6629 21.8686H9.99753C9.77285 21.8686 9.54068 21.6439 9.54068 21.4192C9.54817 21.1945 9.69796 20.9699 9.99753 20.9699ZM9.99753 23.8158H28.0316C28.2563 23.8158 28.4884 24.0405 28.4884 24.2651C28.4884 24.4898 28.2638 24.7145 28.0316 24.7145H9.99753C9.77285 24.7145 9.54068 24.4898 9.54068 24.2651C9.54817 24.0405 9.69796 23.8158 9.99753 23.8158Z" fill="white"/>
<path d="M10.5306 9.36154L14.9268 12.3572H32.2793V7.56413C32.2718 3.37016 28.8642 0 24.6253 0H15.2263C10.9874 0 7.57233 3.37016 7.57233 7.56413V8.91219C7.57233 9.06197 7.49744 9.21176 7.34766 9.28665H10.1486C10.3059 9.28665 10.4557 9.28665 10.5306 9.36154Z" fill="white"/>
<path d="M38.86 8.388C39.3917 8.388 39.8411 7.93864 39.8411 7.4144C39.8411 6.89015 39.3842 6.4408 38.86 6.4408C38.3357 6.4408 37.8789 6.89015 37.8789 7.4144C37.9538 8.01353 38.3357 8.388 38.86 8.388Z" fill="white"/>
<path d="M21 39.75C20.1136 39.75 19.2358 39.5754 18.4169 39.2362C17.5979 38.897 16.8538 38.3998 16.227 37.773C15.6002 37.1462 15.103 36.4021 14.7638 35.5831C14.4246 34.7642 14.25 33.8864 14.25 33C14.25 32.1136 14.4246 31.2358 14.7638 30.4169C15.103 29.5979 15.6002 28.8538 16.227 28.227C16.8538 27.6002 17.5979 27.103 18.4169 26.7638C19.2358 26.4246 20.1136 26.25 21 26.25C21.8864 26.25 22.7642 26.4246 23.5831 26.7638C24.4021 27.103 25.1462 27.6002 25.773 28.227C26.3998 28.8538 26.897 29.5979 27.2362 30.4169C27.5754 31.2358 27.75 32.1136 27.75 33C27.75 33.8864 27.5754 34.7642 27.2362 35.5831C26.897 36.4021 26.3998 37.1462 25.773 37.773C25.1462 38.3998 24.4021 38.897 23.5831 39.2362C22.7642 39.5754 21.8864 39.75 21 39.75L21 39.75Z" stroke="#77C7BD" stroke-linecap="round"/>
<path d="M18.75 30.75L23.25 35.25" stroke="#77C7BD" stroke-linecap="round"/>
<path d="M23.25 30.75L18.75 35.25" stroke="#77C7BD" stroke-linecap="round"/>
</g>
<defs>
<clipPath id="clip0_403_13214">
<rect width="40" height="42.2393" fill="white"/>
</clipPath>
</defs>
</svg>
