<svg width="20" height="20" viewBox="0 0 20 20" fill="none" xmlns="http://www.w3.org/2000/svg">
<path d="M16.6673 9.99998C16.6673 7.50767 16.6673 6.26152 16.1314 5.33331C15.7803 4.72524 15.2754 4.22029 14.6673 3.86921C13.7391 3.33331 12.493 3.33331 10.0007 3.33331V3.33331C7.50834 3.33331 6.26219 3.33331 5.33398 3.86921C4.72591 4.22029 4.22096 4.72524 3.86988 5.33331C3.33398 6.26152 3.33398 7.50767 3.33398 9.99998V14.6666C3.33398 15.6095 3.33398 16.0809 3.62688 16.3738C3.91977 16.6666 4.39118 16.6666 5.33398 16.6666H10.0007C12.493 16.6666 13.7391 16.6666 14.6673 16.1307C15.2754 15.7797 15.7803 15.2747 16.1314 14.6666C16.6673 13.7384 16.6673 12.4923 16.6673 9.99998V9.99998Z" stroke="white"/>
<path d="M7.5 8.33331L12.5 8.33331" stroke="white" stroke-linecap="round" stroke-linejoin="round"/>
<path d="M7.5 11.6667H10" stroke="white" stroke-linecap="round" stroke-linejoin="round"/>
</svg>
