<svg width="111" height="100" viewBox="0 0 111 100" fill="none" xmlns="http://www.w3.org/2000/svg">
<path fill-rule="evenodd" clip-rule="evenodd" d="M53.6892 55.8964L4.19193 39.3973C1.83872 38.6129 0.662109 38.2207 0.662109 37.5C0.662109 36.7792 1.83872 36.387 4.19193 35.6026L107.205 1.26488C108.861 0.712955 109.689 0.43699 110.126 0.874006C110.563 1.31102 110.287 2.13892 109.735 3.79471L75.3972 106.808C74.6128 109.161 74.2206 110.338 73.4998 110.338C72.7791 110.338 72.3869 109.161 71.6025 106.808L55.1034 57.3106L80.4569 31.9571C80.8475 31.5666 80.8475 30.9334 80.4569 30.5429C80.0664 30.1523 79.4333 30.1523 79.0427 30.5429L53.6892 55.8964Z" fill="white"/>
</svg>
