<svg width="39" height="42" viewBox="0 0 39 42" fill="none" xmlns="http://www.w3.org/2000/svg">
<path d="M7.45202 0C7.41841 0.00175318 7.38497 0.00609992 7.35202 0.0130005C6.9034 0.00933883 6.45504 0.0360838 6.01002 0.0930176C5.9246 0.104686 5.84232 0.133097 5.7679 0.176636C5.69348 0.220175 5.62839 0.27799 5.57637 0.346741C5.52434 0.415492 5.4864 0.493823 5.46472 0.577271C5.44304 0.660718 5.43804 0.747626 5.45002 0.833008L7.15602 13.098H1.96402C1.47761 13.0972 1.00785 13.2752 0.644024 13.598C0.441056 13.7841 0.278992 14.0103 0.168122 14.2623C0.0572525 14.5144 0 14.7867 0 15.062C0 15.3373 0.0572525 15.6097 0.168122 15.8617C0.278992 16.1137 0.441056 16.34 0.644024 16.526C1.00781 16.8489 1.47759 17.0269 1.96402 17.026H7.60102L7.62302 17.17C7.87802 18.807 8.50002 22.887 8.51102 22.959V28.1481C8.51102 28.3218 8.58003 28.4884 8.70287 28.6112C8.82571 28.734 8.99231 28.803 9.16602 28.803H11.13V33.394C11.1303 33.5676 11.1994 33.7339 11.3222 33.8566C11.445 33.9792 11.6115 34.048 11.785 34.048H15.713V37.9771H12.44C10.455 37.9771 9.34002 38.5361 8.84002 39.3511C8.52866 39.9325 8.41294 40.5986 8.51002 41.251C8.51002 41.4247 8.57903 41.5913 8.70187 41.7141C8.82471 41.8369 8.99131 41.906 9.16502 41.906H26.186C26.3597 41.906 26.5263 41.8369 26.6492 41.7141C26.772 41.5913 26.841 41.4247 26.841 41.251C26.918 40.5991 26.7816 39.9398 26.452 39.3721C25.937 38.5841 24.847 38.026 22.928 37.978H19.641V34.0491H23.569C23.7426 34.0491 23.909 33.9802 24.0318 33.8575C24.1546 33.7349 24.2238 33.5686 24.224 33.395V28.804H25.032L28.175 40.116C28.2132 40.2542 28.2957 40.3762 28.4099 40.4629C28.5241 40.5496 28.6636 40.5964 28.807 40.5961H36.679C37.1236 40.5974 37.5547 40.4435 37.898 40.161C38.1146 39.9694 38.2881 39.734 38.4069 39.4703C38.5257 39.2067 38.5871 38.9207 38.5871 38.6315C38.5871 38.3423 38.5257 38.0564 38.4069 37.7927C38.2881 37.529 38.1146 37.2937 37.898 37.1021C37.5544 36.8201 37.1235 36.6663 36.679 36.667H31.264L29.018 28.803H32.079C32.2514 28.803 32.4168 28.7351 32.5394 28.614C32.662 28.4929 32.7319 28.3283 32.734 28.156C32.7162 27.1647 32.5095 26.1859 32.125 25.272C31.7922 24.4647 31.247 23.7627 30.5473 23.2404C29.8476 22.718 29.0196 22.3948 28.151 22.3051V18.34C28.1707 17.0204 27.7056 15.7396 26.844 14.74C26.3443 14.2011 25.7349 13.7757 25.0567 13.4924C24.3786 13.2092 23.6476 13.0747 22.913 13.098H12.913C13.1944 12.877 13.4533 12.6288 13.686 12.3571C14.0347 11.9494 14.2931 11.4725 14.4442 10.9579C14.5954 10.4432 14.6359 9.90239 14.563 9.37097L13.908 4.42102C13.7984 3.75856 13.5467 3.12765 13.1703 2.57166C12.7938 2.01566 12.3014 1.54774 11.727 1.20001C10.4443 0.405112 8.96204 -0.00893436 7.45302 0.00604248L7.45202 0ZM7.44702 1.31702C8.70289 1.30357 9.93734 1.64276 11.01 2.29602C11.4291 2.53853 11.7897 2.87027 12.0662 3.26776C12.3427 3.66525 12.5284 4.11879 12.61 4.59607L13.265 9.54602C13.3226 9.89787 13.2997 10.2582 13.1981 10.6C13.0964 10.9417 12.9186 11.2559 12.678 11.519C12.0503 12.1941 11.2892 12.7314 10.443 13.097H8.47602L6.84302 1.35101C7.04302 1.33801 7.24902 1.31799 7.44302 1.31799L7.44702 1.31702ZM1.96402 14.406H10.494C10.5514 14.4137 10.6096 14.4137 10.667 14.406H22.915C23.4649 14.3764 24.0146 14.4687 24.5247 14.6761C25.0348 14.8836 25.4928 15.201 25.866 15.606C26.5122 16.3661 26.8595 17.3355 26.843 18.333V22.2531H25.534V19.64C25.6187 18.7354 25.4202 17.8269 24.966 17.04C24.399 16.209 23.302 15.71 21.606 15.71H1.96402C1.79768 15.7049 1.63797 15.6436 1.51102 15.536C1.4472 15.4731 1.39651 15.3982 1.36192 15.3156C1.32732 15.2329 1.30951 15.1442 1.30951 15.0546C1.30951 14.965 1.32732 14.8762 1.36192 14.7936C1.39651 14.7109 1.4472 14.6359 1.51102 14.573C1.63817 14.4661 1.79797 14.4058 1.96402 14.402V14.406ZM8.92502 17.024H10.317L11.135 23.005C11.1568 23.1616 11.2345 23.305 11.3538 23.4087C11.4731 23.5124 11.626 23.5693 11.784 23.569H27.498C28.2347 23.5103 28.9702 23.6968 29.59 24.0994C30.2097 24.5019 30.6791 25.0981 30.925 25.795C31.1668 26.329 31.2906 26.9088 31.288 27.495H9.82102V22.912C9.82091 22.8785 9.81824 22.8451 9.81302 22.812C9.81302 22.812 9.19002 18.712 8.92502 17.019V17.024ZM11.639 17.024H21.604C23.067 17.024 23.604 17.3731 23.884 17.7841C24.1657 18.3608 24.2833 19.0039 24.224 19.6431V22.254H12.354L11.639 17.024ZM15.057 28.801H20.295V30.118H15.057V28.801ZM12.438 28.814H13.747V30.778C13.747 30.9517 13.816 31.1184 13.9389 31.2412C14.0617 31.364 14.2283 31.433 14.402 31.433H20.949C21.1227 31.433 21.2893 31.364 21.4122 31.2412C21.535 31.1184 21.604 30.9517 21.604 30.778V28.814H22.913V32.7421H12.438V28.814ZM26.396 28.814H27.658L30.141 37.505C30.1808 37.641 30.2636 37.7604 30.377 37.8453C30.4905 37.9303 30.6283 37.9762 30.77 37.9761H36.679C36.8233 37.9819 36.9626 38.0305 37.079 38.116C37.2095 38.2545 37.2821 38.4377 37.2821 38.6281C37.2821 38.8184 37.2095 39.0014 37.079 39.14C36.9624 39.2257 36.8235 39.2758 36.679 39.2841H29.306L26.395 28.809L26.396 28.814ZM17.021 34.051H18.33V37.98H17.021V34.051ZM12.438 39.2891H22.9C24.59 39.3311 25.138 39.755 25.356 40.089C25.456 40.234 25.412 40.43 25.433 40.597H9.89402C9.87424 40.4079 9.89643 40.2166 9.95902 40.037C10.159 39.709 10.683 39.288 12.439 39.288L12.438 39.2891Z" fill="#FF9F43"/>
</svg>
