<svg width="31" height="26" viewBox="0 0 31 26" fill="none" xmlns="http://www.w3.org/2000/svg">
<path d="M9.42798 0.0639978C8.42305 0.0535752 7.45492 0.441665 6.73544 1.14334C6.01596 1.84501 5.60374 2.80312 5.58898 3.808C5.58898 3.808 5.58898 3.815 5.58898 3.818C5.58898 3.929 5.58898 4.043 5.58898 4.153H2.09998C1.89195 4.14237 1.68392 4.17417 1.48856 4.24646C1.2932 4.31876 1.11458 4.43003 0.963577 4.57352C0.81257 4.71701 0.692328 4.88972 0.610162 5.08114C0.527997 5.27256 0.485626 5.47869 0.485626 5.687C0.485626 5.89531 0.527997 6.10144 0.610162 6.29286C0.692328 6.48428 0.81257 6.65698 0.963577 6.80047C1.11458 6.94396 1.2932 7.05524 1.48856 7.12753C1.68392 7.19982 1.89195 7.23162 2.09998 7.221H5.61398C5.63798 11.141 5.62498 15.084 5.62498 19.011C5.62498 19.0783 5.63827 19.1449 5.66407 19.207C5.68988 19.2691 5.7277 19.3256 5.77536 19.373C5.82302 19.4205 5.87959 19.4581 5.94182 19.4837C6.00405 19.5092 6.07071 19.5223 6.13798 19.522H8.68898V24.116C8.69346 24.5198 8.85709 24.9055 9.14431 25.1894C9.43154 25.4732 9.81916 25.6323 10.223 25.632H24.541C24.9448 25.6323 25.3324 25.4732 25.6197 25.1894C25.9069 24.9055 26.0705 24.5198 26.075 24.116V7.222H28.514C28.722 7.23262 28.93 7.20082 29.1254 7.12853C29.3208 7.05624 29.4994 6.94496 29.6504 6.80147C29.8014 6.65798 29.9216 6.48528 30.0038 6.29386C30.086 6.10244 30.1283 5.89631 30.1283 5.688C30.1283 5.47969 30.086 5.27356 30.0038 5.08214C29.9216 4.89072 29.8014 4.71801 29.6504 4.57452C29.4994 4.43103 29.3208 4.31976 29.1254 4.24746C28.93 4.17517 28.722 4.14337 28.514 4.154H26.049C26.049 4.049 26.049 4.004 26.043 3.854C26.0422 3.8339 26.0402 3.81386 26.037 3.794C26.037 3.82 26.037 3.763 26.037 3.781C26.0152 2.78276 25.6014 1.83321 24.8851 1.13765C24.1687 0.442083 23.2074 0.0564031 22.209 0.0639978H9.42798ZM9.42798 1.093H22.209C22.5725 1.08651 22.9337 1.15183 23.272 1.28522C23.6102 1.41861 23.9188 1.61744 24.18 1.87031C24.4412 2.12318 24.65 2.42513 24.7943 2.75884C24.9386 3.09255 25.0156 3.45146 25.021 3.815C25.021 3.84858 25.0244 3.88207 25.031 3.915C24.996 3.753 24.996 3.762 25.031 3.959C25.031 4.012 25.026 4.089 25.021 4.159H24.021V3.944C24.021 3.53875 23.86 3.15009 23.5734 2.86354C23.2869 2.57698 22.8982 2.416 22.493 2.416C22.0877 2.416 21.6991 2.57698 21.4125 2.86354C21.126 3.15009 20.965 3.53875 20.965 3.944L20.95 11.311H6.65998C6.65998 8.805 6.65298 6.301 6.61598 3.811C6.62145 3.4475 6.69858 3.08865 6.84294 2.755C6.9873 2.42135 7.19606 2.11946 7.45727 1.86661C7.71848 1.61376 8.027 1.41493 8.36516 1.28149C8.70333 1.14806 9.0645 1.08264 9.42798 1.089V1.093ZM22.489 3.438C22.5558 3.43635 22.6222 3.44829 22.6842 3.47308C22.7462 3.49788 22.8025 3.53502 22.8497 3.58224C22.897 3.62947 22.9341 3.6858 22.9589 3.74781C22.9837 3.80983 22.9956 3.87623 22.994 3.943V4.154H21.989V3.946C21.9881 3.87975 22.0003 3.81398 22.025 3.75251C22.0497 3.69103 22.0864 3.63508 22.1329 3.58791C22.1795 3.54074 22.2349 3.50328 22.296 3.47772C22.3571 3.45215 22.4227 3.43799 22.489 3.438ZM2.09998 5.177H5.59998C5.59998 5.516 5.59998 5.859 5.60598 6.2H2.09998C2.02712 6.20968 1.95303 6.20369 1.88267 6.18242C1.81231 6.16115 1.7473 6.12509 1.69201 6.07666C1.63671 6.02823 1.5924 5.96855 1.56205 5.9016C1.53169 5.83466 1.51599 5.762 1.51599 5.6885C1.51599 5.61499 1.53169 5.54234 1.56205 5.47539C1.5924 5.40845 1.63671 5.34876 1.69201 5.30033C1.7473 5.2519 1.81231 5.21585 1.88267 5.19457C1.95303 5.1733 2.02712 5.16731 2.09998 5.177ZM21.983 5.177H28.514C28.5874 5.1662 28.6624 5.17134 28.7337 5.19209C28.805 5.21284 28.8709 5.2487 28.9271 5.29724C28.9833 5.34577 29.0284 5.40584 29.0593 5.47335C29.0902 5.54087 29.1062 5.61425 29.1062 5.6885C29.1062 5.76275 29.0902 5.83613 29.0593 5.90364C29.0284 5.97116 28.9833 6.03123 28.9271 6.07976C28.8709 6.12829 28.805 6.16416 28.7337 6.1849C28.6624 6.20565 28.5874 6.2108 28.514 6.2H21.98V5.177H21.983ZM21.978 7.222H25.053V24.116C25.0534 24.1824 25.0404 24.2483 25.0147 24.3096C24.9889 24.3708 24.951 24.4262 24.9033 24.4724C24.8555 24.5186 24.7988 24.5546 24.7367 24.5783C24.6746 24.6019 24.6084 24.6127 24.542 24.61H10.226C10.1596 24.6127 10.0933 24.6019 10.0312 24.5783C9.96913 24.5546 9.91248 24.5186 9.8647 24.4724C9.81693 24.4262 9.77903 24.3708 9.75329 24.3096C9.72755 24.2483 9.71452 24.1824 9.71498 24.116V19.516L21.443 19.495C21.5776 19.4942 21.7065 19.4403 21.8017 19.345C21.8968 19.2497 21.9505 19.1207 21.951 18.986L21.978 7.222ZM6.65798 12.334H8.65798V14.371H6.65298L6.65798 12.334ZM9.68498 12.334H11.729V14.371H9.68898L9.68498 12.334ZM12.753 12.334H14.798V14.371H12.752L12.753 12.334ZM15.821 12.334H17.866V14.371H15.819L15.821 12.334ZM18.889 12.334H20.947V14.371H18.889V12.334ZM6.65098 15.393H20.936L20.93 18.477L6.64598 18.503C6.64598 17.47 6.64598 16.43 6.65098 15.395V15.393Z" fill="#FF9E59"/>
</svg>
