<svg width="126" height="101" viewBox="0 0 126 101" fill="none" xmlns="http://www.w3.org/2000/svg">
<path d="M77.0625 109.75C74.6667 112.146 71.6979 113.344 68.1562 113.344C64.6146 113.344 61.6458 112.146 59.25 109.75L4.25 54.75C3.10417 53.6042 2.19271 52.25 1.51562 50.6875C0.838542 49.125 0.5 47.4583 0.5 45.6875V1C0.5 -2.4375 1.72396 -5.38021 4.17188 -7.82812C6.61979 -10.276 9.5625 -11.5 13 -11.5H57.6875C59.4583 -11.5 61.125 -11.1615 62.6875 -10.4844C64.25 -9.80729 65.6042 -8.89583 66.75 -7.75L121.75 47.4062C124.146 49.8021 125.344 52.7448 125.344 56.2344C125.344 59.724 124.146 62.6667 121.75 65.0625L77.0625 109.75ZM68.1562 101L112.844 56.3125L57.6875 1H13V45.6875L68.1562 101ZM28.625 26C31.2292 26 33.4427 25.0885 35.2656 23.2656C37.0885 21.4427 38 19.2292 38 16.625C38 14.0208 37.0885 11.8073 35.2656 9.98438C33.4427 8.16146 31.2292 7.25 28.625 7.25C26.0208 7.25 23.8073 8.16146 21.9844 9.98438C20.1615 11.8073 19.25 14.0208 19.25 16.625C19.25 19.2292 20.1615 21.4427 21.9844 23.2656C23.8073 25.0885 26.0208 26 28.625 26Z" fill="white"/>
</svg>
