<svg id="undraw_duplicate_re_d39g" xmlns="http://www.w3.org/2000/svg" width="467.95" height="325.254" viewBox="0 0 467.95 325.254">
  <path id="Path_1859" data-name="Path 1859" d="M187.511,562.485H194.8l3.466-28.1H187.51Z" transform="translate(-86.115 -245.418)" fill="#a0616a"/>
  <path id="Path_1860" data-name="Path 1860" d="M351.385,731.206h14.348a9.144,9.144,0,0,1,9.143,9.143v.3H351.385Z" transform="translate(-251.847 -416.518)" fill="#2f2e41"/>
  <path id="Path_1861" data-name="Path 1861" d="M276.511,562.485H283.8l3.466-28.1H276.51Z" transform="translate(-126.989 -245.418)" fill="#a0616a"/>
  <path id="Path_1862" data-name="Path 1862" d="M440.385,731.206h14.348a9.144,9.144,0,0,1,9.143,9.143v.3H440.385Z" transform="translate(-292.721 -416.518)" fill="#2f2e41"/>
  <rect id="Rectangle_2520" data-name="Rectangle 2520" width="327.744" height="1.081" transform="translate(0 324.172)" fill="#e6e6e6"/>
  <path id="Path_1863" data-name="Path 1863" d="M176.231,452.725H195.1l12.062-105.62,22.178,105.62h12.734V326.777l-60.544-18.119Z" transform="translate(-80.935 -141.753)" fill="#202020"/>
  <circle id="Ellipse_179" data-name="Ellipse 179" cx="16.458" cy="16.458" r="16.458" transform="translate(111.017 41.058)" fill="#a0616a"/>
  <path id="Path_1864" data-name="Path 1864" d="M350.925,387.375c17.66,13.811,37.152,20.772,59.218,18.119-9.319-32.721-12.083-65.194-3.093-97.224l-18.561-8.4-20.864-1.326-15.164,4.46a10.139,10.139,0,0,0-7.274,9.927C345.723,340.25,343.907,365.812,350.925,387.375Z" transform="translate(-249 -217.818)" fill="#f2d6a6"/>
  <path id="Path_1865" data-name="Path 1865" d="M372.737,230.5c1.583-2.987,3.6-8.941,6.791-10.045a25.406,25.406,0,0,1,5.47-1.165l5.432,2.089-2.956-2.3q.863-.051,1.726-.084l3.665,1.41-1.875-1.458c3.417-.035,6.944.32,9.591,2.4,2.257,1.773,4.493,8.491,4.855,11.338a21.684,21.684,0,0,1-.4,8.17l-.928.883a11.385,11.385,0,0,1-.728-2.318,10.978,10.978,0,0,0-5.255-7.129l-.051-.029a9.85,9.85,0,0,0-5.231-.771l-8.478.305c-2.04.073-4.236.2-5.827,1.482a9.594,9.594,0,0,0-2.33,3.375,71.464,71.464,0,0,0-2.334,7.611s-.874-1.136-1.292-.29a29.226,29.226,0,0,1-1.216-6.783A13.291,13.291,0,0,1,372.737,230.5Z" transform="translate(-261.013 -181.26)" fill="#2f2e41"/>
  <path id="Path_1866" data-name="Path 1866" d="M838.257,304.774h-190A12.267,12.267,0,0,1,636,292.521V161.507a12.267,12.267,0,0,1,12.253-12.253h190a12.267,12.267,0,0,1,12.253,12.253V292.521A12.267,12.267,0,0,1,838.257,304.774Zm-190-154.438a11.184,11.184,0,0,0-11.172,11.172V292.521a11.184,11.184,0,0,0,11.172,11.172h190a11.184,11.184,0,0,0,11.172-11.172V161.507a11.184,11.184,0,0,0-11.172-11.172Z" transform="translate(-382.56 -149.254)" fill="#f37022"/>
  <path id="Path_1867" data-name="Path 1867" d="M599.006,335.98V204.967a11.726,11.726,0,0,1,11.713-11.712h190a11.726,11.726,0,0,1,11.712,11.713V335.98a11.726,11.726,0,0,1-11.712,11.712h-190A11.726,11.726,0,0,1,599.006,335.98Z" transform="translate(-365.568 -169.461)" fill="#eb9d6c"/>
  <path id="Path_1868" data-name="Path 1868" d="M612.825,342.9V211.421a3.615,3.615,0,0,1,3.611-3.611H807.693a3.614,3.614,0,0,1,3.61,3.61V342.9a3.614,3.614,0,0,1-3.61,3.61H616.435A3.615,3.615,0,0,1,612.825,342.9Z" transform="translate(-371.915 -176.146)" fill="#fff"/>
  <circle id="Ellipse_180" data-name="Ellipse 180" cx="5.323" cy="5.323" r="5.323" transform="translate(312.65 194.717)" fill="#ff9e59"/>
  <circle id="Ellipse_181" data-name="Ellipse 181" cx="5.323" cy="5.323" r="5.323" transform="translate(334.827 194.717)" fill="#ff9e59"/>
  <circle id="Ellipse_182" data-name="Ellipse 182" cx="5.323" cy="5.323" r="5.323" transform="translate(357.004 194.717)" fill="#ff9e59"/>
  <path id="Path_1869" data-name="Path 1869" d="M763.529,341.879a38.642,38.642,0,1,1,38.642-38.642h0A38.686,38.686,0,0,1,763.529,341.879Z" transform="translate(-423.38 -202.225)" fill="#ff9e59"/>
  <path id="Path_1870" data-name="Path 1870" d="M795.408,316.057H783.973V304.622a3.812,3.812,0,1,0-7.624,0v11.435H764.914a3.812,3.812,0,0,0,0,7.624h11.435v11.435a3.812,3.812,0,0,0,7.624,0V323.681h11.435a3.812,3.812,0,1,0,.011-7.624Z" transform="translate(-440.012 -218.857)" fill="#fff"/>
  <path id="Path_1871" data-name="Path 1871" d="M254.353,658.753a55.445,55.445,0,0,0-4.866-15.62l-.348-.719-2.583,2.864,1.914-4.266-.125-.248a101.974,101.974,0,0,0-5.606-9.727l-.379-.581-.506.561.354-.79-.177-.266c-2.534-3.8-4.481-6.2-4.5-6.229l-.551-.677-.354.808c-.065.148-6.5,14.975-7.352,29.625l-.013.228,4.33,5.234-4.416-2.772.008,1.006a42.867,42.867,0,0,0,.351,5.149q.292,2.2.687,4.3A2.3,2.3,0,0,1,231.4,667q-.458-2.346-.789-4.821c-.171-1.318-.278-2.656-.321-3.991l8.542,5.363-8.459-10.225c.77-12.387,5.551-24.867,6.893-28.161.72.934,2.079,2.748,3.7,5.17l-2.955,6.587,4.213-4.671a100.832,100.832,0,0,1,5.041,8.788l-4.55,10.143,6.152-6.822a54.283,54.283,0,0,1,4.418,14.557c1.077,8.133.867,15.947-.592,22-1.4,5.8-3.859,9.364-6.755,9.781a4.579,4.579,0,0,1-1.785-.106,2.649,2.649,0,0,1-1.6.489h-.158a6.277,6.277,0,0,0,2.933.788,5.292,5.292,0,0,0,.758-.054c3.406-.489,6.125-4.262,7.657-10.622C255.232,675,255.451,667.039,254.353,658.753Z" transform="translate(-195.722 -366.85)" fill="#e6e6e6"/>
  <path id="Path_1872" data-name="Path 1872" d="M230.107,725.169c-4.454,0-10.876-2.45-17.246-6.91a27.545,27.545,0,0,1-2.68-2.155l-.713-.652,2.7-.777-3.592-.132-.152-.159c-6.732-7.051-10.922-17.01-10.964-17.11l-.327-.787.851.039c.085,0,2.109.1,5.15.531l.19.027v0l.667.1a66.949,66.949,0,0,1,7.37,1.549l.259.07.809,1.993-.123-1.788.743.214a35.816,35.816,0,0,1,9.911,4.595c9.687,6.783,15.047,15.261,12.213,19.307C234.2,724.508,232.42,725.169,230.107,725.169Zm-18.463-9.219c.592.5,1.207.978,1.839,1.423,8.872,6.213,18.4,8.562,20.8,5.131s-3.064-11.58-11.937-17.793a34.7,34.7,0,0,0-8.858-4.226l.48,6.985-3.152-7.763c-2.076-.551-4.2-1-6.325-1.35l.348,5.07-2.169-5.343c-1.681-.231-3.035-.356-3.859-.42,1.124,2.467,4.836,10.086,10.24,15.814l9.912.363Z" transform="translate(-181.005 -400.574)" fill="#e6e6e6"/>
  <path id="Path_1873" data-name="Path 1873" d="M357.439,463.261a5.641,5.641,0,0,0-6.658-5.523L340.9,440.293l-4.075,8.353,9.439,16.067a5.672,5.672,0,0,0,11.171-1.452Z" transform="translate(-245.162 -282.915)" fill="#a0616a"/>
  <path id="Path_1874" data-name="Path 1874" d="M456.045,494.791a5.641,5.641,0,0,1,3.219-8.029l.365-20.044,8.591,5.893-1.664,18.131a5.672,5.672,0,0,1-10.512,4.05Z" transform="translate(-299.605 -295.051)" fill="#a0616a"/>
  <path id="Path_1875" data-name="Path 1875" d="M330.15,399.338l7.071-6.629-3.629-35.8,4.2-50.6h0c-9.12,2.866-18.912,10.566-20.525,19.988L311.5,360.006Z" transform="translate(-233.528 -221.384)" fill="#eb9d6c"/>
  <path id="Path_1876" data-name="Path 1876" d="M181.4,215.083l-5.745,22.98,8.711,32.609-5.617-30.841Z" transform="translate(-80.668 -98.778)" opacity="0.2"/>
  <path id="Path_1877" data-name="Path 1877" d="M452.393,413.4l11.49,1.326L461.193,329.4A19.86,19.86,0,0,0,448.981,311.7l-4.1-1.709,1.1,39.994Z" transform="translate(-294.785 -223.073)" fill="#eb9d6c"/>
  <path id="Path_1878" data-name="Path 1878" d="M280.9,237.114l4.435,49.241-7.509-48.9Z" transform="translate(-127.592 -108.896)" opacity="0.2"/>
</svg>
