<svg xmlns="http://www.w3.org/2000/svg" width="28.839" height="23.125" viewBox="0 0 28.839 23.125">
  <path id="Layer_14" data-name="Layer 14" d="M28.375,16.126a1.445,1.445,0,0,1,0-1.127l2.11-4.957A4.336,4.336,0,0,0,26.553,4H6.319a4.336,4.336,0,0,0-3.931,6.041L4.5,15a1.445,1.445,0,0,1,0,1.127l-2.11,4.957a4.336,4.336,0,0,0,3.931,6.041H26.553a4.336,4.336,0,0,0,3.975-6.041ZM12.1,9.781a1.445,1.445,0,1,1-1.445,1.445A1.445,1.445,0,0,1,12.1,9.781Zm8.672,11.563A1.445,1.445,0,1,1,22.218,19.9,1.445,1.445,0,0,1,20.772,21.344ZM21.8,12.253l-8.672,8.672a1.451,1.451,0,1,1-2.052-2.052L19.746,10.2A1.451,1.451,0,0,1,21.8,12.253Z" transform="translate(-2.038 -4)"/>
</svg>
