<svg width="24" height="24" viewBox="0 0 24 24" fill="none" xmlns="http://www.w3.org/2000/svg">
<path fill-rule="evenodd" clip-rule="evenodd" d="M12.0001 7.81395C9.55831 7.81395 7.57886 9.6881 7.57886 12C7.57886 14.3119 9.55831 16.186 12.0001 16.186C14.4419 16.186 16.4213 14.3119 16.4213 12C16.4213 9.6881 14.4419 7.81395 12.0001 7.81395ZM9.34734 12C9.34734 10.6129 10.535 9.48837 12.0001 9.48837C13.4651 9.48837 14.6528 10.6129 14.6528 12C14.6528 13.3871 13.4651 14.5116 12.0001 14.5116C10.535 14.5116 9.34734 13.3871 9.34734 12Z" fill="#9095A5"/>
<path fill-rule="evenodd" clip-rule="evenodd" d="M11.9702 4.74171e-07C11.4462 -1.06886e-05 11.0087 -1.07405e-05 10.6496 0.0231855C10.2757 0.0473418 9.92262 0.0994051 9.58025 0.233671C8.78583 0.545236 8.15464 1.14284 7.82558 1.89502C7.65427 2.28661 7.60788 2.6993 7.59016 3.14786C7.57592 3.50845 7.38372 3.80931 7.10006 3.96437C6.81642 4.11942 6.44514 4.12658 6.10819 3.95797C5.68904 3.74821 5.28836 3.5799 4.84452 3.52457C3.992 3.4183 3.12979 3.63705 2.44759 4.13268C2.1536 4.34627 1.9294 4.60979 1.72039 4.90426C1.5196 5.18714 1.30089 5.54584 1.03888 5.97552L1.00911 6.02435C0.747093 6.45401 0.528368 6.8127 0.370018 7.11877C0.205184 7.4374 0.076238 7.75299 0.0278642 8.10085C-0.0843754 8.90804 0.146659 9.72438 0.670117 10.3703C0.942605 10.7065 1.29683 10.9509 1.69821 11.1897C2.02099 11.3817 2.20011 11.6898 2.20009 12C2.20008 12.3101 2.02095 12.6182 1.69821 12.8102C1.29678 13.049 0.942522 13.2934 0.670011 13.6297C0.146541 14.2755 -0.0844815 15.0919 0.0277462 15.8991C0.0761201 16.2469 0.205066 16.5626 0.3699 16.8812C0.52825 17.1872 0.746976 17.5459 1.00898 17.9756L1.03876 18.0244C1.30077 18.4541 1.51948 18.8128 1.72028 19.0956C1.92929 19.3901 2.15348 19.6537 2.44748 19.8672C3.12967 20.3628 3.99188 20.5816 4.8444 20.4753C5.28822 20.42 5.68888 20.2518 6.10801 20.042C6.445 19.8733 6.81633 19.8805 7.10001 20.0356C7.38369 20.1907 7.57592 20.4915 7.59016 20.8522C7.60788 21.3007 7.65428 21.7134 7.82558 22.105C8.15464 22.8572 8.78583 23.4548 9.58025 23.7664C9.92262 23.9007 10.2757 23.9527 10.6496 23.9768C11.0087 24 11.4462 24 11.9702 24H12.0297C12.5538 24 12.9912 24 13.3504 23.9768C13.7243 23.9527 14.0774 23.9007 14.4197 23.7664C15.2141 23.4548 15.8454 22.8572 16.1744 22.105C16.3457 21.7134 16.3921 21.3007 16.4098 20.8521C16.424 20.4915 16.6162 20.1907 16.8999 20.0355C17.1835 19.8805 17.5549 19.8733 17.8919 20.0419C18.311 20.2516 18.7116 20.42 19.1555 20.4752C20.008 20.5815 20.8702 20.3628 21.5524 19.8672C21.8464 19.6535 22.0705 19.3901 22.2796 19.0956C22.4804 18.8128 22.6991 18.4541 22.961 18.0244L22.9909 17.9756C23.2528 17.5459 23.4717 17.1871 23.63 16.881C23.7948 16.5625 23.9237 16.2469 23.9721 15.8991C24.0844 15.0918 23.8533 14.2754 23.3298 13.6295C23.0574 13.2933 22.7031 13.049 22.3017 12.8102C21.9789 12.6182 21.7999 12.3101 21.7999 11.9999C21.7999 11.6898 21.9789 11.3818 22.3016 11.1898C22.7032 10.951 23.0575 10.7067 23.3299 10.3703C23.8534 9.72445 24.0845 8.90812 23.9723 8.10093C23.9238 7.75307 23.7949 7.43748 23.6301 7.11885C23.4718 6.8128 23.2531 6.45414 22.991 6.0245L22.9613 5.97564C22.6992 5.54595 22.4805 5.18722 22.2797 4.90434C22.0707 4.60986 21.8465 4.34634 21.5525 4.13274C20.8703 3.63713 20.0081 3.41838 19.1555 3.52465C18.7117 3.57997 18.3111 3.74827 17.892 3.95801C17.555 4.12665 17.1836 4.11947 16.9 3.9644C16.6163 3.80934 16.424 3.50843 16.4098 3.14781C16.3921 2.69925 16.3457 2.28659 16.1744 1.89502C15.8454 1.14284 15.2141 0.545236 14.4197 0.233671C14.0774 0.0994051 13.7243 0.0473418 13.3504 0.0231855C12.9912 -1.07405e-05 12.5538 -1.06886e-05 12.0297 4.74171e-07H11.9702ZM10.257 1.78063C10.348 1.74496 10.4862 1.71206 10.77 1.69372C11.0618 1.67488 11.4386 1.67442 12 1.67442C12.5614 1.67442 12.9382 1.67488 13.2299 1.69372C13.5138 1.71206 13.652 1.74496 13.7429 1.78063C14.104 1.92226 14.391 2.19389 14.5405 2.5358C14.5878 2.64364 14.6268 2.81176 14.6426 3.21039C14.6775 4.0949 15.1597 4.94656 16.0157 5.41449C16.8717 5.88243 17.8919 5.85198 18.7183 5.43838C19.0908 5.25198 19.2642 5.19999 19.3863 5.18475C19.7739 5.13645 20.1658 5.23587 20.4758 5.46115C20.554 5.5179 20.6532 5.61476 20.8119 5.83832C20.975 6.06813 21.1638 6.37686 21.4445 6.83721C21.7252 7.29757 21.9133 7.60675 22.0419 7.8554C22.167 8.09729 22.206 8.22706 22.2189 8.31948C22.2699 8.68638 22.1649 9.05746 21.9269 9.35105C21.8518 9.44366 21.7177 9.5598 21.3608 9.77202C20.5693 10.243 20.0315 11.0641 20.0314 11.9999C20.0314 12.9358 20.5692 13.757 21.3608 14.228C21.7176 14.4402 21.8517 14.5563 21.9268 14.6489C22.1647 14.9425 22.2698 15.3136 22.2187 15.6805C22.2059 15.7729 22.1669 15.9026 22.0418 16.1445C21.9132 16.3931 21.7251 16.7023 21.4444 17.1627C21.1637 17.623 20.9749 17.9318 20.8117 18.1616C20.6531 18.3851 20.5539 18.482 20.4757 18.5387C20.1657 18.7641 19.7738 18.8634 19.3862 18.8152C19.2641 18.7999 19.0907 18.7479 18.7182 18.5616C17.8917 18.1479 16.8716 18.1175 16.0155 18.5855C15.1597 19.0534 14.6775 19.905 14.6426 20.7896C14.6268 21.1882 14.5878 21.3563 14.5405 21.4643C14.391 21.8061 14.104 22.0778 13.7429 22.2194C13.652 22.255 13.5138 22.288 13.2299 22.3063C12.9382 22.3251 12.5614 22.3256 12 22.3256C11.4386 22.3256 11.0618 22.3251 10.77 22.3063C10.4862 22.288 10.348 22.255 10.257 22.2194C9.89597 22.0778 9.60902 21.8061 9.45944 21.4643C9.41226 21.3563 9.37315 21.1882 9.3574 20.7896C9.32247 19.9052 8.84027 19.0534 7.98425 18.5855C7.12823 18.1175 6.10815 18.148 5.28163 18.5616C4.90915 18.748 4.73582 18.8 4.61358 18.8152C4.22606 18.8636 3.83415 18.7641 3.52407 18.5388C3.44595 18.4821 3.34676 18.3852 3.18808 18.1616C3.02497 17.9319 2.83615 17.6231 2.55544 17.1628C2.27471 16.7024 2.08673 16.3932 1.95809 16.1446C1.83295 15.9027 1.79395 15.7729 1.7811 15.6805C1.73009 15.3136 1.8351 14.9425 2.07304 14.6489C2.1481 14.5564 2.28232 14.4402 2.63907 14.228C3.43062 13.7571 3.96852 12.9359 3.96857 12.0001C3.96863 11.0641 3.4307 10.2429 2.63908 9.77191C2.28242 9.55969 2.1482 9.44358 2.07315 9.35097C1.83522 9.05738 1.7302 8.68631 1.78122 8.3194C1.79407 8.22699 1.83307 8.09721 1.95821 7.85533C2.08685 7.60667 2.27482 7.2975 2.55554 6.83713C2.83627 6.37678 3.02507 6.06805 3.1882 5.83824C3.34688 5.61469 3.44607 5.51782 3.52417 5.46108C3.83427 5.2358 4.22618 5.13637 4.61369 5.18467C4.73594 5.19991 4.90928 5.2519 5.28181 5.43833C6.10828 5.85193 7.12831 5.88237 7.98429 5.41446C8.84029 4.94655 9.32247 4.09492 9.3574 3.21044C9.37315 2.81178 9.41226 2.64365 9.45944 2.5358C9.60902 2.19389 9.89597 1.92226 10.257 1.78063Z" fill="#9095A5"/>
</svg>
