<svg width="155" height="101" viewBox="0 0 155 101" fill="none" xmlns="http://www.w3.org/2000/svg">
<g opacity="0.2">
<path d="M93.6471 108.625V70.875C93.6471 70.3227 93.1994 69.875 92.6471 69.875H62.3555C61.8032 69.875 61.3555 70.3227 61.3555 70.875V108.625" stroke="white" stroke-linecap="round" stroke-linejoin="round"/>
<path d="M32.293 44.0417V104.625C32.293 106.511 32.293 107.453 32.8788 108.039C33.4645 108.625 34.4073 108.625 36.293 108.625H118.71C120.595 108.625 121.538 108.625 122.124 108.039C122.71 107.453 122.71 106.511 122.71 104.625V44.0417" stroke="white"/>
<path d="M31.9129 -6.11007C32.0948 -6.83763 32.1858 -7.20141 32.457 -7.41321C32.7283 -7.625 33.1033 -7.625 33.8532 -7.625H121.147C121.897 -7.625 122.272 -7.625 122.543 -7.41321C122.814 -7.20141 122.905 -6.83763 123.087 -6.11007L135.004 41.5566C135.29 42.7005 135.433 43.2725 135.132 43.6571C134.832 44.0417 134.243 44.0417 133.063 44.0417H113.18C111.562 44.0417 110.753 44.0417 110.193 43.5677C109.634 43.0937 109.501 42.2956 109.235 40.6993L106.76 25.8503C106.685 25.4001 106.647 25.1749 106.563 25.1749C106.478 25.1749 106.44 25.4001 106.365 25.8503L103.89 40.6993C103.624 42.2956 103.491 43.0937 102.932 43.5677C102.372 44.0417 101.563 44.0417 99.9448 44.0417H84.1177C82.4993 44.0417 81.6902 44.0417 81.1307 43.5677C80.5712 43.0937 80.4382 42.2956 80.1721 40.6993L77.6973 25.8503C77.6222 25.4001 77.5847 25.1749 77.5 25.1749C77.4153 25.1749 77.3778 25.4001 77.3027 25.8503L74.8279 40.6993C74.5618 42.2956 74.4288 43.0937 73.8693 43.5677C73.3098 44.0417 72.5007 44.0417 70.8823 44.0417H55.0552C53.4368 44.0417 52.6277 44.0417 52.0682 43.5677C51.5087 43.0937 51.3757 42.2956 51.1096 40.6993L48.6348 25.8503C48.5597 25.4001 48.5222 25.1749 48.4375 25.1749C48.3528 25.1749 48.3153 25.4001 48.2402 25.8503L45.7654 40.6993C45.4993 42.2956 45.3663 43.0937 44.8068 43.5677C44.2473 44.0417 43.4382 44.0417 41.8198 44.0417H21.9366C20.7574 44.0417 20.1678 44.0417 19.8676 43.6571C19.5673 43.2725 19.7103 42.7005 19.9963 41.5566L31.9129 -6.11007Z" stroke="white"/>
</g>
</svg>
