<svg width="18" height="18" viewBox="0 0 18 18" fill="none" xmlns="http://www.w3.org/2000/svg">
<path d="M10.875 15.75V12.25C10.875 11.6977 10.4273 11.25 9.875 11.25H8.125C7.57272 11.25 7.125 11.6977 7.125 12.25V15.75" stroke="white" stroke-linecap="round" stroke-linejoin="round"/>
<path d="M3.75 8.25V11.75C3.75 13.6356 3.75 14.5784 4.33579 15.1642C4.92157 15.75 5.86438 15.75 7.75 15.75H10.25C12.1356 15.75 13.0784 15.75 13.6642 15.1642C14.25 14.5784 14.25 13.6356 14.25 11.75V8.25" stroke="white"/>
<path d="M3.37127 3.76493C3.55316 3.03737 3.6441 2.67359 3.91536 2.46179C4.18663 2.25 4.5616 2.25 5.31155 2.25H12.6884C13.4384 2.25 13.8134 2.25 14.0846 2.46179C14.3559 2.67359 14.4468 3.03737 14.6287 3.76493L15.4368 6.99704C15.4391 7.00645 15.4403 7.01116 15.4412 7.01486C15.5927 7.64109 15.1211 8.24506 14.4768 8.24997C14.473 8.25 14.4647 8.25 14.4481 8.25V8.25C13.476 8.25 12.6329 7.54725 12.4731 6.58843V6.58843C12.4546 6.47765 12.2954 6.47765 12.2769 6.58843L12.2158 6.95536C12.0913 7.70244 11.4449 8.25 10.6875 8.25V8.25C9.93011 8.25 9.28374 7.70244 9.15923 6.95536L9.09807 6.58843C9.07961 6.47765 8.92039 6.47765 8.90193 6.58843L8.84077 6.95536C8.71626 7.70244 8.06989 8.25 7.3125 8.25V8.25C6.55511 8.25 5.90874 7.70244 5.78423 6.95536L5.72307 6.58843C5.70461 6.47765 5.54539 6.47766 5.52693 6.58843V6.58843C5.36713 7.54725 4.52398 8.25 3.55193 8.25V8.25C3.53529 8.25 3.52697 8.25 3.52316 8.24997C2.87888 8.24506 2.40732 7.64109 2.55881 7.01486C2.55971 7.01116 2.56089 7.00645 2.56324 6.99704L3.37127 3.76493Z" stroke="white"/>
</svg>
