<svg width="43" height="26" viewBox="0 0 43 26" fill="none" xmlns="http://www.w3.org/2000/svg">
<path d="M21.941 0.547005C21.941 0.547005 16.155 5.474 16.155 11.547C16.155 17.62 21.941 22.547 21.941 22.547C21.941 22.547 27.727 17.62 27.727 11.547C27.727 5.474 21.941 0.547005 21.941 0.547005Z" fill="#707070"/>
<path d="M17.055 20.776C16.1419 19.5351 15.3789 18.1904 14.782 16.77C14.0635 15.1237 13.6927 13.3468 13.6927 11.5505C13.6927 9.75424 14.0635 7.97732 14.782 6.33101L14.822 6.237C12.9719 5.45767 11.018 4.95235 9.02203 4.737C9.02203 4.737 7.23003 12.122 10.797 17.037C12.5716 19.2563 14.994 20.8671 17.727 21.645C17.507 21.375 17.283 21.084 17.055 20.776Z" fill="#707070"/>
<path d="M16.945 23.98C15.4776 23.5113 14.0708 22.8705 12.754 22.071C11.2065 21.1604 9.86359 19.9401 8.80932 18.4867C7.75506 17.0332 7.01212 15.3778 6.62702 13.624C4.6392 14.0935 2.73208 14.8555 0.968018 15.885C0.968018 15.885 3.90902 22.892 9.70102 24.733C12.4627 25.4682 15.3852 25.321 18.059 24.312C17.701 24.215 17.328 24.105 16.945 23.98Z" fill="#707070"/>
<path d="M34.86 4.738C32.864 4.95334 30.9101 5.45866 29.06 6.238L29.1 6.33201C29.8184 7.97834 30.1892 9.75525 30.1892 11.5515C30.1892 13.3478 29.8184 15.1247 29.1 16.771C28.5032 18.1914 27.7402 19.5361 26.827 20.777C26.603 21.085 26.379 21.377 26.159 21.651C28.8917 20.8729 31.3137 19.2622 33.088 17.043C36.652 12.123 34.86 4.738 34.86 4.738Z" fill="#707070"/>
<path d="M37.255 13.624C36.8699 15.3778 36.127 17.0332 35.0727 18.4867C34.0185 19.9401 32.6755 21.1604 31.128 22.071C29.811 22.8706 28.4038 23.5114 26.936 23.98C26.553 24.105 26.18 24.215 25.822 24.312C28.4958 25.3211 31.4184 25.4683 34.18 24.733C39.971 22.891 42.913 15.885 42.913 15.885C41.1493 14.8556 39.2425 14.0936 37.255 13.624Z" fill="#707070"/>
</svg>
