<svg xmlns="http://www.w3.org/2000/svg" width="381" height="381" viewBox="0 0 381 381">
  <g id="Group_75834" data-name="Group 75834" transform="translate(-128 -133)">
    <rect id="Rectangle_1" data-name="Rectangle 1" width="381" height="381" transform="translate(128 133)" fill="rgba(242,242,242,0)"/>
    <g id="undraw_terms_re_6ak4" transform="translate(170.62 187.077)">
      <path id="Path_1428" data-name="Path 1428" d="M459.052,307.646c-.053,0-.086,0-.1,0h-6.321v-.932h6.344c.147.005,3.144.09,5.9-3.26,4.115-4.993,7.494-17.354.224-47.884-9.774-41.053-1.622-77.32,2.336-91.008a4.545,4.545,0,0,0-4.373-5.8h-94.4a4.565,4.565,0,0,0-3.681,1.874c-1.677,2.307-3.978,6.738-5.419,14.752l-.917-.165c1.471-8.187,3.848-12.749,5.582-15.135a5.5,5.5,0,0,1,4.435-2.258h94.4a5.477,5.477,0,0,1,5.268,6.993c-3.938,13.616-12.048,49.7-2.325,90.534,7.371,30.96,3.828,43.588-.443,48.731C462.753,307.475,459.649,307.646,459.052,307.646Z" transform="translate(-323.308 -157.826)" fill="#e6e6e6"/>
      <path id="Path_1429" data-name="Path 1429" d="M422.551,344.146c-.053,0-.086,0-.1,0h-6.321v-.932h6.344c.148,0,3.144.09,5.9-3.261,4.115-4.993,7.494-17.354.224-47.884-9.774-41.053-1.622-77.32,2.336-91.008a4.545,4.545,0,0,0-4.372-5.8h-94.4a4.565,4.565,0,0,0-3.681,1.874c-1.677,2.307-3.978,6.738-5.418,14.751l-.917-.165c1.471-8.187,3.847-12.749,5.582-15.135a5.5,5.5,0,0,1,4.435-2.258h94.4a5.477,5.477,0,0,1,5.268,6.994c-3.938,13.616-12.048,49.7-2.325,90.533,7.371,30.96,3.828,43.588-.443,48.731C426.253,343.975,423.149,344.146,422.551,344.146Z" transform="translate(-303.817 -177.317)" fill="#ccc"/>
      <path id="Path_1430" data-name="Path 1430" d="M384.531,380.646c-.053,0-.086,0-.1,0H291.488a5.476,5.476,0,0,1-5.093-7.5c3.372-8.426,7.913-28.64.434-69.359-8.831-48.082-.925-65.459,2.884-70.7a5.5,5.5,0,0,1,4.435-2.258h94.4a5.477,5.477,0,0,1,5.268,6.993c-3.938,13.616-12.048,49.7-2.325,90.533,7.371,30.96,3.828,43.589-.443,48.731C388.233,380.474,385.129,380.646,384.531,380.646ZM294.149,231.757a4.565,4.565,0,0,0-3.681,1.874c-3.739,5.142-11.488,22.255-2.722,69.982,7.145,38.9,3.68,59.468-.485,69.874a4.467,4.467,0,0,0,.455,4.224,4.55,4.55,0,0,0,3.772,2h92.968c.147.007,3.144.09,5.9-3.26,4.115-4.993,7.494-17.354.224-47.885-9.774-41.053-1.622-77.321,2.336-91.008a4.544,4.544,0,0,0-4.372-5.8Z" transform="translate(-282.806 -196.808)" fill="#3f3d56"/>
      <path id="Path_1431" data-name="Path 1431" d="M386.089,312.281H312a3.728,3.728,0,1,1,0-7.456h74.094a3.728,3.728,0,0,1,0,7.456Z" transform="translate(-296.402 -236.323)" fill="#f37022"/>
      <path id="Path_1432" data-name="Path 1432" d="M386.089,346.281H312a3.728,3.728,0,1,1,0-7.456h74.094a3.728,3.728,0,0,1,0,7.456Z" transform="translate(-296.402 -254.479)" fill="#ccc"/>
      <path id="Path_1433" data-name="Path 1433" d="M386.089,380.281H312a3.728,3.728,0,1,1,0-7.456h74.094a3.728,3.728,0,0,1,0,7.456Z" transform="translate(-296.402 -272.635)" fill="#ccc"/>
      <path id="Path_1434" data-name="Path 1434" d="M398.089,414.281H323.995a3.728,3.728,0,0,1,0-7.456h74.094a3.728,3.728,0,1,1,0,7.456Z" transform="translate(-302.81 -290.791)" fill="#ccc"/>
      <path id="Path_1435" data-name="Path 1435" d="M398.089,448.281H323.995a3.728,3.728,0,0,1,0-7.456h74.094a3.728,3.728,0,1,1,0,7.456Z" transform="translate(-302.81 -308.947)" fill="#ccc"/>
      <path id="Path_1436" data-name="Path 1436" d="M346.945,278.281H312a3.728,3.728,0,1,1,0-7.456h34.95a3.728,3.728,0,1,1,0,7.456Z" transform="translate(-296.402 -218.167)" fill="#f37022"/>
      <path id="Path_1437" data-name="Path 1437" d="M380.014,498.153c.752-3.185,4.286-4.229,7.176-4.112a30.615,30.615,0,0,1,5.411.856c1.857.416,3.7.907,5.524,1.429,3.355.956,6.675,2.113,10.084,2.861a17.521,17.521,0,0,0,8.754.128,8.3,8.3,0,0,0,5.77-5.66,5.666,5.666,0,0,0-2.821-6.741c-2.336-1.1-5.286-.541-6.443,1.949-1.305,2.808,0,5.871,2.066,7.9a23.138,23.138,0,0,0,3.839,2.916,14.3,14.3,0,0,0,4.6,2.059c2.7.576,5.907-.272,7.3-2.848a4.81,4.81,0,0,0,.546-1.881c.082-.9-1.316-.89-1.4,0-.236,2.565-3.239,3.766-5.485,3.484a11.154,11.154,0,0,1-4.252-1.65,24.958,24.958,0,0,1-3.522-2.485c-1.9-1.648-3.691-4.361-2.411-6.934,1.042-2.095,3.757-2.073,5.409-.723,2,1.636,1.644,4.605.324,6.548-1.461,2.151-4.109,3.053-6.605,3.15a25.831,25.831,0,0,1-8-1.253c-3.221-.915-6.411-1.939-9.647-2.8-1.837-.489-3.689-.93-5.56-1.273a18.358,18.358,0,0,0-5.391-.373c-2.917.337-5.9,2.035-6.613,5.077C378.459,498.656,379.807,499.03,380.014,498.153Z" transform="translate(-333.983 -333.272)" fill="#3f3d56"/>
      <path id="Path_1438" data-name="Path 1438" d="M688.072,630.81a213.364,213.364,0,0,0,2.012,27.426c.044.319.092.638.136.958l85.932-.48c.252-.317.5-.638.741-.963.8-1.074,1.554-2.179,2.244-3.322,3.318-5.507,4.837-11.954,3.314-16.4l-.028-.069a7.806,7.806,0,0,0-1.523-2.647c-3.47-3.906-10.487-3.255-16.854-.1,5.711-6.251,10.258-14.14,10.6-21.181.339-6.868-3.252-11.774-7.147-15.944-.128-.138-.256-.272-.383-.406-.062-.069-.128-.134-.19-.2-3.039-3.177-6.582-6.31-11.71-5.931-5.624.416-11.86,5.127-16.233,10.617s-7.277,11.718-10.223,17.8-6.139,12.312-10.871,17.507c6.409-8.106,11.576-17.33,13.485-26.3s.229-17.586-5.483-21.811a13.36,13.36,0,0,0-5.852-2.361c-.247-.041-.5-.074-.752-.1-5.288-.6-11.6,1.227-16.973,5.6-5.916,4.813-10.016,11.948-12.058,18.722S688.005,624.506,688.072,630.81Z" transform="translate(-499.212 -386.886)" fill="#f2f2f2"/>
      <path id="Path_1439" data-name="Path 1439" d="M808.729,717.563l1.643-.009q.783-.49,1.572-.967c.326-.206.656-.4.986-.606q8.176-4.993,16.453-9.579t16.624-8.756a.688.688,0,0,0,.4-.787.188.188,0,0,0-.027-.058c-.078-.146-.251-.206-.5-.082-.683.343-1.37.685-2.053,1.035q-8.376,4.239-16.681,8.9t-16.5,9.729c-.115.07-.23.144-.345.214C809.769,716.918,809.251,717.241,808.729,717.563Z" transform="translate(-563.648 -445.558)" fill="#fff"/>
      <path id="Path_1440" data-name="Path 1440" d="M763.264,671.495l1.016-.006c.229-.321.454-.641.683-.962q8.077-11.326,16.15-22.651,13.221-18.542,26.433-37.084a.653.653,0,0,0,.115-.224c.075-.274-.126-.434-.383-.406a.772.772,0,0,0-.537.342q-7.412,10.4-14.821,20.789l-26.3,36.895c-.558.781-1.115,1.565-1.673,2.346C763.719,670.853,763.489,671.174,763.264,671.495Z" transform="translate(-539.369 -399.37)" fill="#fff"/>
      <path id="Path_1441" data-name="Path 1441" d="M714.651,653.035c.052,1.712.165,3.4.313,5.067q.043.479.086.958l1.066-.006c-.032-.319-.065-.638-.094-.958-.225-2.412-.385-4.851-.407-7.356a102.669,102.669,0,0,1,2.021-20.687,128.823,128.823,0,0,1,6.257-21.491A147.634,147.634,0,0,1,734.131,587.3a.566.566,0,0,0,.094-.378c-.044-.3-.448-.394-.751-.1a.873.873,0,0,0-.153.193q-.737,1.268-1.448,2.544a147.5,147.5,0,0,0-9.8,21.338,128.158,128.158,0,0,0-5.833,21.524A101.231,101.231,0,0,0,714.651,653.035Z" transform="translate(-513.393 -386.811)" fill="#fff"/>
      <path id="Path_1442" data-name="Path 1442" d="M491.33,509.9a1.165,1.165,0,0,1,.635-2.055,19.239,19.239,0,0,1,7.546.774l24.845,7.673a2.563,2.563,0,1,1-1.513,4.9L498,513.517A19.242,19.242,0,0,1,491.33,509.9Z" transform="translate(-393.933 -344.689)" fill="#3f3d56"/>
      <path id="Path_1443" data-name="Path 1443" d="M702.879,545.863a5.005,5.005,0,0,1-2.268-7.333l-4.259-22.271,10.854-.847.655,21.784a5.033,5.033,0,0,1-4.982,8.666Z" transform="translate(-503.639 -348.776)" fill="#ffb8b8"/>
      <path id="Path_1444" data-name="Path 1444" d="M682.036,485.786,670.981,434.3a8.155,8.155,0,0,1,15.947-3.423l11.055,51.484a2.1,2.1,0,0,1-1.61,2.491L684.526,487.4a2.1,2.1,0,0,1-2.491-1.61Z" transform="translate(-489.993 -300.194)" fill="#f37022"/>
      <path id="Path_1445" data-name="Path 1445" d="M363.509,546.812H357.8l-2.718-22.036h8.432Z" transform="translate(-189.611 -280.23)" fill="#ffb8b8"/>
      <path id="Path_1446" data-name="Path 1446" d="M344.2,568.561h11.018V575.5H337.267A6.937,6.937,0,0,1,344.2,568.561Z" transform="translate(-180.1 -303.611)" fill="#2f2e41"/>
      <path id="Path_1447" data-name="Path 1447" d="M404.509,545.812H398.8l-2.718-22.036h8.432Z" transform="translate(-211.505 -279.696)" fill="#ffb8b8"/>
      <path id="Path_1448" data-name="Path 1448" d="M385.2,567.561h11.018V574.5H378.267A6.937,6.937,0,0,1,385.2,567.561Z" transform="translate(-201.994 -303.077)" fill="#2f2e41"/>
      <path id="Path_1449" data-name="Path 1449" d="M632.8,631.661a2.083,2.083,0,0,1-.753-1.427l-6.642-73.059a2.1,2.1,0,0,1,2.01-2.286l33.309-1.249a2.1,2.1,0,0,1,2.174,2.173l-2.662,72.779a2.1,2.1,0,0,1-1.906,2.011l-6.716.611a2.1,2.1,0,0,1-2.282-1.949l-3.082-46.235a.669.669,0,0,0-.7-.652h0a.67.67,0,0,0-.7.658L642.1,629.582a2.087,2.087,0,0,1-1.885,1.963l-5.867.587a2.082,2.082,0,0,1-1.544-.47Z" transform="translate(-465.751 -369.189)" fill="#2f2e41"/>
      <circle id="Ellipse_62" data-name="Ellipse 62" cx="11.445" cy="11.445" r="11.445" transform="translate(168.421 90.591)" fill="#ffb8b8"/>
      <path id="Path_1450" data-name="Path 1450" d="M620.292,480.445a2.08,2.08,0,0,1-.49-1.714c2.113-12.844.922-31.723-.449-45.3a20.6,20.6,0,0,1,8.5-18.781l5.977-5.124a2.13,2.13,0,0,1,1.425-.5l14.85.424a2.089,2.089,0,0,1,1.423.614l2.295,5.082.024.017a20.536,20.536,0,0,1,8.348,17.564L660.009,477.9a2.109,2.109,0,0,1-2.026,1.995l-36.044,1.266h-.07A2.093,2.093,0,0,1,620.292,480.445Z" transform="translate(-462.467 -291.965)" fill="#f2d6a6"/>
      <path id="Path_1451" data-name="Path 1451" d="M528.707,501.128a5.007,5.007,0,0,1,5.763-5.071l18.577-13,5.214,9.557-19.608,9.514a5.033,5.033,0,0,1-9.947-1Z" transform="translate(-414.116 -331.498)" fill="#ffb8b8"/>
      <path id="Path_1452" data-name="Path 1452" d="M552.005,473.665a2.084,2.084,0,0,1-1.372-.832l-7.169-9.767a2.1,2.1,0,0,1,.45-2.932l42.45-31.158a8.155,8.155,0,0,1,9.651,13.149l-42.45,31.158a2.082,2.082,0,0,1-1.236.407A2.144,2.144,0,0,1,552.005,473.665Z" transform="translate(-421.78 -301.775)" fill="#f37022"/>
      <path id="Path_1453" data-name="Path 1453" d="M653.86,367.439c1.518-1.861,1.352-4.7.134-6.766a13.036,13.036,0,0,0-5.414-4.608,70.2,70.2,0,0,1-6.391-3.314c-2-1.326-1.915-6.937-2.448-9.279l1.272.424c-.489-.625-.646-2.473-1.134-3.1,1.437.142,2.542,1.506,3.979,1.648l-.829-2.226c4.928-.3,7.991,3.12,12.919,2.817,2.442-.15,5.093-.246,7.1,1.153,1.744,1.215,2.627,3.318,3.206,5.363,1.244,4.391,1.437,9.31-.711,13.337s-7.1,6.74-11.427,5.286Z" transform="translate(-473.408 -255.214)" fill="#2f2e41"/>
      <path id="Path_1454" data-name="Path 1454" d="M534.66,740.757H712.207a.466.466,0,1,0,0-.932H534.66a.466.466,0,0,0,0,.932Z" transform="translate(-417.047 -468.612)" fill="#3f3d56"/>
    </g>
  </g>
</svg>
