<svg width="20" height="20" viewBox="0 0 20 20" fill="none" xmlns="http://www.w3.org/2000/svg">
<path d="M7.16536 6.66665C7.16536 8.23145 8.43389 9.49998 9.9987 9.49998C11.5635 9.49998 12.832 8.23145 12.832 6.66665C12.832 5.10184 11.5635 3.83331 9.9987 3.83331C8.43389 3.83331 7.16536 5.10184 7.16536 6.66665Z" stroke="white" stroke-linecap="round"/>
<path d="M16.1044 14.7476C15.6439 12.3614 13.1686 11.25 10.7383 11.25H9.26167C6.8314 11.25 4.35607 12.3614 3.89557 14.7476C3.86392 14.9116 3.83658 15.08 3.81441 15.2523C3.74395 15.8001 4.19772 16.25 4.75 16.25H15.25C15.8023 16.25 16.2561 15.8001 16.1856 15.2523C16.1634 15.08 16.1361 14.9116 16.1044 14.7476Z" stroke="white" stroke-linecap="round"/>
</svg>
