<svg width="19" height="19" viewBox="0 0 19 19" fill="none" xmlns="http://www.w3.org/2000/svg">
<path d="M15.5 4.5C16.0523 4.5 16.5 4.05228 16.5 3.5C16.5 2.94772 16.0523 2.5 15.5 2.5V4.5ZM4.62501 4.5L15.5 4.5V2.5L4.62501 2.5V4.5ZM4.62501 8.25L10.625 8.25V6.25L4.62501 6.25V8.25ZM3.75001 5.375C3.75001 4.89175 4.14176 4.5 4.62501 4.5V2.5C3.03719 2.5 1.75001 3.78718 1.75001 5.375H3.75001ZM1.75001 5.375C1.75001 6.96282 3.03719 8.25 4.62501 8.25V6.25C4.14176 6.25 3.75001 5.85825 3.75001 5.375H1.75001Z" fill="#77C7BD"/>
<path d="M2.75 9.5L2.75 5.375" stroke="#77C7BD" stroke-width="2"/>
<path d="M2.25 6.75H2.75L14.25 6.75L14.2829 6.75C14.7262 6.74997 15.1081 6.74995 15.4139 6.79107C15.7417 6.83514 16.0558 6.93451 16.3107 7.18934C16.5655 7.44417 16.6649 7.75835 16.7089 8.0861C16.75 8.39193 16.75 8.77384 16.75 9.21709L16.75 9.25V9.5V10H16.25H14C13.0335 10 12.25 10.7835 12.25 11.75C12.25 12.7165 13.0335 13.5 14 13.5H16.25H16.75V14V14.25C16.75 14.261 16.75 14.272 16.75 14.2829C16.75 14.7262 16.75 15.1081 16.7089 15.4139C16.6649 15.7417 16.5655 16.0558 16.3107 16.3107L2.25 6.75ZM2.25 6.75V7.25M2.25 6.75V7.25M2.25 7.25L2.25 14.25L2.25 14.2829C2.24997 14.7262 2.24995 15.1081 2.29107 15.4139C2.33514 15.7417 2.43451 16.0558 2.68934 16.3107C2.94417 16.5655 3.25835 16.6649 3.5861 16.7089C3.89193 16.75 4.27384 16.75 4.71708 16.75L4.75 16.75L14.25 16.75M2.25 7.25L14.25 16.75M14.25 16.75C14.261 16.75 14.272 16.75 14.2829 16.75M14.25 16.75L14.2829 16.75M14.2829 16.75C14.7262 16.75 15.1081 16.75 15.4139 16.7089M14.2829 16.75L15.4139 16.7089M15.4139 16.7089C15.7417 16.6649 16.0558 16.5655 16.3107 16.3107L15.4139 16.7089Z" fill="#77C7BD" stroke="#77C7BD"/>
</svg>
