<svg width="16" height="16" viewBox="0 0 16 16" fill="none" xmlns="http://www.w3.org/2000/svg">
<path d="M9.5 2.66663H6.5C4.37868 2.66663 3.31802 2.66663 2.65901 3.3361C2 4.00557 2 5.08306 2 7.23805V8.76186C2 10.9169 2 11.9944 2.65901 12.6638C3.31802 13.3333 4.37868 13.3333 6.5 13.3333H9.5C11.6213 13.3333 12.682 13.3333 13.341 12.6638C14 11.9944 14 10.9169 14 8.76186V7.23805C14 5.08306 14 4.00557 13.341 3.3361C12.682 2.66663 11.6213 2.66663 9.5 2.66663Z" stroke="white"/>
<path d="M4.66797 5.33337H6.66797" stroke="white" stroke-linecap="round"/>
<path d="M12.6667 10.6666H11.3333C11.0233 10.6666 10.8683 10.6666 10.7412 10.6326C10.3961 10.5401 10.1265 10.2705 10.0341 9.92545C10 9.79828 10 9.64328 10 9.33329C10 9.0233 10 8.86831 10.0341 8.74114C10.1265 8.39605 10.3961 8.1265 10.7412 8.03403C10.8683 7.99996 11.0233 7.99996 11.3333 7.99996H12.6667C12.9767 7.99996 13.1317 7.99996 13.2588 8.03403C13.6039 8.1265 13.8735 8.39605 13.9659 8.74114C14 8.86831 14 9.0233 14 9.33329C14 9.64328 14 9.79828 13.9659 9.92545C13.8735 10.2705 13.6039 10.5401 13.2588 10.6326C13.1317 10.6666 12.9767 10.6666 12.6667 10.6666Z" stroke="white"/>
</svg>
