<svg xmlns="http://www.w3.org/2000/svg" width="153.799" height="153.808" viewBox="0 0 153.799 153.808">
  <path id="c4df75a41dd66298878ca0eb82ca4ae3" d="M151.766,125.988,94.09,10.628a19.225,19.225,0,0,0-34.386,0L2.028,125.988a19.225,19.225,0,0,0,17.195,27.826H134.568a19.225,19.225,0,0,0,17.2-27.826ZM86.5,129.78a4.8,4.8,0,0,1-4.806,4.806H72.082a4.8,4.8,0,0,1-4.806-4.806v-9.613a4.8,4.8,0,0,1,4.806-4.806h9.613a4.8,4.8,0,0,1,4.806,4.806Zm0-38.45a4.8,4.8,0,0,1-4.806,4.806H72.082a4.8,4.8,0,0,1-4.806-4.806V43.267a4.805,4.805,0,0,1,4.805-4.815h9.613A4.806,4.806,0,0,1,86.5,43.258Z" transform="translate(0.002 -0.005)" fill="#ff9e59"/>
</svg>
