<svg width="40" height="40" viewBox="0 0 40 40" fill="none" xmlns="http://www.w3.org/2000/svg">
<g clip-path="url(#clip0_403_13157)">
<path d="M35.7187 19.771C35.7187 11.2382 28.6982 4.30103 20.0683 4.30103C11.4384 4.30103 4.41797 11.2382 4.41797 19.771C4.41797 28.3038 11.4384 35.1716 20.0683 35.1716C28.6982 35.1716 35.7187 28.2344 35.7187 19.771ZM31.5078 19.0773C31.2997 19.0773 31.0846 18.8692 31.0846 18.6611C31.0846 18.453 31.2928 18.2448 31.5078 18.2448C32.4929 18.2448 33.2629 19.0079 33.2629 19.9791C33.2629 20.9503 32.4929 21.7134 31.5078 21.7134C31.2997 21.7134 31.0846 21.5053 31.0846 21.2972C31.0846 21.0891 31.2928 20.881 31.5078 20.881C32.0003 20.881 32.4166 20.4647 32.4166 19.9791C32.4235 19.4935 32.0003 19.0773 31.5078 19.0773ZM26.8737 10.6833C27.2275 10.3364 27.6438 10.1977 28.1363 10.1977C28.6289 10.1977 29.052 10.4058 29.3989 10.6833C30.0996 11.377 30.0996 12.4869 29.3989 13.1113C29.3295 13.1807 29.1908 13.25 29.1214 13.25C29.052 13.25 28.9133 13.1807 28.837 13.1113C28.6982 12.9725 28.6982 12.6951 28.837 12.4869C29.1908 12.1401 29.1908 11.5851 28.837 11.2382C28.6982 11.0995 28.4832 10.9608 28.2057 10.9608C27.9282 10.9608 27.7825 11.0301 27.5744 11.2382C27.4357 11.377 27.1512 11.377 26.9431 11.2382C26.735 11.1689 26.735 10.8914 26.8737 10.6833ZM26.8737 28.5119C27.0125 28.3732 27.2969 28.3732 27.505 28.5119C27.6438 28.6507 27.8588 28.7894 28.1363 28.7894C28.4207 28.7894 28.5595 28.72 28.7676 28.5119C29.1214 28.1651 29.1214 27.6101 28.7676 27.2632C28.6289 27.1245 28.6289 26.847 28.7676 26.6389C28.9064 26.5001 29.1908 26.5001 29.3989 26.6389C29.7527 26.9857 29.8914 27.402 29.8914 27.8876C29.8914 28.3732 29.6833 28.7894 29.3989 29.1363C29.0451 29.4831 28.6289 29.6219 28.1363 29.6219C27.6438 29.6219 27.2275 29.4138 26.8737 29.1363C26.735 28.9282 26.735 28.6507 26.8737 28.5119ZM20.0683 6.93717C21.0534 6.93717 21.8235 7.70026 21.8235 8.67147C21.8235 8.87959 21.6153 9.08771 21.4003 9.08771C21.1922 9.08771 20.9771 8.87959 20.9771 8.67147C20.9771 8.18587 20.5539 7.76963 20.0614 7.76963C19.5689 7.76963 19.1457 8.18587 19.1457 8.67147C19.1457 8.87959 18.9376 9.08771 18.7225 9.08771C18.5075 9.08771 18.2993 8.87959 18.2993 8.67147C18.3132 7.70026 19.0902 6.93717 20.0683 6.93717ZM8.69823 20.8116C8.90635 20.8116 9.1214 21.0197 9.1214 21.2278C9.1214 21.436 8.91329 21.6441 8.69823 21.6441C7.71315 21.6441 6.94312 20.881 6.94312 19.9098C6.94312 18.9386 7.71315 18.1755 8.69823 18.1755C8.90635 18.1755 9.1214 18.3836 9.1214 18.5917C9.1214 18.7998 8.91329 19.0079 8.69823 19.0079C8.20569 19.0079 7.78252 19.4242 7.78252 19.9098C7.78946 20.3954 8.21263 20.8116 8.69823 20.8116ZM13.2629 29.1363C12.9091 29.4831 12.4929 29.6219 12.0003 29.6219C11.5078 29.6219 11.0846 29.4138 10.7378 29.1363C10.384 28.7894 10.2452 28.3732 10.2452 27.8876C10.2452 27.402 10.4533 26.9857 10.7378 26.6389C10.8765 26.5001 11.1609 26.5001 11.3691 26.6389C11.5772 26.7776 11.5078 27.0551 11.3691 27.2632C11.2303 27.402 11.0916 27.6101 11.0916 27.8876C11.0916 28.1651 11.1609 28.3038 11.3691 28.5119C11.5078 28.6507 11.7922 28.7894 12.0003 28.7894C12.2085 28.7894 12.4235 28.72 12.6316 28.5119C12.7704 28.3732 13.0548 28.3732 13.2629 28.5119C13.4017 28.6507 13.4017 28.9282 13.2629 29.1363ZM13.2629 11.3076C13.1242 11.4464 12.8398 11.4464 12.6316 11.3076C12.2778 10.9608 11.7159 10.9608 11.3691 11.3076C11.2303 11.4464 11.0916 11.6545 11.0916 11.932C11.0916 12.1401 11.1609 12.3482 11.3691 12.5563C11.5078 12.6951 11.5078 12.9725 11.3691 13.1807C11.2997 13.25 11.2303 13.3194 11.0916 13.3194C10.9528 13.3194 10.8835 13.25 10.8071 13.1807C10.4603 12.8338 10.3146 12.4176 10.3146 11.932C10.3146 11.4464 10.5227 11.0301 10.8071 10.6833C11.5078 9.98954 12.6316 9.98954 13.2629 10.6833C13.4017 10.8914 13.4017 11.1689 13.2629 11.3076ZM14.7336 16.6493C14.8724 16.4412 15.1568 16.3718 15.3649 16.5105L20.4152 19.8404L25.4655 18.1755C25.6736 18.1061 25.958 18.2448 26.0274 18.453C26.0968 18.6611 25.958 18.9386 25.743 19.0079L20.4776 20.7422C20.4083 20.7422 20.4083 20.7422 20.3389 20.7422C20.2695 20.7422 20.2001 20.7422 20.1308 20.6729L14.8654 17.2043C14.6642 17.1349 14.5949 16.8574 14.7336 16.6493ZM18.3132 31.2174C18.3132 31.0093 18.5213 30.8012 18.7364 30.8012C18.9514 30.8012 19.1596 31.0093 19.1596 31.2174C19.1596 31.703 19.5827 32.1193 20.0753 32.1193C20.5678 32.1193 20.991 31.703 20.991 31.2174C20.991 31.0093 21.1991 30.8012 21.4142 30.8012C21.6223 30.8012 21.8373 31.0093 21.8373 31.2174C21.8373 32.1886 21.0673 32.9517 20.0822 32.9517C19.0971 32.9517 18.3132 32.1193 18.3132 31.2174Z" fill="white"/>
<path d="M20 0.83226C20.2081 0.83226 20.4232 0.624143 20.4232 0.416027C20.4232 0.20791 20.2151 -0.000206624 20 -0.000206624C8.9837 -0.0695788 0 8.81006 0 19.7709V32.466C0 32.6741 0.208117 32.8822 0.42317 32.8822C0.631287 32.8822 0.846341 32.6741 0.846341 32.466V19.7709C0.839403 9.29567 9.47624 0.83226 20 0.83226Z" fill="white"/>
<path d="M0.42317 34.686C0.208117 34.686 0 34.8942 0 35.1023C0 35.3104 0.208117 35.5185 0.42317 35.5185C0.631287 35.5185 0.846341 35.3104 0.846341 35.1023C0.839403 34.8248 0.700659 34.686 0.42317 34.686Z" fill="white"/>
<path d="M39.5782 6.3822C39.3701 6.3822 39.155 6.59032 39.155 6.79844V20.1179C39.155 30.5237 30.5945 38.9871 20.0638 38.9871C19.8557 38.9871 19.6406 39.1952 19.6406 39.4034C19.6406 39.6115 19.8487 39.8196 20.0638 39.8196C25.3985 39.8196 30.3794 37.7384 34.1672 33.9923C37.8855 30.3156 39.9944 25.3208 39.9944 20.1179V6.79844C40.0014 6.59032 39.7932 6.3822 39.5782 6.3822Z" fill="white"/>
<path d="M39.5764 4.6479C39.7151 4.6479 39.7845 4.57852 39.8539 4.50915C39.9233 4.43978 39.9926 4.30103 39.9926 4.23166C39.9926 4.09292 39.9233 4.02355 39.8539 3.95417C39.7845 3.8848 39.6458 3.81543 39.5764 3.81543C39.4376 3.81543 39.3683 3.8848 39.2989 3.95417C39.2295 4.02355 39.1602 4.16229 39.1602 4.23166C39.1602 4.37041 39.2295 4.43978 39.2989 4.50915C39.3683 4.57852 39.4376 4.6479 39.5764 4.6479Z" fill="white"/>
</g>
<defs>
<clipPath id="clip0_403_13157">
<rect width="40" height="39.8196" fill="white"/>
</clipPath>
</defs>
</svg>
