<svg width="74" height="73" viewBox="0 0 74 73" fill="none" xmlns="http://www.w3.org/2000/svg">
<path fill-rule="evenodd" clip-rule="evenodd" d="M37.021 65.458C31.4462 65.458 25.9965 63.8049 21.3612 60.7076C16.7258 57.6104 13.113 53.2082 10.9796 48.0577C8.84621 42.9072 8.28802 37.2397 9.37562 31.772C10.4632 26.3043 13.1478 21.2818 17.0898 17.3398C21.0318 13.3978 26.0543 10.7132 31.522 9.62562C36.9897 8.53802 42.6572 9.09621 47.8077 11.2296C52.9582 13.363 57.3604 16.9758 60.4576 21.6112C63.5549 26.2465 65.208 31.6962 65.208 37.271C65.1995 44.7441 62.2271 51.9086 56.9429 57.1929C51.6586 62.4771 44.4941 65.4495 37.021 65.458ZM42.203 52.258C44.181 51.5687 46.0038 50.4963 47.5671 49.1022C49.1304 47.7081 50.4036 46.0195 51.314 44.133H44.858C44.5397 46.1553 44.0067 48.1378 43.268 50.047C42.9671 50.8082 42.6112 51.5465 42.203 52.256V52.258ZM22.728 44.131C23.6384 46.0175 24.9117 47.706 26.475 49.1002C28.0383 50.4943 29.861 51.5667 31.839 52.256C31.4308 51.5458 31.0749 50.8069 30.774 50.045C30.0353 48.1358 29.5022 46.1533 29.184 44.131H22.728ZM31.839 22.284C29.861 22.9733 28.0383 24.0457 26.4749 25.4398C24.9116 26.834 23.6384 28.5225 22.728 30.409H29.184C29.5022 28.3868 30.0353 26.4042 30.774 24.495C31.0748 23.7331 31.4307 22.9941 31.839 22.284ZM37.021 21.414C35.865 21.414 34.509 23.014 33.481 25.578C32.8757 27.14 32.4271 28.7583 32.142 30.409H41.899C41.6139 28.7603 41.1657 27.1441 40.561 25.584C39.534 23.012 38.177 21.416 37.021 21.416V21.414ZM21.166 37.271C21.1663 38.6015 21.3343 39.9266 21.666 41.215H28.818C28.702 39.932 28.641 38.615 28.641 37.271C28.641 35.927 28.702 34.61 28.818 33.327H21.662C21.3303 34.6154 21.1623 35.9406 21.162 37.271H21.166ZM31.741 41.215H42.302C42.425 39.94 42.489 38.615 42.489 37.271C42.489 35.927 42.425 34.602 42.302 33.327H31.741C31.618 34.602 31.554 35.927 31.554 37.271C31.554 38.615 31.617 39.94 31.741 41.215ZM37.021 53.126C38.177 53.126 39.533 51.526 40.561 48.962C41.1664 47.4001 41.615 45.7818 41.9 44.131H32.142C32.4271 45.7817 32.8757 47.4 33.481 48.962C34.509 51.531 35.865 53.126 37.021 53.126ZM52.876 37.271C52.8757 35.9406 52.7077 34.6154 52.376 33.327H45.227C45.343 34.61 45.404 35.927 45.404 37.271C45.404 38.615 45.343 39.932 45.227 41.215H52.379C52.7097 39.9264 52.8767 38.6013 52.876 37.271ZM51.314 30.411C50.4039 28.5242 49.1307 26.8352 47.5674 25.4407C46.004 24.0462 44.1812 22.9735 42.203 22.284C42.6112 22.9942 42.9671 23.7331 43.268 24.495C44.0068 26.4042 44.5398 28.3868 44.858 30.409H51.314V30.411ZM55.792 37.271C55.792 40.9836 54.6911 44.6127 52.6285 47.6996C50.5659 50.7865 47.6343 53.1924 44.2044 54.6132C40.7744 56.0339 37.0002 56.4056 33.359 55.6813C29.7178 54.957 26.3731 53.1693 23.7479 50.5441C21.1227 47.9189 19.335 44.5743 18.6107 40.9331C17.8864 37.2918 18.2581 33.5176 19.6789 30.0877C21.0996 26.6577 23.5055 23.7261 26.5924 21.6635C29.6793 19.6009 33.3085 18.5 37.021 18.5C41.9976 18.5058 46.7687 20.4854 50.2877 24.0043C53.8067 27.5233 55.7862 32.2944 55.792 37.271Z" fill="#202020"/>
</svg>
