<svg width="40" height="39" viewBox="0 0 40 39" fill="none" xmlns="http://www.w3.org/2000/svg">
<g clip-path="url(#clip0_403_13141)">
<path d="M22.0712 17.7901C22.0712 16.6088 21.0844 15.6359 19.8891 15.6359C18.6938 15.6359 17.707 16.6088 17.707 17.7901C17.707 18.9715 18.6938 19.9444 19.8891 19.9444C21.0913 19.9444 22.0712 18.9715 22.0712 17.7901Z" fill="white"/>
<path d="M15.4629 25.8513V22.9326C15.4629 21.5427 16.4497 20.3614 17.7839 20.0834C17.1515 19.5274 16.7971 18.6935 16.7971 17.8596C16.7971 16.1918 18.2009 14.8019 19.8895 14.8019C21.5782 14.8019 22.982 16.1918 22.982 17.8596C22.982 18.763 22.5581 19.5274 21.9952 20.0834C23.3364 20.3614 24.3232 21.5427 24.3232 22.9326V25.8513C27.4156 24.253 29.5977 21.0563 29.5977 17.3732V0H10.1953V17.3732C10.1953 21.0563 12.3704 24.3224 15.4629 25.8513ZM21.0223 2.57123H21.9396C22.1481 2.57123 22.3635 2.77971 22.3635 2.98819C22.3635 3.19666 22.155 3.40514 21.9396 3.40514H21.0223C20.8138 3.40514 20.5984 3.19666 20.5984 2.98819C20.5289 2.77971 20.7374 2.57123 21.0223 2.57123ZM13.2877 2.57123H18.4163C18.6248 2.57123 18.8402 2.77971 18.8402 2.98819C18.8402 3.19666 18.6317 3.40514 18.4163 3.40514H13.2877C13.0793 3.40514 12.8638 3.19666 12.8638 2.98819C12.7943 2.77971 13.0028 2.57123 13.2877 2.57123ZM13.2877 5.21195H21.9326C22.1411 5.21195 22.3565 5.42043 22.3565 5.62891C22.3565 5.83739 22.1481 6.04586 21.9326 6.04586H13.2877C13.0793 6.04586 12.8638 5.83739 12.8638 5.62891C12.7943 5.42043 13.0028 5.21195 13.2877 5.21195ZM13.2877 7.78318H26.5052C26.7137 7.78318 26.9292 7.99166 26.9292 8.20014C26.9292 8.40862 26.7207 8.61709 26.5052 8.61709H13.2877C13.0793 8.61709 12.8638 8.40862 12.8638 8.20014C12.7943 7.99166 13.0028 7.78318 13.2877 7.78318ZM12.7943 10.8409C12.7943 10.6324 13.0028 10.4239 13.2182 10.4239H26.4358C26.6442 10.4239 26.8597 10.6324 26.8597 10.8409C26.8597 11.0493 26.6512 11.2578 26.4358 11.2578H13.2877C13.0028 11.2578 12.7943 11.1188 12.7943 10.8409Z" fill="white"/>
<path d="M16.3086 22.9326V26.2683C17.08 26.5462 17.9278 26.7547 18.8381 26.8937C18.9076 26.8937 18.9771 26.8937 19.0466 26.8937C19.1161 26.8937 19.1856 26.8937 19.2551 26.8937C19.2551 26.8937 19.2551 26.8937 19.3246 26.8937C19.3941 26.8937 19.4636 26.8937 19.5331 26.8937H19.6025C19.672 26.8937 19.7415 26.8937 19.811 26.8937C19.8805 26.8937 19.95 26.8937 20.0195 26.8937H20.089C20.1585 26.8937 20.228 26.8937 20.2975 26.8937C20.2975 26.8937 20.2975 26.8937 20.367 26.8937C20.4365 26.8937 20.506 26.8937 20.5754 26.8937C20.6449 26.8937 20.7144 26.8937 20.7839 26.8937C21.7012 26.8242 22.5421 26.6157 23.3135 26.2683V22.9326C23.3135 21.7512 22.3962 20.8478 21.2009 20.8478H18.4142C17.2884 20.8478 16.3086 21.7512 16.3086 22.9326ZM18.5602 23.4191H21.2287C21.4372 23.4191 21.6526 23.6275 21.6526 23.836C21.6526 24.0445 21.4441 24.253 21.2287 24.253H18.5602C18.3517 24.253 18.1363 24.0445 18.1363 23.836C18.1363 23.6275 18.2752 23.4191 18.5602 23.4191Z" fill="white"/>
<path d="M30.6549 16.4698C30.5854 16.4698 30.4464 16.4698 30.3699 16.4003V17.3732C30.3699 21.6817 27.7709 25.3648 23.9697 26.9632C23.9697 26.9632 23.9697 26.9632 23.9002 26.9632C22.7049 27.4496 21.3706 27.7276 20.0364 27.7971C19.9669 27.7971 19.8279 27.7971 19.7584 27.7971C19.6889 27.7971 19.5499 27.7971 19.4804 27.7971C18.1462 27.7971 16.8814 27.5191 15.6166 26.9632C15.6166 26.9632 15.6166 26.9632 15.5472 26.9632C11.8223 25.3648 9.14688 21.6817 9.14688 17.3732V16.4698H5.48461L0.140625 17.6511V20.7088L5.48461 21.8902C5.6236 21.9597 5.76258 22.0292 5.83903 22.2377C6.19344 23.836 6.82582 25.2953 7.66668 26.6852C7.73618 26.8242 7.73618 27.0326 7.66668 27.1716L4.71324 31.7582L6.89532 33.9124L11.5374 30.9937C11.6764 30.9242 11.8918 30.9242 12.0308 30.9937C13.4346 31.8971 14.9148 32.4531 16.527 32.8005C16.666 32.87 16.805 32.9395 16.8814 33.148L18.0697 38.4295H21.1622L22.3574 33.148C22.4269 33.009 22.4964 32.87 22.7119 32.8005C24.331 32.4531 25.8043 31.8276 27.208 30.9937C27.347 30.9242 27.5624 30.9242 27.7014 30.9937L32.3435 33.9124L34.5256 31.7582L31.5722 27.1716C31.5027 27.0326 31.5027 26.8242 31.5722 26.6852C32.4895 25.2953 33.0524 23.836 33.3998 22.2377C33.4693 22.0987 33.5388 21.9597 33.7473 21.8902L39.0913 20.7088V17.6511L33.7473 16.4698H30.6549Z" fill="white"/>
<path d="M38.1011 12.7171C38.1706 12.7866 38.2401 12.7866 38.3096 12.7866C38.4486 12.7866 38.5875 12.7171 38.664 12.5782C39.5049 11.1883 39.9983 9.65947 39.9983 8.13063C39.9983 6.60179 39.5049 5.07295 38.664 3.6831C38.525 3.47462 38.2401 3.40512 38.0316 3.54411C37.8231 3.6831 37.7536 3.96107 37.8926 4.16954C38.664 5.42041 39.0879 6.74077 39.0879 8.13063C39.0879 9.52048 38.664 10.9103 37.8926 12.1612C37.8162 12.3002 37.8857 12.5782 38.1011 12.7171Z" fill="white"/>
<path d="M35.6432 10.9798C35.7127 11.0493 35.7822 11.0493 35.8517 11.0493C35.9907 11.0493 36.1297 10.9798 36.2061 10.8409C36.6995 10.0069 36.908 9.10354 36.908 8.13064C36.908 7.22724 36.6231 6.32383 36.2061 5.48992C36.0671 5.28144 35.7822 5.21195 35.5737 5.35093C35.3653 5.48992 35.2888 5.76789 35.4348 5.97637C35.8587 6.6713 36.0671 7.43571 36.0671 8.20013C36.0671 8.96455 35.8587 9.72897 35.4348 10.4934C35.3583 10.6324 35.4278 10.8409 35.6432 10.9798Z" fill="white"/>
<path d="M1.75817 12.7867C1.82766 12.7867 1.89715 12.7867 1.96664 12.7172C2.17512 12.5782 2.24461 12.3002 2.10563 12.0917C1.33426 10.8409 0.910354 9.52052 0.910354 8.13066C0.910354 6.74081 1.33426 5.35096 2.10563 4.10009C2.24461 3.89161 2.17512 3.61364 1.96664 3.47465C1.75817 3.33567 1.47325 3.40516 1.33426 3.61364C0.493398 5.00349 0 6.53233 0 8.06117C0 9.59001 0.493398 11.1188 1.33426 12.5087C1.47325 12.7172 1.61918 12.7867 1.75817 12.7867Z" fill="white"/>
<path d="M4.21953 11.0493C4.28902 11.0493 4.35852 11.0493 4.42801 10.9799C4.63649 10.8409 4.70598 10.5629 4.567 10.3544C4.14309 9.65949 3.93461 8.89507 3.93461 8.13065C3.93461 7.36623 4.14309 6.60181 4.567 5.83739C4.70598 5.62891 4.63649 5.35094 4.42801 5.21196C4.21953 5.07297 3.93461 5.14246 3.79563 5.35094C3.30223 6.18485 3.09375 7.08826 3.09375 8.06116C3.09375 8.96456 3.37172 9.86797 3.79563 10.7019C3.93461 10.9799 4.08055 11.0493 4.21953 11.0493Z" fill="white"/>
</g>
<defs>
<clipPath id="clip0_403_13141">
<rect width="40" height="38.4295" fill="white"/>
</clipPath>
</defs>
</svg>
