<svg width="40" height="40" viewBox="0 0 40 40" fill="none" xmlns="http://www.w3.org/2000/svg">
<g clip-path="url(#clip0_403_13199)">
<path d="M23.6471 14.4405C23.6471 12.24 21.8386 10.4521 19.6107 10.4521C17.3827 10.4521 15.5742 12.24 15.5742 14.4405C15.5742 16.5034 17.1764 18.2225 19.1912 18.4288V13.9591C19.1912 13.7528 19.3975 13.5465 19.6107 13.5465C19.817 13.5465 20.0301 13.7528 20.0301 13.9591V18.4288C22.0518 18.2225 23.6471 16.5034 23.6471 14.4405Z" fill="white"/>
<path d="M16.0703 32.8004C16.0703 33.4881 16.6273 34.1069 17.3906 34.1069H21.7021C22.3966 34.1069 23.0223 33.5568 23.0223 32.8004C23.0223 32.044 22.3966 31.5627 21.7021 31.5627H17.3218C16.6273 31.5627 16.0703 32.1128 16.0703 32.8004Z" fill="white"/>
<path d="M2.57027 25.5114C3.26478 25.5114 3.89054 24.9613 3.89054 24.2049C3.89054 23.4485 3.33355 22.8984 2.57027 22.8984C1.80699 22.8984 1.25 23.4485 1.25 24.2049C1.25 24.9613 1.87575 25.5114 2.57027 25.5114Z" fill="white"/>
<path d="M9.249 16.7096C9.52406 17.8786 10.0123 19.0476 10.638 20.0103C10.7068 20.1478 10.7068 20.3541 10.638 20.4917L8.47884 23.9299L10.0123 25.4427L13.4917 23.311C13.5605 23.2422 13.6293 23.2422 13.698 23.2422C13.7668 23.2422 13.8356 23.2422 13.9043 23.311C15.2246 24.1362 15.9947 25.5114 15.9947 27.0242V29.3622C15.9947 30.0499 16.5517 30.6687 17.315 30.6687H19.1235V19.2539C16.6205 19.0476 14.6745 16.9847 14.6745 14.4404C14.6745 11.7586 16.9024 9.55819 19.6117 9.55819C22.321 9.55819 24.549 11.7586 24.549 14.4404C24.549 16.9847 22.603 19.0476 20.1 19.2539V30.6687H21.7022C22.3967 30.6687 23.0224 30.1186 23.0224 29.3622V27.1618C23.0224 25.649 23.8545 24.2049 25.106 23.4485C25.1747 23.3797 25.2435 23.3798 25.3123 23.311C25.4498 23.2422 25.663 23.2422 25.8005 23.311L29.2799 25.4427L30.8134 23.9299L28.6542 20.4917C28.5854 20.3541 28.5854 20.1478 28.6542 20.0103C29.3487 18.9789 29.7682 17.8786 30.0432 16.7096C30.112 16.5721 30.1808 16.4346 30.3939 16.3658L34.3616 15.4719V13.2714L30.4008 12.3775C30.2633 12.3088 30.1257 12.24 30.0501 12.0337C29.775 10.8647 29.2868 9.76448 28.6611 8.73302C28.5923 8.5955 28.5923 8.3892 28.6611 8.25168L30.8203 4.81348L29.2181 3.4382L25.7386 5.63865C25.6011 5.70741 25.3879 5.70741 25.2504 5.63865C24.2052 5.01977 23.0912 4.53842 21.9084 4.26337C21.7709 4.1946 21.6334 4.12584 21.5578 3.91955L20.6569 0H18.429L17.5213 3.91955C17.4525 4.05707 17.3838 4.1946 17.1706 4.26337C15.9879 4.53842 14.8051 5.01977 13.8287 5.63865C13.6912 5.70741 13.478 5.70741 13.3405 5.63865L9.87475 3.4382L8.48572 4.95101L10.6449 8.3892C10.7137 8.52673 10.7137 8.73302 10.6449 8.87055C9.95039 9.90201 9.53093 11.0022 9.25588 12.1712C9.18711 12.3088 9.11835 12.4463 8.90518 12.515L4.9375 13.409V15.6094L8.90518 16.5034C9.11147 16.4346 9.18024 16.5721 9.249 16.7096Z" fill="white"/>
<path d="M37.3545 7.4953C38.5372 7.4953 39.5137 6.5326 39.5137 5.36362C39.5137 4.19463 38.5372 3.23193 37.3545 3.23193C36.1718 3.23193 35.1953 4.19463 35.1953 5.36362C35.1953 6.5326 36.1718 7.4953 37.3545 7.4953Z" fill="white"/>
<path d="M36.9401 38.4391H21.2825V35.0009H17.8099V38.4391H3.89212C3.68582 38.4391 3.47266 38.6453 3.47266 38.8516C3.47266 39.0579 3.67895 39.2642 3.89212 39.2642H36.9332C37.1395 39.2642 37.3527 39.0579 37.3527 38.8516C37.3527 38.5766 37.1464 38.4391 36.9401 38.4391Z" fill="white"/>
<path d="M39.5102 35.0009H28.2398C28.0335 35.0009 27.8203 35.2071 27.8203 35.4134C27.8203 35.6197 28.0266 35.826 28.2398 35.826H39.579C39.7852 35.826 39.9984 35.6197 39.9984 35.4134C39.9984 35.1384 39.7852 35.0009 39.5102 35.0009Z" fill="white"/>
<path d="M12.1712 35.4134C12.1712 35.2071 11.9649 35.0009 11.7518 35.0009H0.41946C0.206292 35.0009 0 35.2071 0 35.4134C0 35.6197 0.206292 35.826 0.41946 35.826H11.7586C11.9649 35.826 12.1712 35.6197 12.1712 35.4134Z" fill="white"/>
</g>
<defs>
<clipPath id="clip0_403_13199">
<rect width="40" height="39.2642" fill="white"/>
</clipPath>
</defs>
</svg>
